<?xml version="1.0" encoding="utf-8"?>
<!-- Generator: Adobe Illustrator 16.0.0, SVG Export Plug-In . SVG Version: 6.00 Build 0)  -->
<!DOCTYPE svg PUBLIC "-//W3C//DTD SVG 1.1//EN" "http://www.w3.org/Graphics/SVG/1.1/DTD/svg11.dtd">
<svg version="1.1" xmlns="http://www.w3.org/2000/svg" xmlns:xlink="http://www.w3.org/1999/xlink" x="0px" y="0px" width="140px"
	 height="140px" viewBox="0 0 140 140" style="enable-background:new 0 0 140 140;" xml:space="preserve">
<style type="text/css">
<![CDATA[
	.st0{clip-path:url(#SVGID_28_);fill:none;stroke:#34A157;stroke-width:4.3661;stroke-miterlimit:10;}
	.st1{fill:none;stroke:#272525;stroke-width:4;stroke-miterlimit:10;}
	.st2{fill:#7CC7EA;}
	.st3{clip-path:url(#SVGID_26_);fill:none;stroke:#32367C;stroke-width:6;stroke-miterlimit:10;}
	.st4{fill:none;stroke:#32367C;stroke-width:4;stroke-miterlimit:10;}
	.st5{fill:none;stroke:#FAEC34;stroke-width:6.5491;stroke-miterlimit:10;}
	.st6{fill:#FFFFFF;stroke:#C72A7D;stroke-width:6;stroke-miterlimit:10;}
	.st7{clip-path:url(#SVGID_8_);fill:none;stroke:#000000;stroke-width:4;stroke-miterlimit:10;}
	.st8{clip-path:url(#SVGID_34_);fill:#7CC7EA;}
	.st9{fill:none;stroke:#000000;stroke-width:5;stroke-miterlimit:10;}
	.st10{clip-path:url(#SVGID_10_);fill:none;stroke:#000000;stroke-width:4;stroke-miterlimit:10;}
	.st11{fill:#FFFF66;stroke:#000000;stroke-width:4;stroke-miterlimit:10;}
	.st12{clip-path:url(#SVGID_16_);fill:none;stroke:#C72A7D;stroke-width:6;stroke-miterlimit:10;}
	.st13{fill:#F8EB35;stroke:#F8EB35;stroke-width:3.5625;stroke-miterlimit:10;}
	.st14{fill:none;stroke:#C72A7D;stroke-width:4;stroke-miterlimit:10;}
	.st15{fill:none;stroke:#C72B7D;stroke-width:4;stroke-miterlimit:10;}
	.st16{fill:#83C698;}
	.st17{clip-path:url(#SVGID_18_);fill:none;stroke:#000000;stroke-width:6;stroke-miterlimit:10;}
	.st18{clip-path:url(#SVGID_18_);fill:#34A156;}
	.st19{clip-path:url(#SVGID_22_);fill:none;stroke:#FAEC34;stroke-width:4;stroke-miterlimit:10;}
	.st20{fill:none;stroke:#D1EBF7;stroke-width:6;stroke-miterlimit:10;}
	.st21{clip-path:url(#SVGID_18_);fill:none;stroke:#34A156;stroke-width:6;stroke-miterlimit:10;}
	.st22{clip-path:url(#SVGID_26_);fill:none;stroke:#27A2DC;stroke-width:6.5491;stroke-miterlimit:10;}
	.st23{fill:none;stroke:#27A2DC;stroke-width:4.3661;stroke-miterlimit:10;}
	.st24{fill:#FFFFFF;stroke:#000000;stroke-width:6;stroke-miterlimit:10;}
	.st25{clip-path:url(#SVGID_24_);fill:none;stroke:#C72B7D;stroke-width:6;stroke-miterlimit:10;}
	.st26{fill:#FFFFFF;stroke:#34A156;stroke-width:6;stroke-miterlimit:10;}
	.st27{fill:none;stroke:#FFFFFF;stroke-miterlimit:10;}
	.st28{clip-path:url(#SVGID_16_);fill:#DD7FAF;}
	.st29{clip-path:url(#SVGID_18_);fill:#D4EBDB;}
	.st30{clip-path:url(#SVGID_32_);fill:#F2D2E3;}
	.st31{fill:#FAEC34;stroke:#000000;stroke-width:4;stroke-miterlimit:10;}
	.st32{fill:none;stroke:#7CC7EA;stroke-width:6;stroke-miterlimit:10;}
	.st33{clip-path:url(#SVGID_16_);fill:none;stroke:#000000;stroke-width:6;stroke-miterlimit:10;}
	.st34{fill:none;stroke:#000000;stroke-width:4;stroke-miterlimit:10;}
	.st35{opacity:0.25;fill:none;stroke:#3399CC;stroke-width:6;stroke-miterlimit:10;}
	.st36{fill:none;stroke:#34A156;stroke-width:4;stroke-miterlimit:10;}
	.st37{clip-path:url(#SVGID_28_);fill:none;stroke:#32367C;stroke-width:4;stroke-miterlimit:10;}
	.st38{fill:none;stroke:#000000;stroke-width:2.25;stroke-miterlimit:10;}
	.st39{clip-path:url(#SVGID_22_);fill:none;stroke:#27A2DC;stroke-width:4.3661;stroke-miterlimit:10;}
	.st40{clip-path:url(#SVGID_32_);fill:none;stroke:#C72A7D;stroke-width:6;stroke-miterlimit:10;}
	.st41{fill:#F2D2E3;}
	.st42{fill:#26A1DB;}
	.st43{fill:#27A1DB;}
	.st44{fill:#27A2DC;}
	.st45{opacity:0.25;fill:#3399CC;}
	.st46{fill:#5D5D5D;}
	.st47{fill:#C72A7D;stroke:#000000;stroke-width:4;stroke-miterlimit:10;}
	.st48{fill:#F8EB35;}
	.st49{clip-path:url(#SVGID_32_);fill:#C72A7D;}
	.st50{clip-path:url(#SVGID_8_);}
	.st51{clip-path:url(#SVGID_28_);fill:none;stroke:#C72B7D;stroke-width:4;stroke-miterlimit:10;}
	.st52{clip-path:url(#SVGID_30_);fill:none;stroke:#34A157;stroke-width:6.5645;stroke-miterlimit:10;}
	.st53{clip-path:url(#SVGID_34_);fill:#27A1DB;}
	.st54{clip-path:url(#SVGID_34_);fill:none;stroke:#27A1DB;stroke-width:4;stroke-miterlimit:10;}
	.st55{stroke:#000000;stroke-width:4;stroke-miterlimit:10;}
	.st56{clip-path:url(#SVGID_30_);fill:none;stroke:#32367C;stroke-width:6.0141;stroke-miterlimit:10;}
	.st57{fill:none;stroke:#27A1DB;stroke-width:6;stroke-miterlimit:10;}
	.st58{fill:#FFFFFF;stroke:#C72A7D;stroke-width:4;stroke-miterlimit:10;}
	.st59{fill:#C6C6C6;}
	.st60{fill:#FAEC34;}
	.st61{fill:#C72A7D;}
	.st62{fill:#C72B7D;}
	.st63{fill:none;stroke:#FAEC34;stroke-width:4;stroke-miterlimit:10;}
	.st64{fill:none;stroke:#FFFF66;stroke-width:4;stroke-miterlimit:10;}
	.st65{fill:none;stroke:#000000;stroke-width:3;stroke-miterlimit:10;}
	.st66{clip-path:url(#SVGID_32_);fill:none;stroke:#000000;stroke-width:6;stroke-miterlimit:10;}
	.st67{fill:#FFFFFF;}
	.st68{fill:none;stroke:#33CCFF;stroke-width:6;stroke-miterlimit:10;}
	.st69{fill:none;stroke:#000000;stroke-width:3.8428;stroke-miterlimit:10;}
	.st70{fill:none;stroke:#FAEC34;stroke-width:4.3661;stroke-miterlimit:10;}
	.st71{fill:none;}
	.st72{fill:none;stroke:#3399CC;stroke-width:6;stroke-miterlimit:10;}
	.st73{clip-path:url(#SVGID_24_);fill:none;stroke:#FAEC34;stroke-width:6;stroke-miterlimit:10;}
	.st74{fill:none;stroke:#D1EBF7;stroke-width:4;stroke-miterlimit:10;}
	.st75{clip-path:url(#SVGID_30_);fill:none;stroke:#C72B7D;stroke-width:6.0141;stroke-miterlimit:10;}
	.st76{clip-path:url(#SVGID_14_);fill:none;}
	.st77{fill:#32367C;}
	.st78{clip-path:url(#SVGID_32_);fill:#FFFFFF;stroke:#C72A7D;stroke-width:6;stroke-miterlimit:10;}
	.st79{fill:#3399CC;}
	.st80{fill:#33CCFF;}
	.st81{fill:#FFFFFF;stroke:#000000;stroke-width:4;stroke-miterlimit:10;}
	.st82{clip-path:url(#SVGID_18_);fill:#FFFFFF;stroke:#34A156;stroke-width:6;stroke-miterlimit:10;}
	.st83{fill:#34A156;}
	.st84{fill:#34A157;}
	.st85{clip-path:url(#SVGID_18_);fill:#83C698;}
	.st86{fill:none;stroke:#C72A7D;stroke-width:6;stroke-miterlimit:10;}
	.st87{fill:#FFFFFF;stroke:#34A156;stroke-width:4;stroke-miterlimit:10;}
	.st88{fill:none;stroke:#FFFFFF;stroke-width:4;stroke-miterlimit:10;}
	.st89{clip-path:url(#SVGID_22_);fill:none;stroke:#32367C;stroke-width:4;stroke-miterlimit:10;}
	.st90{clip-path:url(#SVGID_16_);fill:#FFFFFF;stroke:#C72A7D;stroke-width:6;stroke-miterlimit:10;}
	.st91{clip-path:url(#SVGID_16_);fill:#F2D2E3;}
	.st92{fill:none;stroke:#7CC7EA;stroke-width:4;stroke-miterlimit:10;}
	.st93{fill:#D1EBF7;}
	.st94{fill:none;stroke:#34A157;stroke-width:4.3661;stroke-miterlimit:10;}
	.st95{fill:#D4EBDB;}
	.st96{fill:none;stroke:#000000;stroke-width:5.2992;stroke-miterlimit:10;}
	.st97{clip-path:url(#SVGID_22_);fill:none;stroke:#C72B7D;stroke-width:4;stroke-miterlimit:10;}
	.st98{clip-path:url(#SVGID_28_);fill:none;stroke:#FAEC34;stroke-width:4;stroke-miterlimit:10;}
	.st99{clip-path:url(#SVGID_34_);fill:#D1EBF7;}
	.st100{fill:none;stroke:#FFFFFF;stroke-width:1.4794;stroke-miterlimit:10;}
	.st101{clip-path:url(#SVGID_30_);fill:none;stroke:#FAEC34;stroke-width:6.0141;stroke-miterlimit:10;}
	.st102{clip-path:url(#SVGID_14_);fill:none;stroke:#FAEC34;stroke-width:3.6282;stroke-miterlimit:10;}
	.st103{fill:none;stroke:#F8EB35;stroke-width:4;stroke-miterlimit:10;}
	.st104{clip-path:url(#SVGID_32_);fill:#DD7FAF;}
	.st105{clip-path:url(#SVGID_10_);}
	.st106{clip-path:url(#SVGID_12_);}
	.st107{clip-path:url(#SVGID_14_);}
	.st108{clip-path:url(#SVGID_16_);}
	.st109{clip-path:url(#SVGID_18_);}
	.st110{clip-path:url(#SVGID_20_);}
	.st111{clip-path:url(#SVGID_32_);}
	.st112{clip-path:url(#SVGID_34_);}
	.st113{clip-path:url(#SVGID_34_);fill:none;stroke:#000000;stroke-width:4;stroke-miterlimit:10;}
	.st114{clip-path:url(#SVGID_16_);fill:#C72A7D;}
	.st115{fill:none;stroke:#000000;stroke-width:6;stroke-miterlimit:10;}
	.st116{clip-path:url(#SVGID_8_);fill:#FFFFFF;stroke:#000000;stroke-width:4;stroke-miterlimit:10;}
	.st117{fill:none;stroke:#272525;stroke-width:3.5625;stroke-miterlimit:10;}
	.st118{fill:none;stroke:#34A156;stroke-width:6;stroke-miterlimit:10;}
	.st119{fill:none;stroke:#27A1DB;stroke-width:4;stroke-miterlimit:10;}
	.st120{fill:#DD7FAF;}
]]>
</style>
<g id="Layer_1">
	<g>
		<polygon class="st48" points="122,22.738 130,24.672 132,31.604 122,31.604 		"/>
		<polygon class="st48" points="77,97.604 12,97.604 8,89.604 77,89.604 		"/>
		<g>
			<line class="st103" x1="54" y1="34.604" x2="94" y2="34.604"/>
			<line class="st103" x1="36" y1="50.604" x2="111" y2="50.604"/>
			<line class="st103" x1="36" y1="58.604" x2="80" y2="58.604"/>
			<line class="st103" x1="54" y1="74.604" x2="76" y2="74.604"/>
		</g>
		<g>
			<polyline class="st48" points="109,90.604 109,122.658 98.018,114.557 87,122.658 87,90.604 			"/>
			<path class="st48" d="M112.191,77.764l3.071-4.789l-5.055-2.611l0.264-5.686l-5.684,0.264l-2.613-5.055l-4.79,3.07l-4.791-3.07
				l-2.613,5.055l-5.684-0.264l0.264,5.686l-5.055,2.611l3.071,4.789l-3.071,4.791l5.055,2.613l-0.264,5.684l5.684-0.264
				l2.613,5.055l4.791-3.07l4.79,3.07l2.613-5.055l5.684,0.264l-0.264-5.684l5.055-2.613L112.191,77.764z M97.385,84.861
				c-3.919,0-7.096-3.178-7.096-7.096c0-3.92,3.177-7.096,7.096-7.096s7.096,3.176,7.096,7.096
				C104.48,81.684,101.304,84.861,97.385,84.861z"/>
		</g>
		<path class="st1" d="M105,98.604c0,0,7.266,0,7.424,0c5.504,0,9.576-3.998,9.576-9.504c0-0.023,0-57.496,0-57.496h10.009
			c0.009,0,0.025-0.229,0.025-0.4c0-5.506-4.499-9.6-10.003-9.6c-1.109,0-93.352,0-94.461,0c-5.48,0-9.918,4.041-9.958,9.51
			c0.002-0.055,0,58.49,0,58.49H7.698c0.158,5,4.854,9,10.266,9c0.674,0,65.036,0,65.036,0"/>
		<line class="st1" x1="13" y1="89.604" x2="75" y2="89.604"/>
		<line class="st1" x1="122" y1="35.604" x2="122" y2="21.604"/>
		<circle class="st1" cx="93.638" cy="77.059" r="7.096"/>
		<polygon class="st1" points="93.385,61.957 98.175,58.887 100.788,63.941 106.471,63.678 106.207,69.363 111.262,71.975 
			108.191,76.764 111.262,81.555 106.207,84.168 106.471,89.852 100.788,89.588 98.175,94.643 93.385,91.572 88.594,94.643 
			85.981,89.588 80.298,89.852 80.562,84.168 75.507,81.555 78.578,76.764 75.507,71.975 80.562,69.363 80.298,63.678 
			85.981,63.941 88.594,58.887 		"/>
		<polyline class="st1" points="105,89.604 105,121.658 94.018,113.557 83,121.658 83,89.604 		"/>
		<line class="st1" x1="50" y1="36.604" x2="90" y2="36.604"/>
		<line class="st1" x1="32" y1="52.604" x2="107" y2="52.604"/>
		<line class="st1" x1="32" y1="60.604" x2="76" y2="60.604"/>
		<line class="st1" x1="50" y1="76.604" x2="72" y2="76.604"/>
	</g>
</g>
<g id="Layer_2">
	<g>
		<defs>
			<rect id="SVGID_31_" x="-1295" y="-1.396" width="773" height="661"/>
		</defs>
		<clipPath id="SVGID_2_">
			<use xlink:href="#SVGID_31_"  style="overflow:visible;"/>
		</clipPath>
		<g style="clip-path:url(#SVGID_2_);">
			<path class="st86" d="M8.828,262.714c67.298-30.606,192.067-100.11,258.082-214.11h71.584
				c93.29,162,303.879,233.599,303.879,233.599"/>
		</g>
		<path style="clip-path:url(#SVGID_2_);fill:none;stroke:#C72A7D;stroke-width:6;stroke-miterlimit:10;" d="M126.508,11.604h-30
			c8.284,0,15-6.715,15-15s-6.716-15-15-15h-138c-8.284,0-15,6.715-15,15s6.716,15,15,15h-81c-8.284,0-15,6.715-15,15
			s6.716,15,15,15h42c-8.284,0-15,6.715-15,15s6.716,15,15,15h132c8.284,0,15-6.715,15-15s-6.716-15-15-15h75
			c8.284,0,15-6.715,15-15S134.792,11.604,126.508,11.604z"/>
	</g>
</g>
</svg>
