<?xml version="1.0" encoding="utf-8"?>
<!-- Generator: Adobe Illustrator 16.0.0, SVG Export Plug-In . SVG Version: 6.00 Build 0)  -->
<!DOCTYPE svg PUBLIC "-//W3C//DTD SVG 1.1//EN" "http://www.w3.org/Graphics/SVG/1.1/DTD/svg11.dtd">
<svg version="1.1" xmlns="http://www.w3.org/2000/svg" xmlns:xlink="http://www.w3.org/1999/xlink" x="0px" y="0px" width="1920px"
	 height="693px" viewBox="0 0 1920 693" style="enable-background:new 0 0 1920 693;" xml:space="preserve">
<style type="text/css">
<![CDATA[
	.st0{fill:none;stroke:#272525;stroke-width:4;stroke-miterlimit:10;}
	.st1{clip-path:url(#SVGID_18_);fill:none;stroke:#C72A7D;stroke-width:6;stroke-miterlimit:10;}
	.st2{clip-path:url(#SVGID_34_);fill:#DD7FAF;}
	.st3{fill:#7CC7EA;}
	.st4{clip-path:url(#SVGID_18_);fill:#C72A7D;}
	.st5{clip-path:url(#SVGID_20_);fill:#83C698;}
	.st6{fill:none;stroke:#32367C;stroke-width:4;stroke-miterlimit:10;}
	.st7{fill:none;stroke:#FAEC34;stroke-width:6.5491;stroke-miterlimit:10;}
	.st8{clip-path:url(#SVGID_24_);fill:none;stroke:#27A2DC;stroke-width:4.3661;stroke-miterlimit:10;}
	.st9{fill:#FFFFFF;stroke:#C72A7D;stroke-width:6;stroke-miterlimit:10;}
	.st10{clip-path:url(#SVGID_8_);fill:none;stroke:#000000;stroke-width:4;stroke-miterlimit:10;}
	.st11{clip-path:url(#SVGID_24_);fill:none;stroke:#FAEC34;stroke-width:4;stroke-miterlimit:10;}
	.st12{fill:none;stroke:#000000;stroke-width:5;stroke-miterlimit:10;}
	.st13{clip-path:url(#SVGID_10_);fill:none;stroke:#000000;stroke-width:4;stroke-miterlimit:10;}
	.st14{clip-path:url(#SVGID_16_);fill:none;}
	.st15{fill:#FFFF66;stroke:#000000;stroke-width:4;stroke-miterlimit:10;}
	.st16{fill:#F8EB35;stroke:#F8EB35;stroke-width:3.5625;stroke-miterlimit:10;}
	.st17{clip-path:url(#SVGID_10_);fill:#FFFFFF;stroke:#000000;stroke-width:4;stroke-miterlimit:10;}
	.st18{clip-path:url(#SVGID_26_);fill:none;stroke:#C72B7D;stroke-width:6;stroke-miterlimit:10;}
	.st19{fill:none;stroke:#C72A7D;stroke-width:4;stroke-miterlimit:10;}
	.st20{fill:none;stroke:#C72B7D;stroke-width:4;stroke-miterlimit:10;}
	.st21{clip-path:url(#SVGID_32_);fill:none;stroke:#34A157;stroke-width:6.5645;stroke-miterlimit:10;}
	.st22{clip-path:url(#SVGID_32_);fill:none;stroke:#32367C;stroke-width:6.0141;stroke-miterlimit:10;}
	.st23{fill:#83C698;}
	.st24{clip-path:url(#SVGID_18_);fill:none;stroke:#000000;stroke-width:6;stroke-miterlimit:10;}
	.st25{fill:none;stroke:#D1EBF7;stroke-width:6;stroke-miterlimit:10;}
	.st26{fill:none;stroke:#27A2DC;stroke-width:4.3661;stroke-miterlimit:10;}
	.st27{fill:#FFFFFF;stroke:#000000;stroke-width:6;stroke-miterlimit:10;}
	.st28{clip-path:url(#SVGID_34_);fill:none;stroke:#C72A7D;stroke-width:6;stroke-miterlimit:10;}
	.st29{fill:#FFFFFF;stroke:#34A156;stroke-width:6;stroke-miterlimit:10;}
	.st30{fill:none;stroke:#FFFFFF;stroke-miterlimit:10;}
	.st31{fill:#FAEC34;stroke:#000000;stroke-width:4;stroke-miterlimit:10;}
	.st32{fill:none;stroke:#000000;stroke-width:4;stroke-miterlimit:10;}
	.st33{clip-path:url(#SVGID_30_);fill:none;stroke:#FAEC34;stroke-width:4;stroke-miterlimit:10;}
	.st34{clip-path:url(#SVGID_32_);fill:none;stroke:#C72B7D;stroke-width:6.0141;stroke-miterlimit:10;}
	.st35{fill:none;stroke:#34A156;stroke-width:4;stroke-miterlimit:10;}
	.st36{fill:#F2D2E3;}
	.st37{fill:#26A1DB;}
	.st38{fill:#27A1DB;}
	.st39{fill:#27A2DC;}
	.st40{clip-path:url(#SVGID_34_);fill:#FFFFFF;stroke:#C72A7D;stroke-width:6;stroke-miterlimit:10;}
	.st41{fill:#5D5D5D;}
	.st42{fill:#C72A7D;stroke:#000000;stroke-width:4;stroke-miterlimit:10;}
	.st43{clip-path:url(#SVGID_20_);fill:#FFFFFF;stroke:#34A156;stroke-width:6;stroke-miterlimit:10;}
	.st44{clip-path:url(#SVGID_34_);fill:none;stroke:#000000;stroke-width:6;stroke-miterlimit:10;}
	.st45{fill:#F8EB35;}
	.st46{clip-path:url(#SVGID_18_);fill:#DD7FAF;}
	.st47{clip-path:url(#SVGID_8_);}
	.st48{clip-path:url(#SVGID_34_);fill:#F2D2E3;}
	.st49{clip-path:url(#SVGID_18_);fill:#FFFFFF;stroke:#C72A7D;stroke-width:6;stroke-miterlimit:10;}
	.st50{stroke:#000000;stroke-width:4;stroke-miterlimit:10;}
	.st51{fill:none;stroke:#27A1DB;stroke-width:6;stroke-miterlimit:10;}
	.st52{fill:#FFFFFF;stroke:#C72A7D;stroke-width:4;stroke-miterlimit:10;}
	.st53{fill:#C6C6C6;}
	.st54{fill:#FAEC34;}
	.st55{clip-path:url(#SVGID_26_);fill:none;stroke:#FAEC34;stroke-width:6;stroke-miterlimit:10;}
	.st56{fill:#C72A7D;}
	.st57{fill:#C72B7D;}
	.st58{fill:none;stroke:#FAEC34;stroke-width:4;stroke-miterlimit:10;}
	.st59{fill:none;stroke:#FFFF66;stroke-width:4;stroke-miterlimit:10;}
	.st60{clip-path:url(#SVGID_20_);fill:#34A156;}
	.st61{clip-path:url(#SVGID_32_);fill:none;stroke:#FAEC34;stroke-width:6.0141;stroke-miterlimit:10;}
	.st62{clip-path:url(#SVGID_16_);fill:none;stroke:#FAEC34;stroke-width:3.6282;stroke-miterlimit:10;}
	.st63{fill:none;stroke:#000000;stroke-width:3;stroke-miterlimit:10;}
	.st64{fill:#FFFFFF;}
	.st65{fill:none;stroke:#000000;stroke-width:3.8428;stroke-miterlimit:10;}
	.st66{clip-path:url(#SVGID_30_);fill:none;stroke:#34A157;stroke-width:4.3661;stroke-miterlimit:10;}
	.st67{fill:none;stroke:#FAEC34;stroke-width:4.3661;stroke-miterlimit:10;}
	.st68{fill:none;}
	.st69{clip-path:url(#SVGID_34_);fill:#C72A7D;}
	.st70{clip-path:url(#SVGID_24_);fill:none;stroke:#32367C;stroke-width:4;stroke-miterlimit:10;}
	.st71{clip-path:url(#SVGID_20_);fill:#D4EBDB;}
	.st72{fill:none;stroke:#D1EBF7;stroke-width:4;stroke-miterlimit:10;}
	.st73{fill:#32367C;}
	.st74{clip-path:url(#SVGID_20_);fill:none;stroke:#000000;stroke-width:6;stroke-miterlimit:10;}
	.st75{fill:#FFFFFF;stroke:#000000;stroke-width:4;stroke-miterlimit:10;}
	.st76{fill:#34A156;}
	.st77{fill:#34A157;}
	.st78{clip-path:url(#SVGID_24_);fill:none;stroke:#C72B7D;stroke-width:4;stroke-miterlimit:10;}
	.st79{clip-path:url(#SVGID_20_);fill:none;stroke:#34A156;stroke-width:6;stroke-miterlimit:10;}
	.st80{fill:none;stroke:#C72A7D;stroke-width:6;stroke-miterlimit:10;}
	.st81{fill:#FFFFFF;stroke:#34A156;stroke-width:4;stroke-miterlimit:10;}
	.st82{stroke:#000000;stroke-width:3;stroke-miterlimit:10;}
	.st83{fill:none;stroke:#FFFFFF;stroke-width:4;stroke-miterlimit:10;}
	.st84{fill:none;stroke:#7CC7EA;stroke-width:4;stroke-miterlimit:10;}
	.st85{fill:#D1EBF7;}
	.st86{fill:none;stroke:#34A157;stroke-width:4.3661;stroke-miterlimit:10;}
	.st87{fill:#D4EBDB;}
	.st88{fill:none;stroke:#000000;stroke-width:5.2992;stroke-miterlimit:10;}
	.st89{clip-path:url(#SVGID_30_);fill:none;stroke:#32367C;stroke-width:4;stroke-miterlimit:10;}
	.st90{fill:none;stroke:#FFFFFF;stroke-width:1.4794;stroke-miterlimit:10;}
	.st91{clip-path:url(#SVGID_10_);}
	.st92{clip-path:url(#SVGID_12_);}
	.st93{clip-path:url(#SVGID_14_);}
	.st94{clip-path:url(#SVGID_16_);}
	.st95{clip-path:url(#SVGID_18_);}
	.st96{clip-path:url(#SVGID_20_);}
	.st97{clip-path:url(#SVGID_22_);}
	.st98{clip-path:url(#SVGID_34_);}
	.st99{fill:none;stroke:#000000;stroke-width:6;stroke-miterlimit:10;}
	.st100{clip-path:url(#SVGID_18_);fill:#F2D2E3;}
	.st101{clip-path:url(#SVGID_8_);fill:#FFFFFF;stroke:#000000;stroke-width:4;stroke-miterlimit:10;}
	.st102{fill:none;stroke:#272525;stroke-width:3.5625;stroke-miterlimit:10;}
	.st103{clip-path:url(#SVGID_28_);fill:none;stroke:#27A2DC;stroke-width:6.5491;stroke-miterlimit:10;}
	.st104{fill:none;stroke:#34A156;stroke-width:6;stroke-miterlimit:10;}
	.st105{clip-path:url(#SVGID_28_);fill:none;stroke:#32367C;stroke-width:6;stroke-miterlimit:10;}
	.st106{fill:none;stroke:#27A1DB;stroke-width:4;stroke-miterlimit:10;}
	.st107{clip-path:url(#SVGID_30_);fill:none;stroke:#C72B7D;stroke-width:4;stroke-miterlimit:10;}
	.st108{fill:#DD7FAF;}
	.st109{clip-path:url(#SVGID_12_);fill:none;stroke:#000000;stroke-width:4;stroke-miterlimit:10;}
]]>
</style>
<g id="Layer_1">
</g>
<g id="Layer_2">
	<g>
		<defs>
			<rect id="SVGID_17_" width="1920" height="693"/>
		</defs>
		<clipPath id="SVGID_2_">
			<use xlink:href="#SVGID_17_"  style="overflow:visible;"/>
		</clipPath>
		<rect x="1120" y="588" style="clip-path:url(#SVGID_2_);fill:#F2D2E3;" width="57" height="84"/>
		<rect x="1371" y="588" style="clip-path:url(#SVGID_2_);fill:#F2D2E3;" width="57" height="84"/>
		<g style="clip-path:url(#SVGID_2_);">
			<path class="st80" d="M1303.828,296.11C1371.126,265.504,1495.896,196,1561.91,82h71.584
				c93.29,162,303.879,233.599,303.879,233.599"/>
		</g>
		<path style="clip-path:url(#SVGID_2_);fill:#F2D2E3;" d="M1270.011,288.436c147.492,0,262.31-15.898,262.31-15.898l-11.921,18.547
			c0,0-104.663,13.248-250.392,13.248c-145.727,0-250.389-13.248-250.389-13.248l-11.921-18.547
			C1007.698,272.537,1122.513,288.436,1270.011,288.436z"/>
		<path style="clip-path:url(#SVGID_2_);fill:none;stroke:#C72A7D;stroke-width:6;stroke-miterlimit:10;" d="M445.008,82h-46.5
			c8.284,0,15-6.715,15-15s-6.716-15-15-15h-105c-8.284,0-15,6.715-15,15s6.716,15,15,15h-81c-8.284,0-15,6.715-15,15
			s6.716,15,15,15h42c-8.284,0-15,6.715-15,15s6.716,15,15,15h82.5c8.284,0,15-6.715,15-15s-6.716-15-15-15h108
			c8.284,0,15-6.715,15-15S453.292,82,445.008,82z"/>
		<polygon style="clip-path:url(#SVGID_2_);fill:#F2D2E3;" points="268.638,227.375 264.551,184.066 241.523,150.656 
			258.42,128.768 244.879,52.127 183.372,133.365 166.679,128.768 157.257,142.561 52.008,174.24 147.552,205.916 173.454,197.614 
			206.528,227.035 257.057,236.232 215.732,184.066 		"/>
		<polygon style="clip-path:url(#SVGID_2_);fill:#DD7FAF;" points="119.64,164.527 143.052,217.916 172.28,168.416 152.757,154.561 
					"/>
		<polygon style="clip-path:url(#SVGID_2_);fill:#DD7FAF;" points="196.619,148.766 187.872,137.865 211.028,107.287 
			262.92,133.268 		"/>
		<polygon style="clip-path:url(#SVGID_2_);fill:#DD7FAF;" points="178.28,218.573 208.028,245.035 258.557,254.232 
			220.232,205.066 		"/>
		<polygon style="clip-path:url(#SVGID_2_);fill:#DD7FAF;" points="253.523,158.156 229.971,188.666 280.638,234.875 
			276.551,191.566 		"/>
		<polygon style="clip-path:url(#SVGID_2_);fill:#F2D2E3;" points="650.417,292.793 639.709,297.111 643.825,148.035 
			513.981,278.035 512.643,322.719 512.643,322.719 397.321,189.793 480.573,340.115 480.589,340.107 399.208,385.43 
			568.15,401.131 587.282,417.27 590.684,399.783 599.985,408.399 638.487,324.979 700.978,357.166 		"/>
		<polygon style="clip-path:url(#SVGID_2_);fill:#DD7FAF;" points="500.643,303.219 501.981,258.535 627.75,137.532 
			627.709,277.611 618.949,281.146 574.307,322.561 539.19,284.914 		"/>
		<polygon style="clip-path:url(#SVGID_2_);fill:#DD7FAF;" points="370.708,386.93 477.222,329.307 566.786,372.463 539.65,402.631 
					"/>
		<path style="clip-path:url(#SVGID_2_);fill:#F2D2E3;" d="M710.508,181h30c-8.284,0-15-6.715-15-15s6.716-15,15-15h154.5
			c8.284,0,15,6.715,15,15s-6.716,15-15,15h48c8.284,0,15,6.715,15,15s-6.716,15-15,15h-58.5c8.284,0,15,6.715,15,15
			s-6.716,15-15,15h-99c-8.284,0-15-6.715-15-15s6.716-15,15-15h-75c-8.284,0-15-6.715-15-15S702.224,181,710.508,181z"/>
		<path style="clip-path:url(#SVGID_2_);fill:#DD7FAF;" d="M1609.556,594.062c-9.524,11.043-19.564,9.197-19.564,9.197
			s-2.375-10.73,6.229-20.701c8.596-9.961,19.564-9.197,19.564-9.197S1618.151,584.104,1609.556,594.062z"/>
		<path style="clip-path:url(#SVGID_2_);fill:#F2D2E3;" d="M1574.073,481.945c-10.166-10.455-7.449-20.295-7.449-20.295
			s10.897-1.426,20.077,8.018c9.17,9.434,7.447,20.295,7.447,20.295S1583.243,491.379,1574.073,481.945z"/>
		<path style="clip-path:url(#SVGID_2_);fill:#F2D2E3;" d="M1644.747,633.107c2.72-16.834,13.847-21.147,13.847-21.147
			s8.94,9.228,6.482,24.433c-2.452,15.183-13.844,21.146-13.844,21.146S1642.295,648.293,1644.747,633.107z"/>
		<path style="clip-path:url(#SVGID_2_);fill:#DD7FAF;" d="M1726.099,499.379c14.153,9.509,13.421,21.421,13.421,21.421
			s-12.123,4.263-24.905-4.327c-12.765-8.578-13.418-21.42-13.418-21.42S1713.331,490.801,1726.099,499.379z"/>
		<path style="clip-path:url(#SVGID_2_);fill:#F2D2E3;" d="M1727.599,604.082c14.153,9.508,13.421,21.42,13.421,21.42
			s-12.123,4.264-24.905-4.326c-12.765-8.578-13.418-21.421-13.418-21.421S1714.831,595.502,1727.599,604.082z"/>
		<path style="clip-path:url(#SVGID_2_);fill:#F2D2E3;" d="M1528.343,532.684c15.851,6.287,17.662,18.082,17.662,18.082
			s-10.939,6.74-25.254,1.059c-14.297-5.672-17.661-18.082-17.661-18.082S1514.048,527.012,1528.343,532.684z"/>
		<path style="clip-path:url(#SVGID_2_);fill:#F2D2E3;" d="M1067.836,214.016c6.286,13.159,0.562,21.609,0.562,21.609
			s-10.781-2.134-16.456-14.018c-5.669-11.873-0.562-21.613-0.562-21.613S1062.167,202.145,1067.836,214.016z"/>
		<g style="clip-path:url(#SVGID_2_);">
			<g>
				<path class="st108" d="M1502.186,172.482c27.384-26.404,51.85-55.982,71.745-90.482h71.584
					c19.603,34.5,44.382,64.252,71.3,90.478c-7.295,2.842-32.968,10.79-71.3-0.826c0,0-3.463,47.839-36.023,78.146
					c-32.555-30.308-36.018-78.169-36.018-78.169C1535.165,183.236,1509.501,175.331,1502.186,172.482z"/>
			</g>
		</g>
		<path style="clip-path:url(#SVGID_2_);fill:#DD7FAF;" d="M1259.292,550.459c21.494,14.439,20.379,32.527,20.379,32.527
			s-18.409,6.474-37.818-6.57c-19.387-13.025-20.376-32.527-20.376-32.527S1239.905,537.434,1259.292,550.459z"/>
		<rect x="1275" y="340" style="clip-path:url(#SVGID_2_);fill:#C72A7D;" width="21" height="42"/>
		<path style="clip-path:url(#SVGID_2_);fill:none;stroke:#C72A7D;stroke-width:6;stroke-miterlimit:10;" d="M1421.508,45h-30
			c8.284,0,15-6.715,15-15s-6.716-15-15-15h-138c-8.284,0-15,6.715-15,15s6.716,15,15,15h-81c-8.284,0-15,6.715-15,15
			s6.716,15,15,15h42c-8.284,0-15,6.715-15,15s6.716,15,15,15h132c8.284,0,15-6.715,15-15s-6.716-15-15-15h75
			c8.284,0,15-6.715,15-15S1429.792,45,1421.508,45z"/>
		<g style="clip-path:url(#SVGID_2_);">
			<path class="st99" d="M1736.364,346.066c0-18.178-14.736-32.824-32.912-32.824s-32.911,14.49-32.911,32.668
				c0,7.486,2.676,14.143,6.713,19.699c0.163,0.223,26.089,39.205,26.089,39.205s26.191-38.818,26.484-39.234
				C1733.733,360.007,1736.364,353.45,1736.364,346.066z"/>
			<g>
				<path class="st99" d="M1703.074,405.277c0,0,29.733-38.279,29.76-38.316l0.012-0.016c3.921-4.953,9.302-8.836,15.771-10.904
					c17.314-5.532,35.836,4.012,41.37,21.322c5.537,17.318-4.014,35.838-21.325,41.378c-6.659,2.127-13.497,2.016-19.704,0.099
					L1703.074,405.277z"/>
				<path class="st99" d="M1703.074,404.938l46.472,16.762c5.484,2.181,10.449,5.855,14.227,10.941
					c10.835,14.592,7.792,35.205-6.797,46.041c-14.594,10.842-35.209,7.799-46.05-6.791c-4.181-5.631-6.145-12.404-6.328-18.919
					L1703.074,404.938z"/>
			</g>
			<path class="st99" d="M1703.344,405.277l-29.675-38.207c-0.029-0.037-0.059-0.072-0.085-0.109l-0.011-0.016l0,0
				c-3.921-4.953-9.305-8.836-15.773-10.904c-17.312-5.532-35.836,4.012-41.367,21.322c-5.537,17.318,4.014,35.838,21.322,41.378
				c6.659,2.127,13.499,2.016,19.705,0.099L1703.344,405.277z"/>
			<path class="st99" d="M1703.344,404.938l-46.474,16.762c-5.484,2.181-10.447,5.855-14.225,10.941
				c-10.835,14.592-7.794,35.205,6.797,46.041c14.594,10.842,35.21,7.799,46.05-6.791c4.181-5.631,6.284-12.157,6.469-18.672
				L1703.344,404.938z"/>
			<g>
				<circle class="st9" cx="1703.344" cy="405.277" r="9.161"/>
				<line class="st9" x1="1702" y1="397" x2="1702" y2="370"/>
				<line class="st9" x1="1669.415" y1="394.572" x2="1694.183" y2="402.388"/>
				<line class="st9" x1="1737.272" y1="394.572" x2="1712.08" y2="402.521"/>
				<line class="st9" x1="1681.982" y1="433.654" x2="1698.105" y2="412.788"/>
				<line class="st9" x1="1724.449" y1="433.846" x2="1708.582" y2="412.788"/>
				<path class="st9" d="M1703.344,405.277"/>
			</g>
		</g>
		<path style="clip-path:url(#SVGID_2_);fill:none;stroke:#000000;stroke-width:6;stroke-miterlimit:10;" d="M1648.494,573.822
			c0,0,156.063,1.68,339.814-118.303"/>
		<path style="clip-path:url(#SVGID_2_);fill:none;stroke:#000000;stroke-width:6;stroke-miterlimit:10;" d="M1677.021,531.029
			c0,0,14.265,26.555,51.185,33.564"/>
		
			<line style="clip-path:url(#SVGID_2_);fill:none;stroke:#000000;stroke-width:6;stroke-miterlimit:10;" x1="1699.257" y1="531.029" x2="1703.871" y2="557.584"/>
		<path style="clip-path:url(#SVGID_2_);fill:none;stroke:#000000;stroke-width:6;stroke-miterlimit:10;" d="M1648.494,615.774
			c0,0,4.197-32.724,44.048-45.69"/>
		<path style="clip-path:url(#SVGID_2_);fill:none;stroke:#000000;stroke-width:6;stroke-miterlimit:10;" d="M1731,485.178
			c0,0,22.5,59.129,87.401,54.664"/>
		
			<line style="clip-path:url(#SVGID_2_);fill:none;stroke:#000000;stroke-width:6;stroke-miterlimit:10;" x1="1770.765" y1="497.775" x2="1765.729" y2="528.283"/>
		
			<line style="clip-path:url(#SVGID_2_);fill:none;stroke:#000000;stroke-width:6;stroke-miterlimit:10;" x1="1773.302" y1="553.596" x2="1761.765" y2="592.93"/>
		
			<line style="clip-path:url(#SVGID_2_);fill:none;stroke:#000000;stroke-width:6;stroke-miterlimit:10;" x1="1785.677" y1="592.93" x2="1767.533" y2="577.596"/>
		<path style="clip-path:url(#SVGID_2_);fill:none;stroke:#000000;stroke-width:6;stroke-miterlimit:10;" d="M1868.335,520.396
			c0,0-25.385,19.633-19.093,69.674l12.167,11.859"/>
		
			<line style="clip-path:url(#SVGID_2_);fill:none;stroke:#000000;stroke-width:6;stroke-miterlimit:10;" x1="1826.587" y1="566.584" x2="1850.511" y2="553.307"/>
		
			<line style="clip-path:url(#SVGID_2_);fill:none;stroke:#000000;stroke-width:6;stroke-miterlimit:10;" x1="1912.315" y1="499.275" x2="1850.449" y2="489.205"/>
		<path style="clip-path:url(#SVGID_2_);fill:none;stroke:#000000;stroke-width:6;stroke-miterlimit:10;" d="M1858.011,409.496
			c0,0-8.399,36.918,28.518,84.744"/>
		
			<line style="clip-path:url(#SVGID_2_);fill:none;stroke:#000000;stroke-width:6;stroke-miterlimit:10;" x1="1858.705" y1="435.533" x2="1875.835" y2="422.082"/>
		<path style="clip-path:url(#SVGID_2_);fill:none;stroke:#000000;stroke-width:6;stroke-miterlimit:10;" d="M1250.292,556.459
			c21.494,14.439,20.379,32.527,20.379,32.527s-18.409,6.474-37.818-6.57c-19.387-13.025-20.376-32.527-20.376-32.527
			S1230.905,543.434,1250.292,556.459z"/>
		<path style="clip-path:url(#SVGID_2_);fill:#FFFFFF;stroke:#C72A7D;stroke-width:6;stroke-miterlimit:10;" d="M1594.301,544.049
			c-17.251-14.658-14.508-30.264-14.508-30.264s16.626-3.813,32.209,9.424c15.563,13.223,14.511,30.258,14.511,30.258
			S1609.863,557.268,1594.301,544.049z"/>
		<path style="clip-path:url(#SVGID_2_);fill:#FFFFFF;stroke:#C72A7D;stroke-width:6;stroke-miterlimit:10;" d="M1139.42,240.868
			c12.967,11.074,10.869,22.822,10.869,22.822s-12.53,2.841-24.242-7.161c-11.697-9.99-10.869-22.826-10.869-22.826
			S1127.725,230.878,1139.42,240.868z"/>
		<path style="clip-path:url(#SVGID_2_);fill:none;stroke:#000000;stroke-width:6;stroke-miterlimit:10;" d="M1634.247,637.607
			c2.72-16.834,13.847-21.147,13.847-21.147s8.94,9.228,6.482,24.433c-2.452,15.183-13.844,21.146-13.844,21.146
			S1631.795,652.793,1634.247,637.607z"/>
		<path style="clip-path:url(#SVGID_2_);fill:none;stroke:#000000;stroke-width:6;stroke-miterlimit:10;" d="M1729.099,593.582
			c14.153,9.508,13.421,21.42,13.421,21.42s-12.123,4.264-24.905-4.326c-12.765-8.578-13.418-21.421-13.418-21.421
			S1716.331,585.002,1729.099,593.582z"/>
		<path style="clip-path:url(#SVGID_2_);fill:#FFFFFF;stroke:#C72A7D;stroke-width:6;stroke-miterlimit:10;" d="M1809.955,450.023
			c8.291-14.9,20.221-15.168,20.221-15.168s5.262,11.724-2.228,25.18c-7.478,13.439-20.219,15.166-20.219,15.166
			S1802.476,463.461,1809.955,450.023z"/>
		<path style="clip-path:url(#SVGID_2_);fill:none;stroke:#000000;stroke-width:6;stroke-miterlimit:10;" d="M1729.099,490.379
			c14.153,9.509,13.421,21.421,13.421,21.421s-12.123,4.263-24.905-4.327c-12.765-8.578-13.418-21.42-13.418-21.42
			S1716.331,481.801,1729.099,490.379z"/>
		<path style="clip-path:url(#SVGID_2_);fill:#FFFFFF;stroke:#C72A7D;stroke-width:6;stroke-miterlimit:10;" d="M1779.562,634.965
			c13.743-10.092,24.703-5.367,24.703-5.367s-0.1,12.85-12.513,21.965c-12.397,9.104-24.7,5.367-24.7,5.367
			S1767.167,644.068,1779.562,634.965z"/>
		<path style="clip-path:url(#SVGID_2_);fill:none;stroke:#000000;stroke-width:6;stroke-miterlimit:10;" d="M1528.343,541.684
			c15.851,6.287,17.662,18.082,17.662,18.082s-10.939,6.74-25.254,1.059c-14.297-5.672-17.661-18.082-17.661-18.082
			S1514.048,536.012,1528.343,541.684z"/>
		<g style="clip-path:url(#SVGID_2_);">
			<g>
				<polygon class="st99" points="418.708,385.43 587.65,401.131 614.786,370.963 523.588,327.02 				"/>
				<polyline class="st99" points="587.65,401.131 606.782,417.27 616.625,369.463 				"/>
				<line class="st99" x1="566.751" y1="347.285" x2="418.708" y2="385.43"/>
				<line class="st99" x1="656.418" y1="305.355" x2="609.923" y2="401.131"/>
				<line class="st99" x1="717.65" y1="354.969" x2="650.449" y2="300.646"/>
				<polyline class="st99" points="598.222,350.887 650.449,300.646 669.917,292.793 720.478,357.166 657.987,324.979 
					619.485,408.399 609.94,399.558 				"/>
				<polygon class="st99" points="416.821,189.793 500.073,340.115 532.143,322.719 				"/>
				<polyline class="st99" points="608.41,367.891 570.69,304.414 509.959,334.707 				"/>
				<line class="st99" x1="570.69" y1="304.414" x2="605.807" y2="342.061"/>
				<polyline class="st99" points="532.143,322.719 533.481,278.035 663.325,148.035 659.209,297.111 				"/>
				<line class="st99" x1="663.325" y1="148.035" x2="588.246" y2="325.139"/>
			</g>
			<g>
				<polygon class="st99" points="418.708,385.43 587.65,401.131 614.786,370.963 523.588,327.02 				"/>
				<polyline class="st99" points="587.65,401.131 606.782,417.27 616.625,369.463 				"/>
				<line class="st99" x1="566.751" y1="347.285" x2="418.708" y2="385.43"/>
				<line class="st99" x1="656.418" y1="305.355" x2="609.923" y2="401.131"/>
				<line class="st99" x1="717.65" y1="354.969" x2="650.449" y2="300.646"/>
				<polyline class="st99" points="598.222,350.887 650.449,300.646 669.917,292.793 720.478,357.166 657.987,324.979 
					619.485,408.399 609.94,399.558 				"/>
				<polygon class="st99" points="416.821,189.793 500.073,340.115 532.143,322.719 				"/>
				<polyline class="st99" points="608.41,367.891 570.69,304.414 509.959,334.707 				"/>
				<line class="st99" x1="570.69" y1="304.414" x2="605.807" y2="342.061"/>
				<polyline class="st99" points="532.143,322.719 533.481,278.035 663.325,148.035 659.209,297.111 				"/>
				<line class="st99" x1="663.325" y1="148.035" x2="588.246" y2="325.139"/>
			</g>
		</g>
		<path style="clip-path:url(#SVGID_2_);fill:none;stroke:#000000;stroke-width:6;stroke-miterlimit:10;" d="M734.508,192h30
			c-8.284,0-15-6.715-15-15s6.716-15,15-15h154.5c8.284,0,15,6.715,15,15s-6.716,15-15,15h48c8.284,0,15,6.715,15,15
			s-6.716,15-15,15h-58.5c8.284,0,15,6.715,15,15s-6.716,15-15,15h-99c-8.284,0-15-6.715-15-15s6.716-15,15-15h-75
			c-8.284,0-15-6.715-15-15S726.224,192,734.508,192z"/>
		<g style="clip-path:url(#SVGID_2_);">
			<path class="st99" d="M1286.511,295.936c147.492,0,262.31-15.898,262.31-15.898l-11.921,18.547
				c0,0-104.663,13.248-250.392,13.248c-145.727,0-250.389-13.248-250.389-13.248l-11.921-18.547
				C1024.198,280.037,1139.013,295.936,1286.511,295.936z"/>
			<rect x="1132" y="597" class="st99" width="57" height="84"/>
			<path class="st99" d="M1438,349v-13.07c50-3.291,79.258-6.977,79.258-6.977l11.196-29.045c0,0-105.893,12.027-242.038,12.027
				c-136.148,0-242.09-12.027-242.09-12.027l10.649,29.045c0,0,29.024,3.611,77.024,6.877V349h8v27.307l-21-3.533V382h-57v24h78v191
				h42V406h208v191h42V406h78v-24h-57v-9.227l-21,3.533V349H1438z M1189,349v-10.062c24,0.98,50,1.704,77,1.949V382h-62v-9.227
				l-22,3.613V349H1189z M1390,376.387l-22-3.613V382h-63v-41.1c28.5-0.227,54-0.934,76-1.899V349h9V376.387z"/>
			<rect x="1383" y="597" class="st99" width="57" height="84"/>
		</g>
		
			<rect x="1266" y="333" style="clip-path:url(#SVGID_2_);fill:none;stroke:#000000;stroke-width:6;stroke-miterlimit:10;" width="39" height="58"/>
		<path style="clip-path:url(#SVGID_2_);fill:none;stroke:#000000;stroke-width:6;stroke-miterlimit:10;" d="M1253.429,381.744
			c0,43.494-39.381,78.751-87.959,78.751c-48.577,0-87.959-35.257-87.959-78.751"/>
		<path style="clip-path:url(#SVGID_2_);fill:none;stroke:#000000;stroke-width:6;stroke-miterlimit:10;" d="M1491.929,381.744
			c0,43.494-39.381,78.751-87.961,78.751c-48.576,0-87.958-35.257-87.958-78.751"/>
		
			<line style="clip-path:url(#SVGID_2_);fill:none;stroke:#000000;stroke-width:6;stroke-miterlimit:10;" x1="1213" y1="448" x2="1213" y2="477"/>
		
			<line style="clip-path:url(#SVGID_2_);fill:none;stroke:#000000;stroke-width:6;stroke-miterlimit:10;" x1="1356" y1="448" x2="1356" y2="477"/>
		
			<line style="clip-path:url(#SVGID_2_);fill:none;stroke:#000000;stroke-width:6;stroke-miterlimit:10;" x1="1285" y1="415" x2="1285" y2="438"/>
		<rect x="1204" y="477" style="clip-path:url(#SVGID_2_);fill:#C72A7D;" width="18" height="37"/>
		<rect x="1276" y="438" style="clip-path:url(#SVGID_2_);fill:#C72A7D;" width="18" height="37"/>
		<rect x="1347" y="477" style="clip-path:url(#SVGID_2_);fill:#C72A7D;" width="18" height="37"/>
		<path style="clip-path:url(#SVGID_2_);fill:none;stroke:#000000;stroke-width:6;stroke-miterlimit:10;" d="M1578.573,472.945
			c-10.166-10.455-7.449-20.295-7.449-20.295s10.897-1.426,20.077,8.018c9.17,9.434,7.447,20.295,7.447,20.295
			S1587.743,482.379,1578.573,472.945z"/>
		<path style="clip-path:url(#SVGID_2_);fill:#FFFFFF;stroke:#C72A7D;stroke-width:6;stroke-miterlimit:10;" d="M1436.306,534.833
			c-10.802,9.798-20.54,6.743-20.54,6.743s-1.049-10.939,8.706-19.789c9.746-8.838,20.542-6.742,20.542-6.742
			S1446.05,525.996,1436.306,534.833z"/>
		<path style="clip-path:url(#SVGID_2_);fill:none;stroke:#000000;stroke-width:6;stroke-miterlimit:10;" d="M1608.056,603.062
			c-9.524,11.043-19.564,9.197-19.564,9.197s-2.375-10.73,6.229-20.701c8.596-9.961,19.564-9.197,19.564-9.197
			S1616.651,593.104,1608.056,603.062z"/>
		<path style="clip-path:url(#SVGID_2_);fill:#FFFFFF;stroke:#C72A7D;stroke-width:6;stroke-miterlimit:10;" d="M1139.886,516.559
			c12.747,11.332,10.412,23.033,10.412,23.033s-12.583,2.594-24.092-7.643c-11.495-10.219-10.411-23.031-10.411-23.031
			S1128.393,506.34,1139.886,516.559z"/>
		<path style="clip-path:url(#SVGID_2_);fill:none;stroke:#000000;stroke-width:6;stroke-miterlimit:10;" d="M1063.336,218.516
			c6.286,13.159,0.562,21.609,0.562,21.609s-10.781-2.134-16.456-14.018c-5.669-11.873-0.562-21.613-0.562-21.613
			S1057.667,206.645,1063.336,218.516z"/>
		<g style="clip-path:url(#SVGID_2_);">
			<path class="st108" d="M390.835,642.371c-13.307-5.96-14.417-16.109-14.417-16.109s9.601-5.35,21.618,0.037
				c12.009,5.383,14.417,16.109,14.417,16.109S402.841,647.75,390.835,642.371z"/>
			<path class="st108" d="M349.265,573.539c-1.149-20.289-13.805-26.775-13.805-26.775s-11.738,9.837-10.697,28.162
				c1.035,18.302,13.802,26.777,13.802,26.777S350.301,591.845,349.265,573.539z"/>
			<path class="st36" d="M387.012,501.539c-19.406,17.145-36.624,11.49-36.624,11.49s-1.608-19.446,15.923-34.927
				c17.505-15.462,36.621-11.485,36.621-11.485S404.52,486.076,387.012,501.539z"/>
			<path class="st108" d="M281.824,431.525c15.36-7.416,25.269-0.766,25.269-0.766s-2.446,12.615-16.315,19.307
				c-13.852,6.689-25.263,0.762-25.263,0.762S267.973,438.211,281.824,431.525z"/>
			<path class="st36" d="M269.259,372.904c-0.292,20.318,11.877,27.686,11.877,27.686s12.401-8.98,12.665-27.334
				c0.264-18.329-11.874-27.686-11.874-27.686S269.525,354.572,269.259,372.904z"/>
			<path class="st108" d="M268.865,551.016c11.295-9.222,20.865-5.664,20.865-5.664s0.476,10.98-9.728,19.307
				c-10.195,8.32-20.865,5.664-20.865,5.664S258.674,559.332,268.865,551.016z"/>
			<path class="st108" d="M143.716,375.666c7.292-18.97-1.579-30.086-1.579-30.086s-14.745,4.143-21.328,21.277
				c-6.58,17.109,1.576,30.082,1.576,30.082S137.136,392.775,143.716,375.666z"/>
			<path class="st99" d="M347.999,509.352c-64.974,0-242.897-40.004-356.761-136.854"/>
			<path class="st99" d="M323.238,457.994c0,0-17.001,31.646-61.002,40.002"/>
			<line class="st99" x1="296.739" y1="457.994" x2="291.237" y2="488.245"/>
			<path class="st99" d="M344.21,558.01c0,0-6.981-39.342-54.477-54.799"/>
			<path class="st99" d="M243.267,425.203c-14.527,19.707-42.287,41.811-93.029,38.795"/>
			<line class="st99" x1="227.902" y1="489.279" x2="252.762" y2="534.164"/>
			<path class="st99" d="M103.484,443.596c0,0,22.525,17.418,23.886,60.504"/>
			<line class="st99" x1="67.506" y1="424.998" x2="141.24" y2="412.994"/>
			<line class="st99" x1="91.049" y1="419.604" x2="97.333" y2="394.42"/>
			<line class="st99" x1="13.447" y1="391.641" x2="57.258" y2="489.641"/>
			<line class="st99" x1="26.842" y1="423.317" x2="13.447" y2="446.357"/>
			<path class="st99" d="M344.765,563.039c-1.149-20.289-13.805-26.775-13.805-26.775s-11.738,9.837-10.697,28.162
				c1.035,18.302,13.802,26.777,13.802,26.777S345.801,581.345,344.765,563.039z"/>
			<path class="st9" d="M501.17,613.547c-16.869,11.332-15.993,25.529-15.993,25.529s14.446,5.08,29.681-5.158
				c15.215-10.223,15.993-25.529,15.993-25.529S516.387,603.322,501.17,613.547z"/>
			<path class="st99" d="M137.716,369.666c7.292-18.97-1.579-30.086-1.579-30.086s-14.745,4.143-21.328,21.277
				c-6.58,17.109,1.576,30.082,1.576,30.082S131.136,386.775,137.716,369.666z"/>
			<path class="st99" d="M261.759,377.404c-0.292,20.318,11.877,27.686,11.877,27.686s12.401-8.98,12.665-27.334
				c0.264-18.329-11.874-27.686-11.874-27.686S262.025,359.072,261.759,377.404z"/>
			<path class="st9" d="M274.526,613.367c-16.38-12.029-29.44-6.395-29.44-6.395s0.117,15.312,14.912,26.176
				c14.775,10.851,29.438,6.396,29.438,6.396S289.301,624.218,274.526,613.367z"/>
			<g>
				<path class="st99" d="M182.364,529.066c0-18.178-14.736-32.824-32.912-32.824s-32.911,14.49-32.911,32.668
					c0,7.486,2.676,14.143,6.713,19.699c0.163,0.223,26.089,39.205,26.089,39.205s26.191-38.818,26.484-39.234
					C179.733,543.007,182.364,536.45,182.364,529.066z"/>
				<g>
					<path class="st99" d="M149.074,588.277c0,0,29.733-38.279,29.76-38.316l0.012-0.016c3.921-4.953,9.302-8.836,15.771-10.904
						c17.314-5.532,35.836,4.012,41.37,21.322c5.537,17.318-4.014,35.838-21.325,41.378c-6.659,2.127-13.497,2.016-19.704,0.099
						L149.074,588.277z"/>
					<path class="st99" d="M149.074,587.938l46.472,16.762c5.484,2.181,10.449,5.855,14.227,10.941
						c10.835,14.592,7.792,35.205-6.797,46.041c-14.594,10.842-35.209,7.799-46.05-6.791c-4.181-5.631-6.145-12.404-6.328-18.919
						L149.074,587.938z"/>
				</g>
				<path class="st99" d="M149.344,588.277l-29.675-38.207c-0.029-0.037-0.059-0.072-0.085-0.109l-0.012-0.016l0,0
					c-3.921-4.953-9.305-8.836-15.773-10.904c-17.312-5.532-35.836,4.012-41.367,21.322c-5.537,17.318,4.014,35.838,21.322,41.378
					c6.659,2.127,13.499,2.016,19.705,0.099L149.344,588.277z"/>
				<path class="st99" d="M149.344,587.938l-46.474,16.762c-5.484,2.181-10.447,5.855-14.226,10.941
					c-10.835,14.592-7.794,35.205,6.797,46.041c14.594,10.842,35.21,7.799,46.05-6.791c4.181-5.631,6.284-12.157,6.469-18.672
					L149.344,587.938z"/>
				<g>
					<circle class="st9" cx="149.344" cy="588.277" r="9.161"/>
					<line class="st9" x1="148" y1="580" x2="148" y2="553"/>
					<line class="st9" x1="115.415" y1="577.572" x2="140.183" y2="585.388"/>
					<line class="st9" x1="183.272" y1="577.572" x2="158.08" y2="585.521"/>
					<line class="st9" x1="127.982" y1="616.654" x2="144.105" y2="595.788"/>
					<line class="st9" x1="170.449" y1="616.846" x2="154.582" y2="595.788"/>
					<path class="st9" d="M149.344,588.277"/>
				</g>
			</g>
			<line class="st99" x1="204.706" y1="455.584" x2="243.237" y2="454.998"/>
			<path class="st99" d="M379.512,497.039c-19.406,17.145-36.624,11.49-36.624,11.49s-1.608-19.446,15.923-34.927
				c17.505-15.462,36.621-11.485,36.621-11.485S397.02,481.576,379.512,497.039z"/>
			<path class="st9" d="M371.955,563.268c-14.032-9.701-13.138-21.597-13.138-21.597s12.179-4.103,24.844,4.657
				c12.655,8.744,13.134,21.593,13.134,21.593S384.606,572.012,371.955,563.268z"/>
			<path class="st99" d="M268.865,561.516c11.295-9.222,20.865-5.664,20.865-5.664s0.476,10.98-9.728,19.307
				c-10.195,8.32-20.865,5.664-20.865,5.664S258.674,569.832,268.865,561.516z"/>
			<path class="st99" d="M284.824,422.525c15.36-7.416,25.269-0.766,25.269-0.766s-2.446,12.615-16.315,19.307
				c-13.852,6.689-25.263,0.762-25.263,0.762S270.973,429.211,284.824,422.525z"/>
			<path class="st9" d="M185.555,416.334c19.582-5.43,23.232-19.178,23.232-19.178s-12.104-9.377-29.792-4.473
				c-17.666,4.898-23.235,19.176-23.235,19.176S167.886,421.23,185.555,416.334z"/>
			<line class="st99" x1="43.11" y1="457.994" x2="71.508" y2="467.184"/>
			<path class="st99" d="M393.835,631.871c-13.307-5.96-14.417-16.109-14.417-16.109s9.601-5.35,21.618,0.037
				c12.009,5.383,14.417,16.109,14.417,16.109S405.841,637.25,393.835,631.871z"/>
		</g>
		<path style="clip-path:url(#SVGID_2_);fill:#FFFFFF;stroke:#C72A7D;stroke-width:6;stroke-miterlimit:10;" d="M1180.137,589.611
			c-14.575,0.416-19.986-8.238-19.986-8.238s6.319-8.992,19.485-9.367c13.151-0.375,19.986,8.24,19.986,8.24
			S1193.288,589.238,1180.137,589.611z"/>
		<g style="clip-path:url(#SVGID_2_);">
			<path class="st99" d="M1490.186,172.482c27.384-26.404,51.85-55.982,71.745-90.482h71.584c19.603,34.5,44.382,64.252,71.3,90.478
				c-7.295,2.842-32.968,10.79-71.3-0.826c0,0-3.463,47.839-36.023,78.146c-32.555-30.308-36.018-78.169-36.018-78.169
				C1523.165,183.236,1497.501,175.331,1490.186,172.482z"/>
		</g>
		<path style="clip-path:url(#SVGID_2_);fill:#F2D2E3;" d="M1981.008,234h-30c8.284,0,15-6.715,15-15s-6.716-15-15-15h-121.5
			c-8.284,0-15,6.715-15,15s6.716,15,15,15h-114c-8.284,0-15,6.715-15,15s6.716,15,15,15h58.5c-8.284,0-15,6.715-15,15
			s6.716,15,15,15h99c8.284,0,15-6.715,15-15s-6.716-15-15-15h108c8.284,0,15-6.715,15-15S1989.292,234,1981.008,234z"/>
		<path style="clip-path:url(#SVGID_2_);fill:none;stroke:#000000;stroke-width:6;stroke-miterlimit:10;" d="M1960.008,222h-30
			c8.284,0,15-6.715,15-15s-6.716-15-15-15h-121.5c-8.284,0-15,6.715-15,15s6.716,15,15,15h-114c-8.284,0-15,6.715-15,15
			s6.716,15,15,15h58.5c-8.284,0-15,6.715-15,15s6.716,15,15,15h99c8.284,0,15-6.715,15-15s-6.716-15-15-15h108
			c8.284,0,15-6.715,15-15S1968.292,222,1960.008,222z"/>
		<g style="clip-path:url(#SVGID_2_);">
			<polyline class="st99" points="177.952,209.613 211.028,239.035 261.557,248.232 220.232,196.066 			"/>
			<polyline class="st99" points="220.232,196.066 273.138,239.375 269.051,196.066 246.023,162.656 			"/>
			<polygon class="st99" points="187.872,145.365 249.379,64.127 262.92,140.768 220.232,196.066 152.052,217.916 56.508,186.24 
				161.757,154.561 171.179,140.768 			"/>
			<line class="st99" x1="161.757" y1="154.561" x2="220.232" y2="196.066"/>
			<line class="st99" x1="152.052" y1="217.916" x2="181.28" y2="168.416"/>
			<line class="st99" x1="171.179" y1="140.768" x2="220.232" y2="196.066"/>
			<line class="st99" x1="187.872" y1="144.637" x2="220.232" y2="196.066"/>
			<line class="st99" x1="196.619" y1="156.266" x2="262.92" y2="140.768"/>
			<line class="st99" x1="128.64" y1="164.527" x2="152.052" y2="217.916"/>
			<line class="st99" x1="211.028" y1="114.787" x2="262.92" y2="140.768"/>
		</g>
	</g>
</g>
</svg>
