<?xml version="1.0" encoding="utf-8"?>
<!-- Generator: Adobe Illustrator 16.0.0, SVG Export Plug-In . SVG Version: 6.00 Build 0)  -->
<!DOCTYPE svg PUBLIC "-//W3C//DTD SVG 1.1//EN" "http://www.w3.org/Graphics/SVG/1.1/DTD/svg11.dtd">
<svg version="1.1" xmlns="http://www.w3.org/2000/svg" xmlns:xlink="http://www.w3.org/1999/xlink" x="0px" y="0px" width="768px"
	 height="660px" viewBox="0 0 768 660" style="enable-background:new 0 0 768 660;" xml:space="preserve">
<style type="text/css">
<![CDATA[
	.st0{fill:none;stroke:#272525;stroke-width:4;stroke-miterlimit:10;}
	.st1{clip-path:url(#SVGID_18_);fill:none;stroke:#C72A7D;stroke-width:6;stroke-miterlimit:10;}
	.st2{fill:#7CC7EA;}
	.st3{clip-path:url(#SVGID_18_);fill:#C72A7D;}
	.st4{clip-path:url(#SVGID_20_);fill:#83C698;}
	.st5{fill:none;stroke:#32367C;stroke-width:4;stroke-miterlimit:10;}
	.st6{fill:none;stroke:#FAEC34;stroke-width:6.5491;stroke-miterlimit:10;}
	.st7{clip-path:url(#SVGID_24_);fill:none;stroke:#27A2DC;stroke-width:4.3661;stroke-miterlimit:10;}
	.st8{fill:#FFFFFF;stroke:#C72A7D;stroke-width:6;stroke-miterlimit:10;}
	.st9{clip-path:url(#SVGID_8_);fill:none;stroke:#000000;stroke-width:4;stroke-miterlimit:10;}
	.st10{clip-path:url(#SVGID_24_);fill:none;stroke:#FAEC34;stroke-width:4;stroke-miterlimit:10;}
	.st11{fill:none;stroke:#000000;stroke-width:5;stroke-miterlimit:10;}
	.st12{clip-path:url(#SVGID_10_);fill:none;stroke:#000000;stroke-width:4;stroke-miterlimit:10;}
	.st13{clip-path:url(#SVGID_16_);fill:none;}
	.st14{fill:#FFFF66;stroke:#000000;stroke-width:4;stroke-miterlimit:10;}
	.st15{fill:#F8EB35;stroke:#F8EB35;stroke-width:3.5625;stroke-miterlimit:10;}
	.st16{clip-path:url(#SVGID_10_);fill:#FFFFFF;stroke:#000000;stroke-width:4;stroke-miterlimit:10;}
	.st17{clip-path:url(#SVGID_26_);fill:none;stroke:#C72B7D;stroke-width:6;stroke-miterlimit:10;}
	.st18{fill:none;stroke:#C72A7D;stroke-width:4;stroke-miterlimit:10;}
	.st19{fill:none;stroke:#C72B7D;stroke-width:4;stroke-miterlimit:10;}
	.st20{clip-path:url(#SVGID_32_);fill:none;stroke:#34A157;stroke-width:6.5645;stroke-miterlimit:10;}
	.st21{clip-path:url(#SVGID_32_);fill:none;stroke:#32367C;stroke-width:6.0141;stroke-miterlimit:10;}
	.st22{fill:#83C698;}
	.st23{clip-path:url(#SVGID_18_);fill:none;stroke:#000000;stroke-width:6;stroke-miterlimit:10;}
	.st24{fill:none;stroke:#D1EBF7;stroke-width:6;stroke-miterlimit:10;}
	.st25{fill:none;stroke:#27A2DC;stroke-width:4.3661;stroke-miterlimit:10;}
	.st26{fill:#FFFFFF;stroke:#000000;stroke-width:6;stroke-miterlimit:10;}
	.st27{fill:#FFFFFF;stroke:#34A156;stroke-width:6;stroke-miterlimit:10;}
	.st28{fill:none;stroke:#FFFFFF;stroke-miterlimit:10;}
	.st29{fill:#FAEC34;stroke:#000000;stroke-width:4;stroke-miterlimit:10;}
	.st30{fill:none;stroke:#000000;stroke-width:4;stroke-miterlimit:10;}
	.st31{clip-path:url(#SVGID_30_);fill:none;stroke:#FAEC34;stroke-width:4;stroke-miterlimit:10;}
	.st32{clip-path:url(#SVGID_32_);fill:none;stroke:#C72B7D;stroke-width:6.0141;stroke-miterlimit:10;}
	.st33{fill:none;stroke:#34A156;stroke-width:4;stroke-miterlimit:10;}
	.st34{fill:#F2D2E3;}
	.st35{fill:#26A1DB;}
	.st36{fill:#27A1DB;}
	.st37{fill:#27A2DC;}
	.st38{fill:#5D5D5D;}
	.st39{fill:#C72A7D;stroke:#000000;stroke-width:4;stroke-miterlimit:10;}
	.st40{clip-path:url(#SVGID_20_);fill:#FFFFFF;stroke:#34A156;stroke-width:6;stroke-miterlimit:10;}
	.st41{fill:#F8EB35;}
	.st42{clip-path:url(#SVGID_18_);fill:#DD7FAF;}
	.st43{clip-path:url(#SVGID_8_);}
	.st44{clip-path:url(#SVGID_18_);fill:#FFFFFF;stroke:#C72A7D;stroke-width:6;stroke-miterlimit:10;}
	.st45{stroke:#000000;stroke-width:4;stroke-miterlimit:10;}
	.st46{fill:none;stroke:#27A1DB;stroke-width:6;stroke-miterlimit:10;}
	.st47{fill:#FFFFFF;stroke:#C72A7D;stroke-width:4;stroke-miterlimit:10;}
	.st48{fill:#C6C6C6;}
	.st49{fill:#FAEC34;}
	.st50{clip-path:url(#SVGID_26_);fill:none;stroke:#FAEC34;stroke-width:6;stroke-miterlimit:10;}
	.st51{fill:#C72A7D;}
	.st52{fill:#C72B7D;}
	.st53{fill:none;stroke:#FAEC34;stroke-width:4;stroke-miterlimit:10;}
	.st54{fill:none;stroke:#FFFF66;stroke-width:4;stroke-miterlimit:10;}
	.st55{clip-path:url(#SVGID_20_);fill:#34A156;}
	.st56{clip-path:url(#SVGID_32_);fill:none;stroke:#FAEC34;stroke-width:6.0141;stroke-miterlimit:10;}
	.st57{clip-path:url(#SVGID_16_);fill:none;stroke:#FAEC34;stroke-width:3.6282;stroke-miterlimit:10;}
	.st58{fill:none;stroke:#000000;stroke-width:3;stroke-miterlimit:10;}
	.st59{fill:#FFFFFF;}
	.st60{fill:none;stroke:#000000;stroke-width:3.8428;stroke-miterlimit:10;}
	.st61{clip-path:url(#SVGID_30_);fill:none;stroke:#34A157;stroke-width:4.3661;stroke-miterlimit:10;}
	.st62{fill:none;stroke:#FAEC34;stroke-width:4.3661;stroke-miterlimit:10;}
	.st63{fill:none;}
	.st64{clip-path:url(#SVGID_24_);fill:none;stroke:#32367C;stroke-width:4;stroke-miterlimit:10;}
	.st65{clip-path:url(#SVGID_20_);fill:#D4EBDB;}
	.st66{fill:none;stroke:#D1EBF7;stroke-width:4;stroke-miterlimit:10;}
	.st67{fill:#32367C;}
	.st68{clip-path:url(#SVGID_20_);fill:none;stroke:#000000;stroke-width:6;stroke-miterlimit:10;}
	.st69{fill:#FFFFFF;stroke:#000000;stroke-width:4;stroke-miterlimit:10;}
	.st70{fill:#34A156;}
	.st71{fill:#34A157;}
	.st72{clip-path:url(#SVGID_24_);fill:none;stroke:#C72B7D;stroke-width:4;stroke-miterlimit:10;}
	.st73{clip-path:url(#SVGID_20_);fill:none;stroke:#34A156;stroke-width:6;stroke-miterlimit:10;}
	.st74{fill:none;stroke:#C72A7D;stroke-width:6;stroke-miterlimit:10;}
	.st75{fill:#FFFFFF;stroke:#34A156;stroke-width:4;stroke-miterlimit:10;}
	.st76{stroke:#000000;stroke-width:3;stroke-miterlimit:10;}
	.st77{fill:none;stroke:#FFFFFF;stroke-width:4;stroke-miterlimit:10;}
	.st78{fill:none;stroke:#7CC7EA;stroke-width:4;stroke-miterlimit:10;}
	.st79{fill:#D1EBF7;}
	.st80{fill:none;stroke:#34A157;stroke-width:4.3661;stroke-miterlimit:10;}
	.st81{fill:#D4EBDB;}
	.st82{fill:none;stroke:#000000;stroke-width:5.2992;stroke-miterlimit:10;}
	.st83{clip-path:url(#SVGID_30_);fill:none;stroke:#32367C;stroke-width:4;stroke-miterlimit:10;}
	.st84{fill:none;stroke:#FFFFFF;stroke-width:1.4794;stroke-miterlimit:10;}
	.st85{clip-path:url(#SVGID_10_);}
	.st86{clip-path:url(#SVGID_12_);}
	.st87{clip-path:url(#SVGID_14_);}
	.st88{clip-path:url(#SVGID_16_);}
	.st89{clip-path:url(#SVGID_18_);}
	.st90{clip-path:url(#SVGID_20_);}
	.st91{clip-path:url(#SVGID_22_);}
	.st92{fill:none;stroke:#000000;stroke-width:6;stroke-miterlimit:10;}
	.st93{clip-path:url(#SVGID_18_);fill:#F2D2E3;}
	.st94{clip-path:url(#SVGID_8_);fill:#FFFFFF;stroke:#000000;stroke-width:4;stroke-miterlimit:10;}
	.st95{fill:none;stroke:#272525;stroke-width:3.5625;stroke-miterlimit:10;}
	.st96{clip-path:url(#SVGID_28_);fill:none;stroke:#27A2DC;stroke-width:6.5491;stroke-miterlimit:10;}
	.st97{fill:none;stroke:#34A156;stroke-width:6;stroke-miterlimit:10;}
	.st98{clip-path:url(#SVGID_28_);fill:none;stroke:#32367C;stroke-width:6;stroke-miterlimit:10;}
	.st99{fill:none;stroke:#27A1DB;stroke-width:4;stroke-miterlimit:10;}
	.st100{clip-path:url(#SVGID_30_);fill:none;stroke:#C72B7D;stroke-width:4;stroke-miterlimit:10;}
	.st101{fill:#DD7FAF;}
	.st102{clip-path:url(#SVGID_12_);fill:none;stroke:#000000;stroke-width:4;stroke-miterlimit:10;}
]]>
</style>
<g id="Layer_1">
</g>
<g id="Layer_2">
	<g>
		<line class="st24" x1="473.092" y1="553.479" x2="446.37" y2="591.533"/>
		<g>
			<g>
				<line class="st92" x1="513.419" y1="537.809" x2="484.976" y2="578.317"/>
				<line class="st92" x1="477.218" y1="589.365" x2="459.979" y2="613.919"/>
				<line class="st92" x1="451.359" y1="626.194" x2="441.015" y2="640.925"/>
			</g>
			<g>
				<line class="st24" x1="513.419" y1="537.809" x2="484.976" y2="578.317"/>
				<line class="st24" x1="477.218" y1="589.365" x2="459.979" y2="613.919"/>
				<line class="st24" x1="451.359" y1="626.194" x2="441.015" y2="640.925"/>
			</g>
		</g>
		<g>
			<g>
				<line class="st92" x1="518.774" y1="574.559" x2="508.43" y2="589.289"/>
				<line class="st92" x1="503.259" y1="596.654" x2="474.814" y2="637.166"/>
			</g>
			<g>
				<line class="st24" x1="518.774" y1="574.559" x2="508.43" y2="589.289"/>
				<line class="st24" x1="503.259" y1="596.654" x2="474.814" y2="637.166"/>
			</g>
		</g>
		<line class="st24" x1="530.659" y1="599.396" x2="509.109" y2="630.088"/>
	</g>
	<path class="st2" d="M72.681,254.455c0,10.5-8.701,19.436-19.437,19.436c-10.734,0-19.436-8.936-19.436-19.436H72.681z"/>
	<path class="st79" d="M138.681,413.455c0,10.5-8.701,19.436-19.437,19.436c-10.734,0-19.436-8.936-19.436-19.436H138.681z"/>
	<path class="st2" d="M300.68,482.455c0,10.5-8.7,19.436-19.436,19.436c-10.734,0-19.436-8.936-19.436-19.436H300.68z"/>
	<path class="st79" d="M141.681,89.455c0,10.5-8.701,19.436-19.437,19.436c-10.734,0-19.436-8.936-19.436-19.436H141.681z"/>
	<path class="st2" d="M320.18,22.455c0,10-8.7,19.436-19.436,19.436c-10.734,0-19.436-9.436-19.436-19.436H320.18z"/>
	<path class="st79" d="M479.18,89.455c0,10.5-8.7,19.436-19.436,19.436c-10.734,0-19.436-8.936-19.436-19.436H479.18z"/>
	<path class="st2" d="M546.68,251.455c0,10.5-8.7,19.436-19.436,19.436c-10.734,0-19.436-8.936-19.436-19.436H546.68z"/>
	<path class="st79" d="M482.18,413.455c0,10.5-8.7,19.436-19.436,19.436c-10.734,0-19.436-8.936-19.436-19.436H482.18z"/>
	<path class="st2" d="M664.652,57.709c0,62.051-30.75,97.746-30.75,97.746h61.5C695.402,155.455,664.652,119.76,664.652,57.709"/>
	<path class="st2" d="M633.798,212.248c0,37.775-32.896,62.207-32.896,62.207h127.5c0,0-32.654-24.324-32.654-62.1"/>
	<polyline class="st79" points="600.402,641.455 600.402,455.455 734.402,455.455 734.402,641.455 	"/>
	<rect x="569.402" y="319.455" class="st92" width="151" height="150"/>
	<rect x="603.402" y="298.455" width="8" height="21"/>
	<rect x="618.402" y="298.455" width="8" height="21"/>
	<rect x="633.402" y="298.455" width="8" height="21"/>
	<rect x="650.402" y="298.455" width="7" height="21"/>
	<rect x="680.402" y="298.455" width="7" height="21"/>
	<rect x="596.402" y="337.455" class="st92" width="97" height="99"/>
	<path class="st46" d="M682.819,386.476c0,20.997-17.024,38.019-38.019,38.019c-20.993,0-38.017-17.021-38.017-38.019
		s17.024-38.019,38.017-38.019C665.795,348.457,682.819,365.479,682.819,386.476z"/>
	<line class="st46" x1="644.801" y1="376.79" x2="641.171" y2="400.521"/>
	<line class="st46" x1="670.02" y1="400.521" x2="633.907" y2="380.18"/>
	<path class="st92" d="M675.998,215.03c0,37.775,32.404,61.992,32.404,61.992v42.433h-127v-42.433c0,0,32.771-24.217,32.771-61.992"
		/>
	<line class="st92" x1="581.402" y1="277.455" x2="708.402" y2="277.455"/>
	<line class="st92" x1="645.402" y1="-3.545" x2="645.402" y2="65.455"/>
	<path class="st92" d="M646.402,64.98c0,62.051,31,97.746,31,97.746v51.729h-62v-51.729
		C615.402,162.727,646.402,127.031,646.402,64.98"/>
	<line class="st92" x1="633.402" y1="22.455" x2="656.402" y2="22.455"/>
	<line class="st92" x1="615.402" y1="163.455" x2="677.402" y2="163.455"/>
	<polyline class="st92" points="578.402,655.455 578.402,469.455 711.402,469.455 711.402,655.455 	"/>
	<line class="st92" x1="569.402" y1="571.455" x2="720.402" y2="571.455"/>
	<line class="st92" x1="569.402" y1="590.455" x2="720.402" y2="590.455"/>
	<line class="st92" x1="603.402" y1="491.455" x2="603.402" y2="655.455"/>
	<rect x="641.402" y="182.455" class="st36" width="7" height="29"/>
	<rect x="627.402" y="182.455" class="st36" width="8" height="29"/>
	<rect x="654.402" y="182.455" class="st36" width="8" height="29"/>
	<line class="st92" x1="624.402" y1="491.455" x2="624.402" y2="655.455"/>
	<line class="st92" x1="645.402" y1="491.455" x2="645.402" y2="655.455"/>
	<line class="st92" x1="665.402" y1="491.455" x2="665.402" y2="655.455"/>
	<line class="st92" x1="687.402" y1="491.455" x2="687.402" y2="655.455"/>
	<line class="st92" x1="581.402" y1="277.455" x2="581.402" y2="238.455"/>
	<line class="st92" x1="708.402" y1="277.455" x2="708.402" y2="238.455"/>
	<line class="st92" x1="569.402" y1="322.455" x2="569.402" y2="277.455"/>
	<line class="st92" x1="720.402" y1="317.455" x2="720.402" y2="269.455"/>
	<line class="st92" x1="615.402" y1="163.455" x2="615.402" y2="134.455"/>
	<line class="st92" x1="638.402" y1="53.455" x2="651.402" y2="53.455"/>
	<line class="st92" x1="677.402" y1="163.455" x2="677.402" y2="134.455"/>
	<line class="st92" x1="62.402" y1="521.455" x2="575.402" y2="521.455"/>
	<g>
		<polyline class="st2" points="297.053,279.121 236.443,517.455 222.697,517.455 283.137,278.801 		"/>
		<polyline class="st2" points="303.674,277.267 364.26,517.455 378.574,517.455 313.903,262.726 		"/>
		<g>
			<g>
				<path class="st92" d="M313.932,108.088"/>
				<polyline class="st92" points="268.182,410.367 290.758,446.461 313.342,410.344 				"/>
				<polyline class="st92" points="315.422,409.192 348.92,438.536 359.08,395.59 				"/>
				<polyline class="st92" points="361.09,394.564 400.764,410.505 397.932,367.749 				"/>
				<polyline class="st92" points="399.492,366.19 442.479,369.349 426.305,329.344 				"/>
				<polyline class="st92" points="427.327,327.334 469.67,317.224 441.117,283.696 				"/>
				<polyline class="st92" points="441.744,281.795 478.67,259.014 441.743,236.232 				"/>
				<polyline class="st92" points="441.458,234.416 469.857,200.505 426.612,190.222 				"/>
				<polyline class="st92" points="426.486,189.041 443.045,148.38 399.207,151.553 				"/>
				<polyline class="st92" points="398.216,150.562 401.646,107.054 361.081,123.126 				"/>
				<polyline class="st92" points="359.435,122.622 349.014,79.942 315.352,108.311 				"/>
			</g>
			<g>
				<path class="st46" d="M313.932,108.088"/>
				<polyline class="st46" points="268.182,410.367 290.758,446.461 313.342,410.344 				"/>
				<polyline class="st46" points="315.422,409.192 348.92,438.536 359.08,395.59 				"/>
				<polyline class="st46" points="361.09,394.564 400.764,410.505 397.932,367.749 				"/>
				<polyline class="st46" points="399.492,366.19 442.479,369.349 426.305,329.344 				"/>
				<polyline class="st46" points="427.327,327.334 469.67,317.224 441.117,283.696 				"/>
				<polyline class="st46" points="441.744,281.795 478.67,259.014 441.743,236.232 				"/>
				<polyline class="st46" points="441.458,234.416 469.857,200.505 426.612,190.222 				"/>
				<polyline class="st46" points="426.486,189.041 443.045,148.38 399.207,151.553 				"/>
				<polyline class="st46" points="398.216,150.562 401.646,107.054 361.081,123.126 				"/>
				<polyline class="st46" points="359.435,122.622 349.014,79.942 315.352,108.311 				"/>
			</g>
		</g>
		<g>
			<g>
				<polyline class="st92" points="267.921,108.088 291.098,70.942 313.576,106.878 				"/>
				<polyline class="st92" points="266.429,409.192 232.932,438.536 222.773,395.59 				"/>
				<polyline class="st92" points="220.764,394.564 181.09,410.505 183.92,367.749 				"/>
				<polyline class="st92" points="182.36,366.19 139.371,369.349 155.549,329.344 				"/>
				<polyline class="st92" points="154.523,327.334 112.184,317.224 140.736,283.696 				"/>
				<polyline class="st92" points="140.109,281.795 103.184,259.014 140.109,236.232 				"/>
				<polyline class="st92" points="140.394,234.416 111.996,200.505 155.241,190.222 				"/>
				<polyline class="st92" points="155.367,189.041 138.809,148.38 182.646,151.553 				"/>
				<polyline class="st92" points="183.637,150.562 180.207,107.054 220.772,123.126 				"/>
				<polyline class="st92" points="222.419,122.622 232.84,79.942 266.502,108.311 				"/>
			</g>
			<g>
				<polyline class="st46" points="267.921,108.088 291.098,70.942 313.576,106.878 				"/>
				<polyline class="st46" points="266.429,409.192 232.932,438.536 222.773,395.59 				"/>
				<polyline class="st46" points="220.764,394.564 181.09,410.505 183.92,367.749 				"/>
				<polyline class="st46" points="182.36,366.19 139.371,369.349 155.549,329.344 				"/>
				<polyline class="st46" points="154.523,327.334 112.184,317.224 140.736,283.696 				"/>
				<polyline class="st46" points="140.109,281.795 103.184,259.014 140.109,236.232 				"/>
				<polyline class="st46" points="140.394,234.416 111.996,200.505 155.241,190.222 				"/>
				<polyline class="st46" points="155.367,189.041 138.809,148.38 182.646,151.553 				"/>
				<polyline class="st46" points="183.637,150.562 180.207,107.054 220.772,123.126 				"/>
				<polyline class="st46" points="222.419,122.622 232.84,79.942 266.502,108.311 				"/>
			</g>
		</g>
		<path class="st92" d="M443.774,259.017c0,84.322-68.357,152.678-152.678,152.678c-84.319,0-152.675-68.355-152.675-152.678
			c0-84.325,68.355-152.678,152.675-152.678C375.417,106.339,443.774,174.691,443.774,259.017z"/>
		<circle class="st92" cx="291.097" cy="259.017" r="206.18"/>
		<g>
			<path class="st92" d="M310.535,30.328c0,10.737-8.703,19.438-19.438,19.438c-10.734,0-19.433-8.701-19.433-19.438
				c0-10.731,8.698-19.433,19.433-19.433C301.833,10.896,310.535,19.597,310.535,30.328z"/>
			<line class="st92" x1="272.402" y1="29.455" x2="309.402" y2="29.455"/>
		</g>
		<g>
			<path class="st92" d="M310.535,30.328c0,10.737-8.703,19.438-19.438,19.438c-10.734,0-19.433-8.701-19.433-19.438
				c0-10.731,8.698-19.433,19.433-19.433C301.833,10.896,310.535,19.597,310.535,30.328z"/>
			<line class="st92" x1="272.402" y1="29.455" x2="309.402" y2="29.455"/>
		</g>
		<g>
			<path class="st92" d="M310.535,487.061c0,10.737-8.703,19.438-19.438,19.438c-10.734,0-19.433-8.701-19.433-19.438
				c0-10.731,8.698-19.436,19.433-19.436C301.833,467.625,310.535,476.329,310.535,487.061z"/>
			<line class="st92" x1="272.402" y1="487.455" x2="309.402" y2="487.455"/>
		</g>
		<g>
			<path class="st92" d="M538.412,259.178c0,10.737-8.703,19.436-19.438,19.436c-10.731,0-19.434-8.698-19.434-19.436
				c0-10.734,8.703-19.436,19.434-19.436C529.709,239.742,538.412,248.443,538.412,259.178z"/>
			<line class="st92" x1="500.402" y1="259.455" x2="539.402" y2="259.455"/>
		</g>
		<g>
			<path class="st92" d="M81.681,259.178c0,10.737-8.701,19.436-19.437,19.436c-10.734,0-19.436-8.698-19.436-19.436
				c0-10.734,8.701-19.436,19.436-19.436C72.98,239.742,81.681,248.443,81.681,259.178z"/>
			<line class="st92" x1="45.402" y1="259.455" x2="81.402" y2="259.455"/>
		</g>
		<g>
			<path class="st92" d="M472.014,97.219c0.003,10.734-8.701,19.436-19.438,19.436c-10.731,0-19.434-8.701-19.438-19.436
				c0.004-10.734,8.707-19.436,19.438-19.436C463.312,77.783,472.017,86.484,472.014,97.219z"/>
			<line class="st92" x1="432.402" y1="95.455" x2="471.402" y2="95.455"/>
		</g>
		<g>
			<path class="st92" d="M149.057,420.176c0,10.734-8.703,19.436-19.436,19.436c-10.734,0-19.44-8.704-19.438-19.438
				c0-10.731,8.704-19.433,19.436-19.433C140.355,400.74,149.057,409.441,149.057,420.176z"/>
			<line class="st92" x1="110.402" y1="419.455" x2="149.402" y2="419.455"/>
		</g>
		<g>
			<path class="st92" d="M472.017,420.176c0,10.734-8.704,19.436-19.441,19.438c-10.729-0.003-19.433-8.704-19.433-19.438
				c-0.001-10.734,8.704-19.436,19.433-19.436C463.312,400.74,472.017,409.441,472.017,420.176z"/>
			<line class="st92" x1="432.402" y1="419.455" x2="471.402" y2="419.455"/>
		</g>
		<g>
			<path class="st92" d="M110.181,97.216c0-10.731,8.7-19.436,19.437-19.436c10.734,0,19.438,8.704,19.436,19.436
				c0.003,10.734-8.701,19.438-19.437,19.433C118.881,116.654,110.181,107.95,110.181,97.216z"/>
			<line class="st92" x1="149.402" y1="95.455" x2="110.402" y2="95.455"/>
		</g>
		<circle class="st92" cx="291.097" cy="259.017" r="191.118"/>
		<g>
			<polyline class="st26" points="288.053,282.121 227.443,520.455 213.697,520.455 275.754,275.411 			"/>
			<polyline class="st26" points="294.674,280.267 355.26,520.455 369.574,520.455 306.835,272.924 			"/>
		</g>
		<circle class="st92" cx="291.1" cy="259.017" r="21.378"/>
		<circle class="st36" cx="291.1" cy="259.017" r="9.586"/>
	</g>
	<line class="st92" x1="-6.598" y1="604.455" x2="402.402" y2="604.455"/>
	<rect x="665.402" y="298.455" width="7" height="21"/>
	<g>
		<line class="st92" x1="467.092" y1="556.479" x2="440.37" y2="594.533"/>
		<g>
			<line class="st92" x1="507.419" y1="540.809" x2="478.976" y2="581.317"/>
			<line class="st92" x1="471.218" y1="592.365" x2="453.979" y2="616.919"/>
			<line class="st92" x1="445.359" y1="629.194" x2="435.015" y2="643.925"/>
		</g>
		<g>
			<line class="st92" x1="512.774" y1="577.559" x2="502.43" y2="592.289"/>
			<line class="st92" x1="497.259" y1="599.654" x2="468.814" y2="640.166"/>
		</g>
		<line class="st92" x1="524.659" y1="602.396" x2="503.109" y2="633.088"/>
	</g>
</g>
</svg>
