<?xml version="1.0" encoding="utf-8"?>
<!-- Generator: Adobe Illustrator 16.0.0, SVG Export Plug-In . SVG Version: 6.00 Build 0)  -->
<!DOCTYPE svg PUBLIC "-//W3C//DTD SVG 1.1//EN" "http://www.w3.org/Graphics/SVG/1.1/DTD/svg11.dtd">
<svg version="1.1" xmlns="http://www.w3.org/2000/svg" xmlns:xlink="http://www.w3.org/1999/xlink" x="0px" y="0px" width="1920px"
	 height="1214.387px" viewBox="0 0 1920 1214.387" style="enable-background:new 0 0 1920 1214.387;" xml:space="preserve">
<style type="text/css">
<![CDATA[
	.st0{fill:none;stroke:#272525;stroke-width:4;stroke-miterlimit:10;}
	.st1{clip-path:url(#SVGID_18_);fill:none;stroke:#C72A7D;stroke-width:6;stroke-miterlimit:10;}
	.st2{fill:#7CC7EA;}
	.st3{clip-path:url(#SVGID_18_);fill:#C72A7D;}
	.st4{clip-path:url(#SVGID_20_);fill:#83C698;}
	.st5{fill:none;stroke:#32367C;stroke-width:4;stroke-miterlimit:10;}
	.st6{fill:none;stroke:#FAEC34;stroke-width:6.5491;stroke-miterlimit:10;}
	.st7{clip-path:url(#SVGID_24_);fill:none;stroke:#27A2DC;stroke-width:4.3661;stroke-miterlimit:10;}
	.st8{fill:#FFFFFF;stroke:#C72A7D;stroke-width:6;stroke-miterlimit:10;}
	.st9{clip-path:url(#SVGID_8_);fill:none;stroke:#000000;stroke-width:4;stroke-miterlimit:10;}
	.st10{clip-path:url(#SVGID_24_);fill:none;stroke:#FAEC34;stroke-width:4;stroke-miterlimit:10;}
	.st11{fill:none;stroke:#000000;stroke-width:5;stroke-miterlimit:10;}
	.st12{clip-path:url(#SVGID_10_);fill:none;stroke:#000000;stroke-width:4;stroke-miterlimit:10;}
	.st13{clip-path:url(#SVGID_16_);fill:none;}
	.st14{fill:#FFFF66;stroke:#000000;stroke-width:4;stroke-miterlimit:10;}
	.st15{fill:#F8EB35;stroke:#F8EB35;stroke-width:3.5625;stroke-miterlimit:10;}
	.st16{clip-path:url(#SVGID_10_);fill:#FFFFFF;stroke:#000000;stroke-width:4;stroke-miterlimit:10;}
	.st17{clip-path:url(#SVGID_26_);fill:none;stroke:#C72B7D;stroke-width:6;stroke-miterlimit:10;}
	.st18{fill:none;stroke:#C72A7D;stroke-width:4;stroke-miterlimit:10;}
	.st19{fill:none;stroke:#C72B7D;stroke-width:4;stroke-miterlimit:10;}
	.st20{clip-path:url(#SVGID_32_);fill:none;stroke:#34A157;stroke-width:6.5645;stroke-miterlimit:10;}
	.st21{clip-path:url(#SVGID_32_);fill:none;stroke:#32367C;stroke-width:6.0141;stroke-miterlimit:10;}
	.st22{fill:#83C698;}
	.st23{clip-path:url(#SVGID_18_);fill:none;stroke:#000000;stroke-width:6;stroke-miterlimit:10;}
	.st24{fill:none;stroke:#D1EBF7;stroke-width:6;stroke-miterlimit:10;}
	.st25{fill:none;stroke:#27A2DC;stroke-width:4.3661;stroke-miterlimit:10;}
	.st26{fill:#FFFFFF;stroke:#000000;stroke-width:6;stroke-miterlimit:10;}
	.st27{fill:#FFFFFF;stroke:#34A156;stroke-width:6;stroke-miterlimit:10;}
	.st28{fill:none;stroke:#FFFFFF;stroke-miterlimit:10;}
	.st29{fill:#FAEC34;stroke:#000000;stroke-width:4;stroke-miterlimit:10;}
	.st30{fill:none;stroke:#000000;stroke-width:4;stroke-miterlimit:10;}
	.st31{clip-path:url(#SVGID_30_);fill:none;stroke:#FAEC34;stroke-width:4;stroke-miterlimit:10;}
	.st32{clip-path:url(#SVGID_32_);fill:none;stroke:#C72B7D;stroke-width:6.0141;stroke-miterlimit:10;}
	.st33{fill:none;stroke:#34A156;stroke-width:4;stroke-miterlimit:10;}
	.st34{fill:#F2D2E3;}
	.st35{fill:#26A1DB;}
	.st36{fill:#27A1DB;}
	.st37{fill:#27A2DC;}
	.st38{fill:#5D5D5D;}
	.st39{fill:#C72A7D;stroke:#000000;stroke-width:4;stroke-miterlimit:10;}
	.st40{clip-path:url(#SVGID_20_);fill:#FFFFFF;stroke:#34A156;stroke-width:6;stroke-miterlimit:10;}
	.st41{fill:#F8EB35;}
	.st42{clip-path:url(#SVGID_18_);fill:#DD7FAF;}
	.st43{clip-path:url(#SVGID_8_);}
	.st44{clip-path:url(#SVGID_18_);fill:#FFFFFF;stroke:#C72A7D;stroke-width:6;stroke-miterlimit:10;}
	.st45{stroke:#000000;stroke-width:4;stroke-miterlimit:10;}
	.st46{fill:none;stroke:#27A1DB;stroke-width:6;stroke-miterlimit:10;}
	.st47{fill:#FFFFFF;stroke:#C72A7D;stroke-width:4;stroke-miterlimit:10;}
	.st48{fill:#C6C6C6;}
	.st49{fill:#FAEC34;}
	.st50{clip-path:url(#SVGID_26_);fill:none;stroke:#FAEC34;stroke-width:6;stroke-miterlimit:10;}
	.st51{fill:#C72A7D;}
	.st52{fill:#C72B7D;}
	.st53{fill:none;stroke:#FAEC34;stroke-width:4;stroke-miterlimit:10;}
	.st54{fill:none;stroke:#FFFF66;stroke-width:4;stroke-miterlimit:10;}
	.st55{clip-path:url(#SVGID_20_);fill:#34A156;}
	.st56{clip-path:url(#SVGID_32_);fill:none;stroke:#FAEC34;stroke-width:6.0141;stroke-miterlimit:10;}
	.st57{clip-path:url(#SVGID_16_);fill:none;stroke:#FAEC34;stroke-width:3.6282;stroke-miterlimit:10;}
	.st58{fill:none;stroke:#000000;stroke-width:3;stroke-miterlimit:10;}
	.st59{fill:#FFFFFF;}
	.st60{fill:none;stroke:#000000;stroke-width:3.8428;stroke-miterlimit:10;}
	.st61{clip-path:url(#SVGID_30_);fill:none;stroke:#34A157;stroke-width:4.3661;stroke-miterlimit:10;}
	.st62{fill:none;stroke:#FAEC34;stroke-width:4.3661;stroke-miterlimit:10;}
	.st63{fill:none;}
	.st64{clip-path:url(#SVGID_24_);fill:none;stroke:#32367C;stroke-width:4;stroke-miterlimit:10;}
	.st65{clip-path:url(#SVGID_20_);fill:#D4EBDB;}
	.st66{fill:none;stroke:#D1EBF7;stroke-width:4;stroke-miterlimit:10;}
	.st67{fill:#32367C;}
	.st68{clip-path:url(#SVGID_20_);fill:none;stroke:#000000;stroke-width:6;stroke-miterlimit:10;}
	.st69{fill:#FFFFFF;stroke:#000000;stroke-width:4;stroke-miterlimit:10;}
	.st70{fill:#34A156;}
	.st71{fill:#34A157;}
	.st72{clip-path:url(#SVGID_24_);fill:none;stroke:#C72B7D;stroke-width:4;stroke-miterlimit:10;}
	.st73{clip-path:url(#SVGID_20_);fill:none;stroke:#34A156;stroke-width:6;stroke-miterlimit:10;}
	.st74{fill:none;stroke:#C72A7D;stroke-width:6;stroke-miterlimit:10;}
	.st75{fill:#FFFFFF;stroke:#34A156;stroke-width:4;stroke-miterlimit:10;}
	.st76{stroke:#000000;stroke-width:3;stroke-miterlimit:10;}
	.st77{fill:none;stroke:#FFFFFF;stroke-width:4;stroke-miterlimit:10;}
	.st78{fill:none;stroke:#7CC7EA;stroke-width:4;stroke-miterlimit:10;}
	.st79{fill:#D1EBF7;}
	.st80{fill:none;stroke:#34A157;stroke-width:4.3661;stroke-miterlimit:10;}
	.st81{fill:#D4EBDB;}
	.st82{fill:none;stroke:#000000;stroke-width:5.2992;stroke-miterlimit:10;}
	.st83{clip-path:url(#SVGID_30_);fill:none;stroke:#32367C;stroke-width:4;stroke-miterlimit:10;}
	.st84{fill:none;stroke:#FFFFFF;stroke-width:1.4794;stroke-miterlimit:10;}
	.st85{clip-path:url(#SVGID_10_);}
	.st86{clip-path:url(#SVGID_12_);}
	.st87{clip-path:url(#SVGID_14_);}
	.st88{clip-path:url(#SVGID_16_);}
	.st89{clip-path:url(#SVGID_18_);}
	.st90{clip-path:url(#SVGID_20_);}
	.st91{clip-path:url(#SVGID_22_);}
	.st92{fill:none;stroke:#000000;stroke-width:6;stroke-miterlimit:10;}
	.st93{clip-path:url(#SVGID_18_);fill:#F2D2E3;}
	.st94{clip-path:url(#SVGID_8_);fill:#FFFFFF;stroke:#000000;stroke-width:4;stroke-miterlimit:10;}
	.st95{fill:none;stroke:#272525;stroke-width:3.5625;stroke-miterlimit:10;}
	.st96{clip-path:url(#SVGID_28_);fill:none;stroke:#27A2DC;stroke-width:6.5491;stroke-miterlimit:10;}
	.st97{fill:none;stroke:#34A156;stroke-width:6;stroke-miterlimit:10;}
	.st98{clip-path:url(#SVGID_28_);fill:none;stroke:#32367C;stroke-width:6;stroke-miterlimit:10;}
	.st99{fill:none;stroke:#27A1DB;stroke-width:4;stroke-miterlimit:10;}
	.st100{clip-path:url(#SVGID_30_);fill:none;stroke:#C72B7D;stroke-width:4;stroke-miterlimit:10;}
	.st101{fill:#DD7FAF;}
	.st102{clip-path:url(#SVGID_12_);fill:none;stroke:#000000;stroke-width:4;stroke-miterlimit:10;}
]]>
</style>
<g id="Layer_1">
</g>
<g id="Layer_2">
	<g>
		<g>
			<path class="st71" d="M765.997,1025.126c-151.32,0.009-296.181-69.809-391.283-194.798l5.091-3.877
				c121.063,159.126,323.857,227.637,516.625,174.564c125.328-34.503,229.72-115.742,293.949-228.753
				c64.23-113.014,80.603-244.275,46.099-369.598C1165.256,143.938,896.839-8.611,638.097,62.605
				c-190.428,52.415-329.32,212.937-353.842,408.95l-6.346-0.793c24.848-198.589,165.564-361.219,358.492-414.324
				c262.116-72.154,534.08,82.396,606.243,344.53c34.954,126.971,18.366,259.952-46.705,374.452
				c-65.071,114.495-170.836,196.802-297.815,231.762C854.247,1019.261,809.844,1025.126,765.997,1025.126z"/>
		</g>
		<g>
			<path class="st71" d="M261.875,547.589c-1.67-0.038-2.393-0.46-2.773-1.535c-0.374-1.075-0.4-3.16-0.327-6.307
				c0.613-0.114,1.551-0.422,2.23-0.742c-0.129,2.673-0.186,5.079-0.133,5.744c-0.014,0.678,0.179,0.947,1.048,0.972l21.672,0.487
				c-3.477-3.02-7.02-6.256-10.096-9.005l1.5-1.498c2.69,2.609,7.076,6.664,11.538,10.578l26.762,0.602l0.24-10.501l1.939,0.051
				l-0.287,12.37L261.875,547.589z M262.27,533.34c-1.743-0.039-2.466-0.46-2.848-1.535c-0.375-1.152-0.322-3.287-0.245-6.498
				c0.537-0.115,1.477-0.498,2.155-0.817c-0.13,2.801-0.184,5.282-0.136,5.959c-0.019,0.794,0.18,0.998,1.05,1.024l22.205,0.513
				c-3.87-3.454-7.605-7.011-10.814-9.965l1.502-1.433c2.808,2.942,7.469,7.189,12.196,11.449l26.286,0.601l0.231-10.298
				l1.937,0.039l-0.273,12.178L262.27,533.34z M286,493.79l-0.565,24.559l-25.553-0.588l0.039-1.931l3.744,0.076l0.474-20.657
				l-4.547-0.116l0.044-1.944L286,493.79z M265.61,515.956l8.161,0.193l0.206-8.903l-8.159-0.179L265.61,515.956z M265.853,505.122
				l8.168,0.18l0.226-9.837l-8.165-0.191L265.853,505.122z M283.537,516.366l0.199-8.902l-7.821-0.18l-0.198,8.891L283.537,516.366z
				 M284.012,495.682l-7.833-0.167l-0.222,9.825l7.829,0.191L284.012,495.682z M300.863,507.846
				c-1.861,2.713-8.689,11.32-10.413,13.354l-1.708-1.241c2.047-1.97,7.564-8.66,10.251-12.152l-11.771-0.269l0.036-1.932
				l11.442,0.256c-5.264-3.876-10.617-9.618-13.394-14.301c0.538-0.255,1.355-0.703,1.773-1.151
				c2.819,5.015,8.697,11.576,14.242,15.172l0.32-14.173l1.937,0.038l-0.332,14.518l11.513,0.256
				c-0.375-4.477-0.668-9.108-0.842-13.265c0.541-0.115,1.211-0.37,1.762-0.69c0.46,8.902,1.411,20.108,2.952,25.89l-1.774,1.433
				c-0.732-3.083-1.375-7.048-1.878-11.41l-11.777-0.269l-0.072,3.146c2.778,1.664,7.081,3.697,9.93,4.836l-0.917,1.982
				c-2.974-1.471-6.486-3.224-9.056-4.746l-0.161,7.023l-1.943-0.052l0.28-12.241L300.863,507.846z M305.903,524.628
				c-4.4,2.111-10.137,4.132-13.502,4.849l-0.885-1.816c3.495-0.665,9.426-2.673,13.753-4.657L305.903,524.628z M305.384,538.815
				c-4.137,2.251-9.612,4.592-12.843,5.461l-0.9-1.702c3.366-0.856,8.972-3.197,13.11-5.385L305.384,538.815z M312.471,497.818
				c-2.505,1.075-5.807,2.405-7.697,2.955l-0.7-1.815c2.026-0.614,5.467-1.816,8.033-2.968L312.471,497.818z"/>
			<path class="st71" d="M273.359,583.367c-0.512,0.269-1.2,0.691-1.436,0.921c-7.336-8.391-8.359-9.542-9.376-10.156l0.263-0.037
				c-0.071-0.065-0.206-0.04-0.276-0.04c0.428-0.318,1.151-1.087,1.484-1.662c0.789,0.92,3.048,2.788,6.037,2.417l27.046-3.403
				l-1.4-11.154l1.926-0.243l1.636,13.099l-31.16,3.901L273.359,583.367z M278.302,604.013l2.273,18.073l-1.934,0.229l-2.265-18.06
				l-12.359,1.547l-0.238-1.932l12.355-1.547l-2.268-18.074l1.929-0.23l2.269,18.062l9.171-1.151l-1.826-14.557l1.919-0.23
				l1.833,14.544l6.507-0.806l0.243,1.918l-6.514,0.82l1.763,14.019l-1.926,0.243l-1.763-14.019L278.302,604.013z M320.773,613.796
				c-6.504-2.353-12.19-6.766-16.979-12.113c-2.989,5.769-4.918,12.433-5.655,19.481c-0.454-0.409-1.19-0.857-1.767-1.125
				c0.874-7.061,2.991-13.879,6.154-19.878c-4.626-5.628-8.411-12.177-11.018-18.394c0.503-0.333,1.168-0.959,1.513-1.407
				c2.456,6.114,6.029,12.548,10.501,18.062c3.178-5.334,7.323-9.9,12.375-13.304l-0.58-4.579l1.931-0.243l3.979,31.76l0.191,0.448
				L320.773,613.796z M316.147,587.192c-4.661,3.21-8.492,7.598-11.431,12.688c4.187,4.809,9.066,8.787,14.42,11.09L316.147,587.192
				z M306.611,571.969c2.657-2.008,6.805-6.036,9.687-9.439l1.251,1.329c-2.866,3.531-6.822,7.548-9.28,9.467L306.611,571.969z"/>
			<path class="st71" d="M313.117,643.959l3.562,13.188l-1.866,0.499l-3.576-13.188l-2.194,0.602
				c-1.644,2.673-8.977,13.252-10.828,15.618l-1.957-1.062c1.988-2.405,7.598-9.888,10.265-13.866l-32.516,8.775l-0.505-1.868
				l33.486-9.056c-9.514-1.305-20.298-4.503-26.521-8.007c0.447-0.41,0.981-1.242,1.248-1.805c6.671,3.89,18.826,7.535,28.896,8.353
				l-3.601-13.327l1.875-0.499l3.722,13.775l13.189-3.568c-1.882-3.863-3.596-7.917-5.1-11.666c0.482-0.269,0.995-0.69,1.447-1.087
				c3.519,8.416,8.304,18.905,12.051,23.791l-1.083,1.894c-2.131-2.764-4.325-6.741-6.487-11.153L313.117,643.959z M336.361,678.6
				l-49.13,13.288l-0.508-1.879l5.102-1.37l-4.993-18.495l-5.567,1.509l-0.504-1.881l49.579-13.404L336.361,678.6z M293.703,688.127
				l40.271-10.897l-5-18.483l-40.271,10.897L293.703,688.127z"/>
			<path class="st71" d="M320.876,731.388c-2.799-4.182-5.616-8.432-8.359-12.486l-12.806,5.643
				c-1.477,0.652-2.193,0.524-3.07-0.488c-0.908-1.047-1.981-3.504-3.748-7.481c0.506-0.371,1.008-0.883,1.456-1.523
				c1.506,3.735,2.694,6.28,3.136,7.112c0.446,0.832,0.705,0.935,1.434,0.602l12.509-5.515c-3.057-4.423-5.857-8.608-8.029-11.894
				l1.647-1.242c2.183,3.289,5.023,7.585,8.157,12.357l4.96-2.188c3.057,2.457,7.208,4.734,10.681,6.127l-5.846-13.239
				c-3.179-1.585-6.245-3.376-9.142-5.472c0.233-0.475,0.494-1.537,0.645-2.188c5.587,4.194,11.842,7.443,18.602,9.643
				l-6.562-14.877l1.778-0.793l5.289,12.011l8.027-3.529l-4.081-9.262l1.781-0.781l4.071,9.262l7.358-3.25l0.784,1.778l-7.35,3.237
				l3.129,7.112l-1.779,0.781l-3.128-7.1l-8.027,3.531l1.156,2.635c6.296,1.828,13.038,2.675,19.945,2.558l0.227,2.023
				c-6.693,0.091-13.041-0.691-19.114-2.19l4.702,10.655l-1.781,0.795l-5.377-12.205c-2.86-0.854-5.719-1.854-8.447-3.067
				l5.665,12.867l0.29,0.308l-0.29,1.663c-4.406-1.343-9.513-4.146-13.217-6.895l-3.867,1.701l8.309,12.356L320.876,731.388z
				 M354.523,742.963c-11.354,2.968-21.042,4.235-29.808,3.123c-4.788,6.06-7.824,12.457-8.324,19.109
				c-0.587-0.333-1.407-0.69-2.09-0.754c0.703-6.535,3.581-12.778,8.153-18.675c-7.495-1.229-14.357-4.351-20.946-9.492
				c0.318-0.435,0.787-1.381,0.966-1.97c6.601,5.514,13.649,8.544,21.478,9.709c4.994-5.936,11.563-11.615,19.161-16.794
				c-4.75,0.191-9.236-0.025-13.187-0.704c0.147-0.501,0.319-1.601,0.346-2.2c8.6,1.919,20.042,0.819,31.268-1.778l0.497,1.97
				c-4.24,0.995-8.473,1.689-12.572,2.188l8.698,19.724l-1.776,0.781L354.523,742.963z M347.414,726.859
				c-0.207,0.013-0.454,0.129-0.661,0.141c-8.079,5.246-15.197,11.016-20.506,17.243c8.091,0.754,17.051-0.487,27.439-3.172
				L347.414,726.859z"/>
			<path class="st71" d="M351.017,819.635c-1.412,0.882-2.282,0.882-3.37-0.102c-1.126-1.024-2.728-3.569-5.545-8.032
				c0.441-0.435,0.846-1.178,1.179-1.78c2.346,3.979,4.232,6.984,4.828,7.792c0.626,0.869,1.087,0.97,1.883,0.472l10.406-6.56
				c-8.056-8.521-16.453-17.449-22.391-23.997l1.225-1.945c5.513,6.242,14.286,15.887,22.698,24.981l12.397-7.802l-19.581-31.071
				l-9.676,6.089c-5.488,3.467-13.051,6.88-21.745,4.129c0.259-0.472,0.516-1.432,0.499-1.969
				c8.192,2.597,15.064-0.549,20.271-3.836l11.258-7.099l21.645,34.356L351.017,819.635z M359.032,803.363
				c-1.001-6.5-4.523-17.714-8.085-26.143l1.716-0.284c3.736,8.314,7.276,19.444,8.333,25.891L359.032,803.363z M377.074,771.131
				c-5.526-1.113-10.745-2.495-15.452-4.197l20.147,28.346c0.492-3.863,0.799-8.008,0.915-11.73l1.688,0.677
				c-0.135,7.445-1.19,16.809-2.701,21.937l-1.911-0.523c0.551-2.008,1.12-4.745,1.606-7.74
				c-21.026-29.367-22.691-31.63-24.058-32.666c0.376-0.398,1.117-1.257,1.528-1.843c0.759,0.945,3.035,1.803,5.945,2.66
				c1.68,0.535,5.792,1.649,10.789,2.698l-10.482-16.642l1.641-1.034l11.517,18.278c3.402,0.625,7.098,1.226,10.706,1.56l0.134,2.21
				c-3.148-0.47-6.384-0.97-9.412-1.509l18.002,28.58l-1.635,1.047L377.074,771.131z"/>
		</g>
	</g>
	<line class="st63" x1="582.764" y1="731.054" x2="655.419" y2="724.991"/>
	<line class="st63" x1="576.751" y1="714.28" x2="649.408" y2="708.208"/>
</g>
</svg>
