<?xml version="1.0" encoding="utf-8"?>
<!-- Generator: Adobe Illustrator 16.0.0, SVG Export Plug-In . SVG Version: 6.00 Build 0)  -->
<!DOCTYPE svg PUBLIC "-//W3C//DTD SVG 1.1//EN" "http://www.w3.org/Graphics/SVG/1.1/DTD/svg11.dtd">
<svg version="1.1" xmlns="http://www.w3.org/2000/svg" xmlns:xlink="http://www.w3.org/1999/xlink" x="0px" y="0px" width="1920px"
	 height="693px" viewBox="0 0 1920 693" style="enable-background:new 0 0 1920 693;" xml:space="preserve">
<style type="text/css">
<![CDATA[
	.st0{fill:none;stroke:#272525;stroke-width:4;stroke-miterlimit:10;}
	.st1{clip-path:url(#SVGID_18_);fill:none;stroke:#C72A7D;stroke-width:6;stroke-miterlimit:10;}
	.st2{clip-path:url(#SVGID_34_);fill:#DD7FAF;}
	.st3{fill:#7CC7EA;}
	.st4{clip-path:url(#SVGID_18_);fill:#C72A7D;}
	.st5{clip-path:url(#SVGID_20_);fill:#83C698;}
	.st6{fill:none;stroke:#32367C;stroke-width:4;stroke-miterlimit:10;}
	.st7{fill:none;stroke:#FAEC34;stroke-width:6.5491;stroke-miterlimit:10;}
	.st8{clip-path:url(#SVGID_24_);fill:none;stroke:#27A2DC;stroke-width:4.3661;stroke-miterlimit:10;}
	.st9{fill:#FFFFFF;stroke:#C72A7D;stroke-width:6;stroke-miterlimit:10;}
	.st10{clip-path:url(#SVGID_8_);fill:none;stroke:#000000;stroke-width:4;stroke-miterlimit:10;}
	.st11{clip-path:url(#SVGID_24_);fill:none;stroke:#FAEC34;stroke-width:4;stroke-miterlimit:10;}
	.st12{fill:none;stroke:#000000;stroke-width:5;stroke-miterlimit:10;}
	.st13{clip-path:url(#SVGID_10_);fill:none;stroke:#000000;stroke-width:4;stroke-miterlimit:10;}
	.st14{clip-path:url(#SVGID_16_);fill:none;}
	.st15{fill:#FFFF66;stroke:#000000;stroke-width:4;stroke-miterlimit:10;}
	.st16{fill:#F8EB35;stroke:#F8EB35;stroke-width:3.5625;stroke-miterlimit:10;}
	.st17{clip-path:url(#SVGID_10_);fill:#FFFFFF;stroke:#000000;stroke-width:4;stroke-miterlimit:10;}
	.st18{clip-path:url(#SVGID_26_);fill:none;stroke:#C72B7D;stroke-width:6;stroke-miterlimit:10;}
	.st19{fill:none;stroke:#C72A7D;stroke-width:4;stroke-miterlimit:10;}
	.st20{fill:none;stroke:#C72B7D;stroke-width:4;stroke-miterlimit:10;}
	.st21{clip-path:url(#SVGID_32_);fill:none;stroke:#34A157;stroke-width:6.5645;stroke-miterlimit:10;}
	.st22{clip-path:url(#SVGID_32_);fill:none;stroke:#32367C;stroke-width:6.0141;stroke-miterlimit:10;}
	.st23{fill:#83C698;}
	.st24{clip-path:url(#SVGID_18_);fill:none;stroke:#000000;stroke-width:6;stroke-miterlimit:10;}
	.st25{fill:none;stroke:#D1EBF7;stroke-width:6;stroke-miterlimit:10;}
	.st26{fill:none;stroke:#27A2DC;stroke-width:4.3661;stroke-miterlimit:10;}
	.st27{fill:#FFFFFF;stroke:#000000;stroke-width:6;stroke-miterlimit:10;}
	.st28{clip-path:url(#SVGID_34_);fill:none;stroke:#C72A7D;stroke-width:6;stroke-miterlimit:10;}
	.st29{fill:#FFFFFF;stroke:#34A156;stroke-width:6;stroke-miterlimit:10;}
	.st30{fill:none;stroke:#FFFFFF;stroke-miterlimit:10;}
	.st31{fill:#FAEC34;stroke:#000000;stroke-width:4;stroke-miterlimit:10;}
	.st32{fill:none;stroke:#000000;stroke-width:4;stroke-miterlimit:10;}
	.st33{clip-path:url(#SVGID_30_);fill:none;stroke:#FAEC34;stroke-width:4;stroke-miterlimit:10;}
	.st34{clip-path:url(#SVGID_32_);fill:none;stroke:#C72B7D;stroke-width:6.0141;stroke-miterlimit:10;}
	.st35{fill:none;stroke:#34A156;stroke-width:4;stroke-miterlimit:10;}
	.st36{fill:#F2D2E3;}
	.st37{fill:#26A1DB;}
	.st38{fill:#27A1DB;}
	.st39{fill:#27A2DC;}
	.st40{clip-path:url(#SVGID_34_);fill:#FFFFFF;stroke:#C72A7D;stroke-width:6;stroke-miterlimit:10;}
	.st41{fill:#5D5D5D;}
	.st42{fill:#C72A7D;stroke:#000000;stroke-width:4;stroke-miterlimit:10;}
	.st43{clip-path:url(#SVGID_20_);fill:#FFFFFF;stroke:#34A156;stroke-width:6;stroke-miterlimit:10;}
	.st44{clip-path:url(#SVGID_34_);fill:none;stroke:#000000;stroke-width:6;stroke-miterlimit:10;}
	.st45{fill:#F8EB35;}
	.st46{clip-path:url(#SVGID_18_);fill:#DD7FAF;}
	.st47{clip-path:url(#SVGID_8_);}
	.st48{clip-path:url(#SVGID_34_);fill:#F2D2E3;}
	.st49{clip-path:url(#SVGID_18_);fill:#FFFFFF;stroke:#C72A7D;stroke-width:6;stroke-miterlimit:10;}
	.st50{stroke:#000000;stroke-width:4;stroke-miterlimit:10;}
	.st51{fill:none;stroke:#27A1DB;stroke-width:6;stroke-miterlimit:10;}
	.st52{fill:#FFFFFF;stroke:#C72A7D;stroke-width:4;stroke-miterlimit:10;}
	.st53{fill:#C6C6C6;}
	.st54{fill:#FAEC34;}
	.st55{clip-path:url(#SVGID_26_);fill:none;stroke:#FAEC34;stroke-width:6;stroke-miterlimit:10;}
	.st56{fill:#C72A7D;}
	.st57{fill:#C72B7D;}
	.st58{fill:none;stroke:#FAEC34;stroke-width:4;stroke-miterlimit:10;}
	.st59{fill:none;stroke:#FFFF66;stroke-width:4;stroke-miterlimit:10;}
	.st60{clip-path:url(#SVGID_20_);fill:#34A156;}
	.st61{clip-path:url(#SVGID_32_);fill:none;stroke:#FAEC34;stroke-width:6.0141;stroke-miterlimit:10;}
	.st62{clip-path:url(#SVGID_16_);fill:none;stroke:#FAEC34;stroke-width:3.6282;stroke-miterlimit:10;}
	.st63{fill:none;stroke:#000000;stroke-width:3;stroke-miterlimit:10;}
	.st64{fill:#FFFFFF;}
	.st65{fill:none;stroke:#000000;stroke-width:3.8428;stroke-miterlimit:10;}
	.st66{clip-path:url(#SVGID_30_);fill:none;stroke:#34A157;stroke-width:4.3661;stroke-miterlimit:10;}
	.st67{fill:none;stroke:#FAEC34;stroke-width:4.3661;stroke-miterlimit:10;}
	.st68{fill:none;}
	.st69{clip-path:url(#SVGID_34_);fill:#C72A7D;}
	.st70{clip-path:url(#SVGID_24_);fill:none;stroke:#32367C;stroke-width:4;stroke-miterlimit:10;}
	.st71{clip-path:url(#SVGID_20_);fill:#D4EBDB;}
	.st72{fill:none;stroke:#D1EBF7;stroke-width:4;stroke-miterlimit:10;}
	.st73{fill:#32367C;}
	.st74{clip-path:url(#SVGID_20_);fill:none;stroke:#000000;stroke-width:6;stroke-miterlimit:10;}
	.st75{fill:#FFFFFF;stroke:#000000;stroke-width:4;stroke-miterlimit:10;}
	.st76{fill:#34A156;}
	.st77{fill:#34A157;}
	.st78{clip-path:url(#SVGID_24_);fill:none;stroke:#C72B7D;stroke-width:4;stroke-miterlimit:10;}
	.st79{clip-path:url(#SVGID_20_);fill:none;stroke:#34A156;stroke-width:6;stroke-miterlimit:10;}
	.st80{fill:none;stroke:#C72A7D;stroke-width:6;stroke-miterlimit:10;}
	.st81{fill:#FFFFFF;stroke:#34A156;stroke-width:4;stroke-miterlimit:10;}
	.st82{stroke:#000000;stroke-width:3;stroke-miterlimit:10;}
	.st83{fill:none;stroke:#FFFFFF;stroke-width:4;stroke-miterlimit:10;}
	.st84{fill:none;stroke:#7CC7EA;stroke-width:4;stroke-miterlimit:10;}
	.st85{fill:#D1EBF7;}
	.st86{fill:none;stroke:#34A157;stroke-width:4.3661;stroke-miterlimit:10;}
	.st87{fill:#D4EBDB;}
	.st88{fill:none;stroke:#000000;stroke-width:5.2992;stroke-miterlimit:10;}
	.st89{clip-path:url(#SVGID_30_);fill:none;stroke:#32367C;stroke-width:4;stroke-miterlimit:10;}
	.st90{fill:none;stroke:#FFFFFF;stroke-width:1.4794;stroke-miterlimit:10;}
	.st91{clip-path:url(#SVGID_10_);}
	.st92{clip-path:url(#SVGID_12_);}
	.st93{clip-path:url(#SVGID_14_);}
	.st94{clip-path:url(#SVGID_16_);}
	.st95{clip-path:url(#SVGID_18_);}
	.st96{clip-path:url(#SVGID_20_);}
	.st97{clip-path:url(#SVGID_22_);}
	.st98{clip-path:url(#SVGID_34_);}
	.st99{fill:none;stroke:#000000;stroke-width:6;stroke-miterlimit:10;}
	.st100{clip-path:url(#SVGID_18_);fill:#F2D2E3;}
	.st101{clip-path:url(#SVGID_8_);fill:#FFFFFF;stroke:#000000;stroke-width:4;stroke-miterlimit:10;}
	.st102{fill:none;stroke:#272525;stroke-width:3.5625;stroke-miterlimit:10;}
	.st103{clip-path:url(#SVGID_28_);fill:none;stroke:#27A2DC;stroke-width:6.5491;stroke-miterlimit:10;}
	.st104{fill:none;stroke:#34A156;stroke-width:6;stroke-miterlimit:10;}
	.st105{clip-path:url(#SVGID_28_);fill:none;stroke:#32367C;stroke-width:6;stroke-miterlimit:10;}
	.st106{fill:none;stroke:#27A1DB;stroke-width:4;stroke-miterlimit:10;}
	.st107{clip-path:url(#SVGID_30_);fill:none;stroke:#C72B7D;stroke-width:4;stroke-miterlimit:10;}
	.st108{fill:#DD7FAF;}
	.st109{clip-path:url(#SVGID_12_);fill:none;stroke:#000000;stroke-width:4;stroke-miterlimit:10;}
]]>
</style>
<g id="Layer_1">
</g>
<g id="Layer_2">
	<g>
		<defs>
			<rect id="SVGID_19_" width="1920" height="693"/>
		</defs>
		<clipPath id="SVGID_2_">
			<use xlink:href="#SVGID_19_"  style="overflow:visible;"/>
		</clipPath>
		<rect x="1702" y="132" style="clip-path:url(#SVGID_2_);fill:#D4EBDB;" width="27" height="21"/>
		<rect x="1716" y="111" style="clip-path:url(#SVGID_2_);fill:#D4EBDB;" width="43" height="21"/>
		<rect x="1696" y="91" style="clip-path:url(#SVGID_2_);fill:#D4EBDB;" width="27" height="21"/>
		<rect x="1489" y="270" style="clip-path:url(#SVGID_2_);fill:#D4EBDB;" width="27" height="21"/>
		<rect x="1455" y="249" style="clip-path:url(#SVGID_2_);fill:#D4EBDB;" width="34" height="21"/>
		<rect x="1476" y="228" style="clip-path:url(#SVGID_2_);fill:#D4EBDB;" width="27" height="21"/>
		<rect x="1074" y="619" style="clip-path:url(#SVGID_2_);fill:#D4EBDB;" width="75" height="33"/>
		<rect x="1014" y="586" style="clip-path:url(#SVGID_2_);fill:#D4EBDB;" width="60" height="33"/>
		<rect x="1044" y="553" style="clip-path:url(#SVGID_2_);fill:#D4EBDB;" width="60" height="33"/>
		<path style="clip-path:url(#SVGID_2_);fill:#83C698;" d="M1332.598,303.698c0,0,12.469,26.596,20.865,37.558
			c7.567,9.877,17.18,12.115,17.18,12.115s0.606-9.524-7.22-19.74C1355.024,322.665,1332.598,303.698,1332.598,303.698z"/>
		<path style="clip-path:url(#SVGID_2_);fill:#83C698;" d="M1355.801,137.92c0,0,12.858,23.571,16.397,35.686
			c3.188,10.918-0.362,19.213-0.362,19.213s-7.346-4.702-10.644-15.996C1357.652,164.705,1355.801,137.92,1355.801,137.92z"/>
		<path style="clip-path:url(#SVGID_2_);fill:#D4EBDB;" d="M1234.808,148.255c0,0,7.529,44.925,15.498,64.805
			c7.181,17.906,20.604,25.26,20.604,25.26s4.879-13.972-2.549-32.499C1260.396,185.941,1234.808,148.255,1234.808,148.255z"/>
		<path style="clip-path:url(#SVGID_2_);fill:#D4EBDB;" d="M589.692,93.855l4.982-13.635c2.083-5.697,23.109-3.15,39.662,2.9
			c17.26,6.306,34.208,17.834,32.127,23.532l-4.919,13.459"/>
		<path style="clip-path:url(#SVGID_2_);fill:#D4EBDB;" d="M590.159,300.54l-1.925,5.269c-2.083,5.697-23.109,3.148-39.665-2.9
			c-17.259-6.306-34.206-17.834-32.124-23.532l1.86-5.093"/>
		
			<ellipse transform="matrix(0.9393 0.3432 -0.3432 0.9393 102.0568 -190.6213)" style="clip-path:url(#SVGID_2_);fill:#83C698;" cx="589.54" cy="193.003" rx="145.5" ry="97.125"/>
		<path style="clip-path:url(#SVGID_2_);fill:#34A156;" d="M1785,82.877c0,1.688,0,16.123,0,16.123h-12c0,0,0-13.35,0-16.123
			c0-2.772,3.226-5.02,6-5.02C1781.773,77.857,1785,80.104,1785,82.877z"/>
		
			<line style="clip-path:url(#SVGID_2_);fill:none;stroke:#34A156;stroke-width:6;stroke-miterlimit:10;" x1="1843" y1="138" x2="1843" y2="207"/>
		
			<line style="clip-path:url(#SVGID_2_);fill:none;stroke:#000000;stroke-width:6;stroke-miterlimit:10;" x1="1710" y1="54" x2="1803" y2="54"/>
		
			<line style="clip-path:url(#SVGID_2_);fill:none;stroke:#000000;stroke-width:6;stroke-miterlimit:10;" x1="1710" y1="99" x2="1797" y2="99"/>
		
			<line style="clip-path:url(#SVGID_2_);fill:none;stroke:#000000;stroke-width:6;stroke-miterlimit:10;" x1="1705" y1="120" x2="1758" y2="120"/>
		
			<line style="clip-path:url(#SVGID_2_);fill:none;stroke:#000000;stroke-width:6;stroke-miterlimit:10;" x1="1704" y1="142" x2="1758" y2="142"/>
		<g style="clip-path:url(#SVGID_2_);">
			<line class="st99" x1="1731" y1="142" x2="1731" y2="165"/>
		</g>
		<g style="clip-path:url(#SVGID_2_);">
			<line class="st99" x1="1731" y1="121" x2="1731" y2="99"/>
		</g>
		<path style="clip-path:url(#SVGID_2_);fill:none;stroke:#34A156;stroke-width:6;stroke-miterlimit:10;" d="M1598.88,208.246
			c0,0,51.466,0.343,92.716,0.343c109.163,0,139.315-25.101,149.112-51.604c7.301-19.753,1.112-41.534-25.784-52.705"/>
		<polyline style="clip-path:url(#SVGID_2_);fill:none;stroke:#000000;stroke-width:6;stroke-miterlimit:10;" points="1816.402,107 
			1800.984,33 1788,33 1788,40 1774,40 1774,33 1762,33 1762,40 1749,40 1749,33 1735,33 1735,40 1723,40 1723,33 1711.191,33 
			1704.009,165 1758,165 		"/>
		<path style="clip-path:url(#SVGID_2_);fill:none;stroke:#000000;stroke-width:6;stroke-miterlimit:10;" d="M1402.011,525.663
			c164.385-29.736,254.001-141,249.697-208.476c-3.237-50.767-35.218-76.403-48.502-85.105L1593.353,168H1576v9h-9v-9h-18v9h-9v-9
			h-18v9h-9v-9h-18v9h-9v-9h-16.876l-9.474,153.01"/>
		<path style="clip-path:url(#SVGID_2_);fill:#D4EBDB;" d="M1903.841,243.166c-13.31,0-25.03,6.812-31.862,17.141
			c-4.323-29.164-34.666-27.115-34.666-27.115c-15.262,0-27.638,12.371-27.638,27.639c0,2.754,0.526,5.377,1.444,7.809l-0.026-0.02
			c-10.163-17.795-29.536-29.498-52.575-29.498c-28.103,0-48.804,16.359-55.51,40.729c5.159-7.845,13.954-12.898,24.048-12.898
			c12.239,0,23.413,8.322,27.611,19.08c2.76,13.489,14.818,24.275,29.121,24.275c0.729,0,1.444-0.058,2.156-0.107
			c-0.659,2.405-1.04,4.926-1.04,7.539c0,15.737,12.754,28.492,28.491,28.492c10.682,0,19.99-5.877,24.867-14.576
			c10.608,21.08,38.183,20.706,38.183,20.706c19.746,0,35.817-15.685,36.467-35.271l1.349,0.982
			c16.015-4.537,27.747-19.267,27.747-36.734C1942.009,260.258,1924.92,243.166,1903.841,243.166z"/>
		<path style="clip-path:url(#SVGID_2_);fill:#D4EBDB;" d="M1004.795,300.176c-12.239,0-23.414-8.322-27.611-19.08
			c-2.76-13.49-14.818-24.277-29.121-24.277c-0.729,0-1.444,0.059-2.156,0.109c0.659-2.406,1.04-4.927,1.04-7.541
			c0-15.736-12.754-28.492-28.491-28.492c-10.682,0-19.989,5.879-24.867,14.577c-10.608-21.081-38.183-20.706-38.183-20.706
			c-19.746,0-35.818,15.682-36.469,35.27l-1.348-0.981c-16.015,4.536-27.747,19.267-27.747,36.733
			c0,21.08,17.087,38.172,38.168,38.172c13.31,0,25.03-6.812,31.862-17.139c4.323,29.162,34.666,27.115,34.666,27.115
			c15.261,0,27.639-12.373,27.639-27.639c0-2.754-0.526-5.379-1.446-7.811l0.028,0.02c10.163,17.796,29.536,29.5,52.575,29.5
			c28.103,0,48.804-16.359,55.51-40.73C1023.684,295.121,1014.889,300.176,1004.795,300.176z"/>
		<path style="clip-path:url(#SVGID_2_);fill:#D4EBDB;" d="M316.808,503.755c0,0,7.529,44.925,15.498,64.805
			c7.181,17.906,20.604,25.26,20.604,25.26s4.879-13.972-2.549-32.499C342.396,541.441,316.808,503.755,316.808,503.755z"/>
		<path style="clip-path:url(#SVGID_2_);fill:#D4EBDB;" d="M183.598,572.198c0,0,12.469,26.596,20.865,37.558
			c7.567,9.877,17.18,12.115,17.18,12.115s0.606-9.524-7.22-19.74C206.024,591.165,183.598,572.198,183.598,572.198z"/>
		
			<rect x="93" y="448" style="clip-path:url(#SVGID_2_);fill:none;stroke:#000000;stroke-width:6;stroke-miterlimit:10;" width="19" height="99"/>
		<path style="clip-path:url(#SVGID_2_);fill:#83C698;" d="M109.972,466.384c0,0-6.252,34.509-5.657,50.988
			c0.536,14.842,8.347,23.669,8.347,23.669s7.178-8.848,6.621-24.211C118.689,500.354,109.972,466.384,109.972,466.384z"/>
		<path style="clip-path:url(#SVGID_2_);fill:#D4EBDB;" d="M203.801,361.42c0,0,12.858,23.571,16.396,35.686
			c3.189,10.918-0.36,19.213-0.36,19.213s-7.346-4.702-10.644-15.996C205.652,388.205,203.801,361.42,203.801,361.42z"/>
		<path style="clip-path:url(#SVGID_2_);fill:#D4EBDB;" d="M108.932,259.366c0,0-4.418,31.752-9.639,45.891
			c-4.702,12.737-14.004,18.173-14.004,18.173s-3.705-9.732,1.162-22.914C91.668,286.377,108.932,259.366,108.932,259.366z"/>
		<path style="clip-path:url(#SVGID_2_);fill:#83C698;" d="M39.091,326.518c0,0,24.328,11.359,34.358,19.02
			c9.04,6.902,11.099,15.686,11.099,15.686s-8.704,0.568-18.054-6.571C56.458,346.99,39.091,326.518,39.091,326.518z"/>
		<path style="clip-path:url(#SVGID_2_);fill:#34A156;" d="M1572,219.971c0,1.688,0,17.029,0,17.029h-12c0,0,0-14.258,0-17.029
			c0-2.774,3.229-5.021,6-5.021C1568.774,214.949,1572,217.196,1572,219.971z"/>
		
			<line style="clip-path:url(#SVGID_2_);fill:none;stroke:#000000;stroke-width:6;stroke-miterlimit:10;" x1="1534" y1="237" x2="1584" y2="237"/>
		
			<line style="clip-path:url(#SVGID_2_);fill:none;stroke:#000000;stroke-width:6;stroke-miterlimit:10;" x1="1465" y1="237" x2="1515" y2="237"/>
		
			<line style="clip-path:url(#SVGID_2_);fill:none;stroke:#000000;stroke-width:6;stroke-miterlimit:10;" x1="1464" y1="258" x2="1516" y2="258"/>
		
			<line style="clip-path:url(#SVGID_2_);fill:none;stroke:#000000;stroke-width:6;stroke-miterlimit:10;" x1="1462" y1="280" x2="1516" y2="280"/>
		<g style="clip-path:url(#SVGID_2_);">
			<line class="st99" x1="1489" y1="280" x2="1489" y2="303"/>
		</g>
		<g style="clip-path:url(#SVGID_2_);">
			<line class="st99" x1="1489" y1="259" x2="1489" y2="237"/>
		</g>
		
			<line style="clip-path:url(#SVGID_2_);fill:none;stroke:#000000;stroke-width:6;stroke-miterlimit:10;" x1="1462" y1="303" x2="1516" y2="303"/>
		<polyline style="clip-path:url(#SVGID_2_);fill:none;stroke:#000000;stroke-width:6;stroke-miterlimit:10;" points="
			1347.208,541.067 1321.945,382 1279,382 1279,405 1255,405 1255,382 1213,382 1213,405 1191,405 1191,382 1147,382 1147,405 
			1126,405 1126,382 1083,382 1083,405 1060,405 1060,382 1017.712,382 995.956,668.5 		"/>
		<path style="clip-path:url(#SVGID_2_);fill:#34A156;" d="M1267,514.938c0,5.054,0,46.062,0,46.062h-28c0,0,0-37.757,0-46.062
			s5.694-15.038,14-15.038C1261.309,499.899,1267,506.632,1267,514.938z"/>
		<rect x="1096" y="426" style="clip-path:url(#SVGID_2_);fill:#34A156;" width="15" height="15"/>
		<rect x="1161" y="426" style="clip-path:url(#SVGID_2_);fill:#34A156;" width="15" height="15"/>
		<rect x="1230" y="426" style="clip-path:url(#SVGID_2_);fill:#34A156;" width="15" height="15"/>
		
			<line style="clip-path:url(#SVGID_2_);fill:none;stroke:#000000;stroke-width:6;stroke-miterlimit:10;" x1="1005" y1="561" x2="1159" y2="561"/>
		
			<line style="clip-path:url(#SVGID_2_);fill:none;stroke:#000000;stroke-width:6;stroke-miterlimit:10;" x1="1002" y1="595" x2="1159" y2="595"/>
		<g style="clip-path:url(#SVGID_2_);">
			<line class="st99" x1="1054" y1="594" x2="1054" y2="561"/>
			<line class="st99" x1="1114" y1="594" x2="1114" y2="561"/>
		</g>
		<g style="clip-path:url(#SVGID_2_);">
			<line class="st99" x1="1023" y1="628" x2="1023" y2="594"/>
			<line class="st99" x1="1083" y1="628" x2="1083" y2="594"/>
		</g>
		
			<line style="clip-path:url(#SVGID_2_);fill:none;stroke:#000000;stroke-width:6;stroke-miterlimit:10;" x1="999" y1="630" x2="1159" y2="630"/>
		
			<line style="clip-path:url(#SVGID_2_);fill:none;stroke:#000000;stroke-width:6;stroke-miterlimit:10;" x1="1297" y1="561" x2="1215" y2="561"/>
		<g style="clip-path:url(#SVGID_2_);">
			<line class="st99" x1="1054" y1="669" x2="1054" y2="631"/>
			<line class="st99" x1="1114" y1="669" x2="1114" y2="631"/>
		</g>
		<path style="clip-path:url(#SVGID_2_);fill:none;stroke:#34A156;stroke-width:6;stroke-miterlimit:10;" d="M1343.142,476.104
			c164.386-29.736,238.096-112.837,238.096-167.812c0-64.392-66.237-80.029-66.237-80.029V321"/>
		
			<line style="clip-path:url(#SVGID_2_);fill:none;stroke:#000000;stroke-width:6;stroke-miterlimit:10;" x1="1651" y1="312" x2="1651" y2="427"/>
		
			<line style="clip-path:url(#SVGID_2_);fill:none;stroke:#000000;stroke-width:6;stroke-miterlimit:10;" x1="1012" y1="454" x2="1333" y2="454"/>
		
			<line style="clip-path:url(#SVGID_2_);fill:none;stroke:#000000;stroke-width:6;stroke-miterlimit:10;" x1="1468" y1="193" x2="1597" y2="193"/>
		<path style="clip-path:url(#SVGID_2_);fill:none;stroke:#000000;stroke-width:6;stroke-miterlimit:10;" d="M1297.318,516.663"/>
		<path style="clip-path:url(#SVGID_2_);fill:none;stroke:#000000;stroke-width:6;stroke-miterlimit:10;" d="M1446.095,669.377
			c-59.055-44.426-127.626-112.82-146.442-152.715l30.999,0.007c25.891,44.896,97.967,113.493,154.866,151.835"/>
		
			<rect x="93" y="339" style="clip-path:url(#SVGID_2_);fill:none;stroke:#000000;stroke-width:6;stroke-miterlimit:10;" width="19" height="100"/>
		
			<rect x="93" y="558" style="clip-path:url(#SVGID_2_);fill:none;stroke:#000000;stroke-width:6;stroke-miterlimit:10;" width="19" height="100"/>
		<path style="clip-path:url(#SVGID_2_);fill:#FFFFFF;stroke:#34A156;stroke-width:6;stroke-miterlimit:10;" d="M32.599,245.693
			c0,0,25.327,33.05,33.639,50.771c7.488,15.967,4.031,29.523,4.031,29.523s-12.381-5.453-20.13-21.974
			C41.827,286.295,32.599,245.693,32.599,245.693z"/>
		<path style="clip-path:url(#SVGID_2_);fill:none;stroke:#000000;stroke-width:6;stroke-miterlimit:10;" d="M102.932,265.366
			c0,0-4.418,31.752-9.639,45.891c-4.702,12.737-14.004,18.173-14.004,18.173s-3.705-9.732,1.162-22.914
			C85.668,292.377,102.932,265.366,102.932,265.366z"/>
		<path style="clip-path:url(#SVGID_2_);fill:none;stroke:#000000;stroke-width:6;stroke-miterlimit:10;" d="M36.091,317.518
			c0,0,24.328,11.359,34.358,19.02c9.04,6.902,11.099,15.686,11.099,15.686s-8.704,0.568-18.054-6.571
			C53.458,337.99,36.091,317.518,36.091,317.518z"/>
		<path style="clip-path:url(#SVGID_2_);fill:none;stroke:#34A156;stroke-width:6;stroke-miterlimit:10;" d="M194.294,477.464
			c0,0-37.614,25.696-52.307,41.276c-13.236,14.036-14.276,29.307-14.276,29.307s14.73-1.438,28.427-15.961
			C170.833,516.508,194.294,477.464,194.294,477.464z"/>
		<path style="clip-path:url(#SVGID_2_);fill:none;stroke:#000000;stroke-width:6;stroke-miterlimit:10;" d="M114.472,473.884
			c0,0-6.252,34.509-5.657,50.988c0.536,14.842,8.347,23.669,8.347,23.669s7.178-8.848,6.621-24.211
			C123.189,507.854,114.472,473.884,114.472,473.884z"/>
		<g style="clip-path:url(#SVGID_2_);">
			<rect x="232" y="448" class="st99" width="20" height="99"/>
			<rect x="232" y="558" class="st99" width="20" height="100"/>
		</g>
		<path style="clip-path:url(#SVGID_2_);fill:none;stroke:#000000;stroke-width:6;stroke-miterlimit:10;" d="M192.598,576.698
			c0,0,12.469,26.596,20.865,37.558c7.567,9.877,17.18,12.115,17.18,12.115s0.606-9.524-7.22-19.74
			C215.024,595.665,192.598,576.698,192.598,576.698z"/>
		<path style="clip-path:url(#SVGID_2_);fill:none;stroke:#000000;stroke-width:6;stroke-miterlimit:10;" d="M212.801,377.92
			c0,0,12.858,23.571,16.396,35.686c3.189,10.918-0.36,19.213-0.36,19.213s-7.346-4.702-10.644-15.996
			C214.652,404.705,212.801,377.92,212.801,377.92z"/>
		<path style="clip-path:url(#SVGID_2_);fill:#FFFFFF;stroke:#34A156;stroke-width:6;stroke-miterlimit:10;" d="M309.794,364.964
			c0,0-37.614,25.696-52.307,41.276c-13.236,14.036-14.276,29.307-14.276,29.307s14.73-1.438,28.427-15.961
			C286.333,404.008,309.794,364.964,309.794,364.964z"/>
		<g style="clip-path:url(#SVGID_2_);">
			<rect x="364" y="558" class="st99" width="20" height="100"/>
		</g>
		<path style="clip-path:url(#SVGID_2_);fill:none;stroke:#000000;stroke-width:6;stroke-miterlimit:10;" d="M324.308,500.755
			c0,0,7.529,44.925,15.498,64.805c7.181,17.906,20.604,25.26,20.604,25.26s4.879-13.972-2.549-32.499
			C349.896,538.441,324.308,500.755,324.308,500.755z"/>
		<path style="clip-path:url(#SVGID_2_);fill:#FFFFFF;stroke:#34A156;stroke-width:6;stroke-miterlimit:10;" d="M368.783,482.644
			c0,0-9.687,27.731-11.351,41.438c-1.499,12.352,3.807,20.675,3.807,20.675s7.092-6.384,8.644-19.16
			C371.549,511.885,368.783,482.644,368.783,482.644z"/>
		<path style="clip-path:url(#SVGID_2_);fill:#FFFFFF;stroke:#34A156;stroke-width:6;stroke-miterlimit:10;" d="M403.441,585.373
			c0,0-22.406,18.993-30.791,29.965c-7.553,9.888-7.198,19.75-7.198,19.75s9.353-1.905,17.165-12.133
			C391.002,611.983,403.441,585.373,403.441,585.373z"/>
		<g style="clip-path:url(#SVGID_2_);">
			<rect x="1380" y="201" class="st99" width="19" height="99"/>
			<rect x="1380" y="310" class="st99" width="19" height="101"/>
		</g>
		<path style="clip-path:url(#SVGID_2_);fill:#FFFFFF;stroke:#34A156;stroke-width:6;stroke-miterlimit:10;" d="M1417.983,253.255
			c0,0-7.529,44.925-15.498,64.805c-7.182,17.906-20.604,25.26-20.604,25.26s-4.879-13.972,2.549-32.499
			C1392.396,290.941,1417.983,253.255,1417.983,253.255z"/>
		<path style="clip-path:url(#SVGID_2_);fill:none;stroke:#000000;stroke-width:6;stroke-miterlimit:10;" d="M1340.098,324.698
			c0,0,12.469,26.596,20.865,37.558c7.567,9.877,17.18,12.115,17.18,12.115s0.606-9.524-7.22-19.74
			C1362.524,343.665,1340.098,324.698,1340.098,324.698z"/>
		<path style="clip-path:url(#SVGID_2_);fill:none;stroke:#000000;stroke-width:6;stroke-miterlimit:10;" d="M1360.301,130.42
			c0,0,12.858,23.571,16.397,35.686c3.188,10.918-0.362,19.213-0.362,19.213s-7.346-4.702-10.644-15.996
			C1362.152,157.205,1360.301,130.42,1360.301,130.42z"/>
		<path style="clip-path:url(#SVGID_2_);fill:#FFFFFF;stroke:#34A156;stroke-width:6;stroke-miterlimit:10;" d="M1457.294,117.464
			c0,0-37.614,25.696-52.307,41.276c-13.237,14.036-14.276,29.307-14.276,29.307s14.73-1.438,28.427-15.961
			C1433.833,156.508,1457.294,117.464,1457.294,117.464z"/>
		<g style="clip-path:url(#SVGID_2_);">
			<rect x="1284" y="199" class="st99" width="19" height="101"/>
		</g>
		<path style="clip-path:url(#SVGID_2_);fill:none;stroke:#000000;stroke-width:6;stroke-miterlimit:10;" d="M1243.808,142.255
			c0,0,7.529,44.925,15.498,64.805c7.181,17.906,20.604,25.26,20.604,25.26s4.879-13.972-2.549-32.499
			C1269.396,179.941,1243.808,142.255,1243.808,142.255z"/>
		<path style="clip-path:url(#SVGID_2_);fill:#FFFFFF;stroke:#34A156;stroke-width:6;stroke-miterlimit:10;" d="M1288.283,124.144
			c0,0-9.687,27.731-11.351,41.438c-1.499,12.352,3.807,20.675,3.807,20.675s7.093-6.384,8.644-19.16
			C1291.049,153.385,1288.283,124.144,1288.283,124.144z"/>
		<g style="clip-path:url(#SVGID_2_);">
			<line class="st104" x1="636.817" y1="19.284" x2="614.165" y2="81.275"/>
			<g>
				<path class="st104" d="M506.783,283.87c-12.521,34.265-37.012,57.293-71.561,62.294"/>
				<path class="st104" d="M517.529,291.641c-11.854,37.76-41.068,66.672-82.307,72.455"/>
				<path class="st104" d="M529.071,297.504c-11.092,42.377-45.3,77.865-93.848,84.522"/>
				<path class="st104" d="M540.992,301.867c-9.904,47.651-49.334,90.479-105.769,98.089"/>
				<path class="st104" d="M553.063,304.76c-8.019,53.398-52.906,104.484-117.841,113.129"/>
				<path class="st104" d="M564.901,308.119c-6.116,58.852-56.391,118.045-129.678,127.699"/>
			</g>
			
				<ellipse transform="matrix(0.9393 0.3432 -0.3432 0.9393 102.0841 -184.7758)" class="st99" cx="573.04" cy="196.003" rx="145.5" ry="97.125"/>
			<path class="st99" d="M570.192,92.355l4.982-13.635c2.083-5.697,23.109-3.15,39.662,2.9c17.26,6.306,34.208,17.834,32.127,23.532
				l-4.919,13.459"/>
			<path class="st99" d="M576.659,297.54l-1.925,5.269c-2.083,5.697-23.109,3.148-39.665-2.9
				c-17.259-6.306-34.206-17.834-32.124-23.532l1.86-5.093"/>
			
				<ellipse transform="matrix(0.9393 0.3432 -0.3432 0.9393 102.084 -184.7756)" class="st99" cx="573.041" cy="196.004" rx="118.875" ry="97.125"/>
			
				<ellipse transform="matrix(0.9393 0.3432 -0.3432 0.9393 102.0858 -184.7775)" class="st99" cx="573.04" cy="196.004" rx="88.782" ry="97.125"/>
			
				<ellipse transform="matrix(0.9393 0.3432 -0.3432 0.9393 102.0854 -184.7774)" class="st99" cx="573.04" cy="196.003" rx="47.765" ry="97.125"/>
			<line class="st99" x1="605.414" y1="105.227" x2="538.998" y2="286.971"/>
		</g>
		<g style="clip-path:url(#SVGID_2_);">
			<path class="st99" d="M788.525,265.73c-16.015,4.537-27.747,19.268-27.747,36.734c0,21.079,17.087,38.171,38.168,38.171
				c13.31,0,25.03-6.812,31.862-17.139c4.323,29.162,34.666,27.116,34.666,27.116c15.261,0,27.639-12.374,27.639-27.639
				c0-12.215-9.898-22.115-22.11-22.115c-9.771,0-17.692,7.922-17.692,17.692c0,7.816,6.337,14.15,14.153,14.15
				c6.252,0,11.323-5.068,11.323-11.32c0-5.004-4.055-9.058-9.059-9.058c-4.002,0-7.247,3.242-7.247,7.247"/>
			<path class="st99" d="M891.694,315.183c10.163,17.796,29.536,29.501,52.574,29.501c28.104,0,48.805-16.359,55.511-40.73
				c-5.159,7.846-13.954,12.899-24.048,12.899c-12.239,0-23.414-8.321-27.611-19.079c-2.76-13.49-14.818-24.277-29.121-24.277
				c-0.729,0-1.444,0.059-2.156,0.108c0.659-2.405,1.04-4.927,1.04-7.541c0-15.735-12.754-28.491-28.491-28.491
				c-10.682,0-19.989,5.879-24.867,14.576c-10.608-21.08-38.183-20.705-38.183-20.705c-20.159,0-36.5,16.342-36.5,36.501
				c0,16.128,13.071,29.2,29.196,29.2c12.904,0,23.364-10.459,23.364-23.361c0-10.321-8.369-18.688-18.691-18.688
				c-8.256,0-14.95,6.694-14.95,14.952c0,6.605,5.355,11.96,11.962,11.96c5.285,0,9.571-4.283,9.571-9.569"/>
		</g>
		<path style="clip-path:url(#SVGID_2_);fill:none;stroke:#34A156;stroke-width:6;stroke-miterlimit:10;" d="M96.536,134.263
			c-20.06-5.684-34.758-24.134-34.758-46.014c0-26.405,21.406-47.813,47.812-47.813c16.673,0,31.352,8.532,39.911,21.469
			c5.414-36.529,43.422-33.967,43.422-33.967c19.119,0,34.622,15.499,34.622,34.621c0,15.299-12.398,27.7-27.697,27.7
			c-12.237,0-22.16-9.921-22.16-22.16c0-9.791,7.938-17.725,17.727-17.725c7.834,0,14.185,6.349,14.185,14.18
			c0,6.267-5.079,11.344-11.347,11.344c-5.014,0-9.078-4.061-9.078-9.076"/>
		<path style="clip-path:url(#SVGID_2_);fill:none;stroke:#34A156;stroke-width:6;stroke-miterlimit:10;" d="M225.771,72.317
			c12.729-22.292,36.996-36.952,65.855-36.952c35.202,0,61.135,20.493,69.535,51.02c-6.463-9.826-17.479-16.158-30.123-16.158
			c-15.331,0-29.331,10.423-34.588,23.899c-3.457,16.898-18.561,30.41-36.478,30.41c-0.911,0-1.808-0.073-2.701-0.135
			c0.826,3.012,1.304,6.17,1.304,9.445c0,19.711-15.977,35.688-35.688,35.688c-13.381,0-25.04-7.364-31.15-18.26
			c-13.289,26.405-47.83,25.938-47.83,25.938c-25.251,0-45.721-20.471-45.721-45.722c0-20.203,16.374-36.577,36.574-36.577
			c16.163,0,29.265,13.102,29.265,29.262c0,12.929-10.482,23.411-23.411,23.411c-10.343,0-18.727-8.388-18.727-18.729
			c0-8.276,6.706-14.982,14.981-14.982c6.621,0,11.99,5.365,11.99,11.988"/>
		<path style="clip-path:url(#SVGID_2_);fill:none;stroke:#34A156;stroke-width:6;stroke-miterlimit:10;" d="M1148.464,69.279
			c21.428,6.073,37.129,25.781,37.129,49.156c0,28.208-22.868,51.077-51.076,51.077c-17.811,0-33.491-9.114-42.634-22.934
			c-5.783,39.022-46.386,36.284-46.386,36.284c-20.426,0-36.984-16.557-36.984-36.984c0-16.342,13.244-29.59,29.587-29.59
			c13.072,0,23.672,10.597,23.672,23.672c0,10.459-8.479,18.935-18.938,18.935c-8.367,0-15.152-6.782-15.152-15.147
			c0-6.696,5.426-12.119,12.122-12.119c5.357,0,9.697,4.339,9.697,9.697"/>
		<path style="clip-path:url(#SVGID_2_);fill:none;stroke:#34A156;stroke-width:6;stroke-miterlimit:10;" d="M1010.408,135.455
			c-13.598,23.812-39.521,39.473-70.351,39.473c-37.603,0-65.307-21.891-74.279-54.5c6.904,10.496,18.671,17.26,32.18,17.26
			c16.377,0,31.332-11.136,36.948-25.529c3.693-18.053,19.827-32.487,38.966-32.487c0.974,0,1.931,0.079,2.886,0.146
			c-0.882-3.219-1.392-6.591-1.392-10.09c0-21.058,17.065-38.125,38.124-38.125c14.294,0,26.748,7.865,33.275,19.505
			c14.194-28.207,51.094-27.708,51.094-27.708c26.975,0,48.841,21.869,48.841,48.843c0,21.581-17.49,39.075-39.07,39.075
			c-17.265,0-31.261-13.997-31.261-31.259c0-13.812,11.199-25.009,25.009-25.009c11.048,0,20.004,8.959,20.004,20.008
			c0,8.839-7.163,16.002-16.003,16.002c-7.074,0-12.807-5.73-12.807-12.805"/>
		<g style="clip-path:url(#SVGID_2_);">
			<path class="st99" d="M1909.529,338.857c16.015-4.538,27.747-19.268,27.747-36.735c0-21.079-17.089-38.171-38.168-38.171
				c-13.31,0-25.03,6.812-31.862,17.141c-4.323-29.164-34.666-27.116-34.666-27.116c-15.262,0-27.639,12.372-27.639,27.639
				c0,12.214,9.898,22.113,22.11,22.113c9.771,0,17.692-7.921,17.692-17.692c0-7.814-6.337-14.148-14.153-14.148
				c-6.252,0-11.323,5.068-11.323,11.32c0,5.002,4.055,9.057,9.059,9.057c4.002,0,7.247-3.243,7.247-7.246"/>
			<path class="st99" d="M1806.36,289.404c-10.163-17.795-29.536-29.499-52.575-29.499c-28.103,0-48.804,16.359-55.51,40.729
				c5.159-7.845,13.954-12.897,24.048-12.897c12.239,0,23.413,8.321,27.611,19.079c2.76,13.489,14.818,24.275,29.121,24.275
				c0.729,0,1.444-0.058,2.156-0.106c-0.659,2.404-1.04,4.926-1.04,7.539c0,15.736,12.754,28.491,28.491,28.491
				c10.682,0,19.989-5.877,24.867-14.575c10.608,21.079,38.183,20.705,38.183,20.705c20.159,0,36.498-16.343,36.498-36.5
				c0-16.13-13.069-29.202-29.194-29.202c-12.905,0-23.364,10.46-23.364,23.361c0,10.321,8.368,18.688,18.69,18.688
				c8.257,0,14.95-6.694,14.95-14.95c0-6.606-5.354-11.96-11.961-11.96c-5.285,0-9.571,4.281-9.571,9.569"/>
		</g>
		<path style="clip-path:url(#SVGID_2_);fill:none;stroke:#34A156;stroke-width:6;stroke-miterlimit:10;" d="M1277.224,668.504
			c-52.03-49.598-105.787-115.451-117.708-152.063"/>
		<path style="clip-path:url(#SVGID_2_);fill:none;stroke:#34A156;stroke-width:6;stroke-miterlimit:10;" d="M1159,676V517h29.993
			c16.664,40.223,71.721,105.736,122.672,151.503"/>
		<path style="clip-path:url(#SVGID_2_);fill:#D4EBDB;" d="M161.628,556.92c0,0-29.165,3.495-42.208,8.029
			c-11.751,4.086-16.893,12.511-16.893,12.511s8.854,3.565,21.009-0.662C136.582,572.264,161.628,556.92,161.628,556.92z"/>
		<path style="clip-path:url(#SVGID_2_);fill:none;stroke:#000000;stroke-width:6;stroke-miterlimit:10;" d="M166.128,550.92
			c0,0-29.165,3.495-42.208,8.029c-11.751,4.086-16.893,12.511-16.893,12.511s8.854,3.565,21.009-0.662
			C141.082,566.264,166.128,550.92,166.128,550.92z"/>
		<path style="clip-path:url(#SVGID_2_);fill:#83C698;" d="M54.598,588.698c0,0,12.469,26.596,20.865,37.558
			c7.567,9.877,17.18,12.115,17.18,12.115s0.606-9.524-7.22-19.74C77.024,607.665,54.598,588.698,54.598,588.698z"/>
		<path style="clip-path:url(#SVGID_2_);fill:none;stroke:#000000;stroke-width:6;stroke-miterlimit:10;" d="M54.598,597.698
			c0,0,12.469,26.596,20.865,37.558c7.567,9.877,17.18,12.115,17.18,12.115s0.606-9.524-7.22-19.74
			C77.024,616.665,54.598,597.698,54.598,597.698z"/>
		<path style="clip-path:url(#SVGID_2_);fill:#83C698;" d="M279.483,499.255c0,0-7.529,44.925-15.498,64.805
			c-7.182,17.906-20.604,25.26-20.604,25.26s-4.879-13.972,2.549-32.499C253.896,536.941,279.483,499.255,279.483,499.255z"/>
		<path style="clip-path:url(#SVGID_2_);fill:none;stroke:#000000;stroke-width:6;stroke-miterlimit:10;" d="M270.483,512.755
			c0,0-7.529,44.925-15.498,64.805c-7.182,17.906-20.604,25.26-20.604,25.26s-4.879-13.972,2.549-32.499
			C244.896,550.441,270.483,512.755,270.483,512.755z"/>
		<path style="clip-path:url(#SVGID_2_);fill:#83C698;" d="M1828.73,418.727c5.791,13.576-57.234,53.464-140.767,89.092
			c-83.537,35.628-155.95,53.502-161.739,39.926c-5.792-13.573,57.234-53.461,140.769-89.089
			C1750.529,423.027,1822.939,405.152,1828.73,418.727z"/>
		<path style="clip-path:url(#SVGID_2_);fill:#D4EBDB;" d="M1526.725,525.902c0,0,37.034-47.902,127.784-86.152
			c0,0,108-39.75,171.334-40.32l-209.282-75.014L1526.725,525.902"/>
		<g style="clip-path:url(#SVGID_2_);">
			<g>
				<polyline class="st99" points="1812.343,409.93 1603.061,334.916 1513.225,536.402 				"/>
				<path class="st99" d="M1815.23,412.727c5.791,13.576-57.234,53.464-140.767,89.092c-83.537,35.628-155.95,53.502-161.739,39.926
					c-5.792-13.573,57.234-53.461,140.769-89.089C1737.029,417.027,1809.439,399.152,1815.23,412.727z"/>
				<path class="st104" d="M1815.416,413.16c25.67,60.188-16.383,149.254-99.914,184.881
					c-83.537,35.629-176.925,4.324-202.594-55.863"/>
				<line class="st104" x1="1715.792" y1="598.504" x2="1725.324" y2="620.852"/>
			</g>
			<line class="st99" x1="1603.055" y1="334.918" x2="1560.967" y2="498.54"/>
			<line class="st99" x1="1603.047" y1="334.923" x2="1599.155" y2="477.816"/>
			<line class="st99" x1="1603.037" y1="334.926" x2="1635.604" y2="460.489"/>
			<line class="st99" x1="1603.031" y1="334.929" x2="1671.498" y2="445.182"/>
			<line class="st99" x1="1603.025" y1="334.932" x2="1709.637" y2="430.725"/>
			<line class="st99" x1="1603.017" y1="334.935" x2="1750.879" y2="417.575"/>
		</g>
		<path style="clip-path:url(#SVGID_2_);fill:#83C698;" d="M1331.941,219.373c0,0-22.406,18.993-30.791,29.965
			c-7.553,9.888-7.198,19.75-7.198,19.75s9.353-1.905,17.165-12.133C1319.502,245.983,1331.941,219.373,1331.941,219.373z"/>
		<path style="clip-path:url(#SVGID_2_);fill:none;stroke:#000000;stroke-width:6;stroke-miterlimit:10;" d="M1322.941,226.873
			c0,0-22.406,18.993-30.791,29.965c-7.553,9.888-7.198,19.75-7.198,19.75s9.353-1.905,17.165-12.133
			C1310.502,253.483,1322.941,226.873,1322.941,226.873z"/>
	</g>
</g>
</svg>
