<?xml version="1.0" encoding="utf-8"?>
<!-- Generator: Adobe Illustrator 16.0.0, SVG Export Plug-In . SVG Version: 6.00 Build 0)  -->
<!DOCTYPE svg PUBLIC "-//W3C//DTD SVG 1.1//EN" "http://www.w3.org/Graphics/SVG/1.1/DTD/svg11.dtd">
<svg version="1.1" xmlns="http://www.w3.org/2000/svg" xmlns:xlink="http://www.w3.org/1999/xlink" x="0px" y="0px" width="1920px"
	 height="1139.878px" viewBox="0 0 1920 1139.878" style="enable-background:new 0 0 1920 1139.878;" xml:space="preserve">
<style type="text/css">
<![CDATA[
	.st0{fill:none;stroke:#272525;stroke-width:4;stroke-miterlimit:10;}
	.st1{clip-path:url(#SVGID_18_);fill:none;stroke:#C72A7D;stroke-width:6;stroke-miterlimit:10;}
	.st2{fill:#7CC7EA;}
	.st3{clip-path:url(#SVGID_18_);fill:#C72A7D;}
	.st4{clip-path:url(#SVGID_20_);fill:#83C698;}
	.st5{fill:none;stroke:#32367C;stroke-width:4;stroke-miterlimit:10;}
	.st6{fill:none;stroke:#FAEC34;stroke-width:6.5491;stroke-miterlimit:10;}
	.st7{clip-path:url(#SVGID_24_);fill:none;stroke:#27A2DC;stroke-width:4.3661;stroke-miterlimit:10;}
	.st8{fill:#FFFFFF;stroke:#C72A7D;stroke-width:6;stroke-miterlimit:10;}
	.st9{clip-path:url(#SVGID_8_);fill:none;stroke:#000000;stroke-width:4;stroke-miterlimit:10;}
	.st10{clip-path:url(#SVGID_24_);fill:none;stroke:#FAEC34;stroke-width:4;stroke-miterlimit:10;}
	.st11{fill:none;stroke:#000000;stroke-width:5;stroke-miterlimit:10;}
	.st12{clip-path:url(#SVGID_10_);fill:none;stroke:#000000;stroke-width:4;stroke-miterlimit:10;}
	.st13{clip-path:url(#SVGID_16_);fill:none;}
	.st14{fill:#FFFF66;stroke:#000000;stroke-width:4;stroke-miterlimit:10;}
	.st15{fill:#F8EB35;stroke:#F8EB35;stroke-width:3.5625;stroke-miterlimit:10;}
	.st16{clip-path:url(#SVGID_10_);fill:#FFFFFF;stroke:#000000;stroke-width:4;stroke-miterlimit:10;}
	.st17{clip-path:url(#SVGID_26_);fill:none;stroke:#C72B7D;stroke-width:6;stroke-miterlimit:10;}
	.st18{fill:none;stroke:#C72A7D;stroke-width:4;stroke-miterlimit:10;}
	.st19{fill:none;stroke:#C72B7D;stroke-width:4;stroke-miterlimit:10;}
	.st20{clip-path:url(#SVGID_32_);fill:none;stroke:#34A157;stroke-width:6.5645;stroke-miterlimit:10;}
	.st21{clip-path:url(#SVGID_32_);fill:none;stroke:#32367C;stroke-width:6.0141;stroke-miterlimit:10;}
	.st22{fill:#83C698;}
	.st23{clip-path:url(#SVGID_18_);fill:none;stroke:#000000;stroke-width:6;stroke-miterlimit:10;}
	.st24{fill:none;stroke:#D1EBF7;stroke-width:6;stroke-miterlimit:10;}
	.st25{fill:none;stroke:#27A2DC;stroke-width:4.3661;stroke-miterlimit:10;}
	.st26{fill:#FFFFFF;stroke:#000000;stroke-width:6;stroke-miterlimit:10;}
	.st27{fill:#FFFFFF;stroke:#34A156;stroke-width:6;stroke-miterlimit:10;}
	.st28{fill:none;stroke:#FFFFFF;stroke-miterlimit:10;}
	.st29{fill:#FAEC34;stroke:#000000;stroke-width:4;stroke-miterlimit:10;}
	.st30{fill:none;stroke:#000000;stroke-width:4;stroke-miterlimit:10;}
	.st31{clip-path:url(#SVGID_30_);fill:none;stroke:#FAEC34;stroke-width:4;stroke-miterlimit:10;}
	.st32{clip-path:url(#SVGID_32_);fill:none;stroke:#C72B7D;stroke-width:6.0141;stroke-miterlimit:10;}
	.st33{fill:none;stroke:#34A156;stroke-width:4;stroke-miterlimit:10;}
	.st34{fill:#F2D2E3;}
	.st35{fill:#26A1DB;}
	.st36{fill:#27A1DB;}
	.st37{fill:#27A2DC;}
	.st38{fill:#5D5D5D;}
	.st39{fill:#C72A7D;stroke:#000000;stroke-width:4;stroke-miterlimit:10;}
	.st40{clip-path:url(#SVGID_20_);fill:#FFFFFF;stroke:#34A156;stroke-width:6;stroke-miterlimit:10;}
	.st41{fill:#F8EB35;}
	.st42{clip-path:url(#SVGID_18_);fill:#DD7FAF;}
	.st43{clip-path:url(#SVGID_8_);}
	.st44{clip-path:url(#SVGID_18_);fill:#FFFFFF;stroke:#C72A7D;stroke-width:6;stroke-miterlimit:10;}
	.st45{stroke:#000000;stroke-width:4;stroke-miterlimit:10;}
	.st46{fill:none;stroke:#27A1DB;stroke-width:6;stroke-miterlimit:10;}
	.st47{fill:#FFFFFF;stroke:#C72A7D;stroke-width:4;stroke-miterlimit:10;}
	.st48{fill:#C6C6C6;}
	.st49{fill:#FAEC34;}
	.st50{clip-path:url(#SVGID_26_);fill:none;stroke:#FAEC34;stroke-width:6;stroke-miterlimit:10;}
	.st51{fill:#C72A7D;}
	.st52{fill:#C72B7D;}
	.st53{fill:none;stroke:#FAEC34;stroke-width:4;stroke-miterlimit:10;}
	.st54{fill:none;stroke:#FFFF66;stroke-width:4;stroke-miterlimit:10;}
	.st55{clip-path:url(#SVGID_20_);fill:#34A156;}
	.st56{clip-path:url(#SVGID_32_);fill:none;stroke:#FAEC34;stroke-width:6.0141;stroke-miterlimit:10;}
	.st57{clip-path:url(#SVGID_16_);fill:none;stroke:#FAEC34;stroke-width:3.6282;stroke-miterlimit:10;}
	.st58{fill:none;stroke:#000000;stroke-width:3;stroke-miterlimit:10;}
	.st59{fill:#FFFFFF;}
	.st60{fill:none;stroke:#000000;stroke-width:3.8428;stroke-miterlimit:10;}
	.st61{clip-path:url(#SVGID_30_);fill:none;stroke:#34A157;stroke-width:4.3661;stroke-miterlimit:10;}
	.st62{fill:none;stroke:#FAEC34;stroke-width:4.3661;stroke-miterlimit:10;}
	.st63{fill:none;}
	.st64{clip-path:url(#SVGID_24_);fill:none;stroke:#32367C;stroke-width:4;stroke-miterlimit:10;}
	.st65{clip-path:url(#SVGID_20_);fill:#D4EBDB;}
	.st66{fill:none;stroke:#D1EBF7;stroke-width:4;stroke-miterlimit:10;}
	.st67{fill:#32367C;}
	.st68{clip-path:url(#SVGID_20_);fill:none;stroke:#000000;stroke-width:6;stroke-miterlimit:10;}
	.st69{fill:#FFFFFF;stroke:#000000;stroke-width:4;stroke-miterlimit:10;}
	.st70{fill:#34A156;}
	.st71{fill:#34A157;}
	.st72{clip-path:url(#SVGID_24_);fill:none;stroke:#C72B7D;stroke-width:4;stroke-miterlimit:10;}
	.st73{clip-path:url(#SVGID_20_);fill:none;stroke:#34A156;stroke-width:6;stroke-miterlimit:10;}
	.st74{fill:none;stroke:#C72A7D;stroke-width:6;stroke-miterlimit:10;}
	.st75{fill:#FFFFFF;stroke:#34A156;stroke-width:4;stroke-miterlimit:10;}
	.st76{stroke:#000000;stroke-width:3;stroke-miterlimit:10;}
	.st77{fill:none;stroke:#FFFFFF;stroke-width:4;stroke-miterlimit:10;}
	.st78{fill:none;stroke:#7CC7EA;stroke-width:4;stroke-miterlimit:10;}
	.st79{fill:#D1EBF7;}
	.st80{fill:none;stroke:#34A157;stroke-width:4.3661;stroke-miterlimit:10;}
	.st81{fill:#D4EBDB;}
	.st82{fill:none;stroke:#000000;stroke-width:5.2992;stroke-miterlimit:10;}
	.st83{clip-path:url(#SVGID_30_);fill:none;stroke:#32367C;stroke-width:4;stroke-miterlimit:10;}
	.st84{fill:none;stroke:#FFFFFF;stroke-width:1.4794;stroke-miterlimit:10;}
	.st85{clip-path:url(#SVGID_10_);}
	.st86{clip-path:url(#SVGID_12_);}
	.st87{clip-path:url(#SVGID_14_);}
	.st88{clip-path:url(#SVGID_16_);}
	.st89{clip-path:url(#SVGID_18_);}
	.st90{clip-path:url(#SVGID_20_);}
	.st91{clip-path:url(#SVGID_22_);}
	.st92{fill:none;stroke:#000000;stroke-width:6;stroke-miterlimit:10;}
	.st93{clip-path:url(#SVGID_18_);fill:#F2D2E3;}
	.st94{clip-path:url(#SVGID_8_);fill:#FFFFFF;stroke:#000000;stroke-width:4;stroke-miterlimit:10;}
	.st95{fill:none;stroke:#272525;stroke-width:3.5625;stroke-miterlimit:10;}
	.st96{clip-path:url(#SVGID_28_);fill:none;stroke:#27A2DC;stroke-width:6.5491;stroke-miterlimit:10;}
	.st97{fill:none;stroke:#34A156;stroke-width:6;stroke-miterlimit:10;}
	.st98{clip-path:url(#SVGID_28_);fill:none;stroke:#32367C;stroke-width:6;stroke-miterlimit:10;}
	.st99{fill:none;stroke:#27A1DB;stroke-width:4;stroke-miterlimit:10;}
	.st100{clip-path:url(#SVGID_30_);fill:none;stroke:#C72B7D;stroke-width:4;stroke-miterlimit:10;}
	.st101{fill:#DD7FAF;}
	.st102{clip-path:url(#SVGID_12_);fill:none;stroke:#000000;stroke-width:4;stroke-miterlimit:10;}
]]>
</style>
<g id="Layer_1">
</g>
<g id="Layer_2">
	<g>
		<g>
			<g>
				<g>
					<path d="M869.683,746.145l9.764,5.726l-3.095,5.3l-15.826-9.276l15.516-26.435l6.036,3.538L869.683,746.145z"/>
				</g>
				<g>
					<path d="M903.255,768.165l0.414-6.531l-10.081-3.697l-3.909,5.24l-6.878-2.516l20.161-25.255l8.288,3.04l-0.95,32.297
						L903.255,768.165z M897.113,753.219l6.915,2.53c0.484-7.211,0.893-11.904,1.245-14.08
						C904.641,742.86,901.918,746.713,897.113,753.219z"/>
				</g>
				<g>
					<path d="M936.844,763.542l3.017-18.58l6.913,1.12l-3.003,18.542c-0.644,3.952-2.243,6.785-4.791,8.511
						c-2.553,1.716-5.702,2.276-9.449,1.667c-3.732-0.604-6.554-2.116-8.469-4.559c-1.909-2.42-2.559-5.522-1.944-9.302
						l3.057-18.846l6.914,1.118l-3.052,18.811c-0.608,3.746,0.881,5.896,4.475,6.479
						C934.104,769.098,936.213,767.435,936.844,763.542z"/>
				</g>
				<g>
					<path d="M960.342,766.084l0.348,10.627l-7.004,0.231l-1.004-30.645l10.597-0.338c3.418-0.109,6.202,0.707,8.337,2.457
						c2.128,1.75,3.251,4.083,3.345,6.991c0.145,4.364-1.619,7.442-5.298,9.229l8.161,11.529l-8.366,0.268l-6.981-10.422
						L960.342,766.084z M959.868,751.761l0.281,8.633l3.319-0.109c3.04-0.099,4.5-1.63,4.402-4.596
						c-0.036-1.302-0.463-2.325-1.284-3.03c-0.813-0.716-1.89-1.058-3.257-1.009L959.868,751.761z"/>
				</g>
				<g>
					<path d="M1005.351,770.742l-3.204-5.715l-10.467,2.347l-0.446,6.54l-7.143,1.594l3.275-32.149l8.603-1.934l16.696,27.673
						L1005.351,770.742z M992.09,761.511l7.182-1.615c-3.501-6.336-5.685-10.505-6.573-12.512
						C992.814,748.731,992.61,753.439,992.09,761.511z"/>
				</g>
				<g>
					<path d="M1051.411,721.385l-9.776,6.311l4.286,6.64l8.524-5.494l3.04,4.703l-8.53,5.498l6.267,9.701l-5.919,3.833
						l-16.622-25.756l15.698-10.139L1051.411,721.385z"/>
				</g>
				<g>
					<path d="M1074.6,727.197l8.887-8.071l3.765,4.133l-14.097,12.828l-20.629-22.675l13.958-12.707l3.77,4.146l-8.743,7.951
						l4.683,5.144l7.805-7.089l3.728,4.098l-7.803,7.103L1074.6,727.197z M1058.755,693.969l1.683,9.35l-4.066,3.709l-2.528-8.584
						L1058.755,693.969z"/>
				</g>
				<g>
					<path d="M1094.012,706.163l7.089-8.84l4.795,3.856l-11.477,14.286l-23.9-19.199l4.378-5.448L1094.012,706.163z"/>
				</g>
				<g>
					<path d="M1110.506,693.942l-26.081-16.124l3.684-5.956l26.074,16.109L1110.506,693.942z"/>
				</g>
				<g>
					<path d="M1115.868,663.52l6.669,8.694l-3.339,7.782l-10.481-15.04l-17.521,2.539l3.214-7.477l10.24-1.155l-6.316-8.002
						l3.372-7.867l10.264,14.496l18.136-2.954l-3.271,7.646L1115.868,663.52z"/>
				</g>
				<g>
					<path d="M1108.895,599.527l5.611,0.537l-0.698,7.427l24.901,2.348l-0.662,7.014l-24.903-2.347l-0.709,7.479l-5.607-0.536
						L1108.895,599.527z"/>
				</g>
				<g>
					<path d="M1133.297,585.796l-0.869-11.973l5.582-0.4l1.374,18.998l-30.568,2.214l-1.369-18.83l5.581-0.394l0.857,11.788
						l6.943-0.499l-0.765-10.518l5.533-0.406l0.764,10.523L1133.297,585.796z"/>
				</g>
				<g>
					<path d="M1136.162,563.015l-30.015,6.189l-1.422-6.858l30.02-6.189L1136.162,563.015z"/>
				</g>
				<g>
					<path d="M1119.169,537.225l10.816,1.739l2.918,7.939l-17.936-3.719l-10.985,13.885l-2.815-7.642l6.656-7.873l-10.093-1.472
						l-2.953-8.025l17.419,3.468l11.144-14.611l2.874,7.812L1119.169,537.225z"/>
				</g>
				<g>
					<path d="M1110.251,508.869l-6.148-10.312l4.803-2.869l9.758,16.373l-26.333,15.697l-9.666-16.215l4.812-2.869l6.052,10.165
						l5.979-3.561l-5.406-9.067l4.772-2.845l5.405,9.064L1110.251,508.869z"/>
				</g>
				<g>
					<path d="M1102.445,487.043l-24.029,19.024l-4.347-5.491l24.03-19.028L1102.445,487.043z"/>
				</g>
				<g>
					<path d="M1078.35,475.645l7.32-7.728l5.088,4.816l-21.076,22.257l-7.699-7.29c-2.492-2.346-3.859-4.9-4.116-7.647
						c-0.254-2.749,0.614-5.186,2.614-7.297c2.999-3.173,6.433-4.079,10.282-2.729l2.449-13.903l6.079,5.756l-2.49,12.293
						L1078.35,475.645z M1068.503,486.046l5.938-6.274l-2.414-2.285c-2.194-2.081-4.32-2.043-6.364,0.109
						c-0.9,0.949-1.315,1.964-1.248,3.046c0.061,1.082,0.583,2.098,1.576,3.034L1068.503,486.046z"/>
				</g>
				<g>
					<path d="M1050.006,440.37l-1.816,6.286l9.04,5.798l4.948-4.274l6.171,3.952l-25.17,20.271l-7.422-4.76l7.94-31.324
						L1050.006,440.37z M1052.762,456.292l-6.197-3.979c-2.048,6.946-3.463,11.432-4.266,13.476
						C1043.16,464.762,1046.663,461.595,1052.762,456.292z"/>
				</g>
			</g>
		</g>
		<g>
			<path d="M854.905,725.775"/>
		</g>
		<g>
			<g>
				<path d="M958.708,426.897c-93.359,0-169.323,75.965-169.323,169.324c0,51.614,23.127,99.764,63.426,132.121l3.389-5.791
					c-38.259-31.078-60.19-77.063-60.19-126.33c0-89.71,72.98-162.706,162.698-162.706c23.201,0,45.49,4.759,66.386,14.127
					l3.367-5.746C1006.523,431.949,983.101,426.897,958.708,426.897z"/>
			</g>
		</g>
	</g>
	<line class="st63" x1="582.764" y1="656.546" x2="655.419" y2="650.483"/>
	<line class="st63" x1="576.751" y1="639.772" x2="649.408" y2="633.7"/>
</g>
</svg>
