<?xml version="1.0" encoding="utf-8"?>
<!-- Generator: Adobe Illustrator 16.0.0, SVG Export Plug-In . SVG Version: 6.00 Build 0)  -->
<!DOCTYPE svg PUBLIC "-//W3C//DTD SVG 1.1//EN" "http://www.w3.org/Graphics/SVG/1.1/DTD/svg11.dtd">
<svg version="1.1" xmlns="http://www.w3.org/2000/svg" xmlns:xlink="http://www.w3.org/1999/xlink" x="0px" y="0px" width="1920px"
	 height="1139.878px" viewBox="0 0 1920 1139.878" style="enable-background:new 0 0 1920 1139.878;" xml:space="preserve">
<style type="text/css">
<![CDATA[
	.st0{fill:none;stroke:#272525;stroke-width:4;stroke-miterlimit:10;}
	.st1{clip-path:url(#SVGID_18_);fill:none;stroke:#C72A7D;stroke-width:6;stroke-miterlimit:10;}
	.st2{fill:#7CC7EA;}
	.st3{clip-path:url(#SVGID_18_);fill:#C72A7D;}
	.st4{clip-path:url(#SVGID_20_);fill:#83C698;}
	.st5{fill:none;stroke:#32367C;stroke-width:4;stroke-miterlimit:10;}
	.st6{fill:none;stroke:#FAEC34;stroke-width:6.5491;stroke-miterlimit:10;}
	.st7{clip-path:url(#SVGID_24_);fill:none;stroke:#27A2DC;stroke-width:4.3661;stroke-miterlimit:10;}
	.st8{fill:#FFFFFF;stroke:#C72A7D;stroke-width:6;stroke-miterlimit:10;}
	.st9{clip-path:url(#SVGID_8_);fill:none;stroke:#000000;stroke-width:4;stroke-miterlimit:10;}
	.st10{clip-path:url(#SVGID_24_);fill:none;stroke:#FAEC34;stroke-width:4;stroke-miterlimit:10;}
	.st11{fill:none;stroke:#000000;stroke-width:5;stroke-miterlimit:10;}
	.st12{clip-path:url(#SVGID_10_);fill:none;stroke:#000000;stroke-width:4;stroke-miterlimit:10;}
	.st13{clip-path:url(#SVGID_16_);fill:none;}
	.st14{fill:#FFFF66;stroke:#000000;stroke-width:4;stroke-miterlimit:10;}
	.st15{fill:#F8EB35;stroke:#F8EB35;stroke-width:3.5625;stroke-miterlimit:10;}
	.st16{clip-path:url(#SVGID_10_);fill:#FFFFFF;stroke:#000000;stroke-width:4;stroke-miterlimit:10;}
	.st17{clip-path:url(#SVGID_26_);fill:none;stroke:#C72B7D;stroke-width:6;stroke-miterlimit:10;}
	.st18{fill:none;stroke:#C72A7D;stroke-width:4;stroke-miterlimit:10;}
	.st19{fill:none;stroke:#C72B7D;stroke-width:4;stroke-miterlimit:10;}
	.st20{clip-path:url(#SVGID_32_);fill:none;stroke:#34A157;stroke-width:6.5645;stroke-miterlimit:10;}
	.st21{clip-path:url(#SVGID_32_);fill:none;stroke:#32367C;stroke-width:6.0141;stroke-miterlimit:10;}
	.st22{fill:#83C698;}
	.st23{clip-path:url(#SVGID_18_);fill:none;stroke:#000000;stroke-width:6;stroke-miterlimit:10;}
	.st24{fill:none;stroke:#D1EBF7;stroke-width:6;stroke-miterlimit:10;}
	.st25{fill:none;stroke:#27A2DC;stroke-width:4.3661;stroke-miterlimit:10;}
	.st26{fill:#FFFFFF;stroke:#000000;stroke-width:6;stroke-miterlimit:10;}
	.st27{fill:#FFFFFF;stroke:#34A156;stroke-width:6;stroke-miterlimit:10;}
	.st28{fill:none;stroke:#FFFFFF;stroke-miterlimit:10;}
	.st29{fill:#FAEC34;stroke:#000000;stroke-width:4;stroke-miterlimit:10;}
	.st30{fill:none;stroke:#000000;stroke-width:4;stroke-miterlimit:10;}
	.st31{clip-path:url(#SVGID_30_);fill:none;stroke:#FAEC34;stroke-width:4;stroke-miterlimit:10;}
	.st32{clip-path:url(#SVGID_32_);fill:none;stroke:#C72B7D;stroke-width:6.0141;stroke-miterlimit:10;}
	.st33{fill:none;stroke:#34A156;stroke-width:4;stroke-miterlimit:10;}
	.st34{fill:#F2D2E3;}
	.st35{fill:#26A1DB;}
	.st36{fill:#27A1DB;}
	.st37{fill:#27A2DC;}
	.st38{fill:#5D5D5D;}
	.st39{fill:#C72A7D;stroke:#000000;stroke-width:4;stroke-miterlimit:10;}
	.st40{clip-path:url(#SVGID_20_);fill:#FFFFFF;stroke:#34A156;stroke-width:6;stroke-miterlimit:10;}
	.st41{fill:#F8EB35;}
	.st42{clip-path:url(#SVGID_18_);fill:#DD7FAF;}
	.st43{clip-path:url(#SVGID_8_);}
	.st44{clip-path:url(#SVGID_18_);fill:#FFFFFF;stroke:#C72A7D;stroke-width:6;stroke-miterlimit:10;}
	.st45{stroke:#000000;stroke-width:4;stroke-miterlimit:10;}
	.st46{fill:none;stroke:#27A1DB;stroke-width:6;stroke-miterlimit:10;}
	.st47{fill:#FFFFFF;stroke:#C72A7D;stroke-width:4;stroke-miterlimit:10;}
	.st48{fill:#C6C6C6;}
	.st49{fill:#FAEC34;}
	.st50{clip-path:url(#SVGID_26_);fill:none;stroke:#FAEC34;stroke-width:6;stroke-miterlimit:10;}
	.st51{fill:#C72A7D;}
	.st52{fill:#C72B7D;}
	.st53{fill:none;stroke:#FAEC34;stroke-width:4;stroke-miterlimit:10;}
	.st54{fill:none;stroke:#FFFF66;stroke-width:4;stroke-miterlimit:10;}
	.st55{clip-path:url(#SVGID_20_);fill:#34A156;}
	.st56{clip-path:url(#SVGID_32_);fill:none;stroke:#FAEC34;stroke-width:6.0141;stroke-miterlimit:10;}
	.st57{clip-path:url(#SVGID_16_);fill:none;stroke:#FAEC34;stroke-width:3.6282;stroke-miterlimit:10;}
	.st58{fill:none;stroke:#000000;stroke-width:3;stroke-miterlimit:10;}
	.st59{fill:#FFFFFF;}
	.st60{fill:none;stroke:#000000;stroke-width:3.8428;stroke-miterlimit:10;}
	.st61{clip-path:url(#SVGID_30_);fill:none;stroke:#34A157;stroke-width:4.3661;stroke-miterlimit:10;}
	.st62{fill:none;stroke:#FAEC34;stroke-width:4.3661;stroke-miterlimit:10;}
	.st63{fill:none;}
	.st64{clip-path:url(#SVGID_24_);fill:none;stroke:#32367C;stroke-width:4;stroke-miterlimit:10;}
	.st65{clip-path:url(#SVGID_20_);fill:#D4EBDB;}
	.st66{fill:none;stroke:#D1EBF7;stroke-width:4;stroke-miterlimit:10;}
	.st67{fill:#32367C;}
	.st68{clip-path:url(#SVGID_20_);fill:none;stroke:#000000;stroke-width:6;stroke-miterlimit:10;}
	.st69{fill:#FFFFFF;stroke:#000000;stroke-width:4;stroke-miterlimit:10;}
	.st70{fill:#34A156;}
	.st71{fill:#34A157;}
	.st72{clip-path:url(#SVGID_24_);fill:none;stroke:#C72B7D;stroke-width:4;stroke-miterlimit:10;}
	.st73{clip-path:url(#SVGID_20_);fill:none;stroke:#34A156;stroke-width:6;stroke-miterlimit:10;}
	.st74{fill:none;stroke:#C72A7D;stroke-width:6;stroke-miterlimit:10;}
	.st75{fill:#FFFFFF;stroke:#34A156;stroke-width:4;stroke-miterlimit:10;}
	.st76{stroke:#000000;stroke-width:3;stroke-miterlimit:10;}
	.st77{fill:none;stroke:#FFFFFF;stroke-width:4;stroke-miterlimit:10;}
	.st78{fill:none;stroke:#7CC7EA;stroke-width:4;stroke-miterlimit:10;}
	.st79{fill:#D1EBF7;}
	.st80{fill:none;stroke:#34A157;stroke-width:4.3661;stroke-miterlimit:10;}
	.st81{fill:#D4EBDB;}
	.st82{fill:none;stroke:#000000;stroke-width:5.2992;stroke-miterlimit:10;}
	.st83{clip-path:url(#SVGID_30_);fill:none;stroke:#32367C;stroke-width:4;stroke-miterlimit:10;}
	.st84{fill:none;stroke:#FFFFFF;stroke-width:1.4794;stroke-miterlimit:10;}
	.st85{clip-path:url(#SVGID_10_);}
	.st86{clip-path:url(#SVGID_12_);}
	.st87{clip-path:url(#SVGID_14_);}
	.st88{clip-path:url(#SVGID_16_);}
	.st89{clip-path:url(#SVGID_18_);}
	.st90{clip-path:url(#SVGID_20_);}
	.st91{clip-path:url(#SVGID_22_);}
	.st92{fill:none;stroke:#000000;stroke-width:6;stroke-miterlimit:10;}
	.st93{clip-path:url(#SVGID_18_);fill:#F2D2E3;}
	.st94{clip-path:url(#SVGID_8_);fill:#FFFFFF;stroke:#000000;stroke-width:4;stroke-miterlimit:10;}
	.st95{fill:none;stroke:#272525;stroke-width:3.5625;stroke-miterlimit:10;}
	.st96{clip-path:url(#SVGID_28_);fill:none;stroke:#27A2DC;stroke-width:6.5491;stroke-miterlimit:10;}
	.st97{fill:none;stroke:#34A156;stroke-width:6;stroke-miterlimit:10;}
	.st98{clip-path:url(#SVGID_28_);fill:none;stroke:#32367C;stroke-width:6;stroke-miterlimit:10;}
	.st99{fill:none;stroke:#27A1DB;stroke-width:4;stroke-miterlimit:10;}
	.st100{clip-path:url(#SVGID_30_);fill:none;stroke:#C72B7D;stroke-width:4;stroke-miterlimit:10;}
	.st101{fill:#DD7FAF;}
	.st102{clip-path:url(#SVGID_12_);fill:none;stroke:#000000;stroke-width:4;stroke-miterlimit:10;}
]]>
</style>
<g id="Layer_1">
</g>
<g id="Layer_2">
	<g>
		<path class="st63" d="M1317.951,257.394c7.283-6.274,13.566-12.944,17.99-19.813c-8.108,0.346-16.819,2.776-26.744,6.812
			l8.115,13.239C1317.51,257.58,1317.74,257.439,1317.951,257.394z"/>
		<polygon class="st63" points="1397.18,386.005 1400.794,400.414 1415.146,396.813 1411.527,382.403 		"/>
		<path class="st63" d="M1357.413,360.032l5.647,22.525l16.551-4.151c0.918-0.237,1.759-0.441,2.662-0.672l-5.654-22.525
			L1357.413,360.032z"/>
		
			<rect x="1404.63" y="461.552" transform="matrix(-0.9967 0.0818 -0.0818 -0.9967 2850.5068 816.2051)" class="st63" width="7.824" height="9.825"/>
		<polygon class="st63" points="1411.883,459.312 1411.155,450.453 1403.365,451.093 1404.087,459.957 		"/>
		<polygon class="st63" points="1414.776,470.881 1422.906,470.216 1422.099,460.424 1413.97,461.09 		"/>
		<polygon class="st63" points="1421.945,458.486 1421.215,449.635 1413.087,450.294 1413.816,459.151 		"/>
		<path class="st52" d="M1403.268,473.771l26.254-2.149l-0.158-1.931l-4.535,0.371l-1.688-20.594l3.741-0.301l-0.16-1.938
			l-25.456,2.086L1403.268,473.771z M1422.906,470.216l-8.13,0.666l-0.806-9.792l8.128-0.666L1422.906,470.216z M1421.215,449.635
			l0.729,8.851l-8.128,0.665l-0.729-8.856L1421.215,449.635z M1412.844,471.04l-7.797,0.64l-0.804-9.791l7.796-0.64L1412.844,471.04
			z M1411.155,450.453l0.728,8.858l-7.796,0.646l-0.722-8.864L1411.155,450.453z"/>
		<path class="st52" d="M1389.384,463.103l11.398-0.932l-0.161-1.932l-11.728,0.958c2.307-3.748,7.08-10.974,8.914-13.137
			l-1.822-1.062c-1.497,2.201-7.389,11.475-8.959,14.353l-0.397,0.031l-1.003-12.196l-1.926,0.16l0.577,6.998
			c-2.732-1.253-6.39-2.629-9.507-3.78l-0.702,2.07c2.949,0.833,7.436,2.407,10.367,3.774l0.256,3.134l-11.722,0.959
			c-0.957-4.285-2.011-8.154-3.057-11.154l-1.622,1.612c2.139,5.589,4.247,16.616,5.643,25.428c0.505-0.376,1.15-0.703,1.676-0.875
			c-0.608-4.113-1.381-8.673-2.213-13.105l11.462-0.933l1.175,14.453l1.932-0.154l-1.153-14.127
			c5.879,3.013,12.402,8.916,15.74,13.604c0.36-0.498,1.121-1.037,1.633-1.342C1400.942,471.546,1395.018,466.398,1389.384,463.103z
			"/>
		<path class="st52" d="M1369.534,434.478l1.931-0.161l-0.858-10.456l26.65-2.188c4.841,3.429,9.634,6.997,12.57,9.299l1.34-1.65
			c-3.343-2.411-7.206-5.244-10.973-7.892l21.586-1.765c0.869-0.07,1.087,0.178,1.143,0.844c0.117,0.665,0.316,3.057,0.469,5.731
			c0.646-0.385,1.548-0.793,2.136-0.979c-0.255-3.135-0.492-5.192-0.979-6.223c-0.494-1.037-1.26-1.375-2.922-1.241l-53.104,4.356
			L1369.534,434.478z"/>
		<path class="st52" d="M1422.718,431.996l-53.033,4.348l0.992,12.128l1.938-0.161l-0.844-10.265l26.185-2.136
			c5.136,3.735,10.208,7.47,13.302,10.113l1.349-1.594c-3.497-2.597-7.585-5.75-11.788-8.762l22.124-1.81
			c0.87-0.07,1.079,0.115,1.15,0.914c0.116,0.659,0.315,3.122,0.48,5.929c0.646-0.39,1.548-0.864,2.065-1.042
			c-0.267-3.197-0.439-5.327-0.933-6.434C1425.219,432.194,1424.458,431.855,1422.718,431.996z"/>
		<path class="st52" d="M1383.878,468.784c-1.818,0.754-4.963,2.417-7.342,3.76l0.549,1.766c2.436-1.407,5.725-2.955,7.682-3.786
			L1383.878,468.784z"/>
		<path class="st52" d="M1391.502,424.296c-3.123,1.188-8.316,4.099-12.185,6.759l0.792,1.548c3.876-2.603,9.209-5.521,12.458-6.722
			L1391.502,424.296z"/>
		<path class="st52" d="M1381.07,446.744c4.091-2.417,9.787-5.026,13.188-6.038l-1.088-1.727c-3.259,1.075-8.747,3.671-12.899,6.223
			L1381.07,446.744z"/>
		<polygon class="st52" points="1377.143,411.177 1371.458,388.525 1369.578,388.997 1375.256,411.651 		"/>
		<path class="st52" d="M1394.809,384.527l4.579,18.24l21.483-5.386l-0.467-1.893l-3.376,0.851l-4.107-16.354L1394.809,384.527z
			 M1400.794,400.414l-3.614-14.409l14.347-3.602l3.62,14.41L1400.794,400.414z"/>
		<path class="st52" d="M1378.063,352.99l-22.971,5.763l6.548,26.095l18.425-4.624c10.195-2.559,24.018-5.201,35.792-0.634
			c0.211-0.538,0.631-1.33,1.021-1.702c-10.474-4.067-22.755-2.711-32.706-0.562l-2.865-11.423
			c13.355-5.896,23.006-13.635,25.794-23.714c-0.665-0.181-1.466-0.601-1.969-0.959c-2.265,9.682-11.663,17.343-24.267,22.921
			L1378.063,352.99z M1382.272,377.734c-0.902,0.23-1.743,0.435-2.662,0.672l-16.551,4.151l-5.647-22.525l19.206-4.823
			L1382.272,377.734z"/>
		<path class="st52" d="M1361.494,405.441l1.28,1.266c1.994-2.494,4.948-5.583,6.977-7.13l-1.542-1.471
			C1366.257,399.697,1363.502,402.729,1361.494,405.441z"/>
		<polygon class="st52" points="1380.124,388.696 1378.243,389.17 1382.74,407.084 1384.619,406.604 		"/>
		<polygon class="st52" points="1388.432,386.612 1386.551,387.086 1391.048,404.993 1392.935,404.527 		"/>
		<path class="st52" d="M1383.38,324.069c-4.982,2.129-10.91,0.671-17.659-3.856c-6.948-4.517-15.409-11.87-19.644-15.3
			c-1.317-1.036-2.313-1.841-3.234-2.467l-1.375,1.897c1.203,0.583,2.143,1.26,3.409,2.175c3.697,2.854,10.866,9.242,17.601,13.917
			c-3.606,4.823-9.534,11.366-15.465,16.879l1.736,1.663c5.556-5.871,11.912-12.741,15.36-17.422l0.615,0.396
			c7.79,5.104,14.159,6.223,19.633,3.876c7.739-3.312,8.058-12.255,3.473-22.941c-3.127-7.311-7.154-14.679-9.574-18.298
			l-2.225,0.947c2.848,3.582,7.034,11.32,10.042,18.33C1390.676,314.617,1389.096,321.619,1383.38,324.069z"/>
		<path class="st52" d="M1305.704,238.692l-1.655,1.013l11.254,18.367c-3.99,1.037-8.09,2.289-12.157,3.844l0.762,1.888
			c10.758-4.088,21.942-6.704,30.724-5.961c-0.051-0.59-0.031-1.709,0.045-2.227c-4.003-0.134-8.483,0.255-13.148,1.075
			c6.827-6.14,12.565-12.645,16.717-19.188c7.912,0.096,15.292,2.162,22.563,6.729c0.098-0.613,0.434-1.6,0.691-2.072
			c-7.207-4.215-14.429-6.384-22.014-6.6c3.735-6.448,5.755-13.016,5.575-19.584c-0.682,0.026-1.539-0.224-2.172-0.466
			c0.396,6.657-1.755,13.392-5.679,20.038c-8.826,0.077-18.246,2.63-29.095,7.073L1305.704,238.692z M1335.941,237.58
			c-4.424,6.869-10.707,13.54-17.99,19.813c-0.211,0.045-0.441,0.187-0.639,0.237l-8.115-13.239
			C1319.122,240.356,1327.833,237.926,1335.941,237.58z"/>
		<path class="st52" d="M1342.978,249.592l-1.573,1.126l9.875,11.127l-3.594,2.201c-4.042-2.231-9.473-4.323-14.02-5.065
			l-0.059,1.688l0.321,0.269l7.348,11.979c-2.871-0.825-5.832-1.445-8.786-1.913l-6.958-11.358l-1.658,1.023l6.089,9.918
			c-6.217-0.659-12.606-0.587-19.219,0.404l0.504,1.963c6.813-1.03,13.591-1.106,20.077-0.14l1.501,2.456l-7.475,4.579l-4.055-6.62
			l-1.651,1.011l4.049,6.626l-6.842,4.194l1.017,1.65l6.844-4.194l5.282,8.614l1.648-1.018l-5.281-8.608l7.477-4.58l6.85,11.181
			l1.657-1.011l-8.495-13.866c6.992,1.292,13.616,3.658,19.712,7.06c0.063-0.665,0.179-1.752,0.345-2.244
			c-3.148-1.682-6.419-3.051-9.797-4.203l-7.547-12.318c3.625,0.915,8.038,2.61,11.392,4.631l4.622-2.832
			c3.735,4.304,7.132,8.178,9.728,11.146l1.471-1.451c-2.603-2.961-5.927-6.721-9.542-10.713l11.64-7.124
			c0.68-0.423,0.958-0.358,1.503,0.409c0.545,0.761,2.073,3.12,4.056,6.612c0.366-0.689,0.792-1.266,1.235-1.688
			c-2.265-3.716-3.665-5.999-4.708-6.934c-1.012-0.87-1.734-0.895-3.104-0.058l-11.92,7.304
			C1349.668,257.177,1346.309,253.352,1342.978,249.592z"/>
		<path class="st52" d="M1303.517,217.089l10.081-8.71c4.66-4.03,10.988-8.173,19.481-6.844c-0.11-0.523,0.012-1.516,0.19-2.021
			c-9.01-1.42-15.977,3.108-20.901,7.355l-8.651,7.482l-24.029-27.789l11.083-9.587c9.697,7.727,19.819,15.957,26.216,21.31
			l0.908-2.124c-6.842-5.577-16.501-13.149-25.755-20.37l9.318-8.053c0.71-0.613,1.184-0.574,1.932,0.186
			c0.709,0.717,3.026,3.397,5.947,6.978c0.239-0.652,0.53-1.433,0.896-1.931c-3.461-3.991-5.432-6.275-6.696-7.125
			c-1.225-0.8-2.087-0.673-3.353,0.422l-23.237,20.094L1303.517,217.089z"/>
		<path class="st52" d="M1300.906,223.069c0.334-0.646,0.923-1.594,1.233-2.041c-1.5-0.826-3.497-2.821-28.702-28.705
			c0.026-3.037,0.185-5.82,0.429-7.892l-1.969-0.242c-0.731,5.308-0.365,14.734,0.612,22.116l1.778,0.408
			c-0.447-3.685-0.754-7.834-0.857-11.736l24.188,25.001c-4.91-0.972-10.276-1.548-15.904-1.816l-23.288-26.926l-1.472,1.266
			l22.11,25.564c-3.082-0.076-6.35-0.083-9.536-0.076l0.46,2.175c3.621-0.212,7.368-0.181,10.824-0.071l14.14,16.347l1.463-1.266
			l-12.869-14.89c5.105,0.282,9.34,0.781,11.08,1.05C1297.632,221.746,1300.019,222.244,1300.906,223.069z"/>
		<path class="st52" d="M1304.976,208.749l1.655-0.55c-4.79-7.79-9.958-18.369-11.928-24.629l-1.859,0.812
			C1294.871,190.599,1300.038,201.087,1304.976,208.749z"/>
		<path class="st52" d="M1264.836,790.465c-80.508,78.769-186.886,122.146-299.537,122.146
			c-236.193,0-428.352-192.16-428.352-428.352s192.159-428.35,428.352-428.35c109.402-0.003,213.435,41.207,293.118,116.026
			l5.051-4.259c-80.978-76.3-186.838-118.32-298.169-118.316C725.492,49.36,530.4,244.452,530.4,484.259
			c0,239.808,195.092,434.9,434.899,434.9c114.374,0,222.378-44.041,304.116-124.011c81.573-79.812,127.969-186.5,130.66-300.437
			l-6.583,0.549C1390.667,607.217,1345.011,712.024,1264.836,790.465z"/>
	</g>
	<line class="st63" x1="582.764" y1="656.546" x2="655.419" y2="650.483"/>
	<line class="st63" x1="576.751" y1="639.772" x2="649.408" y2="633.7"/>
</g>
</svg>
