<?xml version="1.0" encoding="utf-8"?>
<!-- Generator: Adobe Illustrator 16.0.0, SVG Export Plug-In . SVG Version: 6.00 Build 0)  -->
<!DOCTYPE svg PUBLIC "-//W3C//DTD SVG 1.1//EN" "http://www.w3.org/Graphics/SVG/1.1/DTD/svg11.dtd">
<svg version="1.1" xmlns="http://www.w3.org/2000/svg" xmlns:xlink="http://www.w3.org/1999/xlink" x="0px" y="0px" width="1920px"
	 height="693px" viewBox="0 0 1920 693" style="enable-background:new 0 0 1920 693;" xml:space="preserve">
<style type="text/css">
<![CDATA[
	.st0{clip-path:url(#SVGID_28_);fill:none;stroke:#34A157;stroke-width:4.3661;stroke-miterlimit:10;}
	.st1{fill:none;stroke:#272525;stroke-width:4;stroke-miterlimit:10;}
	.st2{fill:#7CC7EA;}
	.st3{clip-path:url(#SVGID_26_);fill:none;stroke:#32367C;stroke-width:6;stroke-miterlimit:10;}
	.st4{fill:none;stroke:#32367C;stroke-width:4;stroke-miterlimit:10;}
	.st5{fill:none;stroke:#FAEC34;stroke-width:6.5491;stroke-miterlimit:10;}
	.st6{fill:#FFFFFF;stroke:#C72A7D;stroke-width:6;stroke-miterlimit:10;}
	.st7{clip-path:url(#SVGID_8_);fill:none;stroke:#000000;stroke-width:4;stroke-miterlimit:10;}
	.st8{clip-path:url(#SVGID_34_);fill:#7CC7EA;}
	.st9{fill:none;stroke:#000000;stroke-width:5;stroke-miterlimit:10;}
	.st10{clip-path:url(#SVGID_10_);fill:none;stroke:#000000;stroke-width:4;stroke-miterlimit:10;}
	.st11{fill:#FFFF66;stroke:#000000;stroke-width:4;stroke-miterlimit:10;}
	.st12{clip-path:url(#SVGID_16_);fill:none;stroke:#C72A7D;stroke-width:6;stroke-miterlimit:10;}
	.st13{fill:#F8EB35;stroke:#F8EB35;stroke-width:3.5625;stroke-miterlimit:10;}
	.st14{fill:none;stroke:#C72A7D;stroke-width:4;stroke-miterlimit:10;}
	.st15{fill:none;stroke:#C72B7D;stroke-width:4;stroke-miterlimit:10;}
	.st16{fill:#83C698;}
	.st17{clip-path:url(#SVGID_18_);fill:none;stroke:#000000;stroke-width:6;stroke-miterlimit:10;}
	.st18{clip-path:url(#SVGID_18_);fill:#34A156;}
	.st19{clip-path:url(#SVGID_22_);fill:none;stroke:#FAEC34;stroke-width:4;stroke-miterlimit:10;}
	.st20{fill:none;stroke:#D1EBF7;stroke-width:6;stroke-miterlimit:10;}
	.st21{clip-path:url(#SVGID_18_);fill:none;stroke:#34A156;stroke-width:6;stroke-miterlimit:10;}
	.st22{clip-path:url(#SVGID_26_);fill:none;stroke:#27A2DC;stroke-width:6.5491;stroke-miterlimit:10;}
	.st23{fill:none;stroke:#27A2DC;stroke-width:4.3661;stroke-miterlimit:10;}
	.st24{clip-path:url(#SVGID_36_);fill:#7CC7EA;}
	.st25{fill:#FFFFFF;stroke:#000000;stroke-width:6;stroke-miterlimit:10;}
	.st26{clip-path:url(#SVGID_24_);fill:none;stroke:#C72B7D;stroke-width:6;stroke-miterlimit:10;}
	.st27{fill:#FFFFFF;stroke:#34A156;stroke-width:6;stroke-miterlimit:10;}
	.st28{fill:none;stroke:#FFFFFF;stroke-miterlimit:10;}
	.st29{clip-path:url(#SVGID_16_);fill:#DD7FAF;}
	.st30{clip-path:url(#SVGID_18_);fill:#D4EBDB;}
	.st31{clip-path:url(#SVGID_32_);fill:#F2D2E3;}
	.st32{fill:#FAEC34;stroke:#000000;stroke-width:4;stroke-miterlimit:10;}
	.st33{fill:none;stroke:#7CC7EA;stroke-width:6;stroke-miterlimit:10;}
	.st34{clip-path:url(#SVGID_16_);fill:none;stroke:#000000;stroke-width:6;stroke-miterlimit:10;}
	.st35{clip-path:url(#SVGID_36_);fill:none;stroke:#000000;stroke-width:6;stroke-miterlimit:10;}
	.st36{fill:none;stroke:#000000;stroke-width:4;stroke-miterlimit:10;}
	.st37{fill:none;stroke:#34A156;stroke-width:4;stroke-miterlimit:10;}
	.st38{clip-path:url(#SVGID_28_);fill:none;stroke:#32367C;stroke-width:4;stroke-miterlimit:10;}
	.st39{clip-path:url(#SVGID_22_);fill:none;stroke:#27A2DC;stroke-width:4.3661;stroke-miterlimit:10;}
	.st40{clip-path:url(#SVGID_32_);fill:none;stroke:#C72A7D;stroke-width:6;stroke-miterlimit:10;}
	.st41{fill:#F2D2E3;}
	.st42{fill:#26A1DB;}
	.st43{fill:#27A1DB;}
	.st44{fill:#27A2DC;}
	.st45{fill:#5D5D5D;}
	.st46{fill:#C72A7D;stroke:#000000;stroke-width:4;stroke-miterlimit:10;}
	.st47{fill:#F8EB35;}
	.st48{clip-path:url(#SVGID_32_);fill:#C72A7D;}
	.st49{clip-path:url(#SVGID_8_);}
	.st50{clip-path:url(#SVGID_28_);fill:none;stroke:#C72B7D;stroke-width:4;stroke-miterlimit:10;}
	.st51{clip-path:url(#SVGID_30_);fill:none;stroke:#34A157;stroke-width:6.5645;stroke-miterlimit:10;}
	.st52{clip-path:url(#SVGID_34_);fill:#27A1DB;}
	.st53{clip-path:url(#SVGID_34_);fill:none;stroke:#27A1DB;stroke-width:4;stroke-miterlimit:10;}
	.st54{stroke:#000000;stroke-width:4;stroke-miterlimit:10;}
	.st55{clip-path:url(#SVGID_30_);fill:none;stroke:#32367C;stroke-width:6.0141;stroke-miterlimit:10;}
	.st56{fill:none;stroke:#27A1DB;stroke-width:6;stroke-miterlimit:10;}
	.st57{fill:#FFFFFF;stroke:#C72A7D;stroke-width:4;stroke-miterlimit:10;}
	.st58{fill:#C6C6C6;}
	.st59{fill:#FAEC34;}
	.st60{fill:#C72A7D;}
	.st61{fill:#C72B7D;}
	.st62{fill:none;stroke:#FAEC34;stroke-width:4;stroke-miterlimit:10;}
	.st63{fill:none;stroke:#FFFF66;stroke-width:4;stroke-miterlimit:10;}
	.st64{fill:none;stroke:#000000;stroke-width:3;stroke-miterlimit:10;}
	.st65{clip-path:url(#SVGID_32_);fill:none;stroke:#000000;stroke-width:6;stroke-miterlimit:10;}
	.st66{fill:#FFFFFF;}
	.st67{fill:none;stroke:#000000;stroke-width:3.8428;stroke-miterlimit:10;}
	.st68{fill:none;stroke:#FAEC34;stroke-width:4.3661;stroke-miterlimit:10;}
	.st69{fill:none;}
	.st70{clip-path:url(#SVGID_36_);fill:#27A1DB;}
	.st71{clip-path:url(#SVGID_24_);fill:none;stroke:#FAEC34;stroke-width:6;stroke-miterlimit:10;}
	.st72{fill:none;stroke:#D1EBF7;stroke-width:4;stroke-miterlimit:10;}
	.st73{clip-path:url(#SVGID_30_);fill:none;stroke:#C72B7D;stroke-width:6.0141;stroke-miterlimit:10;}
	.st74{clip-path:url(#SVGID_14_);fill:none;}
	.st75{fill:#32367C;}
	.st76{clip-path:url(#SVGID_32_);fill:#FFFFFF;stroke:#C72A7D;stroke-width:6;stroke-miterlimit:10;}
	.st77{fill:#FFFFFF;stroke:#000000;stroke-width:4;stroke-miterlimit:10;}
	.st78{clip-path:url(#SVGID_18_);fill:#FFFFFF;stroke:#34A156;stroke-width:6;stroke-miterlimit:10;}
	.st79{fill:#34A156;}
	.st80{fill:#34A157;}
	.st81{clip-path:url(#SVGID_18_);fill:#83C698;}
	.st82{fill:none;stroke:#C72A7D;stroke-width:6;stroke-miterlimit:10;}
	.st83{fill:#FFFFFF;stroke:#34A156;stroke-width:4;stroke-miterlimit:10;}
	.st84{stroke:#000000;stroke-width:3;stroke-miterlimit:10;}
	.st85{fill:none;stroke:#FFFFFF;stroke-width:4;stroke-miterlimit:10;}
	.st86{clip-path:url(#SVGID_22_);fill:none;stroke:#32367C;stroke-width:4;stroke-miterlimit:10;}
	.st87{clip-path:url(#SVGID_16_);fill:#FFFFFF;stroke:#C72A7D;stroke-width:6;stroke-miterlimit:10;}
	.st88{clip-path:url(#SVGID_16_);fill:#F2D2E3;}
	.st89{fill:none;stroke:#7CC7EA;stroke-width:4;stroke-miterlimit:10;}
	.st90{fill:#D1EBF7;}
	.st91{fill:none;stroke:#34A157;stroke-width:4.3661;stroke-miterlimit:10;}
	.st92{fill:#D4EBDB;}
	.st93{fill:none;stroke:#000000;stroke-width:5.2992;stroke-miterlimit:10;}
	.st94{clip-path:url(#SVGID_22_);fill:none;stroke:#C72B7D;stroke-width:4;stroke-miterlimit:10;}
	.st95{clip-path:url(#SVGID_28_);fill:none;stroke:#FAEC34;stroke-width:4;stroke-miterlimit:10;}
	.st96{clip-path:url(#SVGID_34_);fill:#D1EBF7;}
	.st97{fill:none;stroke:#FFFFFF;stroke-width:1.4794;stroke-miterlimit:10;}
	.st98{clip-path:url(#SVGID_30_);fill:none;stroke:#FAEC34;stroke-width:6.0141;stroke-miterlimit:10;}
	.st99{clip-path:url(#SVGID_14_);fill:none;stroke:#FAEC34;stroke-width:3.6282;stroke-miterlimit:10;}
	.st100{clip-path:url(#SVGID_32_);fill:#DD7FAF;}
	.st101{clip-path:url(#SVGID_10_);}
	.st102{clip-path:url(#SVGID_12_);}
	.st103{clip-path:url(#SVGID_14_);}
	.st104{clip-path:url(#SVGID_16_);}
	.st105{clip-path:url(#SVGID_18_);}
	.st106{clip-path:url(#SVGID_20_);}
	.st107{clip-path:url(#SVGID_32_);}
	.st108{clip-path:url(#SVGID_34_);}
	.st109{clip-path:url(#SVGID_36_);}
	.st110{clip-path:url(#SVGID_34_);fill:none;stroke:#000000;stroke-width:4;stroke-miterlimit:10;}
	.st111{clip-path:url(#SVGID_16_);fill:#C72A7D;}
	.st112{fill:none;stroke:#000000;stroke-width:6;stroke-miterlimit:10;}
	.st113{clip-path:url(#SVGID_8_);fill:#FFFFFF;stroke:#000000;stroke-width:4;stroke-miterlimit:10;}
	.st114{fill:none;stroke:#272525;stroke-width:3.5625;stroke-miterlimit:10;}
	.st115{fill:none;stroke:#34A156;stroke-width:6;stroke-miterlimit:10;}
	.st116{clip-path:url(#SVGID_36_);fill:none;stroke:#27A1DB;stroke-width:6;stroke-miterlimit:10;}
	.st117{fill:none;stroke:#27A1DB;stroke-width:4;stroke-miterlimit:10;}
	.st118{fill:#DD7FAF;}
	.st119{clip-path:url(#SVGID_36_);fill:#D1EBF7;}
]]>
</style>
<g id="Layer_1">
</g>
<g id="Layer_2">
	<g>
		<defs>
			<rect id="SVGID_35_" x="0" y="8.25" width="1920" height="676.5"/>
		</defs>
		<clipPath id="SVGID_2_">
			<use xlink:href="#SVGID_35_"  style="overflow:visible;"/>
		</clipPath>
		<g style="clip-path:url(#SVGID_2_);">
			<line class="st20" x1="1616.689" y1="575.423" x2="1589.968" y2="613.477"/>
			<g>
				<g>
					<line class="st112" x1="1657.017" y1="559.752" x2="1628.574" y2="600.261"/>
					<line class="st112" x1="1620.816" y1="611.309" x2="1603.576" y2="635.862"/>
					<line class="st112" x1="1594.957" y1="648.138" x2="1584.612" y2="662.868"/>
				</g>
				<g>
					<line class="st20" x1="1657.017" y1="559.752" x2="1628.574" y2="600.261"/>
					<line class="st20" x1="1620.816" y1="611.309" x2="1603.576" y2="635.862"/>
					<line class="st20" x1="1594.957" y1="648.138" x2="1584.612" y2="662.868"/>
				</g>
			</g>
			<g>
				<g>
					<line class="st112" x1="1662.372" y1="596.502" x2="1652.027" y2="611.232"/>
					<line class="st112" x1="1646.856" y1="618.598" x2="1618.412" y2="659.109"/>
				</g>
				<g>
					<line class="st20" x1="1662.372" y1="596.502" x2="1652.027" y2="611.232"/>
					<line class="st20" x1="1646.856" y1="618.598" x2="1618.412" y2="659.109"/>
				</g>
			</g>
			<line class="st20" x1="1674.256" y1="621.34" x2="1652.707" y2="652.031"/>
		</g>
		<rect x="942" y="374.065" style="clip-path:url(#SVGID_2_);fill:#7CC7EA;" width="147" height="293"/>
		<path style="clip-path:url(#SVGID_2_);fill:#7CC7EA;" d="M1130.895,301.475c-6.899-19.219-50.64-42.409-101.405-42.409H1029
			c-50.763,0-94.5,23.477-102,42.692v12.308h204.018L1130.895,301.475z"/>
		<rect x="985" y="392.065" style="clip-path:url(#SVGID_2_);fill:#D1EBF7;" width="111" height="276"/>
		<rect x="946" y="328.065" style="clip-path:url(#SVGID_2_);fill:#D1EBF7;" width="143" height="21"/>
		<path style="clip-path:url(#SVGID_2_);fill:#7CC7EA;" d="M1216.279,277.065c0,10-8.701,19.436-19.437,19.436
			c-10.734,0-19.436-9.436-19.436-19.436H1216.279z"/>
		<path style="clip-path:url(#SVGID_2_);fill:#D1EBF7;" d="M1282.279,436.065c0,10-8.701,19.436-19.437,19.436
			c-10.734,0-19.436-9.436-19.436-19.436H1282.279z"/>
		<path style="clip-path:url(#SVGID_2_);fill:#7CC7EA;" d="M1444.277,505.065c0,10-8.7,19.436-19.436,19.436
			c-10.734,0-19.436-9.436-19.436-19.436H1444.277z"/>
		<path style="clip-path:url(#SVGID_2_);fill:#D1EBF7;" d="M1285.279,112.065c0,10-8.701,19.436-19.437,19.436
			c-10.734,0-19.436-9.436-19.436-19.436H1285.279z"/>
		<path style="clip-path:url(#SVGID_2_);fill:#7CC7EA;" d="M1463.777,44.065c0,11-8.7,19.436-19.436,19.436
			c-10.734,0-19.436-8.436-19.436-19.436H1463.777z"/>
		<path style="clip-path:url(#SVGID_2_);fill:#D1EBF7;" d="M1622.777,112.065c0,10-8.7,19.436-19.436,19.436
			c-10.734,0-19.436-9.436-19.436-19.436H1622.777z"/>
		<path style="clip-path:url(#SVGID_2_);fill:#7CC7EA;" d="M1690.277,274.065c0,10-8.7,19.436-19.436,19.436
			c-10.734,0-19.436-9.436-19.436-19.436H1690.277z"/>
		<path style="clip-path:url(#SVGID_2_);fill:#D1EBF7;" d="M1625.777,436.065c0,10-8.7,19.436-19.436,19.436
			c-10.734,0-19.436-9.436-19.436-19.436H1625.777z"/>
		<path style="clip-path:url(#SVGID_2_);fill:#7CC7EA;" d="M1808.25,80.319c0,62.051-30.75,97.746-30.75,97.746h61.5
			C1839,178.065,1808.25,142.37,1808.25,80.319"/>
		<path style="clip-path:url(#SVGID_2_);fill:#7CC7EA;" d="M1777.396,234.024c0,37.775-32.896,62.041-32.896,62.041H1872
			c0,0-32.654-24.242-32.654-62.018"/>
		<polyline style="clip-path:url(#SVGID_2_);fill:#D1EBF7;" points="1744,664.065 1744,478.065 1878,478.065 1878,664.065 		"/>
		<g style="clip-path:url(#SVGID_2_);">
			<line class="st20" x1="755.689" y1="89.423" x2="728.968" y2="127.477"/>
			<g>
				<g>
					<line class="st112" x1="796.017" y1="73.752" x2="767.574" y2="114.261"/>
					<line class="st112" x1="759.816" y1="125.309" x2="742.576" y2="149.862"/>
					<line class="st112" x1="733.957" y1="162.138" x2="723.612" y2="176.868"/>
				</g>
				<g>
					<line class="st20" x1="796.017" y1="73.752" x2="767.574" y2="114.261"/>
					<line class="st20" x1="759.816" y1="125.309" x2="742.576" y2="149.862"/>
					<line class="st20" x1="733.957" y1="162.138" x2="723.612" y2="176.868"/>
				</g>
			</g>
			<g>
				<g>
					<line class="st112" x1="801.372" y1="110.502" x2="791.027" y2="125.232"/>
					<line class="st112" x1="785.856" y1="132.598" x2="757.412" y2="173.109"/>
				</g>
				<g>
					<line class="st20" x1="801.372" y1="110.502" x2="791.027" y2="125.232"/>
					<line class="st20" x1="785.856" y1="132.598" x2="757.412" y2="173.109"/>
				</g>
			</g>
			<line class="st20" x1="813.256" y1="135.34" x2="791.707" y2="166.031"/>
		</g>
		<g style="clip-path:url(#SVGID_2_);">
			<line class="st33" x1="1061.689" y1="80.423" x2="1034.968" y2="118.477"/>
			<g>
				<g>
					<line class="st112" x1="1102.017" y1="64.752" x2="1073.574" y2="105.261"/>
					<line class="st112" x1="1065.816" y1="116.309" x2="1048.576" y2="140.862"/>
					<line class="st112" x1="1039.957" y1="153.138" x2="1029.612" y2="167.868"/>
				</g>
				<g>
					<line class="st33" x1="1102.017" y1="64.752" x2="1073.574" y2="105.261"/>
					<line class="st33" x1="1065.816" y1="116.309" x2="1048.576" y2="140.862"/>
					<line class="st33" x1="1039.957" y1="153.138" x2="1029.612" y2="167.868"/>
				</g>
			</g>
			<g>
				<g>
					<line class="st112" x1="1107.372" y1="101.502" x2="1097.027" y2="116.232"/>
					<line class="st112" x1="1091.856" y1="123.598" x2="1063.412" y2="164.109"/>
				</g>
				<g>
					<line class="st33" x1="1107.372" y1="101.502" x2="1097.027" y2="116.232"/>
					<line class="st33" x1="1091.856" y1="123.598" x2="1063.412" y2="164.109"/>
				</g>
			</g>
			<line class="st33" x1="1119.256" y1="126.34" x2="1097.707" y2="157.031"/>
		</g>
		<g style="clip-path:url(#SVGID_2_);">
			<path class="st90" d="M285.827,468.357l-14.99,5.953c2.714,0.551,5.323,1.392,7.806,2.505
				C280.711,473.728,283.131,470.897,285.827,468.357z"/>
			<path class="st90" d="M319.514,455.065c-0.013,0-0.025,0-0.025,0h-0.009c-13.031,0-24.864,5.049-33.653,13.328l0.105-0.062
				c-2.717,2.558-5.155,5.399-7.236,8.514c-0.018-0.009-0.035-0.02-0.053-0.025c0,0-0.009,0.013-0.015,0.019
				c-2.479-1.113-5.101-1.958-7.825-2.515l0.034-0.265c-2.367-0.48-4.812-0.994-7.336-0.994c-0.018,0-0.035,0-0.053,0
				c-0.028,0-0.056,0.25-0.083,0.25c-10.31,0-19.638,7.245-26.385,14.071c-6.747-6.826-16.075-14.131-26.385-14.131
				c-0.028,0-0.056-0.19-0.083-0.19c-0.018,0-0.035,0-0.053,0c-2.524,0-4.969,0.514-7.336,0.994l0.034,0.138
				c-2.725,0.557-5.347,1.462-7.825,2.575c-0.006-0.006-0.01,0.019-0.015,0.013c-0.018,0.006-0.035,0.411-0.053,0.417
				c-2.082-3.115-4.519-5.137-7.236-8.137h0.105c-8.789-9-20.622-14-33.653-14h0.003c-0.012,0-0.023,0-0.037,0
				c-26.656,0-50.339,28.98-30.089,69.34l9.144,23.66h98.625h3.375h104.959l9.144-23.66
				C369.853,484.046,346.169,455.065,319.514,455.065z"/>
			<path class="st90" d="M195.317,476.815c2.483-1.113,5.092-1.954,7.806-2.505l-14.99-5.953
				C190.829,470.897,193.249,473.728,195.317,476.815z"/>
		</g>
		<polygon style="clip-path:url(#SVGID_2_);fill:#7CC7EA;" points="261.425,509.968 244.629,530.2 227.835,509.968 244.632,489.732 
					"/>
		<rect x="231" y="373.065" style="clip-path:url(#SVGID_2_);fill:#7CC7EA;" width="27" height="27"/>
		<path style="clip-path:url(#SVGID_2_);fill:#D1EBF7;" d="M372.26,616.565c0,10.939-10.868,20.5-24.148,20.5H105.903
			c-13.286,0-24.152-9.561-24.152-20.5c0-10.937,10.866-20.5,24.152-20.5h242.209C361.392,596.065,372.26,605.629,372.26,616.565z"
			/>
		<path style="clip-path:url(#SVGID_2_);fill:#7CC7EA;" d="M627.208,101.716c-81.879-55.043-192.871-33.287-247.913,48.592
			c0,0,32.64-12.117,65.423,9.92c31.951,21.478,32.918,55.887,32.918,55.887s29.601-14.461,65.961,9.981l-0.117-0.076
			c36.36,24.439,34.146,57.311,34.146,57.311s32.297-12.196,64.248,9.281c32.783,22.037,33.85,56.889,33.85,56.889
			C730.764,267.621,709.089,156.756,627.208,101.716z"/>
		<path style="clip-path:url(#SVGID_2_);fill:#D1EBF7;" d="M622.626,106.216c-88.38-2.32-146.399,108.311-149.493,114.337
			c0.001,0.026,0.003,0.062,0.003,0.062s29.545-14.429,65.859,9.914l-0.015-0.009l0.117,0.076c-0.035-0.023-0.068-0.044-0.103-0.067
			c36.345,24.439,34.131,57.302,34.131,57.302s0.034-0.012,0.059-0.021C577.588,282.68,658.139,187.187,622.626,106.216z"/>
		<g style="clip-path:url(#SVGID_2_);">
			<line class="st33" x1="457.802" y1="551.461" x2="431.081" y2="589.518"/>
			<line class="st33" x1="485.517" y1="553.752" x2="457.074" y2="594.261"/>
			<line class="st33" x1="449.316" y1="605.309" x2="432.077" y2="629.862"/>
			<line class="st33" x1="490.873" y1="590.502" x2="480.528" y2="605.232"/>
		</g>
		<g style="clip-path:url(#SVGID_2_);">
			<line class="st20" x1="95.69" y1="60.923" x2="68.968" y2="98.977"/>
			<g>
				<line class="st20" x1="136.017" y1="45.252" x2="107.574" y2="85.761"/>
				<line class="st20" x1="99.816" y1="96.809" x2="82.577" y2="121.362"/>
				<line class="st20" x1="73.958" y1="133.638" x2="63.613" y2="148.368"/>
			</g>
			<g>
				<line class="st20" x1="141.373" y1="82.002" x2="131.028" y2="96.732"/>
				<line class="st20" x1="125.857" y1="104.098" x2="97.413" y2="144.609"/>
			</g>
			<line class="st20" x1="153.257" y1="106.84" x2="131.708" y2="137.531"/>
		</g>
		<g style="clip-path:url(#SVGID_2_);">
			<path class="st112" d="M577.487,301.538c0,0,86.198-98.654,49.606-181.901"/>
			<path class="st112" d="M477.496,234.322c0,0,58.813-117.064,149.712-114.606"/>
			<g>
				<line class="st112" x1="543.339" y1="243.923" x2="457.982" y2="370.898"/>
				<g>
					<path class="st43" d="M427.568,365.681c-4.641,6.905-3.362,12.038,2.569,16.025c8.458,5.687,15.274-2.862,19.888-9.727
						l14.691-21.855l9.961,6.694l-14.692,21.855c-12.835,19.093-27.091,20.64-37.283,13.787
						c-11.821-7.948-13.74-21.231-5.121-34.055l-0.331,0.492c2.013-2.994,5.774-3.996,8.766-1.983
						C429.014,358.931,429.583,362.684,427.568,365.681z"/>
				</g>
				<line class="st112" x1="627.023" y1="119.435" x2="637.065" y2="104.496"/>
				<path class="st112" d="M382.641,163.33"/>
				<path class="st112" d="M627.208,119.716c-81.879-55.043-192.871-33.287-247.913,48.592c0,0,32.64-12.117,65.423,9.92
					c31.951,21.478,32.918,55.887,32.918,55.887s29.601-14.461,65.961,9.981l-0.117-0.076c36.36,24.439,34.146,57.311,34.146,57.311
					s32.297-12.196,64.248,9.281c32.783,22.037,33.85,56.889,33.85,56.889C730.764,285.621,709.089,174.756,627.208,119.716z"/>
			</g>
		</g>
		
			<rect x="1713" y="341.565" style="clip-path:url(#SVGID_2_);fill:none;stroke:#000000;stroke-width:6;stroke-miterlimit:10;" width="151.5" height="150"/>
		<rect x="1747" y="320.065" style="clip-path:url(#SVGID_2_);" width="8" height="21"/>
		<rect x="1762" y="320.065" style="clip-path:url(#SVGID_2_);" width="8" height="21"/>
		<rect x="1777" y="320.065" style="clip-path:url(#SVGID_2_);" width="8" height="21"/>
		<rect x="1794" y="320.065" style="clip-path:url(#SVGID_2_);" width="7" height="21"/>
		<rect x="1824" y="320.065" style="clip-path:url(#SVGID_2_);" width="7" height="21"/>
		
			<rect x="1740" y="359.565" style="clip-path:url(#SVGID_2_);fill:none;stroke:#000000;stroke-width:6;stroke-miterlimit:10;" width="97.5" height="99"/>
		<path style="clip-path:url(#SVGID_2_);fill:none;stroke:#27A1DB;stroke-width:6;stroke-miterlimit:10;" d="M1826.417,408.419
			c0,20.997-17.024,38.019-38.019,38.019c-20.993,0-38.017-17.021-38.017-38.019s17.024-38.019,38.017-38.019
			C1809.393,370.4,1826.417,387.422,1826.417,408.419z"/>
		
			<line style="clip-path:url(#SVGID_2_);fill:none;stroke:#27A1DB;stroke-width:6;stroke-miterlimit:10;" x1="1788.398" y1="398.733" x2="1784.769" y2="422.464"/>
		
			<line style="clip-path:url(#SVGID_2_);fill:none;stroke:#27A1DB;stroke-width:6;stroke-miterlimit:10;" x1="1813.617" y1="422.464" x2="1777.504" y2="402.123"/>
		<path style="clip-path:url(#SVGID_2_);fill:none;stroke:#000000;stroke-width:6;stroke-miterlimit:10;" d="M1819.846,236.974
			c0,37.775,32.654,61.992,32.654,61.992v42.6H1725v-42.6c0,0,32.896-24.217,32.896-61.992"/>
		
			<line style="clip-path:url(#SVGID_2_);fill:none;stroke:#000000;stroke-width:6;stroke-miterlimit:10;" x1="1725" y1="299.565" x2="1852" y2="299.565"/>
		
			<line style="clip-path:url(#SVGID_2_);fill:none;stroke:#000000;stroke-width:6;stroke-miterlimit:10;" x1="1789.5" y1="19.065" x2="1789.5" y2="88.065"/>
		<path style="clip-path:url(#SVGID_2_);fill:none;stroke:#000000;stroke-width:6;stroke-miterlimit:10;" d="M1790.25,86.924
			c0,62.051,30.75,97.746,30.75,97.746v51.896h-61.5V184.67C1759.5,184.67,1790.25,148.975,1790.25,86.924"/>
		
			<line style="clip-path:url(#SVGID_2_);fill:none;stroke:#000000;stroke-width:6;stroke-miterlimit:10;" x1="1777" y1="44.565" x2="1800" y2="44.565"/>
		
			<line style="clip-path:url(#SVGID_2_);fill:none;stroke:#000000;stroke-width:6;stroke-miterlimit:10;" x1="1759" y1="185.565" x2="1821" y2="185.565"/>
		<polyline style="clip-path:url(#SVGID_2_);fill:none;stroke:#000000;stroke-width:6;stroke-miterlimit:10;" points="1722,677.065 
			1722,491.565 1855.5,491.565 1855.5,677.065 		"/>
		
			<line style="clip-path:url(#SVGID_2_);fill:none;stroke:#000000;stroke-width:6;stroke-miterlimit:10;" x1="1713" y1="593.565" x2="1864" y2="593.565"/>
		
			<line style="clip-path:url(#SVGID_2_);fill:none;stroke:#000000;stroke-width:6;stroke-miterlimit:10;" x1="1713" y1="612.565" x2="1864" y2="612.565"/>
		
			<line style="clip-path:url(#SVGID_2_);fill:none;stroke:#000000;stroke-width:6;stroke-miterlimit:10;" x1="1747.5" y1="514.065" x2="1747.5" y2="677.065"/>
		<rect x="1785" y="205.065" style="clip-path:url(#SVGID_2_);fill:#27A1DB;" width="7" height="28"/>
		<rect x="1771" y="205.065" style="clip-path:url(#SVGID_2_);fill:#27A1DB;" width="8" height="28"/>
		<rect x="1798" y="205.065" style="clip-path:url(#SVGID_2_);fill:#27A1DB;" width="8" height="28"/>
		
			<line style="clip-path:url(#SVGID_2_);fill:none;stroke:#000000;stroke-width:6;stroke-miterlimit:10;" x1="1768.5" y1="514.065" x2="1768.5" y2="677.065"/>
		
			<line style="clip-path:url(#SVGID_2_);fill:none;stroke:#000000;stroke-width:6;stroke-miterlimit:10;" x1="1789.5" y1="514.065" x2="1789.5" y2="677.065"/>
		
			<line style="clip-path:url(#SVGID_2_);fill:none;stroke:#000000;stroke-width:6;stroke-miterlimit:10;" x1="1809" y1="514.065" x2="1809" y2="677.065"/>
		
			<line style="clip-path:url(#SVGID_2_);fill:none;stroke:#000000;stroke-width:6;stroke-miterlimit:10;" x1="1831.5" y1="514.065" x2="1831.5" y2="677.065"/>
		
			<line style="clip-path:url(#SVGID_2_);fill:none;stroke:#000000;stroke-width:6;stroke-miterlimit:10;" x1="1725" y1="299.065" x2="1725" y2="260.065"/>
		
			<line style="clip-path:url(#SVGID_2_);fill:none;stroke:#000000;stroke-width:6;stroke-miterlimit:10;" x1="1852.5" y1="299.065" x2="1852.5" y2="260.065"/>
		
			<line style="clip-path:url(#SVGID_2_);fill:none;stroke:#000000;stroke-width:6;stroke-miterlimit:10;" x1="1713" y1="344.065" x2="1713" y2="299.065"/>
		
			<line style="clip-path:url(#SVGID_2_);fill:none;stroke:#000000;stroke-width:6;stroke-miterlimit:10;" x1="1864.5" y1="340.065" x2="1864.5" y2="292.065"/>
		
			<line style="clip-path:url(#SVGID_2_);fill:none;stroke:#000000;stroke-width:6;stroke-miterlimit:10;" x1="1759.5" y1="185.065" x2="1759.5" y2="157.065"/>
		
			<line style="clip-path:url(#SVGID_2_);fill:none;stroke:#000000;stroke-width:6;stroke-miterlimit:10;" x1="1782" y1="75.565" x2="1795" y2="75.565"/>
		
			<line style="clip-path:url(#SVGID_2_);fill:none;stroke:#000000;stroke-width:6;stroke-miterlimit:10;" x1="1821" y1="185.065" x2="1821" y2="157.065"/>
		
			<line style="clip-path:url(#SVGID_2_);fill:none;stroke:#000000;stroke-width:6;stroke-miterlimit:10;" x1="1206" y1="543.565" x2="1719" y2="543.565"/>
		<g style="clip-path:url(#SVGID_2_);">
			<polyline class="st2" points="1440.65,300.897 1380.041,539.065 1366.295,539.065 1426.734,300.494 			"/>
			<polyline class="st2" points="1447.271,299.044 1507.857,539.065 1522.172,539.065 1457.5,284.419 			"/>
			<g>
				<g>
					<path class="st112" d="M1457.53,130.031"/>
					<polyline class="st112" points="1411.78,432.311 1434.356,468.404 1456.939,432.287 					"/>
					<polyline class="st112" points="1459.02,431.136 1492.518,460.479 1502.678,417.533 					"/>
					<polyline class="st112" points="1504.688,416.508 1544.361,432.448 1541.53,389.692 					"/>
					<polyline class="st112" points="1543.09,388.134 1586.077,391.292 1569.902,351.287 					"/>
					<polyline class="st112" points="1570.925,349.277 1613.268,339.167 1584.715,305.64 					"/>
					<polyline class="st112" points="1585.342,303.738 1622.268,280.957 1585.34,258.176 					"/>
					<polyline class="st112" points="1585.056,256.359 1613.455,222.448 1570.21,212.165 					"/>
					<polyline class="st112" points="1570.084,210.984 1586.643,170.323 1542.804,173.496 					"/>
					<polyline class="st112" points="1541.814,172.506 1545.243,128.997 1504.679,145.069 					"/>
					<polyline class="st112" points="1503.032,144.565 1492.611,101.886 1458.949,130.254 					"/>
				</g>
				<g>
					<path class="st56" d="M1457.53,130.031"/>
					<polyline class="st56" points="1411.78,432.311 1434.356,468.404 1456.939,432.287 					"/>
					<polyline class="st56" points="1459.02,431.136 1492.518,460.479 1502.678,417.533 					"/>
					<polyline class="st56" points="1504.688,416.508 1544.361,432.448 1541.53,389.692 					"/>
					<polyline class="st56" points="1543.09,388.134 1586.077,391.292 1569.902,351.287 					"/>
					<polyline class="st56" points="1570.925,349.277 1613.268,339.167 1584.715,305.64 					"/>
					<polyline class="st56" points="1585.342,303.738 1622.268,280.957 1585.34,258.176 					"/>
					<polyline class="st56" points="1585.056,256.359 1613.455,222.448 1570.21,212.165 					"/>
					<polyline class="st56" points="1570.084,210.984 1586.643,170.323 1542.804,173.496 					"/>
					<polyline class="st56" points="1541.814,172.506 1545.243,128.997 1504.679,145.069 					"/>
					<polyline class="st56" points="1503.032,144.565 1492.611,101.886 1458.949,130.254 					"/>
				</g>
			</g>
			<g>
				<g>
					<polyline class="st112" points="1411.519,130.031 1434.696,92.886 1457.174,128.821 					"/>
					<polyline class="st112" points="1410.026,431.136 1376.53,460.479 1366.371,417.533 					"/>
					<polyline class="st112" points="1364.361,416.508 1324.688,432.448 1327.518,389.692 					"/>
					<polyline class="st112" points="1325.958,388.134 1282.969,391.292 1299.146,351.287 					"/>
					<polyline class="st112" points="1298.121,349.277 1255.781,339.167 1284.334,305.64 					"/>
					<polyline class="st112" points="1283.707,303.738 1246.781,280.957 1283.707,258.176 					"/>
					<polyline class="st112" points="1283.991,256.359 1255.594,222.448 1298.839,212.165 					"/>
					<polyline class="st112" points="1298.965,210.984 1282.406,170.323 1326.243,173.496 					"/>
					<polyline class="st112" points="1327.235,172.506 1323.804,128.997 1364.37,145.069 					"/>
					<polyline class="st112" points="1366.017,144.565 1376.438,101.886 1410.1,130.254 					"/>
				</g>
				<g>
					<polyline class="st56" points="1411.519,130.031 1434.696,92.886 1457.174,128.821 					"/>
					<polyline class="st56" points="1410.026,431.136 1376.53,460.479 1366.371,417.533 					"/>
					<polyline class="st56" points="1364.361,416.508 1324.688,432.448 1327.518,389.692 					"/>
					<polyline class="st56" points="1325.958,388.134 1282.969,391.292 1299.146,351.287 					"/>
					<polyline class="st56" points="1298.121,349.277 1255.781,339.167 1284.334,305.64 					"/>
					<polyline class="st56" points="1283.707,303.738 1246.781,280.957 1283.707,258.176 					"/>
					<polyline class="st56" points="1283.991,256.359 1255.594,222.448 1298.839,212.165 					"/>
					<polyline class="st56" points="1298.965,210.984 1282.406,170.323 1326.243,173.496 					"/>
					<polyline class="st56" points="1327.235,172.506 1323.804,128.997 1364.37,145.069 					"/>
					<polyline class="st56" points="1366.017,144.565 1376.438,101.886 1410.1,130.254 					"/>
				</g>
			</g>
			<path class="st112" d="M1587.372,280.96c0,84.322-68.357,152.678-152.678,152.678c-84.319,0-152.675-68.355-152.675-152.678
				c0-84.325,68.355-152.678,152.675-152.678C1519.015,128.282,1587.372,196.635,1587.372,280.96z"/>
			<circle class="st112" cx="1434.694" cy="280.96" r="206.18"/>
			<g>
				<path class="st112" d="M1454.133,52.271c0,10.737-8.703,19.438-19.438,19.438c-10.734,0-19.433-8.701-19.433-19.438
					c0-10.731,8.698-19.433,19.433-19.433C1445.43,32.839,1454.133,41.54,1454.133,52.271z"/>
				<line class="st112" x1="1416" y1="51.565" x2="1453" y2="51.565"/>
			</g>
			<g>
				<path class="st112" d="M1454.133,52.271c0,10.737-8.703,19.438-19.438,19.438c-10.734,0-19.433-8.701-19.433-19.438
					c0-10.731,8.698-19.433,19.433-19.433C1445.43,32.839,1454.133,41.54,1454.133,52.271z"/>
				<line class="st112" x1="1416" y1="51.565" x2="1453" y2="51.565"/>
			</g>
			<g>
				<path class="st112" d="M1454.133,509.004c0,10.737-8.703,19.438-19.438,19.438c-10.734,0-19.433-8.701-19.433-19.438
					c0-10.731,8.698-19.436,19.433-19.436C1445.43,489.568,1454.133,498.272,1454.133,509.004z"/>
				<line class="st112" x1="1416" y1="509.565" x2="1453" y2="509.565"/>
			</g>
			<g>
				<path class="st112" d="M1682.01,281.121c0,10.737-8.703,19.436-19.438,19.436c-10.731,0-19.434-8.698-19.434-19.436
					c0-10.734,8.703-19.436,19.434-19.436C1673.307,261.686,1682.01,270.387,1682.01,281.121z"/>
				<line class="st112" x1="1644" y1="281.565" x2="1683" y2="281.565"/>
			</g>
			<g>
				<path class="st112" d="M1225.279,281.121c0,10.737-8.701,19.436-19.437,19.436c-10.734,0-19.436-8.698-19.436-19.436
					c0-10.734,8.701-19.436,19.436-19.436C1216.578,261.686,1225.279,270.387,1225.279,281.121z"/>
				<line class="st112" x1="1189" y1="281.565" x2="1225" y2="281.565"/>
			</g>
			<g>
				<path class="st112" d="M1615.611,119.162c0.003,10.734-8.701,19.436-19.438,19.436c-10.731,0-19.434-8.701-19.438-19.436
					c0.004-10.734,8.707-19.436,19.438-19.436C1606.91,99.727,1615.614,108.428,1615.611,119.162z"/>
				<line class="st112" x1="1576" y1="117.565" x2="1615" y2="117.565"/>
			</g>
			<g>
				<path class="st112" d="M1292.654,442.119c0,10.734-8.703,19.436-19.436,19.436c-10.734,0-19.44-8.704-19.438-19.438
					c0-10.731,8.704-19.433,19.436-19.433C1283.953,422.684,1292.654,431.385,1292.654,442.119z"/>
				<line class="st112" x1="1254" y1="441.565" x2="1293" y2="441.565"/>
			</g>
			<g>
				<path class="st112" d="M1615.614,442.119c0,10.734-8.704,19.436-19.441,19.438c-10.729-0.003-19.433-8.704-19.433-19.438
					c-0.001-10.734,8.704-19.436,19.433-19.436C1606.91,422.684,1615.614,431.385,1615.614,442.119z"/>
				<line class="st112" x1="1576" y1="441.565" x2="1615" y2="441.565"/>
			</g>
			<g>
				<path class="st112" d="M1253.779,119.159c0-10.731,8.7-19.436,19.437-19.436c10.734,0,19.438,8.704,19.436,19.436
					c0.003,10.734-8.701,19.438-19.437,19.433C1262.479,138.598,1253.779,129.894,1253.779,119.159z"/>
				<line class="st112" x1="1293" y1="117.565" x2="1254" y2="117.565"/>
			</g>
			<circle class="st112" cx="1434.694" cy="280.96" r="191.118"/>
			<g>
				<polyline class="st25" points="1431.65,304.147 1371.041,542.565 1357.295,542.565 1419.352,297.479 				"/>
				<polyline class="st25" points="1438.271,302.294 1498.857,542.565 1513.172,542.565 1450.433,294.992 				"/>
			</g>
			<circle class="st112" cx="1434.697" cy="280.96" r="21.378"/>
			<circle class="st43" cx="1434.697" cy="280.96" r="9.586"/>
		</g>
		<g style="clip-path:url(#SVGID_2_);">
			<path class="st112" d="M1133.956,321.584c-6.899-15.706-50.64-36.019-101.402-36.019h-0.489
				c-50.767,0-94.629,19.973-102.021,35.676"/>
			<path class="st112" d="M1133.895,308.975c-6.899-19.219-50.64-42.409-101.405-42.409H1032c-50.763,0-94.5,23.477-102,42.692
				v12.308h204.018L1133.895,308.975z"/>
			<polyline class="st112" points="927,677.065 927,365.565 1137,365.565 1137,677.065 			"/>
			<rect x="960" y="333.565" class="st112" width="142.5" height="21"/>
			<rect x="937.5" y="321.565" class="st112" width="189" height="44"/>
			<polyline class="st112" points="958.5,677.065 958.5,384.565 1105.5,384.565 1105.5,677.065 			"/>
			<rect x="976.5" y="401.565" class="st112" width="37.5" height="51"/>
			<rect x="1014" y="401.565" class="st112" width="36" height="51"/>
			<rect x="1050" y="401.565" class="st112" width="37.5" height="51"/>
			<rect x="976.5" y="452.565" class="st112" width="37.5" height="49"/>
			<rect x="1014" y="452.565" class="st112" width="36" height="49"/>
			<rect x="1050" y="452.565" class="st112" width="37.5" height="49"/>
			<rect x="976.5" y="501.565" class="st112" width="37.5" height="50"/>
			<rect x="1014" y="501.565" class="st112" width="36" height="50"/>
			<rect x="1050" y="501.565" class="st112" width="37.5" height="50"/>
			<rect x="976.5" y="551.565" class="st112" width="37.5" height="51"/>
			<rect x="1014" y="551.565" class="st112" width="36" height="51"/>
			<rect x="1050" y="551.565" class="st112" width="37.5" height="51"/>
			<rect x="976.5" y="602.565" class="st112" width="37.5" height="49"/>
			<rect x="1014" y="602.565" class="st112" width="36" height="49"/>
			<rect x="1050" y="602.565" class="st112" width="37.5" height="49"/>
			<polyline class="st112" points="976.5,677.065 976.5,651.565 1014,651.565 1014,677.065 			"/>
			<polyline class="st112" points="1014,677.065 1014,651.565 1050,651.565 1050,677.065 			"/>
			<polyline class="st112" points="1050,677.065 1050,651.565 1087.5,651.565 1087.5,677.065 			"/>
			<circle class="st56" cx="1096.808" cy="551.985" r="7.641"/>
		</g>
		<g style="clip-path:url(#SVGID_2_);">
			<polygon class="st112" points="253.925,514.468 237.129,534.7 220.335,514.468 237.132,494.232 			"/>
			<path class="st112" d="M226.5,508.078c-7.693-0.993-18-12.697-18-12.697v19.087v19.084c0,0,10.497-11.704,18.19-12.694"/>
			<path class="st112" d="M247.66,508.078c7.694-0.993,17.84-12.697,17.84-12.697v19.087v19.084c0,0-10.421-11.704-18.111-12.694"/>
			<line class="st112" x1="254.5" y1="524.065" x2="254.5" y2="545.065"/>
			<polyline class="st112" points="218.5,506.065 218.5,440.565 254.5,440.565 254.5,506.065 			"/>
			<line class="st112" x1="218.5" y1="545.065" x2="218.5" y2="524.065"/>
			<rect x="331" y="563.065" class="st43" width="15" height="9"/>
			<rect x="291" y="563.065" class="st43" width="13" height="9"/>
			<rect x="127" y="563.065" class="st43" width="14" height="9"/>
			<rect x="168" y="563.065" class="st43" width="15" height="9"/>
			<path class="st112" d="M384.26,606.065c0,10.939-10.868,20.5-24.148,20.5H117.903c-13.286,0-24.152-9.561-24.152-20.5
				c0-10.937,10.866-20.5,24.152-20.5h242.209C373.392,585.565,384.26,595.129,384.26,606.065z"/>
			<path class="st112" d="M243.519,501.614c0.99-7.693,12.7-19.049,12.7-19.049h-19.087h-19.087c0,0,11.707,11.021,12.694,18.715"/>
			<path class="st112" d="M243.519,527.538c0.99,7.689,12.7,19.027,12.7,19.027h-19.087h-19.087c0,0,11.707-11.011,12.694-18.707"/>
			<path class="st112" d="M247.5,435.749c0,2.53-2.053,4.816-4.585,4.816h-11.83c-2.532,0-4.585-2.286-4.585-4.816v-4.836
				c0-2.53,2.053-4.348,4.585-4.348h11.83c2.532,0,4.585,1.817,4.585,4.348V435.749z"/>
			<g>
				<path class="st112" d="M223.464,388.913c-6.822-2.754-14.964-11.247-14.964-11.247v18.088v18.082c0,0,7.397-7.682,13.956-10.799
					c0.338-0.161,0.86-0.308,1.197-0.442c0.431-0.173,0.763-0.325,1.182-0.451"/>
				<path class="st112" d="M250.215,389.098c6.927-2.534,15.285-11.432,15.285-11.432v18.088v18.082c0,0-8.051-8.684-14.924-11.332"
					/>
			</g>
			<path class="st112" d="M243.185,381.429c0.94-7.289,12.032-17.863,12.032-17.863h-18.085h-18.088
				c0,0,11.095,10.353,12.032,17.639"/>
			<path class="st112" d="M243.185,408.669c0.94,7.289,12.032,17.896,12.032,17.896h-18.085h-18.088
				c0,0,11.095-10.369,12.032-17.658"/>
			<path class="st112" d="M219.208,484.74c-6.765-6.894-16.189-14.174-26.613-14.174c-5.438,0-10.6,1.175-15.264,3.27
				c-8.807-13.172-23.815-21.847-40.852-21.847c-26.656,0-50.355,29.221-30.105,69.58"/>
			<path class="st112" d="M254.807,484.74c6.765-6.894,16.192-14.174,26.616-14.174c5.438,0,10.6,1.175,15.261,3.27
				c8.81-13.172,23.818-21.847,40.852-21.847c26.657,0,50.697,28.503,30.445,68.862"/>
			<rect x="223.5" y="381.565" class="st112" width="27" height="27"/>
			<rect x="222" y="559.065" class="st43" width="33" height="18"/>
			<path class="st56" d="M118.5,546.636c-10.805-24.85-36.926-65.572-32.728-101.455c3.067-26.209,24.431-32.707,37.471-32.707
				c20.364,0,31.052,13.304,52.811,37.099c11.021,12.05,20.47,19.359,27.926,23.654"/>
			<path class="st56" d="M355.5,546.636c10.805-24.85,36.94-65.572,32.742-101.455c-3.064-26.209-24.428-32.707-37.468-32.707
				c-20.364,0-31.052,13.304-52.811,37.099c-11.021,12.05-20.47,19.359-27.926,23.654"/>
			<rect x="118.5" y="546.565" class="st112" width="237" height="39"/>
			<path class="st112" d="M254.807,484.74c6.765-6.894,16.192-14.174,26.616-14.174c5.438,0,10.6,1.175,15.261,3.27
				c8.81-13.172,23.818-21.847,40.852-21.847"/>
			<path class="st112" d="M219.208,484.74c-6.765-6.894-16.189-14.174-26.613-14.174c-5.438,0-10.6,1.175-15.264,3.27
				c-8.807-13.172-23.815-21.847-40.852-21.847"/>
		</g>
		<g style="clip-path:url(#SVGID_2_);">
			<line class="st112" x1="763.189" y1="86.423" x2="736.468" y2="124.477"/>
			<g>
				<line class="st112" x1="803.517" y1="70.752" x2="775.074" y2="111.261"/>
				<line class="st112" x1="767.316" y1="122.309" x2="750.076" y2="146.862"/>
				<line class="st112" x1="741.457" y1="159.138" x2="731.112" y2="173.868"/>
			</g>
			<g>
				<line class="st112" x1="808.872" y1="107.502" x2="798.527" y2="122.232"/>
				<line class="st112" x1="793.356" y1="129.598" x2="764.912" y2="170.109"/>
			</g>
			<line class="st112" x1="820.756" y1="132.34" x2="799.207" y2="163.031"/>
		</g>
		<g style="clip-path:url(#SVGID_2_);">
			<line class="st112" x1="460.802" y1="539.461" x2="434.081" y2="577.518"/>
			<g>
				<line class="st112" x1="488.517" y1="541.752" x2="460.074" y2="582.261"/>
				<line class="st112" x1="452.316" y1="593.309" x2="435.077" y2="617.862"/>
			</g>
			<g>
				<line class="st112" x1="493.872" y1="578.502" x2="483.528" y2="593.232"/>
			</g>
		</g>
		<g style="clip-path:url(#SVGID_2_);">
			<line class="st56" x1="829.204" y1="232.037" x2="786.199" y2="293.285"/>
			<g>
				<line class="st56" x1="882.138" y1="198.413" x2="836.363" y2="263.61"/>
				<line class="st56" x1="823.875" y1="281.391" x2="796.131" y2="320.903"/>
				<line class="st56" x1="782.261" y1="340.661" x2="765.612" y2="364.368"/>
			</g>
			<g>
				<line class="st56" x1="878.039" y1="248.628" x2="861.39" y2="272.338"/>
				<line class="st56" x1="853.066" y1="284.191" x2="807.287" y2="349.389"/>
			</g>
			<line class="st56" x1="885.193" y1="280.201" x2="850.515" y2="329.593"/>
		</g>
		<g style="clip-path:url(#SVGID_2_);">
			<line class="st56" x1="239.705" y1="140.537" x2="196.7" y2="201.785"/>
			<g>
				<line class="st56" x1="292.638" y1="106.913" x2="246.863" y2="172.11"/>
				<line class="st56" x1="234.375" y1="189.891" x2="206.631" y2="229.403"/>
				<line class="st56" x1="192.761" y1="249.161" x2="176.113" y2="272.868"/>
			</g>
			<g>
				<line class="st56" x1="288.54" y1="157.128" x2="271.89" y2="180.838"/>
				<line class="st56" x1="263.567" y1="192.691" x2="217.788" y2="257.889"/>
			</g>
			<line class="st56" x1="295.694" y1="188.701" x2="261.015" y2="238.093"/>
		</g>
		<g style="clip-path:url(#SVGID_2_);">
			<line class="st112" x1="86.69" y1="63.923" x2="59.968" y2="101.977"/>
			<g>
				<line class="st112" x1="127.017" y1="48.252" x2="98.574" y2="88.761"/>
				<line class="st112" x1="90.816" y1="99.809" x2="73.577" y2="124.362"/>
				<line class="st112" x1="64.958" y1="136.638" x2="54.613" y2="151.368"/>
			</g>
			<g>
				<line class="st112" x1="132.373" y1="85.002" x2="122.028" y2="99.732"/>
				<line class="st112" x1="116.857" y1="107.098" x2="88.413" y2="147.609"/>
			</g>
			<line class="st112" x1="144.257" y1="109.84" x2="122.708" y2="140.531"/>
		</g>
		<g style="clip-path:url(#SVGID_2_);">
			<line class="st112" x1="1055.689" y1="83.423" x2="1028.968" y2="121.477"/>
			<g>
				<line class="st112" x1="1096.017" y1="67.752" x2="1067.574" y2="108.261"/>
				<line class="st112" x1="1059.816" y1="119.309" x2="1042.576" y2="143.862"/>
				<line class="st112" x1="1033.957" y1="156.138" x2="1023.612" y2="170.868"/>
			</g>
			<g>
				<line class="st112" x1="1101.372" y1="104.502" x2="1091.027" y2="119.232"/>
				<line class="st112" x1="1085.856" y1="126.598" x2="1057.412" y2="167.109"/>
			</g>
			<line class="st112" x1="1113.256" y1="129.34" x2="1091.707" y2="160.031"/>
		</g>
		
			<line style="clip-path:url(#SVGID_2_);fill:none;stroke:#000000;stroke-width:6;stroke-miterlimit:10;" x1="1137" y1="626.565" x2="1546" y2="626.565"/>
		<rect x="1809" y="320.065" style="clip-path:url(#SVGID_2_);" width="7" height="21"/>
		<path style="clip-path:url(#SVGID_2_);fill:none;stroke:#000000;stroke-width:6;stroke-miterlimit:10;" d="M219.208,484.74
			c-6.765-6.894-16.189-14.174-26.613-14.174c-5.438,0-10.6,1.175-15.264,3.27c-8.807-13.172-23.815-21.847-40.852-21.847"/>
		<g style="clip-path:url(#SVGID_2_);">
			<line class="st112" x1="1610.689" y1="578.423" x2="1583.968" y2="616.477"/>
			<g>
				<line class="st112" x1="1651.017" y1="562.752" x2="1622.574" y2="603.261"/>
				<line class="st112" x1="1614.816" y1="614.309" x2="1597.576" y2="638.862"/>
				<line class="st112" x1="1588.957" y1="651.138" x2="1578.612" y2="665.868"/>
			</g>
			<g>
				<line class="st112" x1="1656.372" y1="599.502" x2="1646.027" y2="614.232"/>
				<line class="st112" x1="1640.856" y1="621.598" x2="1612.412" y2="662.109"/>
			</g>
			<line class="st112" x1="1668.256" y1="624.34" x2="1646.707" y2="655.031"/>
		</g>
	</g>
</g>
</svg>
