<?xml version="1.0" encoding="utf-8"?>
<!-- Generator: Adobe Illustrator 16.0.0, SVG Export Plug-In . SVG Version: 6.00 Build 0)  -->
<!DOCTYPE svg PUBLIC "-//W3C//DTD SVG 1.1//EN" "http://www.w3.org/Graphics/SVG/1.1/DTD/svg11.dtd">
<svg version="1.1" xmlns="http://www.w3.org/2000/svg" xmlns:xlink="http://www.w3.org/1999/xlink" x="0px" y="0px" width="1920px"
	 height="1139.878px" viewBox="0 0 1920 1139.878" style="enable-background:new 0 0 1920 1139.878;" xml:space="preserve">
<style type="text/css">
<![CDATA[
	.st0{fill:none;stroke:#272525;stroke-width:4;stroke-miterlimit:10;}
	.st1{clip-path:url(#SVGID_18_);fill:none;stroke:#C72A7D;stroke-width:6;stroke-miterlimit:10;}
	.st2{fill:#7CC7EA;}
	.st3{clip-path:url(#SVGID_18_);fill:#C72A7D;}
	.st4{clip-path:url(#SVGID_20_);fill:#83C698;}
	.st5{fill:none;stroke:#32367C;stroke-width:4;stroke-miterlimit:10;}
	.st6{fill:none;stroke:#FAEC34;stroke-width:6.5491;stroke-miterlimit:10;}
	.st7{clip-path:url(#SVGID_24_);fill:none;stroke:#27A2DC;stroke-width:4.3661;stroke-miterlimit:10;}
	.st8{fill:#FFFFFF;stroke:#C72A7D;stroke-width:6;stroke-miterlimit:10;}
	.st9{clip-path:url(#SVGID_8_);fill:none;stroke:#000000;stroke-width:4;stroke-miterlimit:10;}
	.st10{clip-path:url(#SVGID_24_);fill:none;stroke:#FAEC34;stroke-width:4;stroke-miterlimit:10;}
	.st11{fill:none;stroke:#000000;stroke-width:5;stroke-miterlimit:10;}
	.st12{clip-path:url(#SVGID_10_);fill:none;stroke:#000000;stroke-width:4;stroke-miterlimit:10;}
	.st13{clip-path:url(#SVGID_16_);fill:none;}
	.st14{fill:#FFFF66;stroke:#000000;stroke-width:4;stroke-miterlimit:10;}
	.st15{fill:#F8EB35;stroke:#F8EB35;stroke-width:3.5625;stroke-miterlimit:10;}
	.st16{clip-path:url(#SVGID_10_);fill:#FFFFFF;stroke:#000000;stroke-width:4;stroke-miterlimit:10;}
	.st17{clip-path:url(#SVGID_26_);fill:none;stroke:#C72B7D;stroke-width:6;stroke-miterlimit:10;}
	.st18{fill:none;stroke:#C72A7D;stroke-width:4;stroke-miterlimit:10;}
	.st19{fill:none;stroke:#C72B7D;stroke-width:4;stroke-miterlimit:10;}
	.st20{clip-path:url(#SVGID_32_);fill:none;stroke:#34A157;stroke-width:6.5645;stroke-miterlimit:10;}
	.st21{clip-path:url(#SVGID_32_);fill:none;stroke:#32367C;stroke-width:6.0141;stroke-miterlimit:10;}
	.st22{fill:#83C698;}
	.st23{clip-path:url(#SVGID_18_);fill:none;stroke:#000000;stroke-width:6;stroke-miterlimit:10;}
	.st24{fill:none;stroke:#D1EBF7;stroke-width:6;stroke-miterlimit:10;}
	.st25{fill:none;stroke:#27A2DC;stroke-width:4.3661;stroke-miterlimit:10;}
	.st26{fill:#FFFFFF;stroke:#000000;stroke-width:6;stroke-miterlimit:10;}
	.st27{fill:#FFFFFF;stroke:#34A156;stroke-width:6;stroke-miterlimit:10;}
	.st28{fill:none;stroke:#FFFFFF;stroke-miterlimit:10;}
	.st29{fill:#FAEC34;stroke:#000000;stroke-width:4;stroke-miterlimit:10;}
	.st30{fill:none;stroke:#000000;stroke-width:4;stroke-miterlimit:10;}
	.st31{clip-path:url(#SVGID_30_);fill:none;stroke:#FAEC34;stroke-width:4;stroke-miterlimit:10;}
	.st32{clip-path:url(#SVGID_32_);fill:none;stroke:#C72B7D;stroke-width:6.0141;stroke-miterlimit:10;}
	.st33{fill:none;stroke:#34A156;stroke-width:4;stroke-miterlimit:10;}
	.st34{fill:#F2D2E3;}
	.st35{fill:#26A1DB;}
	.st36{fill:#27A1DB;}
	.st37{fill:#27A2DC;}
	.st38{fill:#5D5D5D;}
	.st39{fill:#C72A7D;stroke:#000000;stroke-width:4;stroke-miterlimit:10;}
	.st40{clip-path:url(#SVGID_20_);fill:#FFFFFF;stroke:#34A156;stroke-width:6;stroke-miterlimit:10;}
	.st41{fill:#F8EB35;}
	.st42{clip-path:url(#SVGID_18_);fill:#DD7FAF;}
	.st43{clip-path:url(#SVGID_8_);}
	.st44{clip-path:url(#SVGID_18_);fill:#FFFFFF;stroke:#C72A7D;stroke-width:6;stroke-miterlimit:10;}
	.st45{stroke:#000000;stroke-width:4;stroke-miterlimit:10;}
	.st46{fill:none;stroke:#27A1DB;stroke-width:6;stroke-miterlimit:10;}
	.st47{fill:#FFFFFF;stroke:#C72A7D;stroke-width:4;stroke-miterlimit:10;}
	.st48{fill:#C6C6C6;}
	.st49{fill:#FAEC34;}
	.st50{clip-path:url(#SVGID_26_);fill:none;stroke:#FAEC34;stroke-width:6;stroke-miterlimit:10;}
	.st51{fill:#C72A7D;}
	.st52{fill:#C72B7D;}
	.st53{fill:none;stroke:#FAEC34;stroke-width:4;stroke-miterlimit:10;}
	.st54{fill:none;stroke:#FFFF66;stroke-width:4;stroke-miterlimit:10;}
	.st55{clip-path:url(#SVGID_20_);fill:#34A156;}
	.st56{clip-path:url(#SVGID_32_);fill:none;stroke:#FAEC34;stroke-width:6.0141;stroke-miterlimit:10;}
	.st57{clip-path:url(#SVGID_16_);fill:none;stroke:#FAEC34;stroke-width:3.6282;stroke-miterlimit:10;}
	.st58{fill:none;stroke:#000000;stroke-width:3;stroke-miterlimit:10;}
	.st59{fill:#FFFFFF;}
	.st60{fill:none;stroke:#000000;stroke-width:3.8428;stroke-miterlimit:10;}
	.st61{clip-path:url(#SVGID_30_);fill:none;stroke:#34A157;stroke-width:4.3661;stroke-miterlimit:10;}
	.st62{fill:none;stroke:#FAEC34;stroke-width:4.3661;stroke-miterlimit:10;}
	.st63{fill:none;}
	.st64{clip-path:url(#SVGID_24_);fill:none;stroke:#32367C;stroke-width:4;stroke-miterlimit:10;}
	.st65{clip-path:url(#SVGID_20_);fill:#D4EBDB;}
	.st66{fill:none;stroke:#D1EBF7;stroke-width:4;stroke-miterlimit:10;}
	.st67{fill:#32367C;}
	.st68{clip-path:url(#SVGID_20_);fill:none;stroke:#000000;stroke-width:6;stroke-miterlimit:10;}
	.st69{fill:#FFFFFF;stroke:#000000;stroke-width:4;stroke-miterlimit:10;}
	.st70{fill:#34A156;}
	.st71{fill:#34A157;}
	.st72{clip-path:url(#SVGID_24_);fill:none;stroke:#C72B7D;stroke-width:4;stroke-miterlimit:10;}
	.st73{clip-path:url(#SVGID_20_);fill:none;stroke:#34A156;stroke-width:6;stroke-miterlimit:10;}
	.st74{fill:none;stroke:#C72A7D;stroke-width:6;stroke-miterlimit:10;}
	.st75{fill:#FFFFFF;stroke:#34A156;stroke-width:4;stroke-miterlimit:10;}
	.st76{stroke:#000000;stroke-width:3;stroke-miterlimit:10;}
	.st77{fill:none;stroke:#FFFFFF;stroke-width:4;stroke-miterlimit:10;}
	.st78{fill:none;stroke:#7CC7EA;stroke-width:4;stroke-miterlimit:10;}
	.st79{fill:#D1EBF7;}
	.st80{fill:none;stroke:#34A157;stroke-width:4.3661;stroke-miterlimit:10;}
	.st81{fill:#D4EBDB;}
	.st82{fill:none;stroke:#000000;stroke-width:5.2992;stroke-miterlimit:10;}
	.st83{clip-path:url(#SVGID_30_);fill:none;stroke:#32367C;stroke-width:4;stroke-miterlimit:10;}
	.st84{fill:none;stroke:#FFFFFF;stroke-width:1.4794;stroke-miterlimit:10;}
	.st85{clip-path:url(#SVGID_10_);}
	.st86{clip-path:url(#SVGID_12_);}
	.st87{clip-path:url(#SVGID_14_);}
	.st88{clip-path:url(#SVGID_16_);}
	.st89{clip-path:url(#SVGID_18_);}
	.st90{clip-path:url(#SVGID_20_);}
	.st91{clip-path:url(#SVGID_22_);}
	.st92{fill:none;stroke:#000000;stroke-width:6;stroke-miterlimit:10;}
	.st93{clip-path:url(#SVGID_18_);fill:#F2D2E3;}
	.st94{clip-path:url(#SVGID_8_);fill:#FFFFFF;stroke:#000000;stroke-width:4;stroke-miterlimit:10;}
	.st95{fill:none;stroke:#272525;stroke-width:3.5625;stroke-miterlimit:10;}
	.st96{clip-path:url(#SVGID_28_);fill:none;stroke:#27A2DC;stroke-width:6.5491;stroke-miterlimit:10;}
	.st97{fill:none;stroke:#34A156;stroke-width:6;stroke-miterlimit:10;}
	.st98{clip-path:url(#SVGID_28_);fill:none;stroke:#32367C;stroke-width:6;stroke-miterlimit:10;}
	.st99{fill:none;stroke:#27A1DB;stroke-width:4;stroke-miterlimit:10;}
	.st100{clip-path:url(#SVGID_30_);fill:none;stroke:#C72B7D;stroke-width:4;stroke-miterlimit:10;}
	.st101{fill:#DD7FAF;}
	.st102{clip-path:url(#SVGID_12_);fill:none;stroke:#000000;stroke-width:4;stroke-miterlimit:10;}
]]>
</style>
<g id="Layer_1">
</g>
<g id="Layer_2">
	<g>
		<g>
			<path class="st67" d="M906.233,859.109c-127.552,0-241.62-83.071-279.998-205.479l6.249-1.957
				c38.69,123.405,156.249,205.98,285.442,200.646c76.565-3.11,147.331-35.855,199.267-92.194
				c51.939-56.345,78.82-129.543,75.696-206.112c-3.111-76.549-35.851-147.31-92.197-199.247
				c-56.347-51.936-129.551-78.801-206.095-75.698c-3.3,0.135-6.581,0.323-9.85,0.565l-0.486-6.53
				c3.339-0.25,6.697-0.445,10.071-0.579c78.233-3.226,153.164,24.301,210.798,77.426c57.636,53.123,91.122,125.499,94.301,203.795
				c3.196,78.315-24.3,153.188-77.426,210.82c-53.12,57.623-125.5,91.119-203.807,94.302
				C914.196,859.027,910.208,859.109,906.233,859.109z"/>
		</g>
		<g>
			<path class="st67" d="M849.29,297.534l-0.473-2.75l9.056-1.548l-5.085-29.882l3.007-0.505l5.085,29.882l9.004-1.536l0.475,2.756
				L849.29,297.534z"/>
			<path class="st67" d="M830.201,282.106l5.729-1.527l-3.459-13.003l2.949-0.78l8.512,31.984l-7.209,1.926
				c-3.739,0.991-6.759,0.889-9.057-0.308c-2.308-1.209-3.868-3.358-4.687-6.453c-0.512-2.168-0.402-4.184,0.321-6.038
				c0.724-1.848,2.058-3.345,3.997-4.471l-12.093-11.256l3.511-0.933L830.201,282.106z M836.639,283.194l-5.179,1.382
				c-2.341,0.613-3.979,1.745-4.893,3.383c-0.927,1.63-1.125,3.415-0.614,5.341c1.24,4.656,4.483,6.28,9.74,4.886l4.605-1.228
				L836.639,283.194z"/>
			<path class="st67" d="M785.461,283.06l6.223,7.445l13.674-5.251l-0.321-9.722l3.063-1.177l0.973,35.093l-4.131,1.58
				l-22.557-26.784L785.461,283.06z M805.448,288.106l-11.966,4.604l12.624,15.151C805.895,303.865,805.672,297.284,805.448,288.106
				z"/>
			<path class="st67" d="M788.735,317.744l-8.346,4.4c-4.291,2.245-8.512,2.764-12.677,1.542c-4.143-1.21-7.36-3.979-9.637-8.302
				c-3-5.711-3.07-11.053-0.217-16.034c1.477-2.622,3.78-4.753,6.899-6.409l8.576-4.496L788.735,317.744z M771.936,292.341
				l-5.866,3.088c-2.003,1.05-3.589,2.322-4.759,3.826c-1.163,1.514-1.899,3.089-2.167,4.751c-0.552,3.32,0.045,6.639,1.785,9.938
				c1.732,3.301,4.322,5.532,7.776,6.709c3.434,1.157,6.901,0.838,10.38-0.99l5.646-2.981L771.936,292.341z"/>
			<path class="st67" d="M731.496,327.964l11.716,17.032l-2.508,1.734l-11.658-16.962c-2.411-3.505-3.389-6.74-2.917-9.702
				c0.455-2.968,2.232-5.506,5.309-7.617c3.071-2.117,6.063-2.878,8.949-2.289c2.898,0.594,5.508,2.582,7.828,5.959l11.882,17.275
				l-2.513,1.721l-11.852-17.236c-1.887-2.731-3.901-4.292-6.063-4.688c-2.16-0.397-4.342,0.147-6.521,1.656
				C728.318,318.166,727.76,322.54,731.496,327.964z"/>
			<path class="st67" d="M698.979,335.255c-0.99-0.25-2.014-0.972-3.044-2.154c-1.036-1.19-1.478-2.618-1.344-4.312
				c0.146-1.682,1.036-3.305,2.682-4.86l1.579,1.816c-1.957,2.092-2.258,3.927-0.876,5.507c0.797,0.914,1.887,1.599,3.272,2.041
				L698.979,335.255z M721.197,359.878c2.866-2.494,4.413-5.539,4.637-9.146c0.231-3.601-1.048-7.004-3.817-10.194
				c-2.771-3.178-5.955-4.925-9.536-5.232c-3.588-0.307-6.954,0.908-10.087,3.64c-2.456,2.124-3.934,4.534-4.446,7.246l-2.192-2.525
				c0.582-2.374,2.2-4.708,4.834-7.011c3.78-3.287,7.829-4.796,12.16-4.515c4.322,0.274,8.171,2.36,11.555,6.241
				c3.391,3.896,4.907,8.065,4.548,12.491c-0.353,4.432-2.296,8.187-5.834,11.256c-2.442,2.13-4.924,3.513-7.464,4.151l-2.084-2.405
				c1.581-0.377,2.892-0.825,3.933-1.323C718.455,362.065,719.709,361.17,721.197,359.878z"/>
			<path class="st67" d="M672.333,365.967l8.905,3.882l9.888-10.796l-4.625-8.557l2.226-2.424l16.52,30.967l-2.987,3.263
				l-32.146-13.91L672.333,365.967z M692.489,361.572l-8.661,9.454l18.055,7.93C699.915,375.471,696.785,369.676,692.489,361.572z
				 M704.564,386.209c0.555-0.606,1.598-1.196,3.131-1.765c1.537-0.562,2.483-1.043,2.841-1.426
				c0.934-1.011,1.075-2.374,0.442-4.055l2.289-0.307c0.41,0.955,0.564,1.971,0.448,3.038c-0.115,1.075-0.492,1.971-1.158,2.674
				c-0.646,0.724-1.726,1.343-3.249,1.894c-1.516,0.537-2.475,1.022-2.873,1.464c-0.663,0.717-0.691,1.797-0.107,3.23l-2.399,0.601
				C703.045,389.413,703.257,387.628,704.564,386.209z"/>
			<path class="st67" d="M655.943,386.536c2.571-3.595,5.904-5.571,9.991-5.922c4.086-0.352,8.236,0.99,12.445,4.003
				c4.213,3.032,6.822,6.511,7.814,10.432c0.999,3.914,0.178,7.707-2.456,11.377c-2.634,3.678-5.947,5.654-9.918,5.949
				c-3.986,0.28-8.111-1.107-12.371-4.17c-4.265-3.063-6.9-6.542-7.891-10.444C652.559,393.866,653.359,390.123,655.943,386.536z
				 M681.36,404.692c2.085-2.916,2.704-5.922,1.842-9.019c-0.858-3.094-3.07-5.921-6.639-8.479
				c-3.562-2.565-6.971-3.735-10.253-3.524c-3.274,0.205-5.942,1.747-8.007,4.618c-2.065,2.872-2.647,5.839-1.772,8.89
				c0.902,3.063,3.153,5.891,6.755,8.473c3.594,2.585,6.997,3.808,10.169,3.64C676.634,409.137,679.268,407.603,681.36,404.692z"/>
			<path class="st67" d="M623.498,443.418l5.007-1.983c-1.342-3.468-1.028-7.188,0.916-11.192c1.062-2.143,2.405-3.882,3.991-5.246
				c1.58-1.354,3.356-2.174,5.308-2.442c1.958-0.269,3.966,0.102,6.063,1.12c1.842,0.926,3.351,2.211,4.541,3.87
				c1.183,1.65,1.899,3.402,2.162,5.281c1.765-0.274,3.492,0,5.167,0.819c1.438,0.697,2.604,1.669,3.491,2.923
				c0.884,1.247,1.376,2.675,1.484,4.299c0.104,1.61-0.249,3.279-1.086,4.988c-0.658,1.349-1.413,2.494-2.264,3.434
				c-0.858,0.927-1.868,1.842-3.025,2.731l-2.092-2.551c0.186-0.153,0.557-0.455,1.089-0.884c0.541-0.429,1.092-0.952,1.663-1.566
				c0.569-0.621,1.13-1.483,1.667-2.609c0.717-1.464,0.819-2.884,0.328-4.234c-0.513-1.356-1.402-2.347-2.662-2.955
				c-1.305-0.633-2.57-0.851-3.812-0.652c-1.241,0.198-3.057,0.755-5.436,1.675l-12.39,4.739c1.529,2.021,3.782,3.89,6.761,5.63
				l-2.48,2.296c-3.422-1.888-6.013-4.036-7.791-6.467l-5.072,2.015L623.498,443.418z M631.939,440.093l13.873-5.488
				c1.118-0.441,1.931-0.722,2.425-0.851c-0.153-1.311-0.69-2.539-1.568-3.683c-0.882-1.132-2.06-2.079-3.524-2.821
				c-2.231-1.087-4.31-1.152-6.229-0.193c-1.924,0.954-3.403,2.515-4.451,4.67C631.013,434.694,630.846,437.489,631.939,440.093z"/>
			<path class="st67" d="M616.162,471.86l-4.367,14.223l-2.661-0.812l5.244-17.14l31.653,9.703l-5.162,16.865l-2.687-0.825
				l4.28-13.943l-11.827-3.632l-3.785,12.298l-2.666-0.819l3.772-12.299L616.162,471.86z"/>
			<path class="st67" d="M606.486,495.28l32.509,6.274l-0.8,4.093l-32.35,11.871c3.357,0.589,8.43,1.521,15.209,2.832l13.802,2.668
				l-0.581,2.979l-32.504-6.261l0.788-4.104l32.347-11.871c-3.472-0.596-8.563-1.548-15.258-2.841l-13.746-2.648L606.486,495.28z"/>
			<path class="st67" d="M629.809,544.138c0.181-2.188-0.191-3.98-1.111-5.367c-0.928-1.388-2.232-2.15-3.934-2.29
				c-1.766-0.147-3.223,0.492-4.389,1.906c-0.983,1.138-1.873,2.482-2.671,4.022c-0.801,1.542-1.357,2.61-1.678,3.166
				c-0.331,0.569-0.824,1.285-1.496,2.143c-0.651,0.87-1.279,1.51-1.873,1.926c-1.605,1.113-3.378,1.593-5.342,1.439
				c-2.877-0.243-4.995-1.375-6.344-3.429c-1.362-2.046-1.912-4.668-1.655-7.873c0.261-3.192,1.208-5.929,2.838-8.188l3.372,0.27
				c-0.821,0.921-1.548,2.13-2.163,3.646c-0.626,1.503-1.011,3.242-1.165,5.207c-0.166,1.949,0.219,3.619,1.121,4.994
				c0.9,1.362,2.186,2.117,3.861,2.258c1.658,0.134,2.968-0.256,3.934-1.158c1.069-0.997,2.334-2.903,3.806-5.704
				c1.401-2.622,2.347-4.177,2.858-4.668c0.499-0.507,1.011-1.006,1.548-1.484c0.523-0.48,1.048-0.818,1.555-1.004
				c1.388-0.507,2.699-0.723,3.945-0.615c2.771,0.225,4.855,1.389,6.249,3.518c1.383,2.111,1.963,4.573,1.732,7.38
				c-0.229,2.802-0.895,5.085-2.041,6.831l-3.363-0.275c0.569-0.741,1.099-1.734,1.567-2.982
				C629.431,546.567,629.721,545.346,629.809,544.138z"/>
			<path class="st67" d="M598.605,561.098l33.111,0.319l-0.032,3.039l-33.11-0.313L598.605,561.098z"/>
			<path class="st67" d="M598.517,576.037l33.027-2.454l0.301,4.163l-28.115,19.929c3.388-0.321,8.53-0.742,15.418-1.254
				l14.006-1.043l0.232,3.038l-33.021,2.456l-0.308-4.156l28.115-19.929c-3.51,0.331-8.679,0.748-15.463,1.253l-13.962,1.036
				L598.517,576.037z"/>
			<path class="st67" d="M604.183,626.054c-0.87-4.337-0.025-8.111,2.5-11.335c2.526-3.223,6.339-5.347,11.437-6.356
				c5.085-1.018,9.389-0.551,12.938,1.392c3.557,1.951,5.756,5.145,6.652,9.582c0.876,4.427,0.063,8.19-2.43,11.295
				c-2.515,3.108-6.346,5.161-11.494,6.19c-5.161,1.031-9.503,0.57-13.021-1.353C607.24,633.521,605.047,630.396,604.183,626.054z
				 M634.812,619.887c-0.703-3.523-2.475-6.019-5.34-7.509c-2.842-1.482-6.422-1.803-10.727-0.94
				c-4.304,0.858-7.502,2.554-9.58,5.086c-2.085,2.533-2.783,5.539-2.078,9.012c0.684,3.457,2.448,5.915,5.294,7.361
				c2.835,1.424,6.441,1.72,10.79,0.85c4.349-0.87,7.554-2.514,9.605-4.944C634.818,626.364,635.495,623.396,634.812,619.887z"/>
		</g>
	</g>
	<line class="st63" x1="582.764" y1="656.546" x2="655.419" y2="650.483"/>
	<line class="st63" x1="576.751" y1="639.772" x2="649.408" y2="633.7"/>
</g>
</svg>
