<?xml version="1.0" encoding="utf-8"?>
<!-- Generator: Adobe Illustrator 16.0.0, SVG Export Plug-In . SVG Version: 6.00 Build 0)  -->
<!DOCTYPE svg PUBLIC "-//W3C//DTD SVG 1.1//EN" "http://www.w3.org/Graphics/SVG/1.1/DTD/svg11.dtd">
<svg version="1.1" xmlns="http://www.w3.org/2000/svg" xmlns:xlink="http://www.w3.org/1999/xlink" x="0px" y="0px" width="768px"
	 height="660px" viewBox="0 0 768 660" style="enable-background:new 0 0 768 660;" xml:space="preserve">
<style type="text/css">
<![CDATA[
	.st0{fill:none;stroke:#272525;stroke-width:4;stroke-miterlimit:10;}
	.st1{clip-path:url(#SVGID_18_);fill:none;stroke:#C72A7D;stroke-width:6;stroke-miterlimit:10;}
	.st2{fill:#7CC7EA;}
	.st3{clip-path:url(#SVGID_18_);fill:#C72A7D;}
	.st4{clip-path:url(#SVGID_20_);fill:#83C698;}
	.st5{fill:none;stroke:#32367C;stroke-width:4;stroke-miterlimit:10;}
	.st6{fill:none;stroke:#FAEC34;stroke-width:6.5491;stroke-miterlimit:10;}
	.st7{clip-path:url(#SVGID_24_);fill:none;stroke:#27A2DC;stroke-width:4.3661;stroke-miterlimit:10;}
	.st8{fill:#FFFFFF;stroke:#C72A7D;stroke-width:6;stroke-miterlimit:10;}
	.st9{clip-path:url(#SVGID_8_);fill:none;stroke:#000000;stroke-width:4;stroke-miterlimit:10;}
	.st10{clip-path:url(#SVGID_24_);fill:none;stroke:#FAEC34;stroke-width:4;stroke-miterlimit:10;}
	.st11{fill:none;stroke:#000000;stroke-width:5;stroke-miterlimit:10;}
	.st12{clip-path:url(#SVGID_10_);fill:none;stroke:#000000;stroke-width:4;stroke-miterlimit:10;}
	.st13{clip-path:url(#SVGID_16_);fill:none;}
	.st14{fill:#FFFF66;stroke:#000000;stroke-width:4;stroke-miterlimit:10;}
	.st15{fill:#F8EB35;stroke:#F8EB35;stroke-width:3.5625;stroke-miterlimit:10;}
	.st16{clip-path:url(#SVGID_10_);fill:#FFFFFF;stroke:#000000;stroke-width:4;stroke-miterlimit:10;}
	.st17{clip-path:url(#SVGID_26_);fill:none;stroke:#C72B7D;stroke-width:6;stroke-miterlimit:10;}
	.st18{fill:none;stroke:#C72A7D;stroke-width:4;stroke-miterlimit:10;}
	.st19{fill:none;stroke:#C72B7D;stroke-width:4;stroke-miterlimit:10;}
	.st20{clip-path:url(#SVGID_32_);fill:none;stroke:#34A157;stroke-width:6.5645;stroke-miterlimit:10;}
	.st21{clip-path:url(#SVGID_32_);fill:none;stroke:#32367C;stroke-width:6.0141;stroke-miterlimit:10;}
	.st22{fill:#83C698;}
	.st23{clip-path:url(#SVGID_18_);fill:none;stroke:#000000;stroke-width:6;stroke-miterlimit:10;}
	.st24{fill:none;stroke:#D1EBF7;stroke-width:6;stroke-miterlimit:10;}
	.st25{fill:none;stroke:#27A2DC;stroke-width:4.3661;stroke-miterlimit:10;}
	.st26{fill:#FFFFFF;stroke:#000000;stroke-width:6;stroke-miterlimit:10;}
	.st27{fill:#FFFFFF;stroke:#34A156;stroke-width:6;stroke-miterlimit:10;}
	.st28{fill:none;stroke:#FFFFFF;stroke-miterlimit:10;}
	.st29{fill:#FAEC34;stroke:#000000;stroke-width:4;stroke-miterlimit:10;}
	.st30{fill:none;stroke:#000000;stroke-width:4;stroke-miterlimit:10;}
	.st31{clip-path:url(#SVGID_30_);fill:none;stroke:#FAEC34;stroke-width:4;stroke-miterlimit:10;}
	.st32{clip-path:url(#SVGID_32_);fill:none;stroke:#C72B7D;stroke-width:6.0141;stroke-miterlimit:10;}
	.st33{fill:none;stroke:#34A156;stroke-width:4;stroke-miterlimit:10;}
	.st34{fill:#F2D2E3;}
	.st35{fill:#26A1DB;}
	.st36{fill:#27A1DB;}
	.st37{fill:#27A2DC;}
	.st38{fill:#5D5D5D;}
	.st39{fill:#C72A7D;stroke:#000000;stroke-width:4;stroke-miterlimit:10;}
	.st40{clip-path:url(#SVGID_20_);fill:#FFFFFF;stroke:#34A156;stroke-width:6;stroke-miterlimit:10;}
	.st41{fill:#F8EB35;}
	.st42{clip-path:url(#SVGID_18_);fill:#DD7FAF;}
	.st43{clip-path:url(#SVGID_8_);}
	.st44{clip-path:url(#SVGID_18_);fill:#FFFFFF;stroke:#C72A7D;stroke-width:6;stroke-miterlimit:10;}
	.st45{stroke:#000000;stroke-width:4;stroke-miterlimit:10;}
	.st46{fill:none;stroke:#27A1DB;stroke-width:6;stroke-miterlimit:10;}
	.st47{fill:#FFFFFF;stroke:#C72A7D;stroke-width:4;stroke-miterlimit:10;}
	.st48{fill:#C6C6C6;}
	.st49{fill:#FAEC34;}
	.st50{clip-path:url(#SVGID_26_);fill:none;stroke:#FAEC34;stroke-width:6;stroke-miterlimit:10;}
	.st51{fill:#C72A7D;}
	.st52{fill:#C72B7D;}
	.st53{fill:none;stroke:#FAEC34;stroke-width:4;stroke-miterlimit:10;}
	.st54{fill:none;stroke:#FFFF66;stroke-width:4;stroke-miterlimit:10;}
	.st55{clip-path:url(#SVGID_20_);fill:#34A156;}
	.st56{clip-path:url(#SVGID_32_);fill:none;stroke:#FAEC34;stroke-width:6.0141;stroke-miterlimit:10;}
	.st57{clip-path:url(#SVGID_16_);fill:none;stroke:#FAEC34;stroke-width:3.6282;stroke-miterlimit:10;}
	.st58{fill:none;stroke:#000000;stroke-width:3;stroke-miterlimit:10;}
	.st59{fill:#FFFFFF;}
	.st60{fill:none;stroke:#000000;stroke-width:3.8428;stroke-miterlimit:10;}
	.st61{clip-path:url(#SVGID_30_);fill:none;stroke:#34A157;stroke-width:4.3661;stroke-miterlimit:10;}
	.st62{fill:none;stroke:#FAEC34;stroke-width:4.3661;stroke-miterlimit:10;}
	.st63{fill:none;}
	.st64{clip-path:url(#SVGID_24_);fill:none;stroke:#32367C;stroke-width:4;stroke-miterlimit:10;}
	.st65{clip-path:url(#SVGID_20_);fill:#D4EBDB;}
	.st66{fill:none;stroke:#D1EBF7;stroke-width:4;stroke-miterlimit:10;}
	.st67{fill:#32367C;}
	.st68{clip-path:url(#SVGID_20_);fill:none;stroke:#000000;stroke-width:6;stroke-miterlimit:10;}
	.st69{fill:#FFFFFF;stroke:#000000;stroke-width:4;stroke-miterlimit:10;}
	.st70{fill:#34A156;}
	.st71{fill:#34A157;}
	.st72{clip-path:url(#SVGID_24_);fill:none;stroke:#C72B7D;stroke-width:4;stroke-miterlimit:10;}
	.st73{clip-path:url(#SVGID_20_);fill:none;stroke:#34A156;stroke-width:6;stroke-miterlimit:10;}
	.st74{fill:none;stroke:#C72A7D;stroke-width:6;stroke-miterlimit:10;}
	.st75{fill:#FFFFFF;stroke:#34A156;stroke-width:4;stroke-miterlimit:10;}
	.st76{stroke:#000000;stroke-width:3;stroke-miterlimit:10;}
	.st77{fill:none;stroke:#FFFFFF;stroke-width:4;stroke-miterlimit:10;}
	.st78{fill:none;stroke:#7CC7EA;stroke-width:4;stroke-miterlimit:10;}
	.st79{fill:#D1EBF7;}
	.st80{fill:none;stroke:#34A157;stroke-width:4.3661;stroke-miterlimit:10;}
	.st81{fill:#D4EBDB;}
	.st82{fill:none;stroke:#000000;stroke-width:5.2992;stroke-miterlimit:10;}
	.st83{clip-path:url(#SVGID_30_);fill:none;stroke:#32367C;stroke-width:4;stroke-miterlimit:10;}
	.st84{fill:none;stroke:#FFFFFF;stroke-width:1.4794;stroke-miterlimit:10;}
	.st85{clip-path:url(#SVGID_10_);}
	.st86{clip-path:url(#SVGID_12_);}
	.st87{clip-path:url(#SVGID_14_);}
	.st88{clip-path:url(#SVGID_16_);}
	.st89{clip-path:url(#SVGID_18_);}
	.st90{clip-path:url(#SVGID_20_);}
	.st91{clip-path:url(#SVGID_22_);}
	.st92{fill:none;stroke:#000000;stroke-width:6;stroke-miterlimit:10;}
	.st93{clip-path:url(#SVGID_18_);fill:#F2D2E3;}
	.st94{clip-path:url(#SVGID_8_);fill:#FFFFFF;stroke:#000000;stroke-width:4;stroke-miterlimit:10;}
	.st95{fill:none;stroke:#272525;stroke-width:3.5625;stroke-miterlimit:10;}
	.st96{clip-path:url(#SVGID_28_);fill:none;stroke:#27A2DC;stroke-width:6.5491;stroke-miterlimit:10;}
	.st97{fill:none;stroke:#34A156;stroke-width:6;stroke-miterlimit:10;}
	.st98{clip-path:url(#SVGID_28_);fill:none;stroke:#32367C;stroke-width:6;stroke-miterlimit:10;}
	.st99{fill:none;stroke:#27A1DB;stroke-width:4;stroke-miterlimit:10;}
	.st100{clip-path:url(#SVGID_30_);fill:none;stroke:#C72B7D;stroke-width:4;stroke-miterlimit:10;}
	.st101{fill:#DD7FAF;}
	.st102{clip-path:url(#SVGID_12_);fill:none;stroke:#000000;stroke-width:4;stroke-miterlimit:10;}
]]>
</style>
<g id="Layer_1">
</g>
<g id="Layer_2">
	<rect x="526" y="176.58" class="st81" width="27" height="21"/>
	<rect x="492" y="155.58" class="st81" width="34" height="21"/>
	<rect x="513" y="134.58" class="st81" width="27" height="21"/>
	<rect x="89" y="572.58" class="st81" width="75" height="33"/>
	<rect x="29" y="539.58" class="st81" width="60" height="33"/>
	<rect x="59" y="506.58" class="st81" width="60" height="33"/>
	<path class="st92" d="M439.011,432.243c164.385-29.736,254.001-141,249.697-208.476c-3.237-50.767-35.218-76.403-48.502-85.105
		l-9.853-64.082H613v9h-9v-9h-18v9h-9v-9h-18v9h-9v-9h-18v9h-9v-9h-16.876l-9.475,153.01"/>
	<path class="st81" d="M420.841,30.746c-13.31,0-25.03,6.812-31.862,17.141c-4.323-29.164-34.666-27.115-34.666-27.115
		c-15.262,0-27.638,12.371-27.638,27.639c0,2.754,0.526,5.377,1.444,7.809l-0.026-0.02c-10.163-17.795-29.536-29.498-52.575-29.498
		c-28.103,0-48.804,16.359-55.51,40.729c5.159-7.845,13.954-12.898,24.048-12.898c12.239,0,23.413,8.322,27.611,19.08
		c2.76,13.489,14.818,24.275,29.121,24.275c0.729,0,1.444-0.058,2.156-0.107c-0.659,2.405-1.04,4.926-1.04,7.539
		c0,15.737,12.754,28.492,28.491,28.492c10.682,0,19.99-5.877,24.868-14.576c10.608,21.08,38.183,20.706,38.183,20.706
		c19.746,0,35.817-15.685,36.467-35.271l1.349,0.982c16.015-4.537,27.747-19.267,27.747-36.734
		C459.009,47.838,441.92,30.746,420.841,30.746z"/>
	<path class="st70" d="M609,126.551c0,1.688,0,17.029,0,17.029h-12c0,0,0-14.258,0-17.029c0-2.774,3.229-5.021,6-5.021
		C605.774,121.529,609,123.776,609,126.551z"/>
	<line class="st92" x1="571" y1="143.58" x2="621" y2="143.58"/>
	<line class="st92" x1="502" y1="143.58" x2="552" y2="143.58"/>
	<line class="st92" x1="501" y1="164.58" x2="553" y2="164.58"/>
	<line class="st92" x1="499" y1="186.58" x2="553" y2="186.58"/>
	<g>
		<line class="st92" x1="526" y1="186.58" x2="526" y2="209.58"/>
	</g>
	<g>
		<line class="st92" x1="526" y1="165.58" x2="526" y2="143.58"/>
	</g>
	<line class="st92" x1="499" y1="209.58" x2="553" y2="209.58"/>
	<polyline class="st92" points="362.208,494.647 336.945,335.58 294,335.58 294,358.58 270,358.58 270,335.58 228,335.58 
		228,358.58 206,358.58 206,335.58 162,335.58 162,358.58 141,358.58 141,335.58 98,335.58 98,358.58 75,358.58 75,335.58 
		32.712,335.58 10.956,622.08 	"/>
	<path class="st70" d="M282,468.518c0,5.054,0,46.062,0,46.062h-28c0,0,0-37.757,0-46.062s5.694-15.038,14-15.038
		C276.309,453.479,282,460.212,282,468.518z"/>
	<rect x="111" y="379.58" class="st70" width="15" height="15"/>
	<rect x="176" y="379.58" class="st70" width="15" height="15"/>
	<rect x="245" y="379.58" class="st70" width="15" height="15"/>
	<line class="st92" x1="20" y1="514.58" x2="174" y2="514.58"/>
	<line class="st92" x1="17" y1="548.58" x2="174" y2="548.58"/>
	<g>
		<line class="st92" x1="69" y1="547.58" x2="69" y2="514.58"/>
		<line class="st92" x1="129" y1="547.58" x2="129" y2="514.58"/>
	</g>
	<g>
		<line class="st92" x1="38" y1="581.58" x2="38" y2="547.58"/>
		<line class="st92" x1="98" y1="581.58" x2="98" y2="547.58"/>
	</g>
	<line class="st92" x1="14" y1="583.58" x2="174" y2="583.58"/>
	<line class="st92" x1="312" y1="514.58" x2="230" y2="514.58"/>
	<g>
		<line class="st92" x1="69" y1="622.58" x2="69" y2="584.58"/>
		<line class="st92" x1="129" y1="622.58" x2="129" y2="584.58"/>
	</g>
	<path class="st97" d="M552,227.58v-92.738c0,0,66.237,15.586,66.237,79.978c0,54.976-73.709,137.761-238.096,167.761L348,387.08"/>
	<line class="st92" x1="689" y1="230.58" x2="689" y2="345.58"/>
	<line class="st92" x1="27" y1="407.58" x2="348" y2="407.58"/>
	<line class="st92" x1="505" y1="99.58" x2="634" y2="99.58"/>
	<path class="st92" d="M312.318,470.243"/>
	<path class="st92" d="M461.095,622.957c-59.055-44.426-127.626-112.82-146.442-152.715l30.999,0.007
		c25.891,44.896,97.967,113.493,154.866,151.835"/>
	<g>
		<path class="st92" d="M426.529,126.438c16.015-4.538,27.747-19.268,27.747-36.735c0-21.079-17.089-38.171-38.168-38.171
			c-13.31,0-25.03,6.812-31.862,17.141c-4.323-29.164-34.666-27.116-34.666-27.116c-15.262,0-27.639,12.372-27.639,27.639
			c0,12.214,9.898,22.113,22.11,22.113c9.771,0,17.692-7.921,17.692-17.692c0-7.814-6.337-14.148-14.153-14.148
			c-6.252,0-11.323,5.068-11.323,11.32c0,5.002,4.055,9.057,9.059,9.057c4.002,0,7.247-3.243,7.247-7.246"/>
		<path class="st92" d="M323.36,76.984c-10.163-17.795-29.536-29.499-52.575-29.499c-28.103,0-48.804,16.359-55.51,40.729
			c5.159-7.845,13.954-12.897,24.048-12.897c12.239,0,23.413,8.321,27.611,19.079c2.76,13.489,14.818,24.275,29.121,24.275
			c0.729,0,1.444-0.058,2.156-0.106c-0.659,2.404-1.04,4.926-1.04,7.539c0,15.736,12.754,28.491,28.491,28.491
			c10.682,0,19.989-5.877,24.867-14.575c10.608,21.079,38.183,20.705,38.183,20.705c20.159,0,36.498-16.343,36.498-36.5
			c0-16.13-13.069-29.202-29.194-29.202c-12.905,0-23.364,10.46-23.364,23.361c0,10.321,8.368,18.688,18.69,18.688
			c8.257,0,14.95-6.694,14.95-14.95c0-6.606-5.354-11.96-11.96-11.96c-5.285,0-9.571,4.281-9.571,9.569"/>
	</g>
	<path class="st97" d="M292.224,622.084c-52.03-49.598-105.787-115.451-117.708-152.063"/>
	<path class="st97" d="M174,629.58v-159h29.993c16.664,40.223,71.721,105.736,122.672,151.503"/>
	<path class="st22" d="M751.73,377.307c5.791,13.576-57.234,53.464-140.767,89.092c-83.537,35.628-155.95,53.502-161.739,39.926
		c-5.792-13.573,57.234-53.461,140.769-89.089C673.529,381.607,745.939,363.732,751.73,377.307z"/>
	<path class="st81" d="M449.725,484.482c0,0,37.034-47.902,127.784-86.152c0,0,108-39.75,171.334-40.32l-209.282-75.014
		L449.725,484.482"/>
	<g>
		<g>
			<polyline class="st92" points="735.343,368.51 526.061,293.496 436.225,494.982 			"/>
			<path class="st92" d="M738.23,371.307c5.791,13.576-57.234,53.464-140.767,89.092c-83.537,35.628-155.95,53.502-161.739,39.926
				c-5.792-13.573,57.234-53.461,140.769-89.089C660.029,375.607,732.439,357.732,738.23,371.307z"/>
			<path class="st97" d="M738.416,371.74c25.67,60.188-16.383,149.254-99.914,184.881c-83.537,35.629-176.925,4.324-202.594-55.863"
				/>
			<line class="st97" x1="638.792" y1="557.084" x2="648.324" y2="579.432"/>
		</g>
		<line class="st92" x1="526.055" y1="293.498" x2="483.967" y2="457.12"/>
		<line class="st92" x1="526.047" y1="293.503" x2="522.155" y2="436.396"/>
		<line class="st92" x1="526.037" y1="293.506" x2="558.604" y2="419.069"/>
		<line class="st92" x1="526.031" y1="293.509" x2="594.498" y2="403.762"/>
		<line class="st92" x1="526.025" y1="293.512" x2="632.637" y2="389.305"/>
		<line class="st92" x1="526.017" y1="293.515" x2="673.879" y2="376.155"/>
	</g>
	<path class="st81" d="M142.808,155.335c0,0,7.529,44.925,15.498,64.805c7.181,17.906,20.604,25.26,20.604,25.26
		s4.879-13.972-2.549-32.499C168.396,193.021,142.808,155.335,142.808,155.335z"/>
	<path class="st81" d="M9.598,223.778c0,0,12.469,26.596,20.865,37.558c7.567,9.877,17.18,12.115,17.18,12.115
		s0.606-9.524-7.22-19.74C32.024,242.745,9.598,223.778,9.598,223.778z"/>
	<path class="st81" d="M29.801,13c0,0,12.858,23.571,16.396,35.686c3.189,10.918-0.36,19.213-0.36,19.213
		s-7.346-4.702-10.644-15.996C31.652,39.785,29.801,13,29.801,13z"/>
	<g>
		<rect x="58" y="99.58" class="st92" width="20" height="99"/>
		<rect x="58" y="209.58" class="st92" width="20" height="100"/>
	</g>
	<path class="st92" d="M18.598,228.278c0,0,12.469,26.596,20.865,37.558c7.567,9.877,17.18,12.115,17.18,12.115
		s0.606-9.524-7.22-19.74C41.024,247.245,18.598,228.278,18.598,228.278z"/>
	<path class="st92" d="M38.801,29.5c0,0,12.858,23.571,16.396,35.686c3.189,10.918-0.36,19.213-0.36,19.213
		s-7.346-4.702-10.644-15.996C40.652,56.285,38.801,29.5,38.801,29.5z"/>
	<path class="st27" d="M135.794,16.544c0,0-37.614,25.696-52.307,41.276C70.251,71.856,69.211,87.127,69.211,87.127
		s14.73-1.438,28.427-15.961C112.333,55.588,135.794,16.544,135.794,16.544z"/>
	<g>
		<rect x="190" y="209.58" class="st92" width="20" height="100"/>
	</g>
	<path class="st92" d="M150.308,152.335c0,0,7.529,44.925,15.498,64.805c7.181,17.906,20.604,25.26,20.604,25.26
		s4.879-13.972-2.549-32.499C175.896,190.021,150.308,152.335,150.308,152.335z"/>
	<path class="st27" d="M194.783,134.224c0,0-9.687,27.731-11.351,41.438c-1.499,12.352,3.807,20.675,3.807,20.675
		s7.092-6.384,8.644-19.16C197.549,163.465,194.783,134.224,194.783,134.224z"/>
	<path class="st27" d="M229.441,236.953c0,0-22.406,18.993-30.791,29.965c-7.553,9.888-7.198,19.75-7.198,19.75
		s9.353-1.905,17.165-12.133C217.002,263.563,229.441,236.953,229.441,236.953z"/>
	<path class="st22" d="M105.483,150.835c0,0-7.529,44.925-15.498,64.805c-7.182,17.906-20.604,25.26-20.604,25.26
		s-4.879-13.972,2.549-32.499C79.896,188.521,105.483,150.835,105.483,150.835z"/>
	<path class="st92" d="M96.483,164.335c0,0-7.529,44.925-15.498,64.805c-7.182,17.906-20.604,25.26-20.604,25.26
		s-4.879-13.972,2.549-32.499C70.896,202.021,96.483,164.335,96.483,164.335z"/>
</g>
</svg>
