<?xml version="1.0" encoding="utf-8"?>
<!-- Generator: Adobe Illustrator 16.0.0, SVG Export Plug-In . SVG Version: 6.00 Build 0)  -->
<!DOCTYPE svg PUBLIC "-//W3C//DTD SVG 1.1//EN" "http://www.w3.org/Graphics/SVG/1.1/DTD/svg11.dtd">
<svg version="1.1" xmlns="http://www.w3.org/2000/svg" xmlns:xlink="http://www.w3.org/1999/xlink" x="0px" y="0px" width="1920px"
	 height="1271.393px" viewBox="0 0 1920 1271.393" style="enable-background:new 0 0 1920 1271.393;" xml:space="preserve">
<style type="text/css">
<![CDATA[
	.st0{fill:none;stroke:#272525;stroke-width:4;stroke-miterlimit:10;}
	.st1{clip-path:url(#SVGID_18_);fill:none;stroke:#C72A7D;stroke-width:6;stroke-miterlimit:10;}
	.st2{fill:#7CC7EA;}
	.st3{clip-path:url(#SVGID_18_);fill:#C72A7D;}
	.st4{clip-path:url(#SVGID_20_);fill:#83C698;}
	.st5{fill:none;stroke:#32367C;stroke-width:4;stroke-miterlimit:10;}
	.st6{fill:none;stroke:#FAEC34;stroke-width:6.5491;stroke-miterlimit:10;}
	.st7{clip-path:url(#SVGID_24_);fill:none;stroke:#27A2DC;stroke-width:4.3661;stroke-miterlimit:10;}
	.st8{fill:#FFFFFF;stroke:#C72A7D;stroke-width:6;stroke-miterlimit:10;}
	.st9{clip-path:url(#SVGID_8_);fill:none;stroke:#000000;stroke-width:4;stroke-miterlimit:10;}
	.st10{clip-path:url(#SVGID_24_);fill:none;stroke:#FAEC34;stroke-width:4;stroke-miterlimit:10;}
	.st11{fill:none;stroke:#000000;stroke-width:5;stroke-miterlimit:10;}
	.st12{clip-path:url(#SVGID_10_);fill:none;stroke:#000000;stroke-width:4;stroke-miterlimit:10;}
	.st13{clip-path:url(#SVGID_16_);fill:none;}
	.st14{fill:#FFFF66;stroke:#000000;stroke-width:4;stroke-miterlimit:10;}
	.st15{fill:#F8EB35;stroke:#F8EB35;stroke-width:3.5625;stroke-miterlimit:10;}
	.st16{clip-path:url(#SVGID_10_);fill:#FFFFFF;stroke:#000000;stroke-width:4;stroke-miterlimit:10;}
	.st17{clip-path:url(#SVGID_26_);fill:none;stroke:#C72B7D;stroke-width:6;stroke-miterlimit:10;}
	.st18{fill:none;stroke:#C72A7D;stroke-width:4;stroke-miterlimit:10;}
	.st19{fill:none;stroke:#C72B7D;stroke-width:4;stroke-miterlimit:10;}
	.st20{clip-path:url(#SVGID_32_);fill:none;stroke:#34A157;stroke-width:6.5645;stroke-miterlimit:10;}
	.st21{clip-path:url(#SVGID_32_);fill:none;stroke:#32367C;stroke-width:6.0141;stroke-miterlimit:10;}
	.st22{fill:#83C698;}
	.st23{clip-path:url(#SVGID_18_);fill:none;stroke:#000000;stroke-width:6;stroke-miterlimit:10;}
	.st24{fill:none;stroke:#D1EBF7;stroke-width:6;stroke-miterlimit:10;}
	.st25{fill:none;stroke:#27A2DC;stroke-width:4.3661;stroke-miterlimit:10;}
	.st26{fill:#FFFFFF;stroke:#000000;stroke-width:6;stroke-miterlimit:10;}
	.st27{fill:#FFFFFF;stroke:#34A156;stroke-width:6;stroke-miterlimit:10;}
	.st28{fill:none;stroke:#FFFFFF;stroke-miterlimit:10;}
	.st29{fill:#FAEC34;stroke:#000000;stroke-width:4;stroke-miterlimit:10;}
	.st30{fill:none;stroke:#000000;stroke-width:4;stroke-miterlimit:10;}
	.st31{clip-path:url(#SVGID_30_);fill:none;stroke:#FAEC34;stroke-width:4;stroke-miterlimit:10;}
	.st32{clip-path:url(#SVGID_32_);fill:none;stroke:#C72B7D;stroke-width:6.0141;stroke-miterlimit:10;}
	.st33{fill:none;stroke:#34A156;stroke-width:4;stroke-miterlimit:10;}
	.st34{fill:#F2D2E3;}
	.st35{fill:#26A1DB;}
	.st36{fill:#27A1DB;}
	.st37{fill:#27A2DC;}
	.st38{fill:#5D5D5D;}
	.st39{fill:#C72A7D;stroke:#000000;stroke-width:4;stroke-miterlimit:10;}
	.st40{clip-path:url(#SVGID_20_);fill:#FFFFFF;stroke:#34A156;stroke-width:6;stroke-miterlimit:10;}
	.st41{fill:#F8EB35;}
	.st42{clip-path:url(#SVGID_18_);fill:#DD7FAF;}
	.st43{clip-path:url(#SVGID_8_);}
	.st44{clip-path:url(#SVGID_18_);fill:#FFFFFF;stroke:#C72A7D;stroke-width:6;stroke-miterlimit:10;}
	.st45{stroke:#000000;stroke-width:4;stroke-miterlimit:10;}
	.st46{fill:none;stroke:#27A1DB;stroke-width:6;stroke-miterlimit:10;}
	.st47{fill:#FFFFFF;stroke:#C72A7D;stroke-width:4;stroke-miterlimit:10;}
	.st48{fill:#C6C6C6;}
	.st49{fill:#FAEC34;}
	.st50{clip-path:url(#SVGID_26_);fill:none;stroke:#FAEC34;stroke-width:6;stroke-miterlimit:10;}
	.st51{fill:#C72A7D;}
	.st52{fill:#C72B7D;}
	.st53{fill:none;stroke:#FAEC34;stroke-width:4;stroke-miterlimit:10;}
	.st54{fill:none;stroke:#FFFF66;stroke-width:4;stroke-miterlimit:10;}
	.st55{clip-path:url(#SVGID_20_);fill:#34A156;}
	.st56{clip-path:url(#SVGID_32_);fill:none;stroke:#FAEC34;stroke-width:6.0141;stroke-miterlimit:10;}
	.st57{clip-path:url(#SVGID_16_);fill:none;stroke:#FAEC34;stroke-width:3.6282;stroke-miterlimit:10;}
	.st58{fill:none;stroke:#000000;stroke-width:3;stroke-miterlimit:10;}
	.st59{fill:#FFFFFF;}
	.st60{fill:none;stroke:#000000;stroke-width:3.8428;stroke-miterlimit:10;}
	.st61{clip-path:url(#SVGID_30_);fill:none;stroke:#34A157;stroke-width:4.3661;stroke-miterlimit:10;}
	.st62{fill:none;stroke:#FAEC34;stroke-width:4.3661;stroke-miterlimit:10;}
	.st63{fill:none;}
	.st64{clip-path:url(#SVGID_24_);fill:none;stroke:#32367C;stroke-width:4;stroke-miterlimit:10;}
	.st65{clip-path:url(#SVGID_20_);fill:#D4EBDB;}
	.st66{fill:none;stroke:#D1EBF7;stroke-width:4;stroke-miterlimit:10;}
	.st67{fill:#32367C;}
	.st68{clip-path:url(#SVGID_20_);fill:none;stroke:#000000;stroke-width:6;stroke-miterlimit:10;}
	.st69{fill:#FFFFFF;stroke:#000000;stroke-width:4;stroke-miterlimit:10;}
	.st70{fill:#34A156;}
	.st71{fill:#34A157;}
	.st72{clip-path:url(#SVGID_24_);fill:none;stroke:#C72B7D;stroke-width:4;stroke-miterlimit:10;}
	.st73{clip-path:url(#SVGID_20_);fill:none;stroke:#34A156;stroke-width:6;stroke-miterlimit:10;}
	.st74{fill:none;stroke:#C72A7D;stroke-width:6;stroke-miterlimit:10;}
	.st75{fill:#FFFFFF;stroke:#34A156;stroke-width:4;stroke-miterlimit:10;}
	.st76{stroke:#000000;stroke-width:3;stroke-miterlimit:10;}
	.st77{fill:none;stroke:#FFFFFF;stroke-width:4;stroke-miterlimit:10;}
	.st78{fill:none;stroke:#7CC7EA;stroke-width:4;stroke-miterlimit:10;}
	.st79{fill:#D1EBF7;}
	.st80{fill:none;stroke:#34A157;stroke-width:4.3661;stroke-miterlimit:10;}
	.st81{fill:#D4EBDB;}
	.st82{fill:none;stroke:#000000;stroke-width:5.2992;stroke-miterlimit:10;}
	.st83{clip-path:url(#SVGID_30_);fill:none;stroke:#32367C;stroke-width:4;stroke-miterlimit:10;}
	.st84{fill:none;stroke:#FFFFFF;stroke-width:1.4794;stroke-miterlimit:10;}
	.st85{clip-path:url(#SVGID_10_);}
	.st86{clip-path:url(#SVGID_12_);}
	.st87{clip-path:url(#SVGID_14_);}
	.st88{clip-path:url(#SVGID_16_);}
	.st89{clip-path:url(#SVGID_18_);}
	.st90{clip-path:url(#SVGID_20_);}
	.st91{clip-path:url(#SVGID_22_);}
	.st92{fill:none;stroke:#000000;stroke-width:6;stroke-miterlimit:10;}
	.st93{clip-path:url(#SVGID_18_);fill:#F2D2E3;}
	.st94{clip-path:url(#SVGID_8_);fill:#FFFFFF;stroke:#000000;stroke-width:4;stroke-miterlimit:10;}
	.st95{fill:none;stroke:#272525;stroke-width:3.5625;stroke-miterlimit:10;}
	.st96{clip-path:url(#SVGID_28_);fill:none;stroke:#27A2DC;stroke-width:6.5491;stroke-miterlimit:10;}
	.st97{fill:none;stroke:#34A156;stroke-width:6;stroke-miterlimit:10;}
	.st98{clip-path:url(#SVGID_28_);fill:none;stroke:#32367C;stroke-width:6;stroke-miterlimit:10;}
	.st99{fill:none;stroke:#27A1DB;stroke-width:4;stroke-miterlimit:10;}
	.st100{clip-path:url(#SVGID_30_);fill:none;stroke:#C72B7D;stroke-width:4;stroke-miterlimit:10;}
	.st101{fill:#DD7FAF;}
	.st102{clip-path:url(#SVGID_12_);fill:none;stroke:#000000;stroke-width:4;stroke-miterlimit:10;}
]]>
</style>
<g id="Layer_1">
</g>
<g id="Layer_2">
	<g>
		<g>
			<path class="st35" d="M1312.391,1126.314l1.15,2.546l-8.347,3.803l12.548,27.586l-2.774,1.26l-12.554-27.584l-8.309,3.787
				l-1.166-2.546L1312.391,1126.314z"/>
			<path class="st35" d="M1334.889,1136.98l-5.295,2.707l6.145,11.978l-2.71,1.395l-15.108-29.47l6.653-3.404
				c3.441-1.756,6.409-2.302,8.909-1.611c2.506,0.678,4.482,2.455,5.959,5.31c0.962,2.014,1.269,3.996,0.952,5.968
				c-0.312,1.963-1.296,3.702-2.96,5.21l14.218,8.448l-3.234,1.66L1334.889,1136.98z M1328.365,1137.289l4.771-2.443
				c2.155-1.1,3.498-2.558,4.062-4.348c0.548-1.794,0.378-3.579-0.536-5.354c-2.2-4.285-5.72-5.187-10.556-2.706l-4.239,2.168
				L1328.365,1137.289z"/>
			<path class="st35" d="M1377.879,1128.488l-7.34-6.365l-12.639,7.361l1.856,9.557l-2.84,1.657l-6.557-34.498l3.812-2.226
				l26.562,22.857L1377.879,1128.488z M1357.345,1126.684l11.076-6.447l-14.862-12.945
				C1354.396,1111.206,1355.649,1117.665,1357.345,1126.684z"/>
			<path class="st35" d="M1388.344,1122.046l-18.331-27.565l3.467-2.313l31.153,14.73c-1.944-2.796-4.816-7.069-8.647-12.825
				l-7.777-11.697l2.531-1.683l18.331,27.558l-3.466,2.316l-31.166-14.735c2.014,2.909,4.917,7.2,8.679,12.867l7.759,11.662
				L1388.344,1122.046z"/>
			<path class="st35" d="M1407.966,1071.362c-1.758,1.317-2.846,2.783-3.281,4.402c-0.429,1.603-0.127,3.094,0.883,4.45
				c1.062,1.419,2.512,2.096,4.349,2.032c1.496-0.023,3.088-0.242,4.777-0.664c1.683-0.42,2.846-0.702,3.492-0.831
				c0.629-0.129,1.492-0.239,2.583-0.315c1.081-0.078,1.978-0.025,2.684,0.142c1.898,0.453,3.431,1.477,4.609,3.05
				c1.732,2.309,2.27,4.649,1.637,7.024c-0.633,2.377-2.232,4.528-4.805,6.453c-2.563,1.923-5.238,3.026-8.011,3.306l-2.035-2.723
				c1.235,0.018,2.629-0.243,4.172-0.782c1.526-0.536,3.091-1.395,4.667-2.572c1.573-1.175,2.565-2.563,2.991-4.15
				c0.432-1.586,0.148-3.051-0.848-4.386c-1.012-1.337-2.162-2.067-3.48-2.181c-1.452-0.142-3.727,0.166-6.791,0.921
				c-2.893,0.683-4.689,0.996-5.394,0.952c-0.715-0.045-1.425-0.103-2.128-0.18c-0.716-0.078-1.311-0.249-1.797-0.504
				c-1.292-0.705-2.314-1.548-3.063-2.544c-1.676-2.234-2.175-4.567-1.501-7.011c0.669-2.436,2.128-4.503,4.378-6.192
				c2.259-1.682,4.414-2.684,6.475-3l2.033,2.713c-0.954,0.051-2.042,0.319-3.281,0.792
				C1410.043,1070.045,1408.937,1070.647,1407.966,1071.362z"/>
			<path class="st35" d="M1441.543,1080.201l11.263-9.274l1.79,2.162l-13.618,11.206l-21.046-25.538l2.348-1.939L1441.543,1080.201z
				"/>
			<path class="st35" d="M1477.486,1052.495l-8.525-4.655l-10.789,9.882l3.844,8.93l-2.443,2.218l-13.707-32.311l3.258-2.993
				l30.779,16.705L1477.486,1052.495z M1457.021,1055.091l9.47-8.647l-17.275-9.501
				C1450.867,1040.586,1453.458,1046.631,1457.021,1055.091z"/>
			<path class="st35" d="M1475.407,1007.797l1.997,1.963l-6.454,6.542l21.579,21.278l-2.133,2.162l-21.582-21.272l-6.414,6.498
				l-1.997-1.963L1475.407,1007.797z"/>
			<path class="st35" d="M1504.15,1025.41l-24.349-22.437l2.054-2.238l24.347,22.43L1504.15,1025.41z"/>
			<path class="st35" d="M1522.391,1005.365c-2.852,3.378-6.333,5.079-10.438,5.111c-4.091,0.04-8.123-1.625-12.082-4.97
				c-3.964-3.343-6.305-7.014-6.987-10.994c-0.68-3.99,0.426-7.714,3.341-11.167c2.924-3.453,6.378-5.168,10.364-5.142
				c3.984,0.018,7.988,1.733,12.003,5.123c4.017,3.39,6.357,7.061,7.047,11.026
				C1526.322,998.318,1525.228,1001.981,1522.391,1005.365z M1498.473,985.271c-2.323,2.73-3.167,5.687-2.555,8.839
				c0.614,3.154,2.599,6.145,5.955,8.979c3.35,2.826,6.667,4.271,9.952,4.315c3.283,0.054,6.057-1.285,8.347-3.979
				c2.276-2.703,3.094-5.613,2.442-8.735c-0.637-3.108-2.66-6.1-6.05-8.966c-3.396-2.859-6.675-4.337-9.855-4.434
				C1503.523,981.197,1500.781,982.525,1498.473,985.271z"/>
			<path class="st35" d="M1537.394,986.39l-26.578-19.731l2.492-3.344l34.293,3.313c-2.769-1.969-6.93-5.02-12.483-9.139
				l-11.281-8.377l1.816-2.442l26.58,19.729l-2.476,3.352l-34.311-3.315c2.877,2.055,7.047,5.111,12.521,9.167l11.237,8.347
				L1537.394,986.39z"/>
			<path class="st35" d="M1579.824,924.173l-5.174,1.469c0.979,3.577,0.312,7.267-2.048,11.039c-1.28,2.017-2.789,3.614-4.509,4.811
				c-1.708,1.189-3.557,1.816-5.527,1.893c-1.969,0.07-3.939-0.504-5.919-1.726c-1.736-1.119-3.105-2.552-4.113-4.318
				c-1.011-1.758-1.544-3.582-1.607-5.469c-1.79,0.083-3.479-0.356-5.065-1.342c-1.368-0.844-2.43-1.938-3.18-3.268
				c-0.749-1.332-1.099-2.808-1.046-4.433c0.07-1.619,0.587-3.236,1.592-4.85c0.793-1.276,1.66-2.339,2.604-3.183
				c0.945-0.839,2.038-1.644,3.284-2.41l1.827,2.741c-0.212,0.142-0.59,0.41-1.179,0.782c-0.574,0.372-1.182,0.832-1.808,1.387
				c-0.636,0.549-1.268,1.362-1.932,2.411c-0.864,1.395-1.103,2.801-0.737,4.194c0.365,1.402,1.144,2.471,2.341,3.212
				c1.235,0.76,2.462,1.1,3.729,1.037c1.252-0.066,3.101-0.441,5.569-1.115l12.819-3.447c-1.33-2.167-3.376-4.266-6.16-6.3
				l2.691-2.024c3.226,2.225,5.572,4.623,7.087,7.212l5.265-1.478L1579.824,924.173z M1571.1,926.621l-14.358,4.055
				c-1.157,0.328-1.986,0.519-2.499,0.596c0.023,1.324,0.415,2.597,1.181,3.819c0.769,1.229,1.835,2.282,3.211,3.178
				c2.111,1.298,4.184,1.578,6.192,0.817s3.647-2.149,4.898-4.181C1571.472,932.092,1571.924,929.328,1571.1,926.621z"/>
			<path class="st35" d="M1590.433,898.903l6.864-13.208l2.487,1.293l-8.278,15.905l-29.367-15.28l8.134-15.643l2.481,1.292
				l-6.732,12.945l10.995,5.719l5.927-11.429l2.487,1.296l-5.941,11.417L1590.433,898.903z"/>
			<path class="st35" d="M1573.722,865.076l3.895-8.588c2.007-4.414,5.026-7.405,9.069-8.985c4.024-1.586,8.263-1.362,12.7,0.658
				c5.874,2.675,9.205,6.858,9.998,12.536c0.441,2.974-0.071,6.072-1.53,9.3l-4.016,8.793L1573.722,865.076z M1602.553,874.862
				l2.745-6.038c0.938-2.052,1.412-4.036,1.418-5.941c0-1.899-0.401-3.594-1.203-5.077c-1.604-2.961-4.097-5.212-7.496-6.761
				c-3.396-1.548-6.809-1.727-10.251-0.539c-3.439,1.185-5.966,3.57-7.598,7.153l-2.648,5.805L1602.553,874.862z"/>
			<path class="st35" d="M1613.958,822.873l-19.291-7.438l1.093-2.848l19.214,7.421c3.967,1.521,6.599,3.645,7.893,6.357
				c1.277,2.703,1.245,5.799-0.091,9.278c-1.336,3.483-3.371,5.808-6.103,6.946c-2.71,1.143-5.985,0.977-9.812-0.499l-19.57-7.552
				l1.102-2.842l19.521,7.54c3.082,1.191,5.64,1.337,7.642,0.443c2.021-0.891,3.491-2.573,4.452-5.047
				C1622.125,829.165,1620.102,825.244,1613.958,822.873z"/>
			<path class="st35" d="M1605.752,790.338c-1.165,3.614-0.91,7.022,0.768,10.232c1.667,3.198,4.521,5.449,8.544,6.741
				c4.008,1.286,7.635,1.139,10.867-0.454c3.23-1.598,5.486-4.368,6.754-8.326c0.99-3.088,1.015-5.922,0.045-8.508l3.176,1.024
				c0.737,2.34,0.561,5.175-0.511,8.499c-1.526,4.774-4.213,8.162-8.052,10.163c-3.85,1.997-8.224,2.202-13.129,0.627
				c-4.906-1.573-8.367-4.353-10.354-8.333c-1.989-3.971-2.265-8.184-0.833-12.643c0.998-3.083,2.398-5.558,4.235-7.412l3.044,0.978
				c-1.165,1.144-2.06,2.2-2.691,3.16C1606.972,787.051,1606.358,788.47,1605.752,790.338z"/>
			<path class="st35" d="M1645.585,761.473l-9.687,0.737l-3.664,14.172l8.086,5.398l-0.833,3.171l-29.101-19.62l1.109-4.274
				l34.919-2.773L1645.585,761.473z M1629.85,774.794l3.209-12.413l-19.66,1.446C1616.771,765.99,1622.258,769.651,1629.85,774.794z
				"/>
			<path class="st35" d="M1619.457,725.275l2.744,0.569l-1.841,9l29.675,6.089l-0.608,2.987l-29.687-6.098l-1.838,8.95l-2.739-0.564
				L1619.457,725.275z"/>
			<path class="st35" d="M1653.15,724.341l-32.632-5.552l0.519-3l32.625,5.552L1653.15,724.341z"/>
			<path class="st35" d="M1657.539,697.588c-0.558,4.387-2.536,7.706-5.959,9.963c-3.413,2.265-7.699,3.077-12.853,2.425
				c-5.142-0.646-9.081-2.449-11.843-5.417c-2.739-2.974-3.825-6.695-3.264-11.179c0.562-4.479,2.52-7.81,5.878-9.958
				c3.352-2.156,7.642-2.897,12.855-2.246c5.211,0.659,9.185,2.463,11.923,5.411C1657,689.536,1658.092,693.201,1657.539,697.588z
				 M1626.538,693.77c-0.448,3.556,0.439,6.485,2.678,8.807c2.232,2.303,5.534,3.735,9.888,4.284
				c4.355,0.544,7.92-0.051,10.696-1.803c2.767-1.752,4.38-4.375,4.821-7.879c0.438-3.518-0.456-6.396-2.694-8.66
				s-5.571-3.671-9.964-4.221c-4.406-0.551-7.961,0-10.68,1.649C1628.557,687.604,1626.978,690.207,1626.538,693.77z"/>
			<path class="st35" d="M1659.789,673.707l-33.04-2.073l0.255-4.17l30.583-15.894c-3.401-0.153-8.556-0.441-15.457-0.876
				l-14.02-0.882l0.198-3.032l33.048,2.073l-0.276,4.162l-30.564,15.907c3.523,0.154,8.7,0.441,15.489,0.864l13.967,0.875
				L1659.789,673.707z"/>
		</g>
		<g>
			<path class="st37" d="M1071.657,1200.509c-316.349,0-573.716-257.367-573.716-573.714c0-316.345,257.367-573.711,573.716-573.711
				c316.348,0,573.716,257.366,573.716,573.711h-6.549c0-312.735-254.427-567.163-567.167-567.163
				c-312.739,0-567.166,254.428-567.166,567.163c0,312.736,254.426,567.167,567.166,567.167c72.511,0,143.124-13.49,209.883-40.102
				l2.423,6.088C1216.432,1186.861,1145.003,1200.509,1071.657,1200.509z"/>
		</g>
	</g>
	<line class="st63" x1="582.764" y1="788.06" x2="655.419" y2="781.997"/>
	<line class="st63" x1="576.751" y1="771.286" x2="649.408" y2="765.214"/>
</g>
</svg>
