<?xml version="1.0" encoding="utf-8"?>
<!-- Generator: Adobe Illustrator 16.0.0, SVG Export Plug-In . SVG Version: 6.00 Build 0)  -->
<!DOCTYPE svg PUBLIC "-//W3C//DTD SVG 1.1//EN" "http://www.w3.org/Graphics/SVG/1.1/DTD/svg11.dtd">
<svg version="1.1" xmlns="http://www.w3.org/2000/svg" xmlns:xlink="http://www.w3.org/1999/xlink" x="0px" y="0px" width="768px"
	 height="660px" viewBox="0 0 768 660" style="enable-background:new 0 0 768 660;" xml:space="preserve">
<style type="text/css">
<![CDATA[
	.st0{fill:none;stroke:#272525;stroke-width:4;stroke-miterlimit:10;}
	.st1{clip-path:url(#SVGID_18_);fill:none;stroke:#C72A7D;stroke-width:6;stroke-miterlimit:10;}
	.st2{clip-path:url(#SVGID_34_);fill:#DD7FAF;}
	.st3{fill:#7CC7EA;}
	.st4{clip-path:url(#SVGID_18_);fill:#C72A7D;}
	.st5{clip-path:url(#SVGID_20_);fill:#83C698;}
	.st6{fill:none;stroke:#32367C;stroke-width:4;stroke-miterlimit:10;}
	.st7{fill:none;stroke:#FAEC34;stroke-width:6.5491;stroke-miterlimit:10;}
	.st8{clip-path:url(#SVGID_24_);fill:none;stroke:#27A2DC;stroke-width:4.3661;stroke-miterlimit:10;}
	.st9{fill:#FFFFFF;stroke:#C72A7D;stroke-width:6;stroke-miterlimit:10;}
	.st10{clip-path:url(#SVGID_8_);fill:none;stroke:#000000;stroke-width:4;stroke-miterlimit:10;}
	.st11{clip-path:url(#SVGID_24_);fill:none;stroke:#FAEC34;stroke-width:4;stroke-miterlimit:10;}
	.st12{fill:none;stroke:#000000;stroke-width:5;stroke-miterlimit:10;}
	.st13{clip-path:url(#SVGID_10_);fill:none;stroke:#000000;stroke-width:4;stroke-miterlimit:10;}
	.st14{clip-path:url(#SVGID_16_);fill:none;}
	.st15{fill:#FFFF66;stroke:#000000;stroke-width:4;stroke-miterlimit:10;}
	.st16{fill:#F8EB35;stroke:#F8EB35;stroke-width:3.5625;stroke-miterlimit:10;}
	.st17{clip-path:url(#SVGID_10_);fill:#FFFFFF;stroke:#000000;stroke-width:4;stroke-miterlimit:10;}
	.st18{clip-path:url(#SVGID_26_);fill:none;stroke:#C72B7D;stroke-width:6;stroke-miterlimit:10;}
	.st19{fill:none;stroke:#C72A7D;stroke-width:4;stroke-miterlimit:10;}
	.st20{fill:none;stroke:#C72B7D;stroke-width:4;stroke-miterlimit:10;}
	.st21{clip-path:url(#SVGID_32_);fill:none;stroke:#34A157;stroke-width:6.5645;stroke-miterlimit:10;}
	.st22{clip-path:url(#SVGID_32_);fill:none;stroke:#32367C;stroke-width:6.0141;stroke-miterlimit:10;}
	.st23{fill:#83C698;}
	.st24{clip-path:url(#SVGID_18_);fill:none;stroke:#000000;stroke-width:6;stroke-miterlimit:10;}
	.st25{fill:none;stroke:#D1EBF7;stroke-width:6;stroke-miterlimit:10;}
	.st26{fill:none;stroke:#27A2DC;stroke-width:4.3661;stroke-miterlimit:10;}
	.st27{fill:#FFFFFF;stroke:#000000;stroke-width:6;stroke-miterlimit:10;}
	.st28{clip-path:url(#SVGID_34_);fill:none;stroke:#C72A7D;stroke-width:6;stroke-miterlimit:10;}
	.st29{fill:#FFFFFF;stroke:#34A156;stroke-width:6;stroke-miterlimit:10;}
	.st30{fill:none;stroke:#FFFFFF;stroke-miterlimit:10;}
	.st31{fill:#FAEC34;stroke:#000000;stroke-width:4;stroke-miterlimit:10;}
	.st32{fill:none;stroke:#000000;stroke-width:4;stroke-miterlimit:10;}
	.st33{clip-path:url(#SVGID_30_);fill:none;stroke:#FAEC34;stroke-width:4;stroke-miterlimit:10;}
	.st34{clip-path:url(#SVGID_32_);fill:none;stroke:#C72B7D;stroke-width:6.0141;stroke-miterlimit:10;}
	.st35{fill:none;stroke:#34A156;stroke-width:4;stroke-miterlimit:10;}
	.st36{fill:#F2D2E3;}
	.st37{fill:#26A1DB;}
	.st38{fill:#27A1DB;}
	.st39{fill:#27A2DC;}
	.st40{clip-path:url(#SVGID_34_);fill:#FFFFFF;stroke:#C72A7D;stroke-width:6;stroke-miterlimit:10;}
	.st41{fill:#5D5D5D;}
	.st42{fill:#C72A7D;stroke:#000000;stroke-width:4;stroke-miterlimit:10;}
	.st43{clip-path:url(#SVGID_20_);fill:#FFFFFF;stroke:#34A156;stroke-width:6;stroke-miterlimit:10;}
	.st44{clip-path:url(#SVGID_34_);fill:none;stroke:#000000;stroke-width:6;stroke-miterlimit:10;}
	.st45{fill:#F8EB35;}
	.st46{clip-path:url(#SVGID_18_);fill:#DD7FAF;}
	.st47{clip-path:url(#SVGID_8_);}
	.st48{clip-path:url(#SVGID_34_);fill:#F2D2E3;}
	.st49{clip-path:url(#SVGID_18_);fill:#FFFFFF;stroke:#C72A7D;stroke-width:6;stroke-miterlimit:10;}
	.st50{stroke:#000000;stroke-width:4;stroke-miterlimit:10;}
	.st51{fill:none;stroke:#27A1DB;stroke-width:6;stroke-miterlimit:10;}
	.st52{fill:#FFFFFF;stroke:#C72A7D;stroke-width:4;stroke-miterlimit:10;}
	.st53{fill:#C6C6C6;}
	.st54{fill:#FAEC34;}
	.st55{clip-path:url(#SVGID_26_);fill:none;stroke:#FAEC34;stroke-width:6;stroke-miterlimit:10;}
	.st56{fill:#C72A7D;}
	.st57{fill:#C72B7D;}
	.st58{fill:none;stroke:#FAEC34;stroke-width:4;stroke-miterlimit:10;}
	.st59{fill:none;stroke:#FFFF66;stroke-width:4;stroke-miterlimit:10;}
	.st60{clip-path:url(#SVGID_20_);fill:#34A156;}
	.st61{clip-path:url(#SVGID_32_);fill:none;stroke:#FAEC34;stroke-width:6.0141;stroke-miterlimit:10;}
	.st62{clip-path:url(#SVGID_16_);fill:none;stroke:#FAEC34;stroke-width:3.6282;stroke-miterlimit:10;}
	.st63{fill:none;stroke:#000000;stroke-width:3;stroke-miterlimit:10;}
	.st64{fill:#FFFFFF;}
	.st65{fill:none;stroke:#000000;stroke-width:3.8428;stroke-miterlimit:10;}
	.st66{clip-path:url(#SVGID_30_);fill:none;stroke:#34A157;stroke-width:4.3661;stroke-miterlimit:10;}
	.st67{fill:none;stroke:#FAEC34;stroke-width:4.3661;stroke-miterlimit:10;}
	.st68{fill:none;}
	.st69{clip-path:url(#SVGID_34_);fill:#C72A7D;}
	.st70{clip-path:url(#SVGID_24_);fill:none;stroke:#32367C;stroke-width:4;stroke-miterlimit:10;}
	.st71{clip-path:url(#SVGID_20_);fill:#D4EBDB;}
	.st72{fill:none;stroke:#D1EBF7;stroke-width:4;stroke-miterlimit:10;}
	.st73{fill:#32367C;}
	.st74{clip-path:url(#SVGID_20_);fill:none;stroke:#000000;stroke-width:6;stroke-miterlimit:10;}
	.st75{fill:#FFFFFF;stroke:#000000;stroke-width:4;stroke-miterlimit:10;}
	.st76{fill:#34A156;}
	.st77{fill:#34A157;}
	.st78{clip-path:url(#SVGID_24_);fill:none;stroke:#C72B7D;stroke-width:4;stroke-miterlimit:10;}
	.st79{clip-path:url(#SVGID_20_);fill:none;stroke:#34A156;stroke-width:6;stroke-miterlimit:10;}
	.st80{fill:none;stroke:#C72A7D;stroke-width:6;stroke-miterlimit:10;}
	.st81{fill:#FFFFFF;stroke:#34A156;stroke-width:4;stroke-miterlimit:10;}
	.st82{stroke:#000000;stroke-width:3;stroke-miterlimit:10;}
	.st83{fill:none;stroke:#FFFFFF;stroke-width:4;stroke-miterlimit:10;}
	.st84{fill:none;stroke:#7CC7EA;stroke-width:4;stroke-miterlimit:10;}
	.st85{fill:#D1EBF7;}
	.st86{fill:none;stroke:#34A157;stroke-width:4.3661;stroke-miterlimit:10;}
	.st87{fill:#D4EBDB;}
	.st88{fill:none;stroke:#000000;stroke-width:5.2992;stroke-miterlimit:10;}
	.st89{clip-path:url(#SVGID_30_);fill:none;stroke:#32367C;stroke-width:4;stroke-miterlimit:10;}
	.st90{fill:none;stroke:#FFFFFF;stroke-width:1.4794;stroke-miterlimit:10;}
	.st91{clip-path:url(#SVGID_10_);}
	.st92{clip-path:url(#SVGID_12_);}
	.st93{clip-path:url(#SVGID_14_);}
	.st94{clip-path:url(#SVGID_16_);}
	.st95{clip-path:url(#SVGID_18_);}
	.st96{clip-path:url(#SVGID_20_);}
	.st97{clip-path:url(#SVGID_22_);}
	.st98{clip-path:url(#SVGID_34_);}
	.st99{fill:none;stroke:#000000;stroke-width:6;stroke-miterlimit:10;}
	.st100{clip-path:url(#SVGID_18_);fill:#F2D2E3;}
	.st101{clip-path:url(#SVGID_8_);fill:#FFFFFF;stroke:#000000;stroke-width:4;stroke-miterlimit:10;}
	.st102{fill:none;stroke:#272525;stroke-width:3.5625;stroke-miterlimit:10;}
	.st103{clip-path:url(#SVGID_28_);fill:none;stroke:#27A2DC;stroke-width:6.5491;stroke-miterlimit:10;}
	.st104{fill:none;stroke:#34A156;stroke-width:6;stroke-miterlimit:10;}
	.st105{clip-path:url(#SVGID_28_);fill:none;stroke:#32367C;stroke-width:6;stroke-miterlimit:10;}
	.st106{fill:none;stroke:#27A1DB;stroke-width:4;stroke-miterlimit:10;}
	.st107{clip-path:url(#SVGID_30_);fill:none;stroke:#C72B7D;stroke-width:4;stroke-miterlimit:10;}
	.st108{fill:#DD7FAF;}
	.st109{clip-path:url(#SVGID_12_);fill:none;stroke:#000000;stroke-width:4;stroke-miterlimit:10;}
]]>
</style>
<g id="Layer_1">
</g>
<g id="Layer_2">
	<g>
		<defs>
			<rect id="SVGID_33_" x="-2.598" width="773" height="661"/>
		</defs>
		<clipPath id="SVGID_2_">
			<use xlink:href="#SVGID_33_"  style="overflow:visible;"/>
		</clipPath>
		<path style="clip-path:url(#SVGID_2_);fill:none;stroke:#C72A7D;stroke-width:6;stroke-miterlimit:10;" d="M442.41,50h-46.5
			c8.284,0,15-6.715,15-15s-6.716-15-15-15h-105c-8.284,0-15,6.715-15,15s6.716,15,15,15h-81c-8.284,0-15,6.715-15,15
			s6.716,15,15,15h42c-8.284,0-15,6.715-15,15s6.716,15,15,15h82.5c8.284,0,15-6.715,15-15s-6.716-15-15-15h108
			c8.284,0,15-6.715,15-15S450.694,50,442.41,50z"/>
		<polygon style="clip-path:url(#SVGID_2_);fill:#F2D2E3;" points="266.04,195.375 261.953,152.066 238.926,118.656 255.823,96.768 
			242.282,20.127 180.774,101.365 164.081,96.768 154.659,110.561 49.41,142.24 144.955,173.916 170.856,165.614 203.931,195.035 
			254.459,204.232 213.134,152.066 		"/>
		<polygon style="clip-path:url(#SVGID_2_);fill:#DD7FAF;" points="117.042,132.527 140.455,185.916 169.683,136.416 
			150.159,122.561 		"/>
		<polygon style="clip-path:url(#SVGID_2_);fill:#DD7FAF;" points="194.021,116.766 185.274,105.865 208.431,75.287 
			260.323,101.268 		"/>
		<polygon style="clip-path:url(#SVGID_2_);fill:#DD7FAF;" points="175.683,186.573 205.431,213.035 255.959,222.232 
			217.634,173.066 		"/>
		<polygon style="clip-path:url(#SVGID_2_);fill:#DD7FAF;" points="250.926,126.156 227.373,156.666 278.04,202.875 
			273.953,159.566 		"/>
		<polygon style="clip-path:url(#SVGID_2_);fill:#F2D2E3;" points="647.819,260.793 637.111,265.111 641.228,116.035 
			511.384,246.035 510.045,290.719 510.045,290.719 394.724,157.793 477.975,308.115 477.991,308.107 396.61,353.43 
			565.552,369.131 584.685,385.27 588.086,367.783 597.388,376.399 635.89,292.979 698.38,325.166 		"/>
		<polygon style="clip-path:url(#SVGID_2_);fill:#DD7FAF;" points="498.045,271.219 499.384,226.535 625.152,105.532 
			625.111,245.611 616.352,249.146 571.709,290.561 536.592,252.914 		"/>
		<polygon style="clip-path:url(#SVGID_2_);fill:#DD7FAF;" points="368.11,354.93 474.624,297.307 564.188,340.463 537.052,370.631 
					"/>
		<g style="clip-path:url(#SVGID_2_);">
			<g>
				<polygon class="st99" points="416.11,353.43 585.052,369.131 612.188,338.963 520.99,295.02 				"/>
				<polyline class="st99" points="585.052,369.131 604.185,385.27 614.027,337.463 				"/>
				<line class="st99" x1="564.153" y1="315.285" x2="416.11" y2="353.43"/>
				<line class="st99" x1="653.821" y1="273.355" x2="607.325" y2="369.131"/>
				<line class="st99" x1="715.053" y1="322.969" x2="647.852" y2="268.646"/>
				<polyline class="st99" points="595.624,318.887 647.852,268.646 667.319,260.793 717.88,325.166 655.39,292.979 
					616.888,376.399 607.343,367.558 				"/>
				<polygon class="st99" points="414.224,157.793 497.475,308.115 529.545,290.719 				"/>
				<polyline class="st99" points="605.812,335.891 568.092,272.414 507.361,302.707 				"/>
				<line class="st99" x1="568.092" y1="272.414" x2="603.209" y2="310.061"/>
				<polyline class="st99" points="529.545,290.719 530.884,246.035 660.728,116.035 656.611,265.111 				"/>
				<line class="st99" x1="660.728" y1="116.035" x2="585.648" y2="293.139"/>
			</g>
			<g>
				<polygon class="st99" points="416.11,353.43 585.052,369.131 612.188,338.963 520.99,295.02 				"/>
				<polyline class="st99" points="585.052,369.131 604.185,385.27 614.027,337.463 				"/>
				<line class="st99" x1="564.153" y1="315.285" x2="416.11" y2="353.43"/>
				<line class="st99" x1="653.821" y1="273.355" x2="607.325" y2="369.131"/>
				<line class="st99" x1="715.053" y1="322.969" x2="647.852" y2="268.646"/>
				<polyline class="st99" points="595.624,318.887 647.852,268.646 667.319,260.793 717.88,325.166 655.39,292.979 
					616.888,376.399 607.343,367.558 				"/>
				<polygon class="st99" points="414.224,157.793 497.475,308.115 529.545,290.719 				"/>
				<polyline class="st99" points="605.812,335.891 568.092,272.414 507.361,302.707 				"/>
				<line class="st99" x1="568.092" y1="272.414" x2="603.209" y2="310.061"/>
				<polyline class="st99" points="529.545,290.719 530.884,246.035 660.728,116.035 656.611,265.111 				"/>
				<line class="st99" x1="660.728" y1="116.035" x2="585.648" y2="293.139"/>
			</g>
		</g>
		<g style="clip-path:url(#SVGID_2_);">
			<path class="st108" d="M388.237,610.371c-13.307-5.96-14.417-16.109-14.417-16.109s9.601-5.35,21.618,0.037
				c12.009,5.383,14.417,16.109,14.417,16.109S400.243,615.75,388.237,610.371z"/>
			<path class="st108" d="M346.667,541.539c-1.149-20.289-13.805-26.775-13.805-26.775s-11.738,9.837-10.697,28.162
				c1.035,18.302,13.802,26.777,13.802,26.777S347.703,559.845,346.667,541.539z"/>
			<path class="st36" d="M384.414,469.539c-19.406,17.145-36.624,11.49-36.624,11.49s-1.608-19.446,15.923-34.927
				c17.505-15.462,36.621-11.485,36.621-11.485S401.922,454.076,384.414,469.539z"/>
			<path class="st108" d="M279.227,399.525c15.36-7.416,25.269-0.766,25.269-0.766s-2.446,12.615-16.315,19.307
				c-13.852,6.689-25.263,0.762-25.263,0.762S265.375,406.211,279.227,399.525z"/>
			<path class="st36" d="M266.661,340.904c-0.292,20.318,11.877,27.686,11.877,27.686s12.401-8.98,12.665-27.334
				c0.264-18.329-11.874-27.686-11.874-27.686S266.928,322.572,266.661,340.904z"/>
			<path class="st108" d="M266.267,519.016c11.295-9.222,20.865-5.664,20.865-5.664s0.476,10.98-9.728,19.307
				c-10.195,8.32-20.865,5.664-20.865,5.664S256.076,527.332,266.267,519.016z"/>
			<path class="st108" d="M141.118,343.666c7.292-18.97-1.579-30.086-1.579-30.086s-14.745,4.143-21.328,21.277
				c-6.58,17.109,1.576,30.082,1.576,30.082S134.538,360.775,141.118,343.666z"/>
			<path class="st99" d="M345.401,477.352c-64.974,0-242.897-40.004-356.761-136.854"/>
			<path class="st99" d="M320.641,425.994c0,0-17.001,31.646-61.002,40.002"/>
			<line class="st99" x1="294.142" y1="425.994" x2="288.64" y2="456.245"/>
			<path class="st99" d="M341.613,526.01c0,0-6.981-39.342-54.477-54.799"/>
			<path class="st99" d="M240.669,393.203c-14.527,19.707-42.287,41.811-93.029,38.795"/>
			<line class="st99" x1="225.305" y1="457.279" x2="250.164" y2="502.164"/>
			<path class="st99" d="M100.886,411.596c0,0,22.525,17.418,23.886,60.504"/>
			<line class="st99" x1="64.908" y1="392.998" x2="138.643" y2="380.994"/>
			<line class="st99" x1="88.451" y1="387.604" x2="94.735" y2="362.42"/>
			<line class="st99" x1="10.85" y1="359.641" x2="54.66" y2="457.641"/>
			<line class="st99" x1="24.244" y1="391.317" x2="10.85" y2="414.357"/>
			<path class="st99" d="M342.167,531.039c-1.149-20.289-13.805-26.775-13.805-26.775s-11.738,9.837-10.697,28.162
				c1.035,18.302,13.802,26.777,13.802,26.777S343.203,549.345,342.167,531.039z"/>
			<path class="st9" d="M498.572,581.547c-16.869,11.332-15.993,25.529-15.993,25.529s14.446,5.08,29.681-5.158
				c15.215-10.223,15.993-25.529,15.993-25.529S513.789,571.322,498.572,581.547z"/>
			<path class="st99" d="M135.118,337.666c7.292-18.97-1.579-30.086-1.579-30.086s-14.745,4.143-21.328,21.277
				c-6.58,17.109,1.576,30.082,1.576,30.082S128.538,354.775,135.118,337.666z"/>
			<path class="st99" d="M259.161,345.404c-0.292,20.318,11.877,27.686,11.877,27.686s12.401-8.98,12.665-27.334
				c0.264-18.329-11.874-27.686-11.874-27.686S259.428,327.072,259.161,345.404z"/>
			<path class="st9" d="M271.929,581.367c-16.38-12.029-29.44-6.395-29.44-6.395s0.117,15.312,14.912,26.176
				c14.775,10.851,29.438,6.396,29.438,6.396S286.703,592.218,271.929,581.367z"/>
			<g>
				<path class="st99" d="M179.767,497.066c0-18.178-14.736-32.824-32.912-32.824s-32.911,14.49-32.911,32.668
					c0,7.486,2.676,14.143,6.713,19.699c0.163,0.223,26.089,39.205,26.089,39.205s26.191-38.818,26.484-39.234
					C177.136,511.007,179.767,504.45,179.767,497.066z"/>
				<g>
					<path class="st99" d="M146.477,556.277c0,0,29.733-38.279,29.76-38.316l0.012-0.016c3.921-4.953,9.302-8.836,15.771-10.904
						c17.314-5.532,35.836,4.012,41.37,21.322c5.537,17.318-4.014,35.838-21.325,41.378c-6.659,2.127-13.497,2.016-19.704,0.099
						L146.477,556.277z"/>
					<path class="st99" d="M146.477,555.938l46.472,16.762c5.484,2.181,10.449,5.855,14.227,10.941
						c10.835,14.592,7.792,35.205-6.797,46.041c-14.594,10.842-35.209,7.799-46.05-6.791c-4.181-5.631-6.145-12.404-6.328-18.919
						L146.477,555.938z"/>
				</g>
				<path class="st99" d="M146.746,556.277l-29.675-38.207c-0.029-0.037-0.059-0.072-0.085-0.109l-0.012-0.016l0,0
					c-3.921-4.953-9.305-8.836-15.773-10.904c-17.312-5.532-35.836,4.012-41.367,21.322c-5.537,17.318,4.014,35.838,21.322,41.378
					c6.659,2.127,13.499,2.016,19.705,0.099L146.746,556.277z"/>
				<path class="st99" d="M146.746,555.938l-46.474,16.762c-5.484,2.181-10.447,5.855-14.226,10.941
					c-10.835,14.592-7.794,35.205,6.797,46.041c14.594,10.842,35.21,7.799,46.05-6.791c4.181-5.631,6.284-12.157,6.469-18.672
					L146.746,555.938z"/>
				<g>
					<circle class="st9" cx="146.746" cy="556.277" r="9.161"/>
					<line class="st9" x1="145.402" y1="548" x2="145.402" y2="521"/>
					<line class="st9" x1="112.817" y1="545.572" x2="137.585" y2="553.388"/>
					<line class="st9" x1="180.675" y1="545.572" x2="155.482" y2="553.521"/>
					<line class="st9" x1="125.384" y1="584.654" x2="141.508" y2="563.788"/>
					<line class="st9" x1="167.852" y1="584.846" x2="151.984" y2="563.788"/>
					<path class="st9" d="M146.746,556.277"/>
				</g>
			</g>
			<line class="st99" x1="202.108" y1="423.584" x2="240.64" y2="422.998"/>
			<path class="st99" d="M376.914,465.039c-19.406,17.145-36.624,11.49-36.624,11.49s-1.608-19.446,15.923-34.927
				c17.505-15.462,36.621-11.485,36.621-11.485S394.422,449.576,376.914,465.039z"/>
			<path class="st9" d="M369.357,531.268c-14.032-9.701-13.138-21.597-13.138-21.597s12.179-4.103,24.844,4.657
				c12.655,8.744,13.134,21.593,13.134,21.593S382.009,540.012,369.357,531.268z"/>
			<path class="st99" d="M266.267,529.516c11.295-9.222,20.865-5.664,20.865-5.664s0.476,10.98-9.728,19.307
				c-10.195,8.32-20.865,5.664-20.865,5.664S256.076,537.832,266.267,529.516z"/>
			<path class="st99" d="M282.227,390.525c15.36-7.416,25.269-0.766,25.269-0.766s-2.446,12.615-16.315,19.307
				c-13.852,6.689-25.263,0.762-25.263,0.762S268.375,397.211,282.227,390.525z"/>
			<path class="st9" d="M182.957,384.334c19.582-5.43,23.232-19.178,23.232-19.178s-12.104-9.377-29.792-4.473
				c-17.666,4.898-23.235,19.176-23.235,19.176S165.288,389.23,182.957,384.334z"/>
			<line class="st99" x1="40.513" y1="425.994" x2="68.91" y2="435.184"/>
			<path class="st99" d="M391.237,599.871c-13.307-5.96-14.417-16.109-14.417-16.109s9.601-5.35,21.618,0.037
				c12.009,5.383,14.417,16.109,14.417,16.109S403.243,605.25,391.237,599.871z"/>
		</g>
		<g style="clip-path:url(#SVGID_2_);">
			<polyline class="st99" points="175.354,177.613 208.431,207.035 258.959,216.232 217.634,164.066 			"/>
			<polyline class="st99" points="217.634,164.066 270.54,207.375 266.453,164.066 243.426,130.656 			"/>
			<polygon class="st99" points="185.274,113.365 246.782,32.127 260.323,108.768 217.634,164.066 149.455,185.916 53.91,154.24 
				159.159,122.561 168.581,108.768 			"/>
			<line class="st99" x1="159.159" y1="122.561" x2="217.634" y2="164.066"/>
			<line class="st99" x1="149.455" y1="185.916" x2="178.683" y2="136.416"/>
			<line class="st99" x1="168.581" y1="108.768" x2="217.634" y2="164.066"/>
			<line class="st99" x1="185.274" y1="112.637" x2="217.634" y2="164.066"/>
			<line class="st99" x1="194.021" y1="124.266" x2="260.323" y2="108.768"/>
			<line class="st99" x1="126.042" y1="132.527" x2="149.455" y2="185.916"/>
			<line class="st99" x1="208.431" y1="82.787" x2="260.323" y2="108.768"/>
		</g>
	</g>
</g>
</svg>
