<?xml version="1.0" encoding="utf-8"?>
<!-- Generator: Adobe Illustrator 16.0.0, SVG Export Plug-In . SVG Version: 6.00 Build 0)  -->
<!DOCTYPE svg PUBLIC "-//W3C//DTD SVG 1.1//EN" "http://www.w3.org/Graphics/SVG/1.1/DTD/svg11.dtd">
<svg version="1.1" xmlns="http://www.w3.org/2000/svg" xmlns:xlink="http://www.w3.org/1999/xlink" x="0px" y="0px" width="80px"
	 height="80px" viewBox="0 0 80 80" style="enable-background:new 0 0 80 80;" xml:space="preserve">
<style type="text/css">
<![CDATA[
	.st0{clip-path:url(#SVGID_28_);fill:none;stroke:#34A157;stroke-width:4.3661;stroke-miterlimit:10;}
	.st1{fill:none;stroke:#272525;stroke-width:4;stroke-miterlimit:10;}
	.st2{fill:#7CC7EA;}
	.st3{clip-path:url(#SVGID_26_);fill:none;stroke:#32367C;stroke-width:6;stroke-miterlimit:10;}
	.st4{fill:none;stroke:#32367C;stroke-width:4;stroke-miterlimit:10;}
	.st5{fill:none;stroke:#FAEC34;stroke-width:6.5491;stroke-miterlimit:10;}
	.st6{fill:#FFFFFF;stroke:#C72A7D;stroke-width:6;stroke-miterlimit:10;}
	.st7{clip-path:url(#SVGID_8_);fill:none;stroke:#000000;stroke-width:4;stroke-miterlimit:10;}
	.st8{clip-path:url(#SVGID_34_);fill:#7CC7EA;}
	.st9{fill:none;stroke:#000000;stroke-width:5;stroke-miterlimit:10;}
	.st10{clip-path:url(#SVGID_10_);fill:none;stroke:#000000;stroke-width:4;stroke-miterlimit:10;}
	.st11{fill:#FFFF66;stroke:#000000;stroke-width:4;stroke-miterlimit:10;}
	.st12{clip-path:url(#SVGID_16_);fill:none;stroke:#C72A7D;stroke-width:6;stroke-miterlimit:10;}
	.st13{fill:#F8EB35;stroke:#F8EB35;stroke-width:3.5625;stroke-miterlimit:10;}
	.st14{fill:none;stroke:#C72A7D;stroke-width:4;stroke-miterlimit:10;}
	.st15{fill:none;stroke:#C72B7D;stroke-width:4;stroke-miterlimit:10;}
	.st16{fill:#83C698;}
	.st17{clip-path:url(#SVGID_18_);fill:none;stroke:#000000;stroke-width:6;stroke-miterlimit:10;}
	.st18{clip-path:url(#SVGID_18_);fill:#34A156;}
	.st19{clip-path:url(#SVGID_22_);fill:none;stroke:#FAEC34;stroke-width:4;stroke-miterlimit:10;}
	.st20{fill:none;stroke:#D1EBF7;stroke-width:6;stroke-miterlimit:10;}
	.st21{clip-path:url(#SVGID_18_);fill:none;stroke:#34A156;stroke-width:6;stroke-miterlimit:10;}
	.st22{clip-path:url(#SVGID_26_);fill:none;stroke:#27A2DC;stroke-width:6.5491;stroke-miterlimit:10;}
	.st23{fill:none;stroke:#27A2DC;stroke-width:4.3661;stroke-miterlimit:10;}
	.st24{clip-path:url(#SVGID_36_);fill:#7CC7EA;}
	.st25{fill:#FFFFFF;stroke:#000000;stroke-width:6;stroke-miterlimit:10;}
	.st26{clip-path:url(#SVGID_24_);fill:none;stroke:#C72B7D;stroke-width:6;stroke-miterlimit:10;}
	.st27{fill:#FFFFFF;stroke:#34A156;stroke-width:6;stroke-miterlimit:10;}
	.st28{fill:none;stroke:#FFFFFF;stroke-miterlimit:10;}
	.st29{clip-path:url(#SVGID_16_);fill:#DD7FAF;}
	.st30{clip-path:url(#SVGID_18_);fill:#D4EBDB;}
	.st31{clip-path:url(#SVGID_32_);fill:#F2D2E3;}
	.st32{fill:#FAEC34;stroke:#000000;stroke-width:4;stroke-miterlimit:10;}
	.st33{fill:none;stroke:#7CC7EA;stroke-width:6;stroke-miterlimit:10;}
	.st34{clip-path:url(#SVGID_16_);fill:none;stroke:#000000;stroke-width:6;stroke-miterlimit:10;}
	.st35{clip-path:url(#SVGID_36_);fill:none;stroke:#000000;stroke-width:6;stroke-miterlimit:10;}
	.st36{fill:none;stroke:#000000;stroke-width:4;stroke-miterlimit:10;}
	.st37{fill:none;stroke:#34A156;stroke-width:4;stroke-miterlimit:10;}
	.st38{clip-path:url(#SVGID_28_);fill:none;stroke:#32367C;stroke-width:4;stroke-miterlimit:10;}
	.st39{clip-path:url(#SVGID_22_);fill:none;stroke:#27A2DC;stroke-width:4.3661;stroke-miterlimit:10;}
	.st40{clip-path:url(#SVGID_32_);fill:none;stroke:#C72A7D;stroke-width:6;stroke-miterlimit:10;}
	.st41{fill:#F2D2E3;}
	.st42{fill:#26A1DB;}
	.st43{fill:#27A1DB;}
	.st44{fill:#27A2DC;}
	.st45{fill:#5D5D5D;}
	.st46{fill:#C72A7D;stroke:#000000;stroke-width:4;stroke-miterlimit:10;}
	.st47{fill:#F8EB35;}
	.st48{clip-path:url(#SVGID_32_);fill:#C72A7D;}
	.st49{clip-path:url(#SVGID_8_);}
	.st50{clip-path:url(#SVGID_28_);fill:none;stroke:#C72B7D;stroke-width:4;stroke-miterlimit:10;}
	.st51{clip-path:url(#SVGID_30_);fill:none;stroke:#34A157;stroke-width:6.5645;stroke-miterlimit:10;}
	.st52{clip-path:url(#SVGID_34_);fill:#27A1DB;}
	.st53{clip-path:url(#SVGID_34_);fill:none;stroke:#27A1DB;stroke-width:4;stroke-miterlimit:10;}
	.st54{stroke:#000000;stroke-width:4;stroke-miterlimit:10;}
	.st55{clip-path:url(#SVGID_30_);fill:none;stroke:#32367C;stroke-width:6.0141;stroke-miterlimit:10;}
	.st56{fill:none;stroke:#27A1DB;stroke-width:6;stroke-miterlimit:10;}
	.st57{fill:#FFFFFF;stroke:#C72A7D;stroke-width:4;stroke-miterlimit:10;}
	.st58{fill:#C6C6C6;}
	.st59{fill:#FAEC34;}
	.st60{fill:#C72A7D;}
	.st61{fill:#C72B7D;}
	.st62{fill:none;stroke:#FAEC34;stroke-width:4;stroke-miterlimit:10;}
	.st63{fill:none;stroke:#FFFF66;stroke-width:4;stroke-miterlimit:10;}
	.st64{fill:none;stroke:#000000;stroke-width:3;stroke-miterlimit:10;}
	.st65{clip-path:url(#SVGID_32_);fill:none;stroke:#000000;stroke-width:6;stroke-miterlimit:10;}
	.st66{fill:#FFFFFF;}
	.st67{fill:none;stroke:#000000;stroke-width:3.8428;stroke-miterlimit:10;}
	.st68{fill:none;stroke:#FAEC34;stroke-width:4.3661;stroke-miterlimit:10;}
	.st69{fill:none;}
	.st70{clip-path:url(#SVGID_36_);fill:#27A1DB;}
	.st71{clip-path:url(#SVGID_24_);fill:none;stroke:#FAEC34;stroke-width:6;stroke-miterlimit:10;}
	.st72{fill:none;stroke:#D1EBF7;stroke-width:4;stroke-miterlimit:10;}
	.st73{clip-path:url(#SVGID_30_);fill:none;stroke:#C72B7D;stroke-width:6.0141;stroke-miterlimit:10;}
	.st74{clip-path:url(#SVGID_14_);fill:none;}
	.st75{fill:#32367C;}
	.st76{clip-path:url(#SVGID_32_);fill:#FFFFFF;stroke:#C72A7D;stroke-width:6;stroke-miterlimit:10;}
	.st77{fill:#FFFFFF;stroke:#000000;stroke-width:4;stroke-miterlimit:10;}
	.st78{clip-path:url(#SVGID_18_);fill:#FFFFFF;stroke:#34A156;stroke-width:6;stroke-miterlimit:10;}
	.st79{fill:#34A156;}
	.st80{fill:#34A157;}
	.st81{clip-path:url(#SVGID_18_);fill:#83C698;}
	.st82{fill:none;stroke:#C72A7D;stroke-width:6;stroke-miterlimit:10;}
	.st83{fill:#FFFFFF;stroke:#34A156;stroke-width:4;stroke-miterlimit:10;}
	.st84{stroke:#000000;stroke-width:3;stroke-miterlimit:10;}
	.st85{fill:none;stroke:#FFFFFF;stroke-width:4;stroke-miterlimit:10;}
	.st86{clip-path:url(#SVGID_22_);fill:none;stroke:#32367C;stroke-width:4;stroke-miterlimit:10;}
	.st87{clip-path:url(#SVGID_16_);fill:#FFFFFF;stroke:#C72A7D;stroke-width:6;stroke-miterlimit:10;}
	.st88{clip-path:url(#SVGID_16_);fill:#F2D2E3;}
	.st89{fill:none;stroke:#7CC7EA;stroke-width:4;stroke-miterlimit:10;}
	.st90{fill:#D1EBF7;}
	.st91{fill:none;stroke:#34A157;stroke-width:4.3661;stroke-miterlimit:10;}
	.st92{fill:#D4EBDB;}
	.st93{fill:none;stroke:#000000;stroke-width:5.2992;stroke-miterlimit:10;}
	.st94{clip-path:url(#SVGID_22_);fill:none;stroke:#C72B7D;stroke-width:4;stroke-miterlimit:10;}
	.st95{clip-path:url(#SVGID_28_);fill:none;stroke:#FAEC34;stroke-width:4;stroke-miterlimit:10;}
	.st96{clip-path:url(#SVGID_34_);fill:#D1EBF7;}
	.st97{fill:none;stroke:#FFFFFF;stroke-width:1.4794;stroke-miterlimit:10;}
	.st98{clip-path:url(#SVGID_30_);fill:none;stroke:#FAEC34;stroke-width:6.0141;stroke-miterlimit:10;}
	.st99{clip-path:url(#SVGID_14_);fill:none;stroke:#FAEC34;stroke-width:3.6282;stroke-miterlimit:10;}
	.st100{clip-path:url(#SVGID_32_);fill:#DD7FAF;}
	.st101{clip-path:url(#SVGID_10_);}
	.st102{clip-path:url(#SVGID_12_);}
	.st103{clip-path:url(#SVGID_14_);}
	.st104{clip-path:url(#SVGID_16_);}
	.st105{clip-path:url(#SVGID_18_);}
	.st106{clip-path:url(#SVGID_20_);}
	.st107{clip-path:url(#SVGID_32_);}
	.st108{clip-path:url(#SVGID_34_);}
	.st109{clip-path:url(#SVGID_36_);}
	.st110{clip-path:url(#SVGID_34_);fill:none;stroke:#000000;stroke-width:4;stroke-miterlimit:10;}
	.st111{clip-path:url(#SVGID_16_);fill:#C72A7D;}
	.st112{fill:none;stroke:#000000;stroke-width:6;stroke-miterlimit:10;}
	.st113{clip-path:url(#SVGID_8_);fill:#FFFFFF;stroke:#000000;stroke-width:4;stroke-miterlimit:10;}
	.st114{fill:none;stroke:#272525;stroke-width:3.5625;stroke-miterlimit:10;}
	.st115{fill:none;stroke:#34A156;stroke-width:6;stroke-miterlimit:10;}
	.st116{clip-path:url(#SVGID_36_);fill:none;stroke:#27A1DB;stroke-width:6;stroke-miterlimit:10;}
	.st117{fill:none;stroke:#27A1DB;stroke-width:4;stroke-miterlimit:10;}
	.st118{fill:#DD7FAF;}
	.st119{clip-path:url(#SVGID_36_);fill:#D1EBF7;}
]]>
</style>
<g id="Layer_1">
</g>
<g id="Layer_2">
	<g>
		<g>
			<g>
				<g>
					<path class="st66" d="M18.895,72.141l2.177,1.276l-0.69,1.183l-3.526-2.068l3.458-5.891l1.346,0.789L18.895,72.141z"/>
				</g>
				<g>
					<path class="st66" d="M26.377,77.048l0.092-1.454l-2.246-0.825l-0.871,1.167l-1.533-0.56l4.492-5.627l1.848,0.677l-0.212,7.197
						L26.377,77.048z M25.009,73.719l1.54,0.562c0.107-1.607,0.199-2.652,0.277-3.139C26.686,71.409,26.079,72.269,25.009,73.719z"
						/>
				</g>
				<g>
					<path class="st66" d="M33.862,76.018l0.673-4.14l1.54,0.249l-0.669,4.133c-0.145,0.88-0.5,1.512-1.068,1.896
						c-0.568,0.383-1.271,0.507-2.105,0.371c-0.832-0.135-1.461-0.472-1.887-1.016c-0.426-0.54-0.571-1.231-0.434-2.072l0.681-4.201
						l1.541,0.249l-0.681,4.193c-0.136,0.834,0.196,1.314,0.998,1.443C33.251,77.258,33.722,76.887,33.862,76.018z"/>
				</g>
				<g>
					<path class="st66" d="M39.1,76.585l0.077,2.367l-1.561,0.054l-0.225-6.83l2.361-0.075c0.762-0.024,1.383,0.156,1.858,0.547
						c0.475,0.391,0.725,0.91,0.745,1.558c0.032,0.973-0.36,1.658-1.181,2.057l1.818,2.57l-1.864,0.06l-1.556-2.323L39.1,76.585z
						 M38.993,73.392l0.062,1.926l0.739-0.025c0.679-0.021,1.004-0.363,0.982-1.024c-0.009-0.289-0.104-0.518-0.287-0.674
						c-0.181-0.16-0.421-0.236-0.726-0.225L38.993,73.392z"/>
				</g>
				<g>
					<path class="st66" d="M49.129,77.623l-0.713-1.273l-2.333,0.523l-0.1,1.457l-1.592,0.355l0.73-7.166l1.917-0.43l3.721,6.168
						L49.129,77.623z M46.174,75.566l1.601-0.359c-0.78-1.413-1.267-2.343-1.465-2.79C46.336,72.719,46.29,73.767,46.174,75.566z"/>
				</g>
				<g>
					<path class="st66" d="M59.395,66.624l-2.179,1.405l0.955,1.48l1.899-1.226l0.678,1.05l-1.901,1.225l1.396,2.161l-1.319,0.854
						l-3.704-5.739l3.499-2.261L59.395,66.624z"/>
				</g>
				<g>
					<path class="st66" d="M64.562,67.919l1.979-1.8l0.839,0.922l-3.141,2.858l-4.599-5.052l3.112-2.834l0.84,0.926l-1.948,1.771
						l1.043,1.146l1.739-1.578l0.831,0.912l-1.739,1.582L64.562,67.919z M61.031,60.513l0.375,2.084L60.5,63.423l-0.563-1.911
						L61.031,60.513z"/>
				</g>
				<g>
					<path class="st66" d="M68.889,63.23l1.579-1.969l1.068,0.858l-2.558,3.185l-5.326-4.279l0.976-1.215L68.889,63.23z"/>
				</g>
				<g>
					<path class="st66" d="M72.563,60.508l-5.812-3.594l0.82-1.327l5.811,3.591L72.563,60.508z"/>
				</g>
				<g>
					<path class="st66" d="M73.76,53.729l1.486,1.937l-0.745,1.734l-2.336-3.352l-3.904,0.565l0.716-1.666l2.282-0.257l-1.407-1.784
						l0.751-1.752l2.287,3.23l4.042-0.66l-0.729,1.704L73.76,53.729z"/>
				</g>
				<g>
					<path class="st66" d="M72.204,39.467l1.252,0.12L73.3,41.241l5.55,0.524l-0.147,1.563l-5.55-0.524l-0.158,1.667l-1.25-0.12
						L72.204,39.467z"/>
				</g>
				<g>
					<path class="st66" d="M77.644,36.406l-0.193-2.668l1.243-0.089L79,37.883l-6.812,0.493l-0.305-4.195l1.243-0.087l0.19,2.625
						l1.549-0.11l-0.172-2.344l1.234-0.092l0.169,2.346L77.644,36.406z"/>
				</g>
				<g>
					<path class="st66" d="M78.281,31.33l-6.689,1.378l-0.316-1.526l6.69-1.381L78.281,31.33z"/>
				</g>
				<g>
					<path class="st66" d="M74.494,25.583l2.411,0.386l0.65,1.77l-3.997-0.828l-2.449,3.094l-0.626-1.701l1.483-1.757l-2.25-0.327
						l-0.658-1.788l3.882,0.772l2.483-3.256l0.641,1.74L74.494,25.583z"/>
				</g>
				<g>
					<path class="st66" d="M72.507,19.262l-1.37-2.296l1.07-0.64l2.175,3.648l-5.868,3.498l-2.154-3.614l1.073-0.638l1.348,2.264
						l1.333-0.794l-1.205-2.021l1.063-0.634l1.204,2.021L72.507,19.262z"/>
				</g>
				<g>
					<path class="st66" d="M70.768,14.398l-5.354,4.239l-0.97-1.223l5.356-4.241L70.768,14.398z"/>
				</g>
				<g>
					<path class="st66" d="M65.397,11.858l1.631-1.722l1.135,1.072l-4.697,4.961l-1.716-1.625c-0.555-0.523-0.859-1.093-0.917-1.703
						c-0.057-0.614,0.137-1.157,0.583-1.627c0.668-0.707,1.434-0.908,2.292-0.607l0.545-3.098l1.355,1.28l-0.556,2.741
						L65.397,11.858z M63.203,14.176l1.323-1.397l-0.538-0.509c-0.489-0.465-0.963-0.455-1.418,0.023
						c-0.2,0.211-0.293,0.438-0.277,0.68c0.013,0.241,0.129,0.466,0.35,0.676L63.203,14.176z"/>
				</g>
				<g>
					<path class="st66" d="M59.081,3.997l-0.404,1.401l2.015,1.292l1.103-0.952l1.375,0.879l-5.609,4.52l-1.654-1.061l1.77-6.981
						L59.081,3.997z M59.695,7.545l-1.381-0.886c-0.457,1.549-0.772,2.548-0.951,3.004C57.556,9.433,58.337,8.728,59.695,7.545z"/>
				</g>
			</g>
		</g>
		<g>
			<path class="st66" d="M15.602,67.601"/>
		</g>
		<g>
			<g>
				<path class="st66" d="M38.734,0.994C17.93,0.994,1,17.924,1,38.729c0,11.502,5.154,22.233,14.135,29.444l0.755-1.291
					C7.363,59.957,2.477,49.71,2.477,38.729c0-19.993,16.264-36.26,36.258-36.26c5.17,0,10.138,1.062,14.795,3.148l0.75-1.28
					C49.391,2.12,44.17,0.994,38.734,0.994z"/>
			</g>
		</g>
	</g>
</g>
</svg>
