<?xml version="1.0" encoding="utf-8"?>
<!-- Generator: Adobe Illustrator 16.0.0, SVG Export Plug-In . SVG Version: 6.00 Build 0)  -->
<!DOCTYPE svg PUBLIC "-//W3C//DTD SVG 1.1//EN" "http://www.w3.org/Graphics/SVG/1.1/DTD/svg11.dtd">
<svg version="1.1" xmlns="http://www.w3.org/2000/svg" xmlns:xlink="http://www.w3.org/1999/xlink" x="0px" y="0px"
	 width="1139.878px" height="1920px" viewBox="0 0 1139.878 1920" style="enable-background:new 0 0 1139.878 1920;"
	 xml:space="preserve">
<style type="text/css">
<![CDATA[
	.st0{fill:none;stroke:#272525;stroke-width:4;stroke-miterlimit:10;}
	.st1{clip-path:url(#SVGID_18_);fill:none;stroke:#C72A7D;stroke-width:6;stroke-miterlimit:10;}
	.st2{fill:#7CC7EA;}
	.st3{clip-path:url(#SVGID_18_);fill:#C72A7D;}
	.st4{clip-path:url(#SVGID_20_);fill:#83C698;}
	.st5{fill:none;stroke:#32367C;stroke-width:4;stroke-miterlimit:10;}
	.st6{fill:none;stroke:#FAEC34;stroke-width:6.5491;stroke-miterlimit:10;}
	.st7{clip-path:url(#SVGID_24_);fill:none;stroke:#27A2DC;stroke-width:4.3661;stroke-miterlimit:10;}
	.st8{fill:#FFFFFF;stroke:#C72A7D;stroke-width:6;stroke-miterlimit:10;}
	.st9{clip-path:url(#SVGID_8_);fill:none;stroke:#000000;stroke-width:4;stroke-miterlimit:10;}
	.st10{clip-path:url(#SVGID_24_);fill:none;stroke:#FAEC34;stroke-width:4;stroke-miterlimit:10;}
	.st11{fill:none;stroke:#000000;stroke-width:5;stroke-miterlimit:10;}
	.st12{clip-path:url(#SVGID_10_);fill:none;stroke:#000000;stroke-width:4;stroke-miterlimit:10;}
	.st13{clip-path:url(#SVGID_16_);fill:none;}
	.st14{fill:#FFFF66;stroke:#000000;stroke-width:4;stroke-miterlimit:10;}
	.st15{fill:#F8EB35;stroke:#F8EB35;stroke-width:3.5625;stroke-miterlimit:10;}
	.st16{clip-path:url(#SVGID_10_);fill:#FFFFFF;stroke:#000000;stroke-width:4;stroke-miterlimit:10;}
	.st17{clip-path:url(#SVGID_26_);fill:none;stroke:#C72B7D;stroke-width:6;stroke-miterlimit:10;}
	.st18{fill:none;stroke:#C72A7D;stroke-width:4;stroke-miterlimit:10;}
	.st19{fill:none;stroke:#C72B7D;stroke-width:4;stroke-miterlimit:10;}
	.st20{clip-path:url(#SVGID_32_);fill:none;stroke:#34A157;stroke-width:6.5645;stroke-miterlimit:10;}
	.st21{clip-path:url(#SVGID_32_);fill:none;stroke:#32367C;stroke-width:6.0141;stroke-miterlimit:10;}
	.st22{fill:#83C698;}
	.st23{clip-path:url(#SVGID_18_);fill:none;stroke:#000000;stroke-width:6;stroke-miterlimit:10;}
	.st24{fill:none;stroke:#D1EBF7;stroke-width:6;stroke-miterlimit:10;}
	.st25{fill:none;stroke:#27A2DC;stroke-width:4.3661;stroke-miterlimit:10;}
	.st26{fill:#FFFFFF;stroke:#000000;stroke-width:6;stroke-miterlimit:10;}
	.st27{fill:#FFFFFF;stroke:#34A156;stroke-width:6;stroke-miterlimit:10;}
	.st28{fill:none;stroke:#FFFFFF;stroke-miterlimit:10;}
	.st29{fill:#FAEC34;stroke:#000000;stroke-width:4;stroke-miterlimit:10;}
	.st30{fill:none;stroke:#000000;stroke-width:4;stroke-miterlimit:10;}
	.st31{clip-path:url(#SVGID_30_);fill:none;stroke:#FAEC34;stroke-width:4;stroke-miterlimit:10;}
	.st32{clip-path:url(#SVGID_32_);fill:none;stroke:#C72B7D;stroke-width:6.0141;stroke-miterlimit:10;}
	.st33{fill:none;stroke:#34A156;stroke-width:4;stroke-miterlimit:10;}
	.st34{fill:#F2D2E3;}
	.st35{fill:#26A1DB;}
	.st36{fill:#27A1DB;}
	.st37{fill:#27A2DC;}
	.st38{fill:#5D5D5D;}
	.st39{fill:#C72A7D;stroke:#000000;stroke-width:4;stroke-miterlimit:10;}
	.st40{clip-path:url(#SVGID_20_);fill:#FFFFFF;stroke:#34A156;stroke-width:6;stroke-miterlimit:10;}
	.st41{fill:#F8EB35;}
	.st42{clip-path:url(#SVGID_18_);fill:#DD7FAF;}
	.st43{clip-path:url(#SVGID_8_);}
	.st44{clip-path:url(#SVGID_18_);fill:#FFFFFF;stroke:#C72A7D;stroke-width:6;stroke-miterlimit:10;}
	.st45{stroke:#000000;stroke-width:4;stroke-miterlimit:10;}
	.st46{fill:none;stroke:#27A1DB;stroke-width:6;stroke-miterlimit:10;}
	.st47{fill:#FFFFFF;stroke:#C72A7D;stroke-width:4;stroke-miterlimit:10;}
	.st48{fill:#C6C6C6;}
	.st49{fill:#FAEC34;}
	.st50{clip-path:url(#SVGID_26_);fill:none;stroke:#FAEC34;stroke-width:6;stroke-miterlimit:10;}
	.st51{fill:#C72A7D;}
	.st52{fill:#C72B7D;}
	.st53{fill:none;stroke:#FAEC34;stroke-width:4;stroke-miterlimit:10;}
	.st54{fill:none;stroke:#FFFF66;stroke-width:4;stroke-miterlimit:10;}
	.st55{clip-path:url(#SVGID_20_);fill:#34A156;}
	.st56{clip-path:url(#SVGID_32_);fill:none;stroke:#FAEC34;stroke-width:6.0141;stroke-miterlimit:10;}
	.st57{clip-path:url(#SVGID_16_);fill:none;stroke:#FAEC34;stroke-width:3.6282;stroke-miterlimit:10;}
	.st58{fill:none;stroke:#000000;stroke-width:3;stroke-miterlimit:10;}
	.st59{fill:#FFFFFF;}
	.st60{fill:none;stroke:#000000;stroke-width:3.8428;stroke-miterlimit:10;}
	.st61{clip-path:url(#SVGID_30_);fill:none;stroke:#34A157;stroke-width:4.3661;stroke-miterlimit:10;}
	.st62{fill:none;stroke:#FAEC34;stroke-width:4.3661;stroke-miterlimit:10;}
	.st63{fill:none;}
	.st64{clip-path:url(#SVGID_24_);fill:none;stroke:#32367C;stroke-width:4;stroke-miterlimit:10;}
	.st65{clip-path:url(#SVGID_20_);fill:#D4EBDB;}
	.st66{fill:none;stroke:#D1EBF7;stroke-width:4;stroke-miterlimit:10;}
	.st67{fill:#32367C;}
	.st68{clip-path:url(#SVGID_20_);fill:none;stroke:#000000;stroke-width:6;stroke-miterlimit:10;}
	.st69{fill:#FFFFFF;stroke:#000000;stroke-width:4;stroke-miterlimit:10;}
	.st70{fill:#34A156;}
	.st71{fill:#34A157;}
	.st72{clip-path:url(#SVGID_24_);fill:none;stroke:#C72B7D;stroke-width:4;stroke-miterlimit:10;}
	.st73{clip-path:url(#SVGID_20_);fill:none;stroke:#34A156;stroke-width:6;stroke-miterlimit:10;}
	.st74{fill:none;stroke:#C72A7D;stroke-width:6;stroke-miterlimit:10;}
	.st75{fill:#FFFFFF;stroke:#34A156;stroke-width:4;stroke-miterlimit:10;}
	.st76{stroke:#000000;stroke-width:3;stroke-miterlimit:10;}
	.st77{fill:none;stroke:#FFFFFF;stroke-width:4;stroke-miterlimit:10;}
	.st78{fill:none;stroke:#7CC7EA;stroke-width:4;stroke-miterlimit:10;}
	.st79{fill:#D1EBF7;}
	.st80{fill:none;stroke:#34A157;stroke-width:4.3661;stroke-miterlimit:10;}
	.st81{fill:#D4EBDB;}
	.st82{fill:none;stroke:#000000;stroke-width:5.2992;stroke-miterlimit:10;}
	.st83{clip-path:url(#SVGID_30_);fill:none;stroke:#32367C;stroke-width:4;stroke-miterlimit:10;}
	.st84{fill:none;stroke:#FFFFFF;stroke-width:1.4794;stroke-miterlimit:10;}
	.st85{clip-path:url(#SVGID_10_);}
	.st86{clip-path:url(#SVGID_12_);}
	.st87{clip-path:url(#SVGID_14_);}
	.st88{clip-path:url(#SVGID_16_);}
	.st89{clip-path:url(#SVGID_18_);}
	.st90{clip-path:url(#SVGID_20_);}
	.st91{clip-path:url(#SVGID_22_);}
	.st92{fill:none;stroke:#000000;stroke-width:6;stroke-miterlimit:10;}
	.st93{clip-path:url(#SVGID_18_);fill:#F2D2E3;}
	.st94{clip-path:url(#SVGID_8_);fill:#FFFFFF;stroke:#000000;stroke-width:4;stroke-miterlimit:10;}
	.st95{fill:none;stroke:#272525;stroke-width:3.5625;stroke-miterlimit:10;}
	.st96{clip-path:url(#SVGID_28_);fill:none;stroke:#27A2DC;stroke-width:6.5491;stroke-miterlimit:10;}
	.st97{fill:none;stroke:#34A156;stroke-width:6;stroke-miterlimit:10;}
	.st98{clip-path:url(#SVGID_28_);fill:none;stroke:#32367C;stroke-width:6;stroke-miterlimit:10;}
	.st99{fill:none;stroke:#27A1DB;stroke-width:4;stroke-miterlimit:10;}
	.st100{clip-path:url(#SVGID_30_);fill:none;stroke:#C72B7D;stroke-width:4;stroke-miterlimit:10;}
	.st101{fill:#DD7FAF;}
	.st102{clip-path:url(#SVGID_12_);fill:none;stroke:#000000;stroke-width:4;stroke-miterlimit:10;}
]]>
</style>
<g id="Layer_1">
</g>
<g id="Layer_2">
	<path class="st6" d="M1083.487,1802.912c-143.792,9.298-267.886-99.747-277.178-243.532
		c-9.299-143.787,99.737-267.887,243.529-277.18c143.786-9.293,267.903,99.733,277.195,243.512
		C1336.325,1669.502,1227.287,1793.618,1083.487,1802.912z"/>
	<g>
		<path class="st63" d="M917.653,1158.292c7.858,5.537,15.857,10.007,23.597,12.625c-2.309-7.78-6.787-15.638-13.117-24.281
			l-10.865,11.094C917.365,1157.91,917.558,1158.098,917.653,1158.292z"/>
		<polygon class="st63" points="812.2,1266.449 799.104,1273.461 806.091,1286.505 819.186,1279.487 		"/>
		<path class="st63" d="M827.71,1221.554l-20.473,10.961l8.056,15.043c0.454,0.833,0.856,1.599,1.3,2.417l20.471-10.968
			L827.71,1221.554z"/>
		
			<rect x="733.017" y="1292.144" transform="matrix(-0.322 -0.9467 0.9467 -0.322 -253.7469 2412.396)" class="st63" width="7.823" height="9.825"/>
		<polygon class="st63" points="744.679,1298.555 753.093,1295.693 750.576,1288.293 742.154,1291.151 		"/>
		<polygon class="st63" points="734.161,1304.178 736.786,1311.902 746.087,1308.734 743.462,1301.013 		"/>
		<polygon class="st63" points="747.929,1308.114 756.336,1305.251 753.718,1297.528 745.305,1300.392 		"/>
		<path class="st52" d="M728.557,1293.72l8.476,24.941l1.834-0.624l-1.464-4.308l19.563-6.65l1.203,3.555l1.841-0.626l-8.22-24.183
			L728.557,1293.72z M736.786,1311.902l-2.625-7.724l9.301-3.165l2.625,7.721L736.786,1311.902z M756.336,1305.251l-8.407,2.863
			l-2.624-7.723l8.413-2.864L756.336,1305.251z M733.537,1302.342l-2.519-7.406l9.301-3.164l2.519,7.405L733.537,1302.342z
			 M753.093,1295.693l-8.415,2.862l-2.524-7.404l8.422-2.858L753.093,1295.693z"/>
		<path class="st52" d="M735.524,1277.657l3.679,10.828l1.834-0.626l-3.784-11.142c4.197,1.326,12.367,4.195,14.911,5.448
			l0.586-2.026c-2.499-0.917-12.928-4.373-16.102-5.195l-0.127-0.378l11.585-3.942l-0.624-1.83l-6.646,2.264
			c0.55-2.955,0.994-6.838,1.352-10.141l-2.179-0.176c-0.09,3.062-0.525,7.798-1.138,10.974l-2.977,1.012l-3.785-11.135
			c3.923-1.971,7.419-3.936,10.074-5.681l-1.958-1.18c-4.901,3.435-15.083,8.163-23.29,11.663c0.488,0.398,0.962,0.944,1.256,1.413
			c3.841-1.591,8.076-3.452,12.172-5.338l3.695,10.891l-13.732,4.658l0.62,1.836l13.421-4.558c-1.491,6.436-5.628,14.2-9.362,18.579
			c0.571,0.228,1.279,0.835,1.699,1.258C730.148,1290.922,733.699,1283.924,735.524,1277.657z"/>
		<path class="st52" d="M758.455,1251.435l0.627,1.833l9.932-3.378l8.61,25.316c-2.147,5.53-4.441,11.047-5.959,14.455l1.927,0.899
			c1.525-3.83,3.332-8.266,4.983-12.565l6.967,20.506c0.279,0.826,0.092,1.098-0.541,1.314c-0.616,0.276-2.887,1.051-5.444,1.85
			c0.53,0.533,1.146,1.308,1.47,1.833c2.979-1.011,4.916-1.741,5.797-2.464c0.886-0.731,1.027-1.557,0.493-3.136l-17.154-50.446
			L758.455,1251.435z"/>
		<path class="st52" d="M773.811,1302.415l-17.128-50.379l-11.522,3.914l0.628,1.841l9.75-3.318l8.447,24.876
			c-2.372,5.891-4.76,11.721-6.57,15.365l1.875,0.92c1.667-4.023,3.73-8.756,5.629-13.566l7.141,21.017
			c0.28,0.827,0.151,1.075-0.606,1.338c-0.612,0.272-2.952,1.065-5.634,1.909c0.535,0.531,1.214,1.291,1.514,1.75
			c3.036-1.037,5.06-1.724,6.013-2.472C774.227,1304.888,774.37,1304.069,773.811,1302.415z"/>
		<path class="st52" d="M728.674,1273.699c-1.174-1.579-3.554-4.225-5.435-6.205l-1.579,0.963c1.958,2.02,4.26,4.833,5.542,6.529
			L728.674,1273.699z"/>
		<path class="st52" d="M773.679,1270.264c-1.913-2.74-6-7.068-9.522-10.172l-1.309,1.146c3.469,3.125,7.597,7.589,9.553,10.447
			L773.679,1270.264z"/>
		<path class="st52" d="M749.367,1265.61c3.34,3.38,7.257,8.269,9.066,11.321l1.41-1.476c-1.836-2.9-5.691-7.59-9.176-10.997
			L749.367,1265.61z"/>
		<polygon class="st52" points="782.907,1253.142 803.494,1242.114 802.579,1240.405 781.988,1251.427 		"/>
		<path class="st52" d="M813.056,1263.788l-16.576,8.882l10.454,19.525l1.722-0.913l-1.647-3.068l14.862-7.966L813.056,1263.788z
			 M799.104,1273.461l13.096-7.012l6.985,13.038l-13.094,7.019L799.104,1273.461z"/>
		<path class="st52" d="M839.567,1239.869l-11.182-20.876l-23.716,12.704l8.971,16.745c4.964,9.266,10.892,22.029,9.329,34.561
			c0.573,0.074,1.443,0.288,1.899,0.576c1.395-11.149-2.911-22.73-7.417-31.858l10.382-5.56
			c8.97,11.517,18.825,18.994,29.279,19.245c0.014-0.689,0.226-1.568,0.451-2.143c-9.941,0.161-19.66-7.09-28.139-17.957
			L839.567,1239.869z M816.593,1249.976c-0.443-0.819-0.846-1.585-1.3-2.417l-8.056-15.043l20.473-10.961l9.354,17.453
			L816.593,1249.976z"/>
		<path class="st52" d="M784.661,1236.568l-0.916,1.55c2.904,1.326,6.62,3.44,8.614,5.03l1.052-1.854
			C791.392,1239.79,787.78,1237.855,784.661,1236.568z"/>
		<polygon class="st52" points="805.438,1250.561 804.52,1248.852 788.24,1257.575 789.162,1259.28 		"/>
		<polygon class="st52" points="809.482,1258.112 808.564,1256.403 792.291,1265.124 793.202,1266.84 		"/>
		<path class="st52" d="M868.913,1237.984c-3.278-4.313-3.307-10.418-0.56-18.065c2.689-7.839,7.762-17.835,10.058-22.778
			c0.684-1.529,1.223-2.691,1.605-3.737l-2.175-0.873c-0.272,1.309-0.7,2.386-1.279,3.836c-1.868,4.28-6.319,12.789-9.213,20.459
			c-5.556-2.323-13.345-6.48-20.136-10.891l-1.19,2.088c7.047,3.96,15.257,8.452,20.637,10.657l-0.235,0.693
			c-3.054,8.798-2.588,15.248,1.021,19.986c5.097,6.699,13.848,4.832,23.097-2.217c6.33-4.812,12.496-10.513,15.417-13.741
			l-1.46-1.927c-2.781,3.634-9.267,9.578-15.334,14.201C879.856,1242.761,872.681,1242.932,868.913,1237.984z"/>
		<path class="st52" d="M932.81,1141.861l-1.385-1.359l-15.075,15.387c-1.977-3.618-4.19-7.289-6.688-10.854l-1.645,1.198
			c6.583,9.439,11.844,19.649,13.261,28.348c0.56-0.194,1.65-0.446,2.171-0.499c-0.845-3.915-2.313-8.165-4.244-12.491
			c7.617,5.127,15.323,9.109,22.68,11.543c1.834,7.697,1.626,15.358-1.033,23.522c0.619-0.055,1.657,0.031,2.178,0.166
			c2.334-8.017,2.679-15.549,1.042-22.958c7.164,2.053,14.026,2.413,20.353,0.639c-0.191-0.655-0.158-1.547-0.076-2.22
			c-6.36,2.004-13.416,1.558-20.817-0.629c-2.224-8.542-6.993-17.057-13.944-26.498L932.81,1141.861z M941.25,1170.917
			c-7.739-2.619-15.738-7.089-23.597-12.625c-0.096-0.194-0.288-0.382-0.386-0.562l10.865-11.094
			C934.463,1155.28,938.941,1163.137,941.25,1170.917z"/>
		<path class="st52" d="M931.313,1180.666l-1.475-1.251l-8.389,12.286l-3.009-2.95c1.18-4.464,1.887-10.24,1.5-14.831l-1.652,0.354
			l-0.183,0.377l-9.83,10.043c0.101-2.986-0.019-6.009-0.284-8.988l9.323-9.514l-1.396-1.359l-8.138,8.32
			c-0.874-6.19-2.499-12.37-5.07-18.542l-1.781,0.966c2.657,6.357,4.381,12.913,5.023,19.439l-2.017,2.055l-6.261-6.136l5.434-5.544
			l-1.383-1.355l-5.441,5.541l-5.734-5.616l-1.354,1.388l5.734,5.617l-7.069,7.22l1.389,1.351l7.063-7.218l6.262,6.136l-9.176,9.366
			l1.384,1.361l11.38-11.615c0.45,7.096-0.233,14.097-2.049,20.838c0.661-0.101,1.743-0.252,2.26-0.212
			c0.866-3.462,1.397-6.969,1.691-10.525l10.11-10.319c-0.005,3.739-0.575,8.432-1.718,12.177l3.872,3.792
			c-3.265,4.671-6.195,8.909-8.442,12.149l1.766,1.073c2.238-3.246,5.076-7.385,8.067-11.863l9.743,9.555
			c0.576,0.556,0.581,0.842-0.031,1.557c-0.605,0.714-2.521,2.77-5.426,5.544c0.758,0.187,1.42,0.461,1.938,0.787
			c3.053-3.101,4.926-5.015,5.579-6.254c0.597-1.194,0.445-1.9-0.7-3.025l-9.987-9.783
			C925.585,1189.001,928.477,1184.813,931.313,1180.666z"/>
		<path class="st52" d="M953.231,1134.479l10.903,7.657c5.043,3.539,10.603,8.668,11.381,17.229
			c0.481-0.234,1.473-0.358,2.006-0.309c-0.816-9.084-6.904-14.739-12.223-18.481l-9.363-6.569l21.103-30.072l11.997,8.416
			c-5.133,11.287-10.652,23.108-14.286,30.616l2.28,0.363c3.744-7.994,8.736-19.206,13.487-29.938l10.079,7.076
			c0.768,0.54,0.845,1.008,0.29,1.92c-0.523,0.862-2.558,3.762-5.32,7.467c0.69,0.073,1.519,0.166,2.091,0.399
			c3.028-4.329,4.764-6.795,5.28-8.229c0.478-1.382,0.145-2.188-1.226-3.149l-25.146-17.646L953.231,1134.479z"/>
		<path class="st52" d="M946.795,1133.403c0.708,0.167,1.771,0.507,2.279,0.7c0.436-1.656,1.885-4.078,20.854-34.827
			c2.952-0.714,5.69-1.238,7.759-1.504l-0.245-1.969c-5.326,0.583-14.38,3.233-21.301,5.978l0.037,1.824
			c3.465-1.331,7.415-2.639,11.174-3.689l-18.36,29.547c-0.253-4.999-1-10.343-2.11-15.867l20.446-29.143l-1.586-1.121
			l-19.413,27.669c-0.676-3.008-1.466-6.179-2.248-9.268l-1.998,0.976c1.087,3.46,1.969,7.103,2.704,10.481l-12.412,17.694
			l1.584,1.111l11.309-16.106c0.969,5.021,1.517,9.249,1.679,11.002C947.281,1129.906,947.379,1132.341,946.795,1133.403z"/>
		<path class="st52" d="M961.675,1133.864l0.937,1.472c6.39-6.542,15.392-14.13,20.984-17.564l-1.24-1.606
			C976.819,1119.645,967.905,1127.209,961.675,1133.864z"/>
		<path class="st52" d="M387.689,1236.553c-95.999-58.909-163.969-151.525-191.395-260.788
			C138.793,746.68,278.389,513.52,507.476,456.018c229.086-57.502,462.243,82.094,519.745,311.18
			c26.638,106.11,11.995,217.046-41.175,312.546l5.36,3.862c54.29-97.117,69.274-210.022,42.167-318.002
			c-58.382-232.591-295.1-374.318-527.691-315.936c-232.593,58.383-374.32,295.1-315.938,527.692
			c27.845,110.933,96.854,204.965,194.318,264.775c97.27,59.688,212.042,78.714,323.207,53.586l-2.135-6.251
			C596.058,1313.987,483.289,1295.22,387.689,1236.553z"/>
	</g>
	<g>
		<g>
			<path class="st35" d="M114.788,1208.856l-2.546,1.15l-3.803-8.347l-27.586,12.548l-1.259-2.774l27.584-12.554l-3.787-8.309
				l2.545-1.166L114.788,1208.856z"/>
			<path class="st35" d="M104.122,1231.355l-2.707-5.296l-11.979,6.146l-1.394-2.71l29.47-15.108l3.404,6.653
				c1.756,3.44,2.302,6.408,1.611,8.909c-0.678,2.506-2.455,4.482-5.31,5.959c-2.014,0.962-3.996,1.269-5.968,0.951
				c-1.963-0.312-3.702-1.296-5.21-2.96l-8.448,14.218l-1.66-3.234L104.122,1231.355z M103.812,1224.831l2.444,4.771
				c1.1,2.155,2.557,3.498,4.347,4.062c1.795,0.548,3.579,0.378,5.354-0.536c4.285-2.2,5.187-5.721,2.706-10.557l-2.168-4.238
				L103.812,1224.831z"/>
			<path class="st35" d="M112.614,1274.345l6.365-7.341l-7.361-12.639l-9.557,1.856l-1.656-2.841l34.498-6.557l2.226,3.812
				l-22.857,26.562L112.614,1274.345z M114.418,1253.811l6.447,11.075l12.945-14.862
				C129.896,1250.862,123.438,1252.115,114.418,1253.811z"/>
			<path class="st35" d="M119.056,1284.81l27.565-18.331l2.313,3.467l-14.73,31.153c2.796-1.944,7.069-4.816,12.825-8.647
				l11.697-7.776l1.683,2.531l-27.558,18.331l-2.316-3.467l14.735-31.165c-2.909,2.014-7.2,4.917-12.867,8.679l-11.662,7.76
				L119.056,1284.81z"/>
			<path class="st35" d="M169.74,1304.431c-1.317-1.758-2.783-2.846-4.402-3.281c-1.603-0.429-3.094-0.127-4.45,0.884
				c-1.419,1.062-2.096,2.512-2.032,4.349c0.023,1.496,0.242,3.088,0.664,4.777c0.42,1.683,0.702,2.846,0.831,3.491
				c0.128,0.629,0.239,1.492,0.315,2.583c0.078,1.081,0.025,1.978-0.142,2.684c-0.453,1.898-1.477,3.431-3.05,4.609
				c-2.309,1.732-4.649,2.27-7.024,1.637c-2.377-0.633-4.528-2.232-6.453-4.805c-1.923-2.563-3.026-5.238-3.306-8.011l2.723-2.035
				c-0.018,1.235,0.243,2.63,0.782,4.172c0.536,1.526,1.395,3.091,2.572,4.667c1.175,1.573,2.563,2.565,4.15,2.991
				c1.586,0.433,3.051,0.148,4.386-0.848c1.337-1.013,2.067-2.162,2.181-3.48c0.142-1.452-0.166-3.727-0.921-6.791
				c-0.683-2.894-0.996-4.689-0.952-5.394c0.045-0.715,0.103-1.426,0.18-2.129c0.078-0.716,0.249-1.311,0.504-1.797
				c0.705-1.292,1.548-2.314,2.544-3.063c2.234-1.676,4.567-2.175,7.011-1.501c2.436,0.669,4.503,2.128,6.192,4.378
				c1.682,2.259,2.684,4.414,3,6.475l-2.713,2.033c-0.051-0.953-0.319-2.042-0.792-3.281
				C171.057,1306.508,170.455,1305.402,169.74,1304.431z"/>
			<path class="st35" d="M160.901,1338.008l9.274,11.264l-2.162,1.79l-11.206-13.618l25.538-21.046l1.939,2.348L160.901,1338.008z"
				/>
			<path class="st35" d="M188.607,1373.952l4.655-8.525l-9.882-10.789l-8.93,3.844l-2.218-2.443l32.311-13.706l2.993,3.258
				l-16.705,30.779L188.607,1373.952z M186.011,1353.486l8.647,9.471l9.501-17.275
				C200.516,1347.333,194.471,1349.923,186.011,1353.486z"/>
			<path class="st35" d="M233.305,1371.873l-1.963,1.997l-6.542-6.454l-21.279,21.578l-2.162-2.133l21.272-21.582l-6.498-6.414
				l1.963-1.996L233.305,1371.873z"/>
			<path class="st35" d="M215.692,1400.616l22.437-24.349l2.238,2.054l-22.43,24.348L215.692,1400.616z"/>
			<path class="st35" d="M235.737,1418.856c-3.378-2.852-5.079-6.332-5.111-10.438c-0.04-4.091,1.625-8.122,4.97-12.082
				c3.343-3.964,7.014-6.305,10.994-6.987c3.99-0.68,7.714,0.427,11.167,3.342c3.453,2.924,5.168,6.378,5.142,10.363
				c-0.018,3.984-1.733,7.988-5.123,12.003c-3.39,4.017-7.061,6.357-11.026,7.048
				C242.784,1422.788,239.121,1421.693,235.737,1418.856z M255.832,1394.938c-2.73-2.323-5.687-3.167-8.839-2.555
				c-3.154,0.614-6.145,2.599-8.979,5.955c-2.826,3.35-4.271,6.666-4.315,9.952c-0.054,3.282,1.285,6.057,3.979,8.347
				c2.703,2.276,5.613,3.094,8.735,2.441c3.108-0.637,6.1-2.66,8.966-6.05c2.859-3.396,4.337-6.675,4.434-9.855
				C259.905,1399.989,258.577,1397.247,255.832,1394.938z"/>
			<path class="st35" d="M254.712,1433.859l19.731-26.578l3.344,2.492l-3.313,34.293c1.969-2.769,5.02-6.93,9.139-12.483
				l8.377-11.28l2.442,1.816l-19.729,26.579l-3.352-2.476l3.315-34.311c-2.055,2.877-5.111,7.047-9.167,12.521l-8.347,11.236
				L254.712,1433.859z"/>
			<path class="st35" d="M316.929,1476.29l-1.469-5.174c-3.577,0.979-7.267,0.312-11.039-2.048c-2.017-1.28-3.614-2.789-4.811-4.509
				c-1.189-1.708-1.816-3.557-1.893-5.526c-0.071-1.969,0.504-3.939,1.726-5.92c1.119-1.735,2.552-3.105,4.318-4.113
				c1.758-1.011,3.582-1.544,5.469-1.606c-0.084-1.79,0.356-3.479,1.342-5.065c0.844-1.368,1.938-2.431,3.268-3.181
				c1.332-0.748,2.808-1.099,4.432-1.046c1.619,0.07,3.236,0.588,4.851,1.592c1.276,0.793,2.339,1.66,3.183,2.604
				c0.839,0.945,1.644,2.038,2.41,3.284l-2.741,1.827c-0.142-0.213-0.41-0.591-0.782-1.18c-0.372-0.574-0.832-1.182-1.387-1.808
				c-0.549-0.636-1.362-1.268-2.411-1.932c-1.395-0.864-2.801-1.104-4.194-0.737c-1.402,0.365-2.471,1.145-3.212,2.341
				c-0.76,1.235-1.1,2.463-1.037,3.729c0.066,1.253,0.441,3.102,1.115,5.569l3.447,12.819c2.167-1.33,4.266-3.377,6.3-6.16
				l2.024,2.691c-2.225,3.226-4.623,5.572-7.212,7.087l1.478,5.265L316.929,1476.29z M314.481,1467.565l-4.055-14.358
				c-0.328-1.157-0.519-1.986-0.596-2.499c-1.324,0.023-2.597,0.415-3.819,1.181c-1.229,0.77-2.282,1.836-3.178,3.211
				c-1.298,2.111-1.578,4.184-0.817,6.192c0.76,2.008,2.149,3.647,4.181,4.898C309.01,1467.937,311.774,1468.39,314.481,1467.565z"
				/>
			<path class="st35" d="M342.199,1486.898l13.208,6.864l-1.293,2.487l-15.905-8.277l15.28-29.367l15.643,8.134l-1.292,2.481
				l-12.945-6.732l-5.719,10.995l11.429,5.927l-1.296,2.487l-11.417-5.941L342.199,1486.898z"/>
			<path class="st35" d="M376.026,1470.187l8.588,3.896c4.414,2.007,7.405,5.025,8.985,9.068c1.586,4.024,1.362,8.264-0.658,12.7
				c-2.675,5.874-6.858,9.205-12.536,9.998c-2.974,0.44-6.072-0.071-9.3-1.53l-8.793-4.016L376.026,1470.187z M366.24,1499.018
				l6.038,2.745c2.052,0.938,4.036,1.412,5.941,1.418c1.899,0,3.594-0.401,5.077-1.202c2.961-1.604,5.212-4.098,6.761-7.496
				c1.548-3.396,1.727-6.809,0.539-10.251c-1.185-3.439-3.57-5.966-7.153-7.598l-5.805-2.648L366.24,1499.018z"/>
			<path class="st35" d="M418.229,1510.423l7.438-19.29l2.848,1.093l-7.421,19.214c-1.521,3.967-3.645,6.6-6.357,7.893
				c-2.703,1.277-5.8,1.245-9.278-0.091c-3.483-1.336-5.808-3.37-6.946-6.103c-1.143-2.71-0.977-5.985,0.499-9.812l7.552-19.57
				l2.842,1.102l-7.54,19.521c-1.191,3.082-1.337,5.64-0.443,7.643c0.891,2.021,2.573,3.49,5.047,4.451
				C411.937,1518.59,415.858,1516.567,418.229,1510.423z"/>
			<path class="st35" d="M450.764,1502.217c-3.614-1.164-7.022-0.909-10.232,0.768c-3.198,1.667-5.449,4.521-6.741,8.544
				c-1.286,4.009-1.139,7.636,0.454,10.867c1.598,3.229,4.368,5.485,8.326,6.754c3.088,0.99,5.922,1.016,8.508,0.046l-1.024,3.176
				c-2.34,0.736-5.175,0.561-8.499-0.512c-4.774-1.526-8.163-4.213-10.163-8.052c-1.997-3.85-2.202-8.224-0.627-13.13
				c1.573-4.905,4.353-8.367,8.333-10.354c3.971-1.989,8.184-2.265,12.643-0.833c3.083,0.997,5.558,2.397,7.412,4.234l-0.978,3.044
				c-1.144-1.164-2.2-2.06-3.16-2.69C454.051,1503.438,452.632,1502.824,450.764,1502.217z"/>
			<path class="st35" d="M479.629,1542.051l-0.737-9.688l-14.172-3.663l-5.398,8.086l-3.171-0.834l19.62-29.101l4.274,1.109
				l2.773,34.919L479.629,1542.051z M466.308,1526.316l12.413,3.209l-1.446-19.659
				C475.112,1513.236,471.451,1518.723,466.308,1526.316z"/>
			<path class="st35" d="M515.827,1515.922l-0.569,2.744l-9-1.842l-6.089,29.675l-2.987-0.607l6.098-29.687l-8.95-1.839l0.563-2.739
				L515.827,1515.922z"/>
			<path class="st35" d="M516.761,1549.616l5.552-32.633l3,0.519l-5.552,32.625L516.761,1549.616z"/>
			<path class="st35" d="M543.514,1554.004c-4.387-0.559-7.706-2.536-9.963-5.959c-2.265-3.413-3.077-7.699-2.425-12.853
				c0.646-5.142,2.449-9.081,5.417-11.844c2.974-2.739,6.695-3.824,11.179-3.264c4.479,0.562,7.81,2.52,9.958,5.879
				c2.156,3.352,2.897,7.642,2.246,12.854c-0.659,5.211-2.463,9.186-5.411,11.923
				C551.566,1553.465,547.901,1554.558,543.514,1554.004z M547.332,1523.003c-3.556-0.448-6.485,0.439-8.807,2.678
				c-2.303,2.232-3.735,5.534-4.284,9.888c-0.544,4.355,0.051,7.921,1.803,10.696c1.752,2.768,4.375,4.38,7.879,4.821
				c3.518,0.438,6.396-0.456,8.66-2.694s3.671-5.571,4.221-9.964c0.551-4.406,0-7.961-1.649-10.68
				C553.498,1525.022,550.895,1523.443,547.332,1523.003z"/>
			<path class="st35" d="M567.395,1556.254l2.073-33.04l4.17,0.255l15.894,30.583c0.153-3.401,0.441-8.556,0.876-15.457l0.882-14.02
				l3.032,0.197l-2.073,33.048l-4.162-0.276l-15.907-30.563c-0.154,3.522-0.441,8.699-0.864,15.489l-0.875,13.967L567.395,1556.254z
				"/>
		</g>
		<g>
			<path class="st37" d="M40.594,968.123c0-316.35,257.367-573.717,573.715-573.717c316.345,0,573.71,257.367,573.71,573.717
				c0,316.348-257.366,573.716-573.711,573.716v-6.549c312.735,0,567.163-254.428,567.164-567.167
				c0-312.739-254.428-567.166-567.163-567.166c-312.737,0-567.167,254.427-567.167,567.166c0,72.511,13.49,143.124,40.101,209.883
				l-6.088,2.423C54.241,1112.897,40.594,1041.468,40.594,968.123z"/>
		</g>
	</g>
	<g>
		<g>
			<path class="st71" d="M165.812,878.233c-69.408-134.463-73.804-295.21-6.353-437.045l5.78,2.746
				c-85.88,180.56-53.752,392.189,81.819,539.147c88.139,95.545,208.208,151.052,338.09,156.297
				c129.886,5.245,254.036-40.406,349.576-128.545c197.247-181.949,209.702-490.435,27.75-687.699
				c-133.914-145.18-340.257-194.981-525.687-126.875l-2.206-6.003c187.867-68.999,396.922-18.542,532.595,128.543
				c184.333,199.831,171.727,512.387-28.117,696.735c-96.798,89.294-222.576,135.543-354.167,130.232
				c-131.587-5.313-253.234-61.55-342.537-158.353C211.499,953.964,185.923,917.197,165.812,878.233z"/>
		</g>
		<g>
			<path class="st71" d="M358.958,211.244c-0.732-1.501-0.688-2.337,0.091-3.168c0.784-0.826,2.625-1.805,5.455-3.184
				c0.383,0.493,1.087,1.186,1.682,1.642c-2.434,1.111-4.598,2.164-5.164,2.516c-0.61,0.299-0.76,0.594-0.383,1.377l9.506,19.482
				c1.089-4.475,2.34-9.107,3.372-13.102l2.019,0.646c-1.085,3.587-2.676,9.345-4.108,15.105l11.739,24.057l9.442-4.603l0.844,1.747
				l-11.124,5.418L358.958,211.244z M371.802,205.06c-0.765-1.567-0.722-2.404,0.058-3.234c0.852-0.862,2.773-1.794,5.662-3.198
				c0.349,0.424,1.12,1.083,1.715,1.54c-2.549,1.169-4.777,2.259-5.358,2.613c-0.714,0.346-0.804,0.617-0.428,1.402l9.729,19.967
				c1.294-5.023,2.742-9.974,3.895-14.18l1.962,0.679c-1.326,3.844-2.963,9.934-4.58,16.088l11.521,23.633l9.258-4.517l0.854,1.739
				l-10.947,5.343L371.802,205.06z M417.831,208.008l-22.083,10.761l-11.197-22.977l1.733-0.851l1.649,3.362l18.574-9.053
				l-1.982-4.093l1.747-0.853L417.831,208.008z M388.782,200.054l3.571,7.34l8.007-3.899l-3.583-7.333L388.782,200.054z
				 M398.521,195.301l3.586,7.341l8.845-4.311l-3.574-7.343L398.521,195.301z M396.64,216.172l8.002-3.906l-3.428-7.032
				l-7.991,3.901L396.64,216.172z M415.237,207.108l-3.443-7.037l-8.833,4.309l3.42,7.044L415.237,207.108z M412.156,227.661
				c-3.264-0.409-14.045-2.529-16.643-3.127l0.319-2.086c2.69,0.916,11.165,2.75,15.501,3.537l-5.16-10.584l1.733-0.854
				l5.021,10.286c1.03-6.456,3.678-13.846,6.565-18.461c0.473,0.361,1.246,0.882,1.836,1.048c-3.163,4.805-6.298,13.038-6.95,19.614
				l12.741-6.216l0.855,1.739l-13.053,6.363l5.052,10.348c3.807-2.387,7.788-4.771,11.402-6.832
				c0.349,0.428,0.884,0.906,1.421,1.249c-7.699,4.492-17.222,10.477-21.652,14.497l-2.087-0.92
				c2.403-2.064,5.632-4.454,9.278-6.901l-5.163-10.589l-2.829,1.379c-0.204,3.232-0.038,7.988,0.257,11.042l-2.182,0.095
				c-0.057-3.317-0.11-7.242,0.064-10.224l-6.314,3.079l-0.845-1.75l11.006-5.365L412.156,227.661z M399.555,239.837
				c-3.895-2.941-8.322-7.113-10.501-9.774l1.208-1.619c2.194,2.801,6.698,7.15,10.445,10.086L399.555,239.837z M386.71,245.882
				c-3.897-2.644-8.489-6.436-10.744-8.907l1.1-1.581c2.304,2.6,6.956,6.507,10.798,9.181L386.71,245.882z M426.391,233.377
				c-2.104-1.733-4.8-4.057-6.156-5.483l1.292-1.455c1.476,1.519,4.122,4.025,6.322,5.777L426.391,233.377z"/>
			<path class="st71" d="M332.433,237.857c-0.474-0.333-1.165-0.75-1.477-0.853c4.092-10.367,4.646-11.805,4.725-12.99l0.154,0.217
				c0.025-0.094-0.059-0.201-0.091-0.264c0.479,0.234,1.494,0.524,2.158,0.557c-0.457,1.124-1.08,3.987,0.62,6.473l15.429,22.473
				l9.27-6.36l1.1,1.601l-10.889,7.461l-17.758-25.9L332.433,237.857z M316.353,251.719l-15.018,10.309l-1.091-1.613l15.01-10.295
				l-7.042-10.272l1.607-1.098l7.042,10.27l15.021-10.305l1.089,1.608l-15.009,10.301l5.229,7.621l12.099-8.299l1.085,1.599
				l-12.084,8.298l3.701,5.414l-1.593,1.096l-3.717-5.412l-11.648,7.995l-1.1-1.601l11.649-7.996L316.353,251.719z M327.137,293.947
				c-0.893-6.859,0.421-13.936,2.977-20.643c-6.497-0.011-13.304,1.332-19.905,3.909c0.155-0.591,0.216-1.451,0.189-2.086
				c6.675-2.461,13.705-3.707,20.487-3.647c2.88-6.692,6.963-13.06,11.292-18.227c0.526,0.294,1.389,0.598,1.943,0.699
				c-4.307,4.986-8.385,11.113-11.233,17.615c6.198,0.378,12.156,1.967,17.498,4.896l3.802-2.615l1.102,1.604l-26.398,18.102
				l-0.311,0.375L327.137,293.947z M348.657,277.634c-4.989-2.669-10.646-4.061-16.518-4.338c-2.353,5.926-3.65,12.087-3.242,17.9
				L348.657,277.634z M357.811,262.178c3.003,1.441,8.485,3.28,12.832,4.28l-0.607,1.721c-4.453-0.927-9.836-2.601-12.669-3.904
				L357.811,262.178z"/>
			<path class="st71" d="M296.822,300.977l-10.085,9.214l-1.3-1.43l10.08-9.226l-1.541-1.674
				c-3.129-0.234-15.893-1.899-18.845-2.459l0.046-2.225c3.049,0.664,12.271,2.217,17.029,2.762l-22.711-24.87l1.428-1.306
				l23.405,25.604c-3.204-9.053-5.308-20.103-5.048-27.239c0.57,0.209,1.554,0.302,2.176,0.281
				c-0.397,7.712,1.938,20.185,5.83,29.508l10.191-9.312l1.304,1.438l-10.534,9.625l9.22,10.084c2.57-3.444,5.387-6.826,8.028-9.882
				c0.46,0.306,1.07,0.566,1.63,0.788c-5.865,6.987-12.991,16.049-15.614,21.62l-2.179-0.093c1.479-3.161,4.007-6.936,6.936-10.88
				L296.822,300.977z M276.701,337.52l-34.34-37.564l1.437-1.312l3.557,3.905l14.146-12.918l-3.895-4.255l1.44-1.311l34.65,37.91
				L276.701,337.52z M248.669,303.982l28.154,30.788l14.131-12.92l-28.153-30.789L248.669,303.982z"/>
			<path class="st71" d="M222.689,347.97c2.433-4.405,4.917-8.857,7.262-13.155l-10.887-8.792c-1.256-1.013-1.472-1.708-0.975-2.952
				c0.514-1.286,2.206-3.367,4.929-6.762c0.562,0.281,1.248,0.491,2.022,0.595c-2.629,3.05-4.345,5.274-4.882,6.048
				c-0.535,0.778-0.508,1.056,0.123,1.551l10.637,8.587c2.529-4.745,4.963-9.153,6.887-12.59l1.859,0.894
				c-1.921,3.448-4.437,7.943-7.24,12.917l4.219,3.403c-0.781,3.843-0.901,8.577-0.546,12.302l9.083-11.267
				c-0.049-3.552,0.136-7.099,0.67-10.633c0.529-0.011,1.593-0.267,2.24-0.432c-1.165,6.889-1.183,13.937-0.038,20.953
				l10.211-12.654l1.521,1.216l-8.248,10.208l6.817,5.514l6.359-7.875l1.511,1.225l-6.363,7.865l6.263,5.048l-1.221,1.513
				l-6.248-5.047l-4.884,6.042l-1.51-1.223l4.875-6.036l-6.819-5.514l-1.811,2.236c1.263,6.434,3.603,12.813,6.875,18.897
				l-1.694,1.129c-3.15-5.906-5.367-11.906-6.82-17.99l-7.312,9.065l-1.523-1.217l8.38-10.376c-0.553-2.934-0.975-5.933-1.148-8.914
				l-8.836,10.936l-0.141,0.399l-1.61,0.505c-0.827-4.532-0.68-10.355,0.065-14.907l-3.285-2.656l-7.169,13.05L222.689,347.97z
				 M227.835,383.178c-7.845-8.728-13.414-16.756-16.446-25.056c-7.581-1.476-14.658-1.239-20.798,1.367
				c0.026-0.674-0.033-1.567-0.289-2.203c6.129-2.372,12.997-2.679,20.335-1.319c-2.346-7.225-2.719-14.754-1.171-22.967
				c0.532,0.083,1.588,0.065,2.193-0.046c-1.872,8.394-1.333,16.048,1.223,23.539c7.565,1.715,15.625,4.948,23.711,9.323
				c-2.349-4.133-4.213-8.218-5.422-12.04c0.512-0.1,1.569-0.451,2.114-0.702c2.239,8.522,8.465,18.187,15.921,26.97l-1.522,1.345
				c-2.829-3.312-5.387-6.754-7.71-10.169l-13.539,16.774l-1.508-1.219L227.835,383.178z M238.885,369.475
				c-0.107-0.178-0.323-0.345-0.428-0.523c-8.367-4.773-16.759-8.453-24.728-10.313c3.041,7.535,8.253,14.929,15.403,22.928
				L238.885,369.475z"/>
			<path class="st71" d="M158.095,415.227c-1.432-0.851-1.831-1.624-1.455-3.042c0.394-1.471,1.921-4.061,4.595-8.611
				c0.588,0.193,1.435,0.211,2.122,0.231c-2.46,3.909-4.265,6.964-4.71,7.864c-0.484,0.956-0.363,1.411,0.445,1.89l10.602,6.238
				c3.877-11.066,7.96-22.624,11.055-30.902l2.29,0.196c-3.018,7.761-7.565,19.981-11.789,31.627l12.619,7.438l18.63-31.65
				l-9.849-5.806c-5.598-3.287-12.1-8.442-13.642-17.429c0.538,0.014,1.509-0.199,1.978-0.46
				c1.449,8.472,7.397,13.135,12.706,16.254l11.471,6.748l-20.604,34.991L158.095,415.227z M176.229,414.886
				c5.317-3.87,13.667-12.144,19.523-19.174l1.04,1.394c-5.675,7.134-13.942,15.384-19.187,19.279L176.229,414.886z
				 M213.146,416.136c-1.545-5.422-2.711-10.692-3.357-15.656l-15.949,30.903c3.658-1.334,7.483-2.962,10.843-4.566l0.172,1.81
				c-6.678,3.295-15.482,6.652-20.733,7.661l-0.411-1.937c2.037-0.432,4.729-1.182,7.615-2.122
				c16.453-32.154,17.701-34.671,17.995-36.36c0.526,0.151,1.629,0.417,2.338,0.513c-0.492,1.107-0.21,3.524,0.363,6.503
				c0.295,1.738,1.19,5.903,2.55,10.825l9.981-16.948l1.671,0.984l-10.96,18.616c1.004,3.311,2.166,6.871,3.524,10.229l-1.903,1.133
				c-1.026-3.014-2.066-6.118-2.976-9.056l-17.141,29.104l-1.68-0.973L213.146,416.136z"/>
		</g>
	</g>
	<g>
		<g>
			<path class="st67" d="M240.479,801.975c0-127.552,83.071-241.62,205.479-279.998l1.957,6.249
				c-123.405,38.69-205.98,156.249-200.646,285.442c3.11,76.565,35.855,147.33,92.194,199.267
				c56.345,51.938,129.543,78.82,206.112,75.695c76.549-3.111,147.31-35.851,199.247-92.197
				c51.936-56.347,78.801-129.551,75.698-206.095c-0.135-3.3-0.323-6.58-0.565-9.85l6.53-0.486c0.249,3.34,0.445,6.697,0.579,10.071
				c3.226,78.232-24.301,153.164-77.426,210.798c-53.124,57.636-125.5,91.122-203.795,94.301
				c-78.315,3.196-153.188-24.3-210.82-77.426c-57.623-53.119-91.119-125.5-94.302-203.807
				C240.561,809.938,240.479,805.95,240.479,801.975z"/>
		</g>
		<g>
			<path class="st67" d="M802.054,745.031l2.75-0.473l1.549,9.056l29.882-5.085l0.505,3.007l-29.882,5.085l1.535,9.004l-2.756,0.475
				L802.054,745.031z"/>
			<path class="st67" d="M817.481,725.942l1.527,5.729l13.003-3.46l0.78,2.949l-31.984,8.512l-1.926-7.209
				c-0.991-3.739-0.889-6.76,0.308-9.057c1.209-2.309,3.358-3.868,6.452-4.688c2.169-0.512,4.184-0.401,6.038,0.321
				c1.849,0.724,3.346,2.058,4.472,3.997l11.256-12.094l0.933,3.512L817.481,725.942z M816.394,732.38l-1.382-5.179
				c-0.613-2.341-1.745-3.979-3.383-4.894c-1.631-0.927-3.415-1.125-5.341-0.613c-4.656,1.24-6.28,4.482-4.886,9.739l1.228,4.605
				L816.394,732.38z"/>
			<path class="st67" d="M816.528,681.203l-7.445,6.223l5.251,13.674l9.722-0.32l1.177,3.063l-35.093,0.973l-1.58-4.131
				l26.784-22.557L816.528,681.203z M811.481,701.189l-4.604-11.966l-15.151,12.624
				C795.723,701.636,802.304,701.413,811.481,701.189z"/>
			<path class="st67" d="M781.844,684.477l-4.399-8.346c-2.245-4.291-2.764-8.512-1.542-12.677c1.21-4.143,3.979-7.36,8.302-9.637
				c5.711-3,11.053-3.07,16.034-0.217c2.622,1.477,4.753,3.779,6.408,6.899l4.496,8.576L781.844,684.477z M807.247,667.677
				l-3.088-5.865c-1.05-2.003-2.322-3.589-3.826-4.76c-1.514-1.163-3.089-1.898-4.751-2.167c-3.32-0.552-6.639,0.046-9.938,1.785
				c-3.301,1.732-5.532,4.322-6.709,7.776c-1.157,3.434-0.838,6.901,0.99,10.38l2.981,5.646L807.247,667.677z"/>
			<path class="st67" d="M771.624,627.237l-17.032,11.716l-1.733-2.508l16.962-11.658c3.505-2.411,6.74-3.39,9.702-2.918
				c2.968,0.455,5.506,2.232,7.617,5.309c2.116,3.071,2.878,6.063,2.289,8.949c-0.595,2.898-2.582,5.508-5.959,7.828l-17.275,11.882
				l-1.721-2.513l17.235-11.852c2.731-1.887,4.292-3.901,4.688-6.063c0.397-2.16-0.147-4.342-1.656-6.522
				C781.422,624.06,777.048,623.501,771.624,627.237z"/>
			<path class="st67" d="M764.333,594.72c0.249-0.989,0.972-2.013,2.154-3.043c1.19-1.036,2.618-1.478,4.312-1.344
				c1.682,0.146,3.306,1.036,4.86,2.682l-1.815,1.579c-2.092-1.958-3.927-2.259-5.507-0.876c-0.914,0.797-1.599,1.887-2.041,3.272
				L764.333,594.72z M739.71,616.938c2.494,2.866,5.539,4.413,9.146,4.638c3.601,0.231,7.004-1.049,10.194-3.817
				c3.178-2.771,4.925-5.956,5.232-9.536c0.307-3.588-0.908-6.953-3.64-10.087c-2.124-2.455-4.534-3.934-7.246-4.445l2.525-2.192
				c2.373,0.582,4.708,2.199,7.011,4.834c3.287,3.78,4.796,7.829,4.515,12.16c-0.274,4.321-2.36,8.171-6.241,11.555
				c-3.896,3.392-8.065,4.907-12.491,4.548c-4.432-0.352-8.187-2.295-11.256-5.833c-2.13-2.442-3.513-4.924-4.151-7.464l2.405-2.085
				c0.377,1.581,0.825,2.892,1.323,3.934C737.522,614.196,738.417,615.45,739.71,616.938z"/>
			<path class="st67" d="M733.621,568.075l-3.882,8.905l10.796,9.888l8.557-4.625l2.424,2.226l-30.967,16.521l-3.263-2.987
				l13.91-32.146L733.621,568.075z M738.016,588.23l-9.454-8.661l-7.931,18.055C724.117,595.656,729.912,592.526,738.016,588.23z
				 M713.379,600.306c0.606,0.555,1.196,1.598,1.765,3.131c0.562,1.537,1.043,2.483,1.427,2.841
				c1.011,0.935,2.374,1.075,4.055,0.442l0.308,2.289c-0.955,0.41-1.971,0.564-3.038,0.447c-1.075-0.114-1.971-0.492-2.674-1.157
				c-0.724-0.646-1.343-1.726-1.894-3.249c-0.537-1.516-1.022-2.476-1.464-2.873c-0.717-0.663-1.797-0.69-3.23-0.106l-0.601-2.399
				C710.175,598.787,711.959,598.999,713.379,600.306z"/>
			<path class="st67" d="M713.052,551.685c3.595,2.57,5.571,5.904,5.923,9.991c0.352,4.086-0.99,8.236-4.003,12.445
				c-3.032,4.213-6.511,6.822-10.432,7.814c-3.914,0.998-7.707,0.178-11.378-2.456c-3.678-2.634-5.654-5.947-5.948-9.918
				c-0.28-3.986,1.107-8.111,4.17-12.371c3.063-4.265,6.543-6.899,10.444-7.891C705.722,548.301,709.465,549.101,713.052,551.685z
				 M694.896,577.102c2.916,2.085,5.922,2.704,9.019,1.842c3.094-0.858,5.921-3.07,8.479-6.64c2.565-3.562,3.735-6.97,3.524-10.252
				c-0.205-3.274-1.747-5.942-4.618-8.008c-2.871-2.064-5.839-2.646-8.89-1.771c-3.063,0.901-5.891,3.153-8.473,6.755
				c-2.586,3.594-3.808,6.997-3.641,10.169C690.451,572.375,691.985,575.009,694.896,577.102z"/>
			<path class="st67" d="M656.169,519.239l1.983,5.007c3.468-1.342,7.188-1.028,11.191,0.916c2.144,1.062,3.883,2.405,5.246,3.991
				c1.354,1.58,2.174,3.356,2.442,5.308c0.269,1.958-0.102,3.966-1.12,6.063c-0.926,1.842-2.211,3.351-3.869,4.54
				c-1.65,1.184-3.402,1.899-5.281,2.162c0.273,1.766,0,3.492-0.819,5.168c-0.697,1.438-1.67,2.604-2.923,3.49
				c-1.247,0.885-2.675,1.377-4.299,1.484c-1.61,0.104-3.279-0.248-4.988-1.086c-1.349-0.658-2.494-1.413-3.434-2.264
				c-0.927-0.858-1.842-1.868-2.731-3.025l2.552-2.092c0.153,0.186,0.454,0.557,0.884,1.089c0.429,0.541,0.952,1.092,1.566,1.662
				c0.62,0.569,1.483,1.131,2.609,1.668c1.464,0.717,2.884,0.819,4.233,0.327c1.356-0.513,2.348-1.401,2.955-2.661
				c0.633-1.305,0.851-2.57,0.652-3.812s-0.755-3.058-1.675-5.436l-4.739-12.39c-2.021,1.529-3.89,3.781-5.63,6.761l-2.296-2.48
				c1.888-3.423,4.036-6.013,6.467-7.791l-2.016-5.072L656.169,519.239z M659.495,527.681l5.488,13.872
				c0.44,1.119,0.722,1.932,0.851,2.426c1.311-0.153,2.539-0.69,3.683-1.568c1.132-0.882,2.079-2.06,2.821-3.524
				c1.087-2.23,1.151-4.31,0.193-6.229c-0.954-1.924-2.515-3.403-4.67-4.451C664.894,526.754,662.099,526.588,659.495,527.681z"/>
			<path class="st67" d="M627.728,511.903l-14.223-4.367l0.812-2.661l17.14,5.244l-9.703,31.652l-16.865-5.161l0.825-2.687
				l13.942,4.279l3.633-11.827l-12.298-3.785l0.819-2.666l12.299,3.772L627.728,511.903z"/>
			<path class="st67" d="M604.308,502.228l-6.274,32.509l-4.094-0.8l-11.87-32.35c-0.589,3.357-1.521,8.43-2.832,15.209
				l-2.668,13.802l-2.98-0.58l6.261-32.504l4.104,0.787l11.871,32.348c0.596-3.473,1.548-8.563,2.841-15.259l2.648-13.746
				L604.308,502.228z"/>
			<path class="st67" d="M555.45,525.551c2.188,0.181,3.98-0.191,5.367-1.111c1.388-0.929,2.15-2.232,2.29-3.934
				c0.147-1.766-0.492-3.224-1.906-4.389c-1.139-0.983-2.482-1.873-4.022-2.671c-1.542-0.801-2.61-1.357-3.166-1.678
				c-0.569-0.331-1.285-0.824-2.143-1.496c-0.87-0.651-1.51-1.279-1.926-1.873c-1.113-1.605-1.593-3.378-1.439-5.342
				c0.243-2.877,1.375-4.995,3.429-6.344c2.045-1.362,4.668-1.912,7.873-1.655c3.192,0.261,5.929,1.208,8.188,2.838l-0.27,3.372
				c-0.921-0.82-2.13-1.549-3.646-2.162c-1.503-0.627-3.242-1.012-5.207-1.165c-1.949-0.166-3.619,0.219-4.994,1.121
				c-1.362,0.9-2.117,2.186-2.258,3.861c-0.134,1.658,0.256,2.968,1.158,3.934c0.997,1.069,2.903,2.334,5.704,3.806
				c2.622,1.401,4.177,2.347,4.668,2.857c0.507,0.499,1.006,1.011,1.484,1.549c0.48,0.523,0.818,1.048,1.004,1.555
				c0.506,1.388,0.723,2.699,0.615,3.945c-0.225,2.771-1.389,4.855-3.518,6.249c-2.111,1.383-4.573,1.963-7.38,1.732
				c-2.802-0.229-5.085-0.895-6.831-2.041l0.275-3.362c0.741,0.569,1.734,1.099,2.982,1.567
				C553.02,525.173,554.242,525.462,555.45,525.551z"/>
			<path class="st67" d="M538.489,494.347l-0.319,33.11l-3.039-0.032l0.313-33.109L538.489,494.347z"/>
			<path class="st67" d="M523.55,494.258l2.454,33.027l-4.163,0.301l-19.929-28.114c0.321,3.388,0.742,8.529,1.254,15.418
				l1.043,14.006l-3.038,0.232l-2.456-33.021l4.156-0.308l19.929,28.115c-0.331-3.51-0.748-8.679-1.253-15.463l-1.036-13.962
				L523.55,494.258z"/>
			<path class="st67" d="M473.534,499.924c4.337-0.87,8.111-0.024,11.335,2.501c3.223,2.526,5.347,6.339,6.356,11.437
				c1.018,5.085,0.551,9.389-1.392,12.938c-1.951,3.557-5.145,5.756-9.582,6.652c-4.427,0.876-8.191,0.063-11.295-2.43
				c-3.108-2.516-5.161-6.346-6.19-11.494c-1.031-5.161-0.57-9.503,1.353-13.021C466.066,502.981,469.192,500.788,473.534,499.924z
				 M479.701,530.553c3.523-0.702,6.019-2.475,7.509-5.339c1.482-2.842,1.803-6.422,0.94-10.727
				c-0.858-4.304-2.554-7.503-5.086-9.58c-2.533-2.086-5.539-2.783-9.012-2.078c-3.457,0.684-5.915,2.448-7.361,5.294
				c-1.424,2.835-1.72,6.441-0.85,10.79c0.87,4.349,2.514,7.554,4.944,9.605C473.223,530.56,476.191,531.236,479.701,530.553z"/>
		</g>
	</g>
	<path class="st6" d="M-72.677,360.321C-288.932,374.304-475.559,210.312-489.539-5.944
		c-13.98-216.263,149.997-402.888,366.255-416.861C92.951-436.793,279.621-272.809,293.602-56.572
		C307.59,159.684,143.579,346.341-72.677,360.321z"/>
	<g>
		<g>
			<g>
				<g>
					<path d="M475.237,1009.116l9.765,5.726l-3.095,5.3l-15.826-9.276l15.517-26.435l6.036,3.538L475.237,1009.116z"/>
				</g>
				<g>
					<path d="M508.81,1031.137l0.414-6.531l-10.08-3.697l-3.909,5.24l-6.879-2.516l20.161-25.255l8.288,3.04l-0.95,32.297
						L508.81,1031.137z M502.668,1016.19l6.915,2.53c0.484-7.211,0.893-11.904,1.245-14.08
						C510.195,1005.832,507.473,1009.686,502.668,1016.19z"/>
				</g>
				<g>
					<path d="M542.398,1026.514l3.017-18.58l6.912,1.12l-3.003,18.542c-0.645,3.952-2.243,6.785-4.791,8.511
						c-2.553,1.716-5.702,2.276-9.448,1.667c-3.732-0.604-6.554-2.116-8.469-4.559c-1.909-2.42-2.559-5.522-1.944-9.302
						l3.057-18.846l6.914,1.118l-3.053,18.811c-0.608,3.746,0.882,5.896,4.476,6.479
						C539.658,1032.07,541.768,1030.406,542.398,1026.514z"/>
				</g>
				<g>
					<path d="M565.896,1029.056l0.348,10.627l-7.004,0.231l-1.004-30.645l10.597-0.338c3.418-0.109,6.202,0.707,8.338,2.457
						c2.128,1.75,3.251,4.083,3.345,6.991c0.145,4.364-1.619,7.442-5.298,9.229l8.16,11.529l-8.365,0.268l-6.981-10.422
						L565.896,1029.056z M565.423,1014.732l0.281,8.633l3.318-0.109c3.04-0.099,4.5-1.63,4.402-4.596
						c-0.035-1.302-0.463-2.325-1.283-3.03c-0.813-0.716-1.89-1.058-3.257-1.009L565.423,1014.732z"/>
				</g>
				<g>
					<path d="M610.905,1033.714l-3.203-5.715l-10.467,2.347l-0.446,6.54l-7.143,1.594l3.275-32.149l8.603-1.934l16.696,27.673
						L610.905,1033.714z M597.645,1024.482l7.182-1.615c-3.501-6.336-5.685-10.505-6.573-12.512
						C598.369,1011.703,598.164,1016.411,597.645,1024.482z"/>
				</g>
				<g>
					<path d="M656.966,984.357l-9.776,6.311l4.286,6.64l8.524-5.494l3.039,4.703l-8.529,5.498l6.267,9.701l-5.919,3.833
						l-16.622-25.756l15.698-10.139L656.966,984.357z"/>
				</g>
				<g>
					<path d="M680.154,990.169l8.887-8.071l3.765,4.133l-14.098,12.828l-20.629-22.675l13.958-12.707l3.77,4.146l-8.742,7.951
						l4.683,5.144l7.805-7.089l3.728,4.098l-7.803,7.103L680.154,990.169z M664.31,956.94l1.683,9.35l-4.065,3.709l-2.528-8.584
						L664.31,956.94z"/>
				</g>
				<g>
					<path d="M699.566,969.134l7.089-8.84l4.795,3.856l-11.478,14.286l-23.899-19.199l4.378-5.448L699.566,969.134z"/>
				</g>
				<g>
					<path d="M716.061,956.914l-26.081-16.124l3.684-5.956l26.073,16.109L716.061,956.914z"/>
				</g>
				<g>
					<path d="M721.423,926.492l6.669,8.694l-3.339,7.783l-10.48-15.041l-17.521,2.539l3.214-7.477l10.24-1.155l-6.316-8.002
						l3.371-7.867l10.265,14.496l18.136-2.954l-3.271,7.646L721.423,926.492z"/>
				</g>
				<g>
					<path d="M714.449,862.499l5.61,0.537l-0.697,7.427l24.901,2.348l-0.662,7.014l-24.903-2.347l-0.709,7.479l-5.607-0.536
						L714.449,862.499z"/>
				</g>
				<g>
					<path d="M738.852,848.768l-0.868-11.973l5.582-0.4l1.374,18.998l-30.568,2.214l-1.369-18.83l5.581-0.394l0.857,11.788
						l6.942-0.499l-0.765-10.518l5.533-0.406l0.764,10.523L738.852,848.768z"/>
				</g>
				<g>
					<path d="M741.716,825.986l-30.015,6.189l-1.422-6.858l30.02-6.189L741.716,825.986z"/>
				</g>
				<g>
					<path d="M724.724,800.196l10.816,1.739l2.918,7.939l-17.937-3.719l-10.985,13.885l-2.814-7.642l6.656-7.873l-10.093-1.472
						l-2.953-8.025l17.419,3.468l11.144-14.611l2.874,7.812L724.724,800.196z"/>
				</g>
				<g>
					<path d="M715.806,771.841l-6.147-10.312l4.803-2.869l9.759,16.373l-26.333,15.697l-9.666-16.215l4.812-2.869l6.053,10.165
						l5.979-3.561l-5.406-9.067l4.772-2.845l5.405,9.064L715.806,771.841z"/>
				</g>
				<g>
					<path d="M708,750.015l-24.029,19.024l-4.347-5.491l24.029-19.028L708,750.015z"/>
				</g>
				<g>
					<path d="M683.904,738.616l7.32-7.728l5.088,4.816l-21.076,22.257l-7.698-7.29c-2.492-2.346-3.859-4.9-4.116-7.647
						c-0.254-2.75,0.614-5.187,2.614-7.297c2.999-3.173,6.433-4.079,10.282-2.729l2.449-13.903l6.079,5.757l-2.49,12.293
						L683.904,738.616z M674.058,749.018l5.938-6.274l-2.414-2.285c-2.194-2.081-4.32-2.043-6.364,0.109
						c-0.899,0.949-1.314,1.964-1.248,3.046c0.062,1.082,0.583,2.098,1.576,3.034L674.058,749.018z"/>
				</g>
				<g>
					<path d="M655.561,703.341l-1.816,6.286l9.04,5.798l4.948-4.274l6.171,3.951l-25.17,20.272l-7.422-4.76l7.94-31.324
						L655.561,703.341z M658.316,719.264l-6.197-3.979c-2.049,6.946-3.464,11.432-4.266,13.476
						C648.715,727.733,652.218,724.566,658.316,719.264z"/>
				</g>
			</g>
		</g>
		<g>
			<path d="M460.46,988.747"/>
		</g>
		<g>
			<g>
				<path d="M564.262,689.869c-93.358,0-169.322,75.965-169.322,169.324c0,51.614,23.127,99.764,63.426,132.121l3.389-5.791
					c-38.259-31.078-60.189-77.063-60.189-126.33c0-89.71,72.98-162.706,162.697-162.706c23.201,0,45.49,4.759,66.386,14.127
					l3.367-5.746C612.078,694.921,588.655,689.869,564.262,689.869z"/>
			</g>
		</g>
	</g>
	<line class="st63" x1="175.274" y1="919.518" x2="247.929" y2="913.455"/>
	<line class="st63" x1="169.261" y1="902.744" x2="241.917" y2="896.672"/>
	<path class="st6" d="M1293.558,610.664c-216.255,13.982-402.881-150.009-416.862-366.266
		c-13.98-216.263,149.997-402.887,366.255-416.861c216.235-13.987,402.905,149.997,416.886,366.233
		C1673.825,410.026,1509.813,596.684,1293.558,610.664z"/>
</g>
</svg>
